<?xml version="1.0" encoding="utf-8"?>
<!-- Generator: Adobe Illustrator 16.0.0, SVG Export Plug-In . SVG Version: 6.00 Build 0)  -->
<!DOCTYPE svg PUBLIC "-//W3C//DTD SVG 1.1//EN" "http://www.w3.org/Graphics/SVG/1.1/DTD/svg11.dtd">
<svg version="1.1" id="Layer_1" xmlns="http://www.w3.org/2000/svg" xmlns:xlink="http://www.w3.org/1999/xlink" x="0px" y="0px"
	 width="702.782px" height="851.07px" viewBox="160.609 32.609 702.782 851.07"
	 enable-background="new 160.609 32.609 702.782 851.07" xml:space="preserve">
<g>
	<path d="M571.877,366.571l67.748-67.749V510.36c0,10.401,8.012,17.288,17.289,17.288c9.276,0,16.022-8.012,16.022-16.023V257.359
		c0-6.887-3.514-13.775-10.4-16.023c-5.763-2.249-13.774,0-18.413,4.638l-96.562,96.562c-6.887,5.763-6.887,17.288,0,24.176
		C553.464,373.458,564.99,373.458,571.877,366.571z"/>
	<path d="M570.753,460.885c6.887-5.764,6.887-17.289,0-24.176L379.877,245.974c-4.638-5.763-11.525-6.887-18.413-4.638
		c-5.763,3.514-10.401,9.136-10.401,16.023V510.22c0,10.401,8.012,17.288,17.289,17.288c9.276,0,17.288-8.012,17.288-16.023V298.823
		l160.797,162.062C552.34,467.771,563.865,467.771,570.753,460.885z"/>
</g>
<path d="M863.391,384c0-194.249-157.142-351.391-351.391-351.391S160.609,189.751,160.609,384S319.016,735.391,512,735.391
	C706.249,735.391,863.391,578.249,863.391,384z M198.981,385.265c0-172.041,139.854-313.019,313.019-313.019
	c173.165,0,314.284,141.119,314.284,313.019c0,171.9-142.243,313.02-314.284,313.02S198.981,557.165,198.981,385.265z"/>
<g>
	<path d="M265.536,782.052v99.92H245.47v-52.49l-24.657,31.071h-6.532l-24.657-31.071v52.49H169.5v-99.92h6.532l41.486,53.255
		l41.486-53.255H265.536z"/>
	<path d="M350.333,851.902h-51.726c1.295,4.648,3.766,8.238,7.355,10.769c3.648,2.53,8.121,3.766,13.477,3.766
		c7.237,0,14.063-2.472,20.537-7.414l8.356,13.652c-8.709,7.356-18.537,11.004-29.423,11.004c-11.593,0-21.185-3.708-28.834-11.063
		c-7.65-7.414-11.475-16.535-11.475-27.423c0-10.827,3.708-19.947,11.062-27.361c7.356-7.416,16.536-11.123,27.422-11.123
		c10.18,0,18.537,3.295,24.951,9.827c6.414,6.533,9.65,14.653,9.65,24.362C351.686,844.486,351.275,848.135,350.333,851.902z
		 M305.139,826.951c-3.178,2.648-5.355,6.297-6.532,10.827h33.601c-0.118-4.53-1.707-8.179-4.766-10.827
		c-3.061-2.708-6.768-4.061-11.122-4.061C312.024,822.891,308.317,824.243,305.139,826.951z"/>
	<path d="M424.243,814.829c4.943,5.354,7.415,12.533,7.415,21.479v45.664h-19.949v-42.957c0-4.238-1.294-7.709-3.825-10.357
		c-2.531-2.648-5.826-3.941-9.886-3.941c-4.061,0-7.415,1.293-10.004,3.941c-2.647,2.648-3.942,6.062-3.942,10.357v42.957h-20.066
		v-73.557h18.418v6.649c5.531-5.531,12.71-8.298,21.538-8.298C412.533,806.708,419.241,809.415,424.243,814.829z"/>
	<path d="M467.73,881.972h-20.066V770.46h20.066V881.972z"/>
	<path d="M547.524,817.771c7.709,7.414,11.593,16.477,11.593,27.304c0,10.769-3.884,19.948-11.593,27.364
		c-7.708,7.414-17.065,11.12-28.069,11.12c-11.003,0-20.302-3.706-27.892-11.062c-7.591-7.354-11.357-16.534-11.357-27.422
		c0-10.768,3.825-19.89,11.475-27.304c7.65-7.356,16.947-11.063,27.951-11.063C530.519,806.708,539.816,810.415,547.524,817.771z
		 M505.92,830.717c-3.589,3.825-5.354,8.65-5.354,14.535c0,5.826,1.765,10.592,5.354,14.3c3.531,3.707,8.121,5.591,13.652,5.591
		c5.473,0,10.004-1.884,13.594-5.65c3.648-3.767,5.414-8.531,5.414-14.24c0-5.768-1.766-10.593-5.414-14.476
		c-3.648-3.825-8.18-5.825-13.594-5.825C514.041,825.009,509.51,826.894,505.92,830.717z"/>
	<path d="M690.696,796.882c9.828,9.709,14.712,21.713,14.712,35.954c0,14.182-4.884,26.127-14.712,35.896
		c-9.827,9.769-21.714,14.653-35.661,14.653c-14.064,0-25.951-4.885-35.659-14.653c-9.71-9.769-14.535-21.714-14.535-35.896
		c0-14.241,4.825-26.245,14.535-35.954c9.708-9.71,21.596-14.535,35.659-14.535C668.982,782.347,680.869,787.172,690.696,796.882z
		 M624.966,801.884c-8.003,8.238-12.063,18.534-12.063,30.833s4.001,22.598,12.063,30.896c8.003,8.356,18.065,12.476,30.188,12.476
		c12.005,0,22.009-4.179,30.012-12.476c8.003-8.355,12.062-18.654,12.062-30.896c0-12.18-4.06-22.478-12.121-30.775
		c-8.062-8.355-18.065-12.476-29.953-12.476C643.031,789.466,632.969,793.586,624.966,801.884z"/>
	<path d="M767.195,816.358c4.649,5.179,7.004,11.888,7.004,20.243v45.37h-7.415v-44.899c0-6.355-1.825-11.475-5.414-15.418
		c-3.648-4-8.533-5.942-14.653-5.942c-6.237,0-11.356,2-15.418,6.06c-4,4.061-6.001,9.18-6.001,15.301v44.899h-7.414v-71.85h7.12
		v9.649c5.237-7.414,12.887-11.122,22.891-11.122C756.074,808.649,762.547,811.238,767.195,816.358z"/>
	<path d="M853.816,847.723h-59.904c0.411,8.416,3.354,15.301,8.827,20.656c5.473,5.354,12.357,8.062,20.595,8.062
		c9.534,0,17.477-3.766,23.95-11.298l4.768,4.942c-7.651,8.886-17.242,13.357-28.836,13.357c-10.415,0-19.184-3.589-26.363-10.768
		c-7.178-7.18-10.768-16.064-10.768-26.54c0-10.356,3.531-19.241,10.533-26.538c7.002-7.299,15.594-10.947,25.717-10.947
		c9.002,0,16.651,2.943,22.831,8.828c6.178,5.885,9.297,13.593,9.297,23.126C854.404,843.781,854.229,846.194,853.816,847.723z
		 M803.444,822.714c-5.178,4.826-8.238,10.945-9.238,18.361h52.49c0.294-7.769-2.001-13.947-6.826-18.597
		c-4.885-4.647-10.828-7.003-17.83-7.003C814.802,815.476,808.564,817.889,803.444,822.714z"/>
</g>
</svg>
