<?xml version="1.0" encoding="utf-8"?>
<!-- Generator: Adobe Illustrator 22.0.1, SVG Export Plug-In . SVG Version: 6.00 Build 0)  -->
<svg version="1.1" id="Layer_1" xmlns="http://www.w3.org/2000/svg" xmlns:xlink="http://www.w3.org/1999/xlink" x="0px" y="0px"
	 viewBox="0 0 546.4 546.4" style="enable-background:new 0 0 546.4 546.4;" xml:space="preserve">
<g>
	<path d="M315.8,260.8l48.2-48.2v150.5c0,7.4,5.7,12.3,12.3,12.3s11.4-5.7,11.4-11.4V183.1c0-4.9-2.5-9.8-7.4-11.4
		c-4.1-1.6-9.8,0-13.1,3.3l-68.7,68.7c-4.9,4.1-4.9,12.3,0,17.2C302.7,265.7,310.9,265.7,315.8,260.8z"/>
	<path d="M315,327.9c4.9-4.1,4.9-12.3,0-17.2L179.2,175c-3.3-4.1-8.2-4.9-13.1-3.3c-4.1,2.5-7.4,6.5-7.4,11.4V363
		c0,7.4,5.7,12.3,12.3,12.3s12.3-5.7,12.3-11.4V212.6l114.4,115.3C301.9,332.8,310.1,332.8,315,327.9z"/>
</g>
<path d="M523.2,273.2c0-138.2-111.8-250-250-250s-250,111.8-250,250s112.7,250,250,250C411.4,523.2,523.2,411.4,523.2,273.2z
	 M50.5,274.1c0-122.4,99.5-222.7,222.7-222.7s223.6,100.4,223.6,222.7S395.6,496.8,273.2,496.8S50.5,396.4,50.5,274.1z"/>
</svg>
