<?xml version="1.0" encoding="utf-8"?>
<!-- Generator: Adobe Illustrator 16.0.0, SVG Export Plug-In . SVG Version: 6.00 Build 0)  -->
<!DOCTYPE svg PUBLIC "-//W3C//DTD SVG 1.1//EN" "http://www.w3.org/Graphics/SVG/1.1/DTD/svg11.dtd">
<svg version="1.1" id="Layer_1" xmlns="http://www.w3.org/2000/svg" xmlns:xlink="http://www.w3.org/1999/xlink" x="0px" y="0px"
	 width="702.782px" height="702.782px" viewBox="160.609 32.609 702.782 702.782"
	 enable-background="new 160.609 32.609 702.782 702.782" xml:space="preserve">
<g>
	<path d="M571.877,366.571l67.748-67.749V510.36c0,10.4,8.012,17.289,17.289,17.289c9.275,0,16.021-8.014,16.021-16.023V257.359
		c0-6.887-3.514-13.775-10.4-16.023c-5.762-2.249-13.773,0-18.412,4.638l-96.562,96.562c-6.887,5.763-6.887,17.289,0,24.175
		C553.463,373.458,564.991,373.458,571.877,366.571z"/>
	<path d="M570.752,460.885c6.887-5.764,6.887-17.289,0-24.176L379.877,245.974c-4.639-5.763-11.525-6.887-18.414-4.638
		c-5.762,3.514-10.4,9.136-10.4,16.023v252.86c0,10.402,8.012,17.289,17.289,17.289c9.275,0,17.288-8.012,17.288-16.023V298.823
		l160.798,162.062C552.34,467.772,563.866,467.772,570.752,460.885z"/>
</g>
<path d="M863.391,384c0-194.25-157.143-351.392-351.391-351.392c-194.25,0-351.392,157.142-351.392,351.392
	c0,194.248,158.407,351.391,351.392,351.391C706.249,735.391,863.391,578.249,863.391,384z M198.981,385.264
	c0-172.04,139.854-313.018,313.02-313.018c173.164,0,314.283,141.119,314.283,313.018c0,171.9-142.242,313.021-314.283,313.021
	C339.959,698.286,198.981,557.165,198.981,385.264z"/>
</svg>
