<?xml version="1.0" encoding="utf-8"?>
<!-- Generator: Adobe Illustrator 16.0.0, SVG Export Plug-In . SVG Version: 6.00 Build 0)  -->
<!DOCTYPE svg PUBLIC "-//W3C//DTD SVG 1.1//EN" "http://www.w3.org/Graphics/SVG/1.1/DTD/svg11.dtd">
<svg version="1.1" id="Layer_1" xmlns="http://www.w3.org/2000/svg" xmlns:xlink="http://www.w3.org/1999/xlink" x="0px" y="0px"
	 width="876.746px" height="144.92px" viewBox="73.665 311.54 876.746 144.92"
	 enable-background="new 73.665 311.54 876.746 144.92" xml:space="preserve">
<g>
	<path d="M196.59,326.379v127.896h-25.685v-67.188l-31.56,39.771h-8.361l-31.56-39.771v67.188h-25.76V326.379h8.361l53.102,68.166
		l53.102-68.166H196.59z"/>
	<path d="M305.129,415.786h-66.208c1.657,5.95,4.82,10.545,9.415,13.783c4.67,3.239,10.395,4.821,17.249,4.821
		c9.264,0,18.001-3.164,26.287-9.491l10.696,17.475c-11.148,9.416-23.727,14.086-37.661,14.086
		c-14.838,0-27.116-4.746-36.908-14.161c-9.792-9.49-14.688-21.165-14.688-35.1c0-13.859,4.745-25.534,14.16-35.024
		c9.416-9.491,21.166-14.236,35.1-14.236c13.031,0,23.727,4.218,31.937,12.579c8.21,8.36,12.353,18.755,12.353,31.183
		C306.861,406.295,306.334,410.965,305.129,415.786z M247.281,383.85c-4.067,3.39-6.854,8.06-8.36,13.859h43.009
		c-0.151-5.8-2.185-10.47-6.101-13.859c-3.917-3.465-8.662-5.197-14.236-5.197C256.094,378.652,251.349,380.385,247.281,383.85z"/>
	<path d="M399.732,368.333c6.327,6.854,9.491,16.044,9.491,27.492v58.45h-25.534V399.29c0-5.423-1.657-9.867-4.896-13.257
		c-3.239-3.389-7.457-5.046-12.654-5.046c-5.197,0-9.49,1.657-12.805,5.046c-3.389,3.39-5.046,7.759-5.046,13.257v54.985h-25.685
		v-94.152h23.576v8.512c7.08-7.081,16.27-10.621,27.568-10.621C384.744,357.938,393.331,361.403,399.732,368.333z"/>
	<path d="M455.396,454.275h-25.685V311.54h25.685V454.275z"/>
	<path d="M557.532,372.1c9.867,9.49,14.838,21.09,14.838,34.949c0,13.783-4.971,25.533-14.838,35.024
		c-9.867,9.49-21.844,14.235-35.929,14.235s-25.986-4.745-35.702-14.16c-9.717-9.415-14.537-21.165-14.537-35.1
		c0-13.784,4.896-25.459,14.688-34.949c9.792-9.416,21.692-14.161,35.777-14.161C535.764,357.938,547.665,362.684,557.532,372.1z
		 M504.279,388.67c-4.595,4.896-6.854,11.072-6.854,18.604c0,7.457,2.259,13.558,6.854,18.304c4.52,4.745,10.395,7.155,17.475,7.155
		c7.005,0,12.805-2.41,17.399-7.231c4.67-4.82,6.93-10.921,6.93-18.228c0-7.382-2.26-13.558-6.93-18.529
		c-4.67-4.896-10.47-7.457-17.399-7.457C514.674,381.363,508.874,383.774,504.279,388.67z"/>
	<path d="M740.79,345.36c12.579,12.428,18.83,27.793,18.83,46.021c0,18.152-6.251,33.442-18.83,45.946
		c-12.579,12.503-27.794,18.755-45.646,18.755c-18.002,0-33.217-6.252-45.645-18.755c-12.428-12.504-18.604-27.794-18.604-45.946
		c0-18.229,6.177-33.594,18.604-46.021c12.428-12.429,27.644-18.604,45.645-18.604C712.996,326.756,728.211,332.932,740.79,345.36z
		 M656.655,351.763c-10.243,10.545-15.44,23.726-15.44,39.468s5.121,28.924,15.44,39.544c10.244,10.696,23.124,15.969,38.641,15.969
		c15.365,0,28.17-5.348,38.414-15.969c10.243-10.695,15.44-23.877,15.44-39.544c0-15.591-5.197-28.772-15.516-39.393
		c-10.319-10.696-23.124-15.969-38.339-15.969C679.779,335.869,666.899,341.142,656.655,351.763z"/>
	<path d="M838.708,370.291c5.951,6.629,8.964,15.216,8.964,25.911v58.073h-9.49v-57.471c0-8.135-2.336-14.688-6.93-19.734
		c-4.67-5.122-10.922-7.607-18.756-7.607c-7.983,0-14.537,2.561-19.734,7.758c-5.121,5.197-7.683,11.75-7.683,19.584v57.471h-9.49
		v-91.968h9.114v12.353c6.703-9.49,16.495-14.236,29.3-14.236C824.473,360.424,832.758,363.738,838.708,370.291z"/>
	<path d="M949.582,410.438h-76.678c0.527,10.771,4.293,19.584,11.299,26.438c7.005,6.854,15.817,10.319,26.362,10.319
		c12.202,0,22.37-4.821,30.655-14.462l6.102,6.327c-9.792,11.373-22.069,17.098-36.908,17.098c-13.331,0-24.555-4.595-33.744-13.784
		c-9.188-9.188-13.783-20.562-13.783-33.97c0-13.257,4.52-24.63,13.482-33.97c8.963-9.341,19.96-14.011,32.916-14.011
		c11.523,0,21.315,3.767,29.225,11.299c7.908,7.532,11.9,17.399,11.9,29.602C950.335,405.392,950.109,408.479,949.582,410.438z
		 M885.106,378.426c-6.628,6.177-10.545,14.01-11.825,23.501h67.187c0.377-9.942-2.561-17.852-8.737-23.802
		c-6.252-5.95-13.859-8.964-22.822-8.964C899.644,369.161,891.66,372.25,885.106,378.426z"/>
</g>
</svg>
