<?xml version="1.0" encoding="utf-8"?>
<!-- Generator: Adobe Illustrator 16.0.0, SVG Export Plug-In . SVG Version: 6.00 Build 0)  -->
<!DOCTYPE svg PUBLIC "-//W3C//DTD SVG 1.1//EN" "http://www.w3.org/Graphics/SVG/1.1/DTD/svg11.dtd">
<svg version="1.1" id="Layer_1" xmlns="http://www.w3.org/2000/svg" xmlns:xlink="http://www.w3.org/1999/xlink" x="0px" y="0px"
	 width="90px" height="90px" viewBox="467 339 90 90" enable-background="new 467 339 90 90" xml:space="preserve">
<g>
	<path fill="#1C69EE" d="M519.698,381.759l8.711-8.71v27.197c0,1.338,1.03,2.223,2.223,2.223s2.06-1.029,2.06-2.06v-32.691
		c0-0.886-0.451-1.771-1.337-2.061c-0.741-0.289-1.771,0-2.367,0.597l-12.415,12.415c-0.886,0.741-0.886,2.223,0,3.108
		C517.331,382.645,518.813,382.645,519.698,381.759z"/>
	<path fill="#1C69EE" d="M519.554,393.885c0.886-0.74,0.886-2.223,0-3.107l-24.541-24.523c-0.596-0.741-1.482-0.886-2.367-0.597
		c-0.741,0.452-1.337,1.175-1.337,2.061v32.511c0,1.337,1.03,2.223,2.223,2.223c1.193,0,2.223-1.03,2.223-2.061v-27.342
		l20.674,20.836C517.187,394.771,518.668,394.771,519.554,393.885z"/>
</g>
<path fill="#1C69EE" d="M557,384c0-24.876-20.124-45-45-45s-45,20.124-45,45s20.286,45,45,45C536.876,429,557,408.876,557,384z
	 M471.914,384.162c0-22.032,17.91-40.086,40.086-40.086s40.248,18.072,40.248,40.086c0,22.014-18.216,40.086-40.248,40.086
	S471.914,406.176,471.914,384.162z"/>
</svg>
