<?xml version="1.0" encoding="utf-8"?>
<!-- Generator: Adobe Illustrator 22.0.1, SVG Export Plug-In . SVG Version: 6.00 Build 0)  -->
<svg version="1.1" id="Layer_1" xmlns="http://www.w3.org/2000/svg" xmlns:xlink="http://www.w3.org/1999/xlink" x="0px" y="0px"
	 viewBox="0 0 1359.5 546.4" style="enable-background:new 0 0 1359.5 546.4;" xml:space="preserve">
<g>
	<path d="M261,196.7v169.8h-34.1v-89.2l-41.9,52.8h-11.1l-41.9-52.8v89.2H97.8V196.7h11.1l70.5,90.5l70.5-90.5H261z"/>
	<path d="M405.1,315.4h-87.9c2.2,7.9,6.4,14,12.5,18.3c6.2,4.3,13.8,6.4,22.9,6.4c12.3,0,23.9-4.2,34.9-12.6l14.2,23.2
		c-14.8,12.5-31.5,18.7-50,18.7c-19.7,0-36-6.3-49-18.8c-13-12.6-19.5-28.1-19.5-46.6c0-18.4,6.3-33.9,18.8-46.5
		s28.1-18.9,46.6-18.9c17.3,0,31.5,5.6,42.4,16.7s16.4,24.9,16.4,41.4C407.4,302.8,406.7,309,405.1,315.4z M328.3,273
		c-5.4,4.5-9.1,10.7-11.1,18.4h57.1c-0.2-7.7-2.9-13.9-8.1-18.4c-5.2-4.6-11.5-6.9-18.9-6.9C340,266.1,333.7,268.4,328.3,273z"/>
	<path d="M530.7,252.4c8.4,9.1,12.6,21.3,12.6,36.5v77.6h-33.9v-73c0-7.2-2.2-13.1-6.5-17.6c-4.3-4.5-9.9-6.7-16.8-6.7
		c-6.9,0-12.6,2.2-17,6.7c-4.5,4.5-6.7,10.3-6.7,17.6v73h-34.1v-125h31.3v11.3c9.4-9.4,21.6-14.1,36.6-14.1
		C510.8,238.6,522.2,243.2,530.7,252.4z"/>
	<path d="M604.6,366.5h-34.1V177h34.1V366.5z"/>
	<path d="M740.2,257.4c13.1,12.6,19.7,28,19.7,46.4c0,18.3-6.6,33.9-19.7,46.5c-13.1,12.6-29,18.9-47.7,18.9
		c-18.7,0-34.5-6.3-47.4-18.8c-12.9-12.5-19.3-28.1-19.3-46.6c0-18.3,6.5-33.8,19.5-46.4c13-12.5,28.8-18.8,47.5-18.8
		C711.3,238.6,727.1,244.9,740.2,257.4z M669.5,279.4c-6.1,6.5-9.1,14.7-9.1,24.7c0,9.9,3,18,9.1,24.3c6,6.3,13.8,9.5,23.2,9.5
		c9.3,0,17-3.2,23.1-9.6c6.2-6.4,9.2-14.5,9.2-24.2c0-9.8-3-18-9.2-24.6c-6.2-6.5-13.9-9.9-23.1-9.9
		C683.3,269.7,675.6,272.9,669.5,279.4z"/>
	<path d="M983.5,221.9c16.7,16.5,25,36.9,25,61.1c0,24.1-8.3,44.4-25,61c-16.7,16.6-36.9,24.9-60.6,24.9c-23.9,0-44.1-8.3-60.6-24.9
		c-16.5-16.6-24.7-36.9-24.7-61c0-24.2,8.2-44.6,24.7-61.1c16.5-16.5,36.7-24.7,60.6-24.7C946.6,197.2,966.8,205.4,983.5,221.9z
		 M871.8,230.4c-13.6,14-20.5,31.5-20.5,52.4c0,20.9,6.8,38.4,20.5,52.5c13.6,14.2,30.7,21.2,51.3,21.2c20.4,0,37.4-7.1,51-21.2
		c13.6-14.2,20.5-31.7,20.5-52.5c0-20.7-6.9-38.2-20.6-52.3c-13.7-14.2-30.7-21.2-50.9-21.2C902.5,209.3,885.4,216.3,871.8,230.4z"
		/>
	<path d="M1113.5,255c7.9,8.8,11.9,20.2,11.9,34.4v77.1h-12.6v-76.3c0-10.8-3.1-19.5-9.2-26.2c-6.2-6.8-14.5-10.1-24.9-10.1
		c-10.6,0-19.3,3.4-26.2,10.3c-6.8,6.9-10.2,15.6-10.2,26v76.3h-12.6V244.4h12.1v16.4c8.9-12.6,21.9-18.9,38.9-18.9
		C1094.6,241.9,1105.6,246.3,1113.5,255z"/>
	<path d="M1260.7,308.3h-101.8c0.7,14.3,5.7,26,15,35.1c9.3,9.1,21,13.7,35,13.7c16.2,0,29.7-6.4,40.7-19.2l8.1,8.4
		c-13,15.1-29.3,22.7-49,22.7c-17.7,0-32.6-6.1-44.8-18.3c-12.2-12.2-18.3-27.3-18.3-45.1c0-17.6,6-32.7,17.9-45.1
		c11.9-12.4,26.5-18.6,43.7-18.6c15.3,0,28.3,5,38.8,15c10.5,10,15.8,23.1,15.8,39.3C1261.7,301.6,1261.4,305.7,1260.7,308.3z
		 M1175.1,265.8c-8.8,8.2-14,18.6-15.7,31.2h89.2c0.5-13.2-3.4-23.7-11.6-31.6c-8.3-7.9-18.4-11.9-30.3-11.9
		C1194.4,253.5,1183.8,257.6,1175.1,265.8z"/>
</g>
</svg>
