<?xml version="1.0" encoding="utf-8"?>
<!-- Generator: Adobe Illustrator 16.0.0, SVG Export Plug-In . SVG Version: 6.00 Build 0)  -->
<!DOCTYPE svg PUBLIC "-//W3C//DTD SVG 1.1//EN" "http://www.w3.org/Graphics/SVG/1.1/DTD/svg11.dtd">
<svg version="1.1" id="Layer_1" xmlns="http://www.w3.org/2000/svg" xmlns:xlink="http://www.w3.org/1999/xlink" x="0px" y="0px"
	 width="700px" height="700px" viewBox="162 34 700 700" enable-background="new 162 34 700 700" xml:space="preserve">
<g>
	<path fill="#1C69EE" d="M571.877,366.571l67.748-67.749V510.36c0,10.401,8.012,17.288,17.289,17.288
		c9.276,0,16.022-8.012,16.022-16.023V257.359c0-6.887-3.514-13.775-10.4-16.023c-5.763-2.249-13.774,0-18.413,4.638l-96.562,96.562
		c-6.887,5.763-6.887,17.288,0,24.176C553.464,373.458,564.99,373.458,571.877,366.571z"/>
	<path fill="#1C69EE" d="M570.753,460.885c6.887-5.764,6.887-17.289,0-24.176L379.877,245.974
		c-4.638-5.763-11.525-6.887-18.413-4.638c-5.763,3.514-10.401,9.136-10.401,16.023V510.22c0,10.401,8.012,17.288,17.289,17.288
		c9.276,0,17.288-8.012,17.288-16.023V298.823l160.797,162.062C552.34,467.771,563.865,467.771,570.753,460.885z"/>
</g>
<path fill="#1C69EE" d="M862,384c0-193.48-156.52-350-350-350c-193.48,0-350,156.52-350,350c0,193.48,157.78,350,350,350
	C705.48,734,862,577.48,862,384z M200.22,385.26c0-171.36,139.3-311.78,311.78-311.78c172.479,0,313.04,140.56,313.04,311.78
	S683.36,697.04,512,697.04C340.64,697.04,200.22,556.479,200.22,385.26z"/>
</svg>
