<svg xmlns="http://www.w3.org/2000/svg" xmlns:xlink="http://www.w3.org/1999/xlink" viewBox="0 0 876.67 266.92"><defs><style>.cls-1,.cls-4{opacity:0.5;}.cls-2{fill:url(#linear-gradient);}.cls-3{fill:#30334a;}.cls-4{fill:url(#linear-gradient-2);}.cls-5{fill:#1b1e39;}.cls-6{fill:#525775;}.cls-7{fill:url(#linear-gradient-3);}.cls-8{fill:url(#linear-gradient-4);}.cls-9{fill:#9dcff2;}.cls-10{fill:#7fbce6;}.cls-11{fill:#114dac;}.cls-12{fill:url(#linear-gradient-5);}.cls-13{fill:url(#linear-gradient-6);}.cls-14{fill:url(#linear-gradient-7);}.cls-15{fill:#0f4294;}.cls-16{fill:url(#linear-gradient-8);}.cls-17{fill:url(#linear-gradient-9);}.cls-18{fill:url(#linear-gradient-10);}.cls-19{opacity:0.6;}.cls-20{fill:url(#linear-gradient-11);}.cls-21{fill:#464a64;}.cls-22{fill:url(#linear-gradient-12);}.cls-23{fill:url(#linear-gradient-13);}.cls-24{fill:url(#linear-gradient-14);}.cls-25{fill:url(#linear-gradient-15);}.cls-26{fill:#bab4f0;}.cls-27{fill:#6b67f5;}.cls-28{fill:#a49cf0;}.cls-29{fill:url(#linear-gradient-16);}.cls-30{fill:url(#linear-gradient-17);}.cls-31{fill:url(#linear-gradient-18);}.cls-32{fill:url(#linear-gradient-19);}.cls-33{fill:#e4ecff;}.cls-34{fill:#4e8fe0;}.cls-35{fill:#c3e4ff;}.cls-36{fill:url(#linear-gradient-20);}.cls-37{fill:url(#linear-gradient-21);}.cls-38{fill:#2460ab;}.cls-39{fill:url(#linear-gradient-22);}.cls-40{opacity:0.2;}.cls-41{fill:url(#linear-gradient-23);}.cls-42{fill:url(#linear-gradient-24);}.cls-43{fill:url(#linear-gradient-25);}.cls-44{fill:#c2c8d9;}.cls-45{fill:#dae1f5;}.cls-46{fill:url(#linear-gradient-26);}.cls-47{fill:url(#linear-gradient-27);}.cls-48{fill:url(#linear-gradient-28);}.cls-49{fill:url(#linear-gradient-29);}.cls-50{fill:url(#linear-gradient-30);}.cls-51{fill:url(#linear-gradient-31);}.cls-52{fill:#512b2a;}.cls-53{fill:url(#linear-gradient-32);}.cls-54{fill:url(#linear-gradient-33);}.cls-55{fill:#fff;}.cls-56{fill:url(#linear-gradient-34);}.cls-57{fill:url(#linear-gradient-35);}.cls-58{fill:url(#linear-gradient-36);}.cls-59{fill:url(#linear-gradient-37);}.cls-60{fill:url(#linear-gradient-38);}.cls-61{fill:url(#linear-gradient-39);}.cls-62{fill:url(#linear-gradient-40);}.cls-63{fill:url(#linear-gradient-41);}.cls-64{fill:#e5ecff;}.cls-65{fill:url(#linear-gradient-42);}.cls-66{fill:url(#linear-gradient-43);}.cls-67{fill:url(#linear-gradient-44);}.cls-68{fill:url(#linear-gradient-45);}.cls-69{fill:url(#linear-gradient-46);}.cls-70{fill:url(#linear-gradient-47);}.cls-71{fill:url(#linear-gradient-48);}.cls-72{fill:url(#linear-gradient-49);}.cls-73{fill:url(#linear-gradient-50);}.cls-74{fill:url(#linear-gradient-51);}.cls-75{fill:#0c3575;}.cls-76{fill:#1769eb;}.cls-77{opacity:0.4;}.cls-78{fill:url(#linear-gradient-52);}.cls-79{fill:url(#linear-gradient-53);}.cls-80{fill:url(#linear-gradient-54);}.cls-81{fill:#cbc6fa;}.cls-82{fill:#726da6;}.cls-83{fill:#6c68f5;}.cls-84{fill:url(#linear-gradient-55);}.cls-85{fill:url(#linear-gradient-56);}.cls-86{fill:url(#linear-gradient-57);}.cls-87{fill:#d7bff2;}.cls-88{opacity:0.3;}.cls-89{fill:url(#linear-gradient-58);}.cls-90{fill:url(#linear-gradient-59);}.cls-91{fill:url(#linear-gradient-60);}.cls-92{fill:#4e8fe1;}.cls-93{fill:#c2c2c2;}.cls-94{fill:#9896ff;}.cls-95{fill:#3c4794;}.cls-96{fill:#9798e8;}.cls-97{fill:#5f3c94;}.cls-98{fill:#6d6af5;}.cls-99{fill:#e8e8e8;}.cls-100{fill:#423ec9;}.cls-101{fill:url(#linear-gradient-61);}</style><linearGradient id="linear-gradient" y1="237.24" x2="105" y2="237.24" gradientUnits="userSpaceOnUse"><stop offset="0" stop-color="#e4ecff" stop-opacity="0"/><stop offset="0.08" stop-color="#dde5f7" stop-opacity="0.17"/><stop offset="0.19" stop-color="#d4dbed" stop-opacity="0.39"/><stop offset="0.31" stop-color="#ccd3e5" stop-opacity="0.58"/><stop offset="0.44" stop-color="#c6cddd" stop-opacity="0.73"/><stop offset="0.56" stop-color="#c1c8d8" stop-opacity="0.85"/><stop offset="0.7" stop-color="#bec4d4" stop-opacity="0.93"/><stop offset="0.84" stop-color="#bcc2d2" stop-opacity="0.98"/><stop offset="1" stop-color="#bbc1d1"/></linearGradient><linearGradient id="linear-gradient-2" x1="272.17" y1="89.82" x2="105.89" y2="89.82" gradientUnits="userSpaceOnUse"><stop offset="0" stop-color="#30334a" stop-opacity="0"/><stop offset="0.06" stop-color="#2c2f45" stop-opacity="0.12"/><stop offset="0.34" stop-color="#1e2133" stop-opacity="0.61"/><stop offset="0.65" stop-color="#161828" stop-opacity="0.91"/><stop offset="1" stop-color="#131524"/></linearGradient><linearGradient id="linear-gradient-3" x1="2308.74" y1="209.62" x2="2253.58" y2="176.9" gradientTransform="matrix(-1, 0, 0, 1, 2430.14, 0)" gradientUnits="userSpaceOnUse"><stop offset="0" stop-color="#30334a" stop-opacity="0"/><stop offset="1" stop-color="#114dac"/></linearGradient><linearGradient id="linear-gradient-4" x1="2268.85" y1="186.28" x2="2261.57" y2="177.6" gradientTransform="matrix(-1, 0, 0, 1, 2430.14, 0)" gradientUnits="userSpaceOnUse"><stop offset="0" stop-color="#25437d" stop-opacity="0"/><stop offset="1" stop-color="#1129ac"/></linearGradient><linearGradient id="linear-gradient-5" x1="181.27" y1="162.7" x2="181.27" y2="150.66" gradientUnits="userSpaceOnUse"><stop offset="0" stop-color="#6de8ff"/><stop offset="1" stop-color="#ffc4ff" stop-opacity="0.1"/></linearGradient><linearGradient id="linear-gradient-6" x1="2248.87" y1="186.28" x2="2248.87" y2="162.59" gradientTransform="matrix(-1, 0, 0, 1, 2430.14, 0)" gradientUnits="userSpaceOnUse"><stop offset="0" stop-color="#ffc4ff" stop-opacity="0.1"/><stop offset="1" stop-color="#6de8ff"/></linearGradient><linearGradient id="linear-gradient-7" x1="177.53" y1="146.19" x2="165.43" y2="156.35" gradientUnits="userSpaceOnUse"><stop offset="0" stop-color="#114dac"/><stop offset="1" stop-color="#9dcff2" stop-opacity="0"/></linearGradient><linearGradient id="linear-gradient-8" x1="2257.67" y1="171.29" x2="2263.83" y2="179.05" gradientTransform="matrix(-1, 0, 0, 1, 2430.14, 0)" gradientUnits="userSpaceOnUse"><stop offset="0" stop-color="#112fac"/><stop offset="0.14" stop-color="#1130ac" stop-opacity="0.97"/><stop offset="0.3" stop-color="#1132ac" stop-opacity="0.9"/><stop offset="0.45" stop-color="#1136ac" stop-opacity="0.78"/><stop offset="0.61" stop-color="#113bac" stop-opacity="0.6"/><stop offset="0.78" stop-color="#1142ac" stop-opacity="0.38"/><stop offset="0.94" stop-color="#114aac" stop-opacity="0.11"/><stop offset="1" stop-color="#114dac" stop-opacity="0"/></linearGradient><linearGradient id="linear-gradient-9" x1="-1147.14" y1="173.86" x2="-1130.53" y2="173.86" gradientTransform="translate(1304.87)" gradientUnits="userSpaceOnUse"><stop offset="0" stop-color="#114dac"/><stop offset="0.76" stop-color="#236fce"/><stop offset="1" stop-color="#0f4294"/></linearGradient><linearGradient id="linear-gradient-10" x1="2256.36" y1="171.7" x2="2263.9" y2="171.7" gradientTransform="matrix(-1, 0, 0, 1, 2430.14, 0)" gradientUnits="userSpaceOnUse"><stop offset="0" stop-color="#c456ff" stop-opacity="0"/><stop offset="1" stop-color="#e4ecff"/></linearGradient><linearGradient id="linear-gradient-11" x1="2294.57" y1="202.23" x2="2314.24" y2="207.56" gradientTransform="matrix(-1, 0, 0, 1, 2430.14, 0)" gradientUnits="userSpaceOnUse"><stop offset="0" stop-color="#1b1e39"/><stop offset="1" stop-color="#30334a" stop-opacity="0"/></linearGradient><linearGradient id="linear-gradient-12" x1="-1555.56" y1="175.2" x2="-1534.71" y2="175.2" gradientTransform="translate(1675.73)" gradientUnits="userSpaceOnUse"><stop offset="0" stop-color="#464a64" stop-opacity="0"/><stop offset="0.23" stop-color="#3e425b" stop-opacity="0.34"/><stop offset="0.53" stop-color="#373a52" stop-opacity="0.7"/><stop offset="0.79" stop-color="#32354c" stop-opacity="0.92"/><stop offset="1" stop-color="#30334a"/></linearGradient><linearGradient id="linear-gradient-13" x1="140.24" y1="186.39" x2="140.24" y2="174.35" gradientUnits="userSpaceOnUse"><stop offset="0" stop-color="#8890c2"/><stop offset="1" stop-color="#ffc4ff" stop-opacity="0.1"/></linearGradient><linearGradient id="linear-gradient-14" x1="-1535.49" y1="209.96" x2="-1535.49" y2="186.28" gradientTransform="translate(1675.73)" gradientUnits="userSpaceOnUse"><stop offset="0" stop-color="#ffc4ff" stop-opacity="0.1"/><stop offset="1" stop-color="#8890c2"/></linearGradient><linearGradient id="linear-gradient-15" x1="-1535.51" y1="175.77" x2="-1535.51" y2="166.04" gradientTransform="translate(1675.73)" gradientUnits="userSpaceOnUse"><stop offset="0" stop-color="#30334a"/><stop offset="0.05" stop-color="#2f3650"/><stop offset="0.12" stop-color="#2e3d60"/><stop offset="0.19" stop-color="#2b497b"/><stop offset="0.27" stop-color="#285aa0"/><stop offset="0.36" stop-color="#236fce"/><stop offset="1" stop-color="#114dac"/></linearGradient><linearGradient id="linear-gradient-16" x1="140.22" y1="146.11" x2="140.22" y2="134.07" gradientUnits="userSpaceOnUse"><stop offset="0" stop-color="#fff"/><stop offset="1" stop-color="#ffc4ff" stop-opacity="0.1"/></linearGradient><linearGradient id="linear-gradient-17" x1="-1535.51" y1="169.69" x2="-1535.51" y2="146" gradientTransform="translate(1675.73)" gradientUnits="userSpaceOnUse"><stop offset="0" stop-color="#ffc4ff" stop-opacity="0.1"/><stop offset="1" stop-color="#fff"/></linearGradient><linearGradient id="linear-gradient-18" x1="119.71" y1="134.16" x2="141.02" y2="134.16" gradientUnits="userSpaceOnUse"><stop offset="0" stop-color="#bab4f0" stop-opacity="0"/><stop offset="1" stop-color="#6b67f5"/></linearGradient><linearGradient id="linear-gradient-19" x1="181.27" y1="151.54" x2="181.27" y2="105.36" gradientUnits="userSpaceOnUse"><stop offset="0" stop-color="#9dcff2" stop-opacity="0"/><stop offset="0.24" stop-color="#1190f4"/><stop offset="0.4" stop-color="#118cf3"/><stop offset="0.56" stop-color="#117ff1"/><stop offset="0.72" stop-color="#116aed"/><stop offset="0.77" stop-color="#1163ec"/><stop offset="0.81" stop-color="#115fe0" stop-opacity="0.93"/><stop offset="0.94" stop-color="#1152bb" stop-opacity="0.69"/><stop offset="1" stop-color="#114dac" stop-opacity="0.6"/></linearGradient><linearGradient id="linear-gradient-20" x1="181.27" y1="96.25" x2="181.27" y2="84.22" xlink:href="#linear-gradient-16"/><linearGradient id="linear-gradient-21" x1="-1494.46" y1="119.83" x2="-1494.46" y2="96.14" xlink:href="#linear-gradient-17"/><linearGradient id="linear-gradient-22" x1="160.91" y1="95.39" x2="145.87" y2="136.7" gradientUnits="userSpaceOnUse"><stop offset="0" stop-color="#4e8fe0" stop-opacity="0"/><stop offset="0.14" stop-color="#1178f4"/><stop offset="0.41" stop-color="#1174f2"/><stop offset="0.7" stop-color="#1167ee"/><stop offset="0.77" stop-color="#1163ec"/><stop offset="0.81" stop-color="#115fe0" stop-opacity="0.93"/><stop offset="0.94" stop-color="#1152bb" stop-opacity="0.69"/><stop offset="1" stop-color="#114dac" stop-opacity="0.6"/></linearGradient><linearGradient id="linear-gradient-23" x1="255.24" y1="9.06" x2="138.89" y2="210.57" gradientUnits="userSpaceOnUse"><stop offset="0" stop-color="#30334a" stop-opacity="0"/><stop offset="0.05" stop-color="#3e425d" stop-opacity="0.11"/><stop offset="0.15" stop-color="#595e83" stop-opacity="0.31"/><stop offset="0.26" stop-color="#7178a4" stop-opacity="0.5"/><stop offset="0.37" stop-color="#858dc0" stop-opacity="0.65"/><stop offset="0.48" stop-color="#959ed7" stop-opacity="0.78"/><stop offset="0.6" stop-color="#a2ace9" stop-opacity="0.88"/><stop offset="0.72" stop-color="#abb5f5" stop-opacity="0.95"/><stop offset="0.85" stop-color="#b0bbfd" stop-opacity="0.99"/><stop offset="1" stop-color="#b2bdff"/></linearGradient><linearGradient id="linear-gradient-24" x1="207.38" y1="237.24" x2="312.38" y2="237.24" xlink:href="#linear-gradient"/><linearGradient id="linear-gradient-25" x1="326.28" y1="65.89" x2="475.87" y2="92.26" gradientUnits="userSpaceOnUse"><stop offset="0" stop-color="#c2c8d9"/><stop offset="0.16" stop-color="#c3c9da" stop-opacity="0.98"/><stop offset="0.3" stop-color="#c4cadb" stop-opacity="0.94"/><stop offset="0.43" stop-color="#c7cddf" stop-opacity="0.85"/><stop offset="0.55" stop-color="#cbd1e3" stop-opacity="0.74"/><stop offset="0.68" stop-color="#d0d7e9" stop-opacity="0.59"/><stop offset="0.79" stop-color="#d6ddef" stop-opacity="0.41"/><stop offset="0.91" stop-color="#dde5f7" stop-opacity="0.2"/><stop offset="1" stop-color="#e4ecff" stop-opacity="0"/></linearGradient><linearGradient id="linear-gradient-26" x1="317.49" y1="160.84" x2="369.31" y2="160.84" gradientUnits="userSpaceOnUse"><stop offset="0" stop-color="#e4ecff" stop-opacity="0"/><stop offset="1" stop-color="#bbc1d1"/></linearGradient><linearGradient id="linear-gradient-27" x1="6.56" y1="703.39" x2="5.43" y2="702.27" gradientTransform="matrix(-0.01, 1, 1, 0.01, -330.91, 117.78)" gradientUnits="userSpaceOnUse"><stop offset="0" stop-color="#695856"/><stop offset="1" stop-color="#fdd6d1"/></linearGradient><linearGradient id="linear-gradient-28" x1="263.36" y1="835.65" x2="265.4" y2="835.65" gradientTransform="matrix(0.48, 0.59, 0.78, -0.63, -403.64, 500.95)" xlink:href="#linear-gradient-27"/><linearGradient id="linear-gradient-29" x1="1289.79" y1="127.29" x2="1294.71" y2="118.77" gradientTransform="matrix(-1, 0, 0, 1, 1659.89, 0)" gradientUnits="userSpaceOnUse"><stop offset="0" stop-color="#2d48af" stop-opacity="0"/><stop offset="1" stop-color="#202ea9"/></linearGradient><linearGradient id="linear-gradient-30" x1="1512.37" y1="113.36" x2="1515.49" y2="113.36" gradientTransform="matrix(-1, 0, 0, 1, 1873.62, 0)" xlink:href="#linear-gradient-27"/><linearGradient id="linear-gradient-31" x1="631.94" y1="110.98" x2="630.05" y2="110.39" gradientTransform="translate(-269.67)" gradientUnits="userSpaceOnUse"><stop offset="0" stop-color="#fdd6d1"/><stop offset="1" stop-color="#cfaeab"/></linearGradient><linearGradient id="linear-gradient-32" x1="275.41" y1="809.29" x2="274.21" y2="808.1" gradientTransform="translate(-234.85 712.11) rotate(-116.49)" xlink:href="#linear-gradient-27"/><linearGradient id="linear-gradient-33" x1="624.5" y1="746.18" x2="626.55" y2="746.18" gradientTransform="matrix(0.17, -0.74, 0.97, 0.23, -467.73, 399.26)" xlink:href="#linear-gradient-27"/><linearGradient id="linear-gradient-34" x1="387.83" y1="175.36" x2="426" y2="175.36" xlink:href="#linear-gradient-26"/><linearGradient id="linear-gradient-35" x1="24.6" y1="384.04" x2="23.47" y2="382.91" gradientTransform="translate(795 117.78) rotate(89.42)" xlink:href="#linear-gradient-27"/><linearGradient id="linear-gradient-36" x1="14.37" y1="577.9" x2="16.42" y2="577.9" gradientTransform="matrix(-0.48, 0.59, -0.78, -0.63, 867.73, 500.95)" xlink:href="#linear-gradient-27"/><linearGradient id="linear-gradient-37" x1="1609.31" y1="142.11" x2="1614.23" y2="133.58" gradientTransform="translate(-1195.8)" xlink:href="#linear-gradient-29"/><linearGradient id="linear-gradient-38" x1="1831.89" y1="128.17" x2="1835.01" y2="128.17" gradientTransform="translate(-1409.53)" xlink:href="#linear-gradient-27"/><linearGradient id="linear-gradient-39" x1="312.41" y1="125.79" x2="310.53" y2="125.2" gradientTransform="matrix(-1, 0, 0, 1, 733.76, 0)" xlink:href="#linear-gradient-31"/><linearGradient id="linear-gradient-40" x1="404.69" y1="516.72" x2="403.49" y2="515.53" gradientTransform="matrix(0.45, -0.89, -0.89, -0.45, 698.93, 712.11)" xlink:href="#linear-gradient-27"/><linearGradient id="linear-gradient-41" x1="510.69" y1="438.26" x2="512.73" y2="438.26" gradientTransform="matrix(-0.17, -0.74, -0.97, 0.23, 931.82, 399.26)" xlink:href="#linear-gradient-27"/><linearGradient id="linear-gradient-42" x1="288.17" y1="224.68" x2="327.59" y2="224.68" xlink:href="#linear-gradient-26"/><linearGradient id="linear-gradient-43" x1="1182.61" y1="170.58" x2="1186.29" y2="170.58" gradientTransform="translate(-862.11)" xlink:href="#linear-gradient-27"/><linearGradient id="linear-gradient-44" x1="1187.88" y1="167.49" x2="1185.66" y2="166.8" gradientTransform="translate(-862.11)" xlink:href="#linear-gradient-31"/><linearGradient id="linear-gradient-45" x1="1149.75" y1="546.59" x2="1148.49" y2="545.35" gradientTransform="translate(-72.96 1369.29) rotate(-96.62)" xlink:href="#linear-gradient-27"/><linearGradient id="linear-gradient-46" x1="1290.85" y1="-13.14" x2="1293.26" y2="-13.14" gradientTransform="matrix(0.41, -0.64, 0.84, 0.54, -185.63, 995.9)" xlink:href="#linear-gradient-27"/><linearGradient id="linear-gradient-47" x1="1178.69" y1="220.4" x2="1181.49" y2="220.4" gradientTransform="translate(-862.11)" gradientUnits="userSpaceOnUse"><stop offset="0" stop-color="#445ab5"/><stop offset="1" stop-color="#151d6b"/></linearGradient><linearGradient id="linear-gradient-48" x1="1188" y1="225.43" x2="1191.41" y2="225.43" xlink:href="#linear-gradient-47"/><linearGradient id="linear-gradient-49" x1="329.29" y1="210.01" x2="360.8" y2="210.01" xlink:href="#linear-gradient"/><linearGradient id="linear-gradient-50" x1="348.74" y1="198.93" x2="380.25" y2="198.93" xlink:href="#linear-gradient"/><linearGradient id="linear-gradient-51" x1="368.78" y1="187.38" x2="400.29" y2="187.38" xlink:href="#linear-gradient"/><linearGradient id="linear-gradient-52" x1="462.57" y1="9.06" x2="346.23" y2="210.57" gradientUnits="userSpaceOnUse"><stop offset="0" stop-color="#fff" stop-opacity="0"/><stop offset="0.36" stop-color="#fff" stop-opacity="0.36"/><stop offset="1" stop-color="#fff"/></linearGradient><linearGradient id="linear-gradient-53" x1="414.67" y1="237.24" x2="519.67" y2="237.24" xlink:href="#linear-gradient"/><linearGradient id="linear-gradient-54" x1="545.69" y1="44.83" x2="695.39" y2="99.31" gradientUnits="userSpaceOnUse"><stop offset="0" stop-color="#6b67f5"/><stop offset="0.15" stop-color="#6c68f5" stop-opacity="0.99"/><stop offset="0.28" stop-color="#6e6af5" stop-opacity="0.94"/><stop offset="0.41" stop-color="#726ef4" stop-opacity="0.87"/><stop offset="0.53" stop-color="#7873f4" stop-opacity="0.77"/><stop offset="0.64" stop-color="#807af3" stop-opacity="0.64"/><stop offset="0.75" stop-color="#8983f2" stop-opacity="0.48"/><stop offset="0.86" stop-color="#948df1" stop-opacity="0.29"/><stop offset="0.97" stop-color="#a098f0" stop-opacity="0.07"/><stop offset="1" stop-color="#a49cf0" stop-opacity="0"/></linearGradient><linearGradient id="linear-gradient-55" x1="499.28" y1="190.1" x2="578.31" y2="176.17" gradientUnits="userSpaceOnUse"><stop offset="0" stop-color="#a49cf0" stop-opacity="0"/><stop offset="0.05" stop-color="#9b94eb" stop-opacity="0.11"/><stop offset="0.17" stop-color="#8983e1" stop-opacity="0.35"/><stop offset="0.29" stop-color="#7974d8" stop-opacity="0.55"/><stop offset="0.42" stop-color="#6c68d1" stop-opacity="0.71"/><stop offset="0.55" stop-color="#635fcb" stop-opacity="0.84"/><stop offset="0.69" stop-color="#5c58c7" stop-opacity="0.93"/><stop offset="0.83" stop-color="#5754c5" stop-opacity="0.98"/><stop offset="1" stop-color="#5653c4"/></linearGradient><linearGradient id="linear-gradient-56" x1="572.04" y1="155.77" x2="572.04" y2="123.81" xlink:href="#linear-gradient-16"/><linearGradient id="linear-gradient-57" x1="-1103.69" y1="218.37" x2="-1103.69" y2="155.48" xlink:href="#linear-gradient-17"/><linearGradient id="linear-gradient-58" x1="669.89" y1="9.06" x2="553.54" y2="210.57" gradientUnits="userSpaceOnUse"><stop offset="0" stop-color="#cbc6fa" stop-opacity="0"/><stop offset="0.04" stop-color="#cbc6fa" stop-opacity="0.09"/><stop offset="0.14" stop-color="#cbc6fa" stop-opacity="0.3"/><stop offset="0.25" stop-color="#cbc6fa" stop-opacity="0.49"/><stop offset="0.37" stop-color="#cbc6fa" stop-opacity="0.65"/><stop offset="0.48" stop-color="#cbc6fa" stop-opacity="0.77"/><stop offset="0.6" stop-color="#cbc6fa" stop-opacity="0.87"/><stop offset="0.72" stop-color="#cbc6fa" stop-opacity="0.94"/><stop offset="0.85" stop-color="#cbc6fa" stop-opacity="0.99"/><stop offset="1" stop-color="#cbc6fa"/></linearGradient><linearGradient id="linear-gradient-59" x1="622.02" y1="237.24" x2="727.02" y2="237.24" xlink:href="#linear-gradient"/><linearGradient id="linear-gradient-60" x1="753.04" y1="44.82" x2="902.74" y2="99.31" gradientUnits="userSpaceOnUse"><stop offset="0" stop-color="#4e8fe1"/><stop offset="0.16" stop-color="#5090e1" stop-opacity="0.98"/><stop offset="0.3" stop-color="#5594e3" stop-opacity="0.94"/><stop offset="0.42" stop-color="#5e9be5" stop-opacity="0.86"/><stop offset="0.55" stop-color="#6ba4e9" stop-opacity="0.75"/><stop offset="0.66" stop-color="#7cb1ed" stop-opacity="0.61"/><stop offset="0.78" stop-color="#91bff2" stop-opacity="0.43"/><stop offset="0.89" stop-color="#a8d1f8" stop-opacity="0.23"/><stop offset="1" stop-color="#c3e4ff" stop-opacity="0"/></linearGradient><linearGradient id="linear-gradient-61" x1="877.24" y1="9.06" x2="760.89" y2="210.57" xlink:href="#linear-gradient-52"/></defs><title>Guild_svg</title><g id="Layer_2" data-name="Layer 2"><g id="Layer_2-2" data-name="Layer 2"><g class="cls-1"><polygon class="cls-2" points="88.39 266.92 0 257.96 105 207.55 88.39 266.92"/></g><polygon class="cls-3" points="88.39 104.73 254.67 8.73 254.67 170.92 88.39 266.92 88.39 104.73"/><polygon class="cls-4" points="88.39 104.73 254.67 170.92 254.67 8.73 88.39 104.73"/><polygon class="cls-5" points="88.39 104.73 73.28 96.01 73.28 258.19 88.39 266.92 88.39 104.73"/><polygon class="cls-6" points="239.56 0.01 73.28 96.01 88.39 104.73 254.67 8.73 239.56 0.01"/><polygon class="cls-7" points="107.59 198.01 180.88 155.46 213.92 174.54 140.63 217.09 107.59 198.01"/><polygon class="cls-8" points="181.27 186.28 160.15 187.12 150.66 175.13 160.75 174.44 181.27 186.28"/><polygon class="cls-9" points="201.78 150.74 181.27 138.9 160.75 150.74 181.27 162.59 201.78 150.74"/><polygon class="cls-10" points="201.78 150.74 201.78 174.43 181.27 186.28 181.27 162.59 201.78 150.74"/><polygon class="cls-11" points="181.27 162.59 160.75 150.74 160.75 174.43 181.27 186.28 181.27 162.59"/><path class="cls-12" d="M201.78,150.74c-6.8,4-13.64,7.95-20.47,11.93l0,0,0,0c-6.82-4-13.67-7.91-20.47-11.93,6.88,3.88,13.71,7.84,20.56,11.76h-.1C188.07,158.59,194.9,154.62,201.78,150.74Z"/><rect class="cls-13" x="181.17" y="162.59" width="0.19" height="23.69"/><path class="cls-14" d="M181.88,151.7a.79.79,0,0,1-.79.76h0l-18.81-.82-1.49-.87L162,150l19.11.84A.79.79,0,0,1,181.88,151.7Z"/><path class="cls-15" d="M173.6,167.69c-1-.57-1.79-.11-1.79,1a3.92,3.92,0,0,0,1.78,3.08c1,.57,1.79.11,1.79-1A3.92,3.92,0,0,0,173.6,167.69Z"/><path class="cls-16" d="M166.47,177.73l1.4.81,6.31-8.29a.8.8,0,0,0-1.27-1Z"/><path class="cls-17" d="M158.53,178.76a.8.8,0,0,1-.38-1.5l15-8.19a.8.8,0,0,1,.77,1.4l-15,8.19A.8.8,0,0,1,158.53,178.76Z"/><path class="cls-18" d="M166.47,173.86a.24.24,0,0,1-.11-.45l7.07-3.86a.24.24,0,1,1,.23.42l-7.07,3.86A.24.24,0,0,1,166.47,173.86Z"/><g class="cls-19"><polygon class="cls-20" points="140.22 209.95 130.18 211.05 111.01 199.9 119.71 198.11 140.22 209.95"/></g><polygon class="cls-21" points="119.73 174.43 140.24 162.59 160.75 174.43 140.24 186.28 119.73 174.43"/><path class="cls-22" d="M141,175a.8.8,0,0,1-.78.82l-17.41.45-2.65-1.53,20-.52A.81.81,0,0,1,141,175Z"/><polygon class="cls-5" points="119.73 174.43 119.73 198.12 140.24 209.96 140.24 186.28 119.73 174.43"/><polygon class="cls-3" points="140.24 186.28 160.75 174.43 160.75 198.12 140.24 209.96 140.24 186.28"/><path class="cls-23" d="M119.73,174.43c6.88,3.88,13.71,7.84,20.56,11.76h-.1c6.85-3.92,13.68-7.88,20.56-11.76-6.8,4-13.64,7.95-20.47,11.93l0,0,0,0C133.37,182.38,126.52,178.45,119.73,174.43Z"/><rect class="cls-24" x="140.14" y="186.28" width="0.19" height="23.69"/><ellipse class="cls-11" cx="181.27" cy="151.64" rx="2.22" ry="1.4"/><ellipse class="cls-3" cx="140.22" cy="174.97" rx="2.22" ry="1.4"/><path class="cls-25" d="M140.22,175.77a.8.8,0,0,1-.8-.8v-8.13a.8.8,0,0,1,1.6,0V175A.8.8,0,0,1,140.22,175.77Z"/><polygon class="cls-26" points="119.71 134.16 140.22 122.31 160.73 134.16 140.22 146 119.71 134.16"/><polygon class="cls-27" points="119.71 134.16 119.71 157.84 140.22 169.69 140.22 146 119.71 134.16"/><polygon class="cls-28" points="140.22 146 160.73 134.16 160.73 157.84 140.22 169.69 140.22 146"/><path class="cls-29" d="M119.71,134.16c6.88,3.88,13.71,7.84,20.56,11.76h-.1C147,142,153.85,138,160.73,134.16c-6.8,4-13.64,7.95-20.47,11.93l0,0,0,0C133.35,142.11,126.5,138.18,119.71,134.16Z"/><rect class="cls-30" x="140.12" y="146" width="0.19" height="23.69"/><path class="cls-31" d="M141,134.16a.8.8,0,0,0-.8-.8H121.09l-1.39.8,1.39.8h19.13A.8.8,0,0,0,141,134.16Z"/><path class="cls-32" d="M181.27,151.54a.8.8,0,0,1-.8-.8V106.16a.8.8,0,0,1,1.6,0v44.58A.8.8,0,0,1,181.27,151.54Z"/><polygon class="cls-33" points="160.75 84.3 181.27 72.46 201.78 84.3 181.27 96.14 160.75 84.3"/><polygon class="cls-34" points="160.75 84.3 160.75 107.99 181.27 119.83 181.27 96.14 160.75 84.3"/><polygon class="cls-35" points="181.27 96.14 201.78 84.3 201.78 107.99 181.27 119.83 181.27 96.14"/><path class="cls-36" d="M160.75,84.3c6.88,3.88,13.71,7.84,20.56,11.76h-.1c6.85-3.92,13.68-7.88,20.56-11.76-6.8,4-13.64,7.95-20.47,11.93l0,0,0,0C174.4,92.25,167.55,88.32,160.75,84.3Z"/><rect class="cls-37" x="181.17" y="96.14" width="0.19" height="23.69"/><path class="cls-38" d="M171,98.56c-1-.57-1.79-.11-1.79,1a3.92,3.92,0,0,0,1.78,3.08c1,.57,1.79.11,1.79-1A3.92,3.92,0,0,0,171,98.56Z"/><ellipse class="cls-27" cx="140.22" cy="134.16" rx="2.22" ry="1.4"/><path class="cls-39" d="M140.22,134.59a.89.89,0,0,1-.89-.89V118.1a.89.89,0,0,1,.45-.77l31.36-17.87A.89.89,0,1,1,172,101l-30.91,17.62V133.7A.89.89,0,0,1,140.22,134.59Z"/><g class="cls-40"><polygon class="cls-41" points="116.47 88.52 162.44 224.17 254.67 170.92 254.67 8.73 116.47 88.52"/></g><g class="cls-1"><polygon class="cls-42" points="295.78 266.92 207.38 257.96 312.38 207.55 295.78 266.92"/></g><polygon class="cls-33" points="295.73 104.73 462.01 8.73 462.01 170.91 295.73 266.91 295.73 104.73"/><polyline class="cls-43" points="322.12 89.49 462.01 8.73 462.01 170.91 322.12 89.49"/><polygon class="cls-44" points="295.73 104.73 280.61 96 280.61 258.19 295.73 266.91 295.73 104.73"/><polygon class="cls-45" points="446.89 0 280.61 96 295.73 104.73 462.01 8.73 446.89 0"/><polygon class="cls-46" points="360.8 162.54 317.49 165.08 317.49 161.5 365.59 156.59 369.31 159.88 357.78 159.49 360.56 161.54 360.8 162.54"/><polygon class="cls-11" points="364.08 98.02 367.64 108.73 368.13 108.47 364.79 97.47 364.08 98.02"/><polygon class="cls-47" points="372.06 130.47 372.67 131.15 371.93 131.6 371.45 131.14 372.06 130.47"/><path class="cls-48" d="M372.29,131.8c.2.1.09.35.17.74,0,.14.33.07.47,0a.86.86,0,0,0,.28-.91.75.75,0,0,0-1-.47.78.78,0,0,0-.39.51c-.06.36.31.75.45.68s0-.24,0-.33S372.24,131.78,372.29,131.8Z"/><path class="cls-26" d="M365.68,124.75a31.27,31.27,0,0,0,6,6.65l.39-.94c-3.75-4.69-4.81-13.37-4.81-13.37-1.27,1.15-1.86,3.41-2.12,4.9A4,4,0,0,0,365.68,124.75Z"/><path class="cls-49" d="M367.88,120.36c.26,1.89.53,7.91.53,7.91l-1.28-1.46-.19-9.06.48.27Z"/><polygon class="cls-26" points="367.05 133.23 367.05 158.06 364.87 157.48 360.56 134.15 367.05 133.23"/><path class="cls-50" d="M358.32,114.26c.4-.07.32-1-.13-1.56s2.14-.33,2.14-.33a2.78,2.78,0,0,0,.73,1.39l.2.63Z"/><polygon class="cls-26" points="361.75 136.3 358.48 161.61 356.68 161.18 354.84 134.09 361.75 136.3"/><path class="cls-27" d="M357,137.19c3,0,6.06-1.07,9.1-1.79a1.76,1.76,0,0,0,1.36-1.72V117.62a4.19,4.19,0,0,0-4.95-4.12l-6,1.1a2.66,2.66,0,0,0-2.15,2.24,64.25,64.25,0,0,0,0,18.08A2.66,2.66,0,0,0,357,137.19Z"/><polygon class="cls-21" points="360.56 161.54 360.8 162.54 356.28 161.3 356.31 159.88 358.8 160.44 360.56 161.54"/><polygon class="cls-21" points="369.07 158.88 369.31 159.88 364.79 158.64 364.82 157.22 367.32 157.78 369.07 158.88"/><path class="cls-51" d="M359.76,113.36c-1-.06-1.83-.22-2.15-.68l.94-5.09h3.73v3.25A2.52,2.52,0,0,1,359.76,113.36Z"/><path class="cls-52" d="M361.44,106.4c1.85.4,3.1,3.49.71,3.16s-2.71.92-2.71.92c-.31-.12-1.26-.36-1.08,1.23.21,1.92-1,1.23-1.27.52-.42-.93-1-4.79.73-5.56A6,6,0,0,1,361.44,106.4Z"/><path class="cls-28" d="M356.71,115.12A74.76,74.76,0,0,0,366.05,105l.63.67a98.45,98.45,0,0,1-5.93,10.17c-4.77,5.85-6.33,3.35-6.33,3.35C353.58,118,354.71,116.59,356.71,115.12Z"/><polygon class="cls-53" points="366.68 105.65 367.02 104.74 366.15 104.67 365.92 105.19 366.68 105.65"/><path class="cls-54" d="M366.39,104.33c.14-.18-.07-.35-.17-.74,0-.14.26-.21.43-.19a.86.86,0,0,1,.65.7.75.75,0,0,1-.71.87.78.78,0,0,1-.57-.29c-.21-.29,0-.81.1-.81s.08.23.11.31S366.36,104.37,366.39,104.33Z"/><polygon class="cls-11" points="372.68 75.85 349.98 88.95 353.06 106.56 375.67 92.98 372.68 75.85"/><path class="cls-55" d="M359.67,91.76a1.92,1.92,0,0,1-.45,1.67c.55.07.87.19,1,.89.2,1.17-.77,2.24-2.06,3s-2.37,1.06-2.58-.11a2.41,2.41,0,0,1,.52-1.91c-.59-.07-.79-.28-.89-.87-.17-1,.62-2,1.95-2.85S359.5,90.79,359.67,91.76Zm-3.06,2c0,.27.24.37.57.38l.81-.49a1.28,1.28,0,0,0,.34-.93c-.07-.42-.41-.48-1-.13S356.53,93.39,356.61,93.81ZM358.82,95c0-.27-.27-.39-.66-.3l-.81.49a1.18,1.18,0,0,0-.45,1c.09.51.44.55,1.07.17S358.91,95.48,358.82,95Z"/><path class="cls-55" d="M361.14,94.28s1-.45,1.74-.92a1.93,1.93,0,0,0,1-2.1,8.85,8.85,0,0,1-1.12,1c-1.32.8-2.2.7-2.41-.5s.54-2.38,1.92-3.21c1.61-1,2.53-.33,2.84,1.42a3.9,3.9,0,0,1-2,4.44,12.5,12.5,0,0,1-1.87.87Zm2.58-4c-.14-.78-.51-1.26-1.28-.79a1.38,1.38,0,0,0-.78,1.41c.09.51.47.56,1,.22A6.53,6.53,0,0,0,363.72,90.31Z"/><path class="cls-55" d="M367.51,86.68a1.74,1.74,0,0,1-.9,1.9c-.71.43-1.18.26-1.32-.55a1.73,1.73,0,0,1,.9-1.89C366.9,85.7,367.37,85.87,367.51,86.68Zm-1,1.23c.17-.1.17-.29.11-.68s-.13-.52-.3-.42-.18.28-.11.67S366.33,88,366.49,87.91Zm1.74-3.26.71-.19-1.14,7.23-.71.21Zm2.55,3.7a1.74,1.74,0,0,1-.9,1.9c-.71.43-1.18.26-1.32-.55a1.73,1.73,0,0,1,.9-1.89C370.18,87.36,370.64,87.53,370.79,88.34Zm-1,1.23c.17-.1.17-.29.11-.68s-.13-.52-.3-.42-.18.28-.11.67S369.6,89.67,369.77,89.57Z"/><polygon class="cls-56" points="416.99 172.04 387.83 175.41 390.32 178.68 422.81 177.36 426 174.99 415.2 175.41 418.81 173.45 416.99 172.04"/><polygon class="cls-3" points="420.41 106.13 415.27 124.4 415.8 124.4 420.75 107.87 420.41 106.13"/><polygon class="cls-57" points="411.55 145.28 410.94 145.97 411.68 146.41 412.16 145.95 411.55 145.28"/><path class="cls-58" d="M411.32,146.62c-.2.1-.09.35-.17.74,0,.14-.33.07-.47,0a.86.86,0,0,1-.28-.91.75.75,0,0,1,1-.47.78.78,0,0,1,.39.51c.06.36-.31.75-.45.68s0-.24,0-.33S411.37,146.59,411.32,146.62Z"/><path class="cls-26" d="M417.93,139.56a31.27,31.27,0,0,1-6,6.65l-.39-.94c3.75-4.69,4.81-13.37,4.81-13.37,1.27,1.15,1.86,3.41,2.12,4.9A4,4,0,0,1,417.93,139.56Z"/><path class="cls-59" d="M415.73,135.17c-.26,1.89-.53,7.91-.53,7.91l1.28-1.46.19-9.06-.48.27Z"/><polygon class="cls-27" points="416.56 148.04 416.56 172.87 418.74 172.29 423.05 148.97 416.56 148.04"/><path class="cls-60" d="M425.29,129.07c-.4-.07-.32-1,.13-1.56s-2.14-.33-2.14-.33a2.78,2.78,0,0,1-.73,1.39l-.2.63Z"/><polygon class="cls-27" points="421.86 151.12 425.13 176.43 426.93 176 428.77 148.91 421.86 151.12"/><path class="cls-26" d="M426.64,152c-3,0-6.06-1.07-9.1-1.79a1.76,1.76,0,0,1-1.36-1.72V132.43a4.19,4.19,0,0,1,4.95-4.12l6,1.1a2.66,2.66,0,0,1,2.15,2.24,64.25,64.25,0,0,1,0,18.08A2.66,2.66,0,0,1,426.64,152Z"/><polygon class="cls-21" points="423.05 176.35 422.81 177.36 427.33 176.11 427.3 174.7 424.8 175.25 423.05 176.35"/><polygon class="cls-21" points="414.54 173.69 414.3 174.7 418.81 173.45 418.78 172.04 416.29 172.59 414.54 173.69"/><path class="cls-61" d="M423.85,128.17c1-.06,1.83-.22,2.15-.68l-.94-5.09h-3.73v3.25A2.52,2.52,0,0,0,423.85,128.17Z"/><path class="cls-52" d="M422.17,121.21c-1.85.4-3.1,3.49-.71,3.16s2.71.92,2.71.92c.31-.12,1.26-.36,1.08,1.23-.21,1.92,1,1.23,1.27.52.42-.93,1-4.79-.73-5.56A6,6,0,0,0,422.17,121.21Z"/><path class="cls-28" d="M426.9,129.93a74.76,74.76,0,0,1-9.34-10.14l-.63.67a98.45,98.45,0,0,0,5.93,10.17c4.77,5.85,6.33,3.35,6.33,3.35C430,132.77,428.9,131.41,426.9,129.93Z"/><polygon class="cls-62" points="416.93 120.47 416.59 119.56 417.45 119.48 417.69 120 416.93 120.47"/><path class="cls-63" d="M417.22,119.14c-.14-.18.07-.35.17-.74,0-.14-.26-.21-.43-.19a.86.86,0,0,0-.65.7.75.75,0,0,0,.71.87.78.78,0,0,0,.57-.29c.21-.29,0-.81-.1-.81s-.08.23-.11.31S417.25,119.19,417.22,119.14Z"/><polygon class="cls-3" points="413.88 88.62 433.8 100.12 431.46 117.54 411.55 105.57 413.88 88.62"/><path class="cls-64" d="M415.45,101.27a18.42,18.42,0,0,0,1.58,1c.79.43,1.26.08,1.43-.82a4.55,4.55,0,0,1-1.14-.33,2.67,2.67,0,0,1-1.6-3c.24-1.25,1.19-1.54,2.48-.84,1.5.82,2,2.36,1.6,4.23-.46,2.35-1.52,2.6-3,1.8a12.54,12.54,0,0,1-1.66-1.2Zm3.22-.82a1.76,1.76,0,0,0-.67-2c-.55-.3-.93-.14-1,.43a1.15,1.15,0,0,0,.68,1.28A3.53,3.53,0,0,0,418.67,100.45Z"/><path class="cls-64" d="M421.19,99.32a5.51,5.51,0,0,1,1.72.59c1.5.82,1.89,1.62,1.68,2.73a1,1,0,0,1-.92,1,1.79,1.79,0,0,1,.52,1.71c-.24,1.25-.92,1.59-2.31.83a11.68,11.68,0,0,1-1.8-1.32l.24-.91a17.34,17.34,0,0,0,1.59,1.06c.59.32.94.25,1-.3a1.17,1.17,0,0,0-.69-1.18l-1.15-.63.2-1,1.15.63a.59.59,0,0,0,.88-.41c.08-.42-.15-.78-.73-1.11a11.19,11.19,0,0,0-1.53-.66Z"/><path class="cls-64" d="M427.5,103.86c-.17.87-.62,1.11-1.29.74a1.61,1.61,0,0,1-.78-1.88c.17-.87.62-1.1,1.29-.73A1.6,1.6,0,0,1,427.5,103.86Zm1.22-1,.59.58L426,108.61l-.59-.56Zm-2.37,1.07c.16.08.23-.08.31-.49s.08-.6-.08-.69-.22.07-.3.48S426.19,103.79,426.35,103.88Zm3,4.88c-.17.87-.63,1.11-1.29.74a1.61,1.61,0,0,1-.78-1.88c.17-.87.62-1.1,1.29-.73A1.6,1.6,0,0,1,429.34,108.76Zm-1.15,0c.16.09.23-.08.31-.49s.08-.6-.08-.69-.22.07-.3.48S428,108.7,428.19,108.79Z"/><polygon class="cls-65" points="323.58 228.29 288.17 229.52 288.17 227.25 315.81 219.84 315.71 222.96 308.02 226 327.59 225.43 323.58 228.29"/><polygon class="cls-10" points="338.83 153.09 335.93 169.33 336.39 169.28 339.27 154.57 338.83 153.09"/><polygon class="cls-10" points="331.72 138.5 349.91 146.77 349.35 162.03 331.12 153.35 331.72 138.5"/><polygon class="cls-11" points="313.66 194 313.66 223.26 316.24 222.58 321.32 195.09 313.66 194"/><path class="cls-66" d="M324,171.64c-.47-.09-.38-1.19.16-1.84s-2.52-.39-2.52-.39a3.28,3.28,0,0,1-.86,1.64l-.23.75Z"/><path class="cls-67" d="M322.82,170.3c-1.18-.07-2.16-.26-2.54-.8l1.11-6h4.4v3.83A3,3,0,0,1,322.82,170.3Z"/><polygon class="cls-11" points="319.92 197.63 323.77 227.46 325.89 226.95 328.06 195.02 319.92 197.63"/><path class="cls-9" d="M312.33,181.74a36.86,36.86,0,0,0,7.1,7.84l.46-1.11c-4.42-5.53-5.67-15.76-5.67-15.76-1.5,1.35-2.19,4-2.5,5.77A4.72,4.72,0,0,0,312.33,181.74Z"/><path class="cls-35" d="M325.55,198.67c-3.57,0-7.15-1.26-10.72-2.11a2.08,2.08,0,0,1-1.6-2V175.6a4.94,4.94,0,0,1,5.83-4.86l7.05,1.29a3.13,3.13,0,0,1,2.53,2.64,75.74,75.74,0,0,1,0,21.31A3.13,3.13,0,0,1,325.55,198.67Z"/><polygon class="cls-68" points="337.47 164.97 337.75 164.47 336.82 164.04 336.32 164.63 337.47 164.97"/><path class="cls-69" d="M337.22,163.76c.22-.14.06-.42.11-.89,0-.17.37-.13.56,0a1,1,0,0,1,.44,1,.89.89,0,0,1-1.13.67.92.92,0,0,1-.52-.55c-.12-.41.28-.92.44-.86s0,.29,0,.39S337.16,163.79,337.22,163.76Z"/><path class="cls-9" d="M326.55,179.83c4.34-2.55,10.92-14.87,10.92-14.87l-1.15-.33c-5.13,6.57-10.07,7.43-10.07,7.43C323.72,175.65,326.55,179.83,326.55,179.83Z"/><polygon class="cls-70" points="319.38 219.84 316.59 220.17 316.57 220.96 319.38 219.84"/><polygon class="cls-71" points="329.29 224.87 325.92 225.2 325.89 226 329.29 224.87"/><polygon class="cls-21" points="313.66 223.26 315.71 222.96 320.04 220.47 319.38 219.84 313.66 221.11 313.66 223.26"/><polygon class="cls-21" points="323.58 228.29 325.63 227.99 329.96 225.49 329.29 224.87 323.58 226.14 323.58 228.29"/><path class="cls-52" d="M324.85,165.88c-1.16.9-1.69,4.69-3.49,4.23s-1.47-1.62-1.47-1.62l2-3.39Z"/><path class="cls-52" d="M323,166.9c.91-1.28,4.79-1.36,4.92-2.56s-1.58-2.32-3.78-1.93-3.48-1.12-4.28.39c-1.91,2.59-.44,7.86.73,6.57C321.55,168.33,321.94,165.69,323,166.9Z"/><polygon class="cls-72" points="353.86 216.47 329.29 217.05 329.41 209.93 360.8 202.96 353.86 216.47"/><polygon class="cls-73" points="373.31 205.38 348.74 205.97 348.86 198.85 380.25 191.88 373.31 205.38"/><polygon class="cls-74" points="393.35 193.84 368.78 194.43 368.9 187.3 400.29 180.34 393.35 193.84"/><polygon class="cls-10" points="353.86 202.45 365.42 195.77 365.42 209.78 353.86 216.47 353.86 202.45"/><polygon class="cls-11" points="353.86 202.45 347.28 198.65 347.28 212.67 353.86 216.47 353.86 202.45"/><polygon class="cls-9" points="358.84 191.97 347.28 198.65 353.86 202.45 365.42 195.77 358.84 191.97"/><polygon class="cls-3" points="373.31 169.6 384.87 162.91 384.87 198.69 373.31 205.38 373.31 169.6"/><polygon class="cls-5" points="373.31 169.6 366.73 165.8 366.73 201.58 373.31 205.38 373.31 169.6"/><polygon class="cls-21" points="378.29 159.11 366.73 165.8 373.31 169.6 384.87 162.91 378.29 159.11"/><polygon class="cls-11" points="393.34 171.12 404.89 164.43 404.89 187.15 393.34 193.84 393.34 171.12"/><polygon class="cls-75" points="393.34 171.12 386.76 167.32 386.76 190.04 393.34 193.84 393.34 171.12"/><polygon class="cls-76" points="398.31 160.63 386.76 167.32 393.34 171.12 404.89 164.43 398.31 160.63"/><path class="cls-55" d="M375.51,186.35s.43-.19.79-.4a1.12,1.12,0,0,0,.56-1,4.41,4.41,0,0,1-.54.44c-.61.36-1,.28-1-.33a1.89,1.89,0,0,1,1-1.54c.74-.44,1.07-.09,1.07.8a2.26,2.26,0,0,1-1.17,2.16,5.26,5.26,0,0,1-.84.37Zm1.36-1.9c0-.39-.12-.65-.48-.44a.79.79,0,0,0-.42.68c0,.26.15.3.41.14A3.21,3.21,0,0,0,376.86,184.45Z"/><path class="cls-55" d="M377.88,182.77a5,5,0,0,1,.81-.63c.74-.44,1-.33,1,.19a1.29,1.29,0,0,1-.33.82c.23,0,.38,0,.38.38a1.62,1.62,0,0,1-1,1.46,4.74,4.74,0,0,1-.91.39l0-.46a8,8,0,0,0,.8-.39.73.73,0,0,0,.44-.63c0-.21-.17-.25-.41-.1l-.56.33v-.48l.56-.33a.82.82,0,0,0,.36-.59c0-.2-.13-.22-.42-.05a8.45,8.45,0,0,0-.73.51Z"/><path class="cls-55" d="M381.08,181.35a1,1,0,0,1-.51.92c-.33.19-.51.09-.51-.32a1,1,0,0,1,.51-.92C380.89,180.84,381.08,180.94,381.08,181.35Zm-.51.58c.08,0,.09-.14.09-.34s0-.27-.09-.22-.09.14-.09.33S380.49,182,380.57,181.93Zm1-1.58.31-.07-1,3.58-.31.08Zm.79,1.93a1,1,0,0,1-.51.92c-.33.19-.51.09-.51-.32a1,1,0,0,1,.51-.92C382.13,181.78,382.32,181.87,382.32,182.29Zm-.51.58c.08,0,.09-.14.09-.34s0-.27-.09-.22-.09.14-.09.33S381.73,182.91,381.81,182.87Z"/><path class="cls-55" d="M397.75,178.87a1.17,1.17,0,0,1-.31.82c.23.05.35.13.35.48a1.86,1.86,0,0,1-1.07,1.44c-.59.35-1.06.45-1.06-.14a1.48,1.48,0,0,1,.35-.94c-.24-.05-.31-.17-.31-.46a1.79,1.79,0,0,1,1-1.36C397.32,178.36,397.75,178.38,397.75,178.87Zm-.59,1.58c0-.14-.08-.2-.25-.17l-.37.22a.7.7,0,0,0-.25.47c0,.26.14.29.43.12A.75.75,0,0,0,397.17,180.45Zm-.83-.65c0,.14.07.2.21.21l.37-.22a.77.77,0,0,0,.21-.45c0-.21-.14-.25-.39-.1A.68.68,0,0,0,396.34,179.8Z"/><path class="cls-55" d="M398.18,180.18s.43-.19.79-.4a1.12,1.12,0,0,0,.56-1,4.39,4.39,0,0,1-.53.44c-.61.36-1,.28-1-.33a1.89,1.89,0,0,1,1-1.54c.74-.44,1.07-.09,1.07.8a2.26,2.26,0,0,1-1.17,2.16,5.26,5.26,0,0,1-.84.37Zm1.36-1.9c0-.39-.12-.65-.48-.44a.79.79,0,0,0-.42.68c0,.26.15.3.41.14A3.21,3.21,0,0,0,399.54,178.27Z"/><path class="cls-55" d="M401.37,176.58a1,1,0,0,1-.51.92c-.33.19-.51.09-.51-.32a1,1,0,0,1,.51-.92C401.19,176.07,401.37,176.17,401.37,176.58Zm-.51.58c.08,0,.09-.14.09-.34s0-.27-.09-.22-.09.14-.09.33S400.79,177.21,400.86,177.16Zm1-1.58.31-.07-1,3.58-.31.08Zm.79,1.93a1,1,0,0,1-.51.92c-.33.19-.51.09-.51-.32a1,1,0,0,1,.51-.92C402.43,177,402.61,177.11,402.61,177.52Zm-.51.58c.08,0,.09-.14.09-.34s0-.27-.09-.22-.09.14-.09.33S402,178.14,402.1,178.1Z"/><path class="cls-55" d="M356,206.83a5,5,0,0,1,.81-.63c.74-.44,1-.33,1,.19a1.29,1.29,0,0,1-.33.82c.23,0,.38,0,.38.38a1.62,1.62,0,0,1-1,1.46,4.76,4.76,0,0,1-.91.39l0-.46a8.07,8.07,0,0,0,.8-.39.73.73,0,0,0,.44-.63c0-.21-.17-.25-.41-.1l-.56.33v-.48l.56-.33a.82.82,0,0,0,.36-.59c0-.2-.13-.22-.42-.05a8.45,8.45,0,0,0-.73.51Z"/><path class="cls-55" d="M360.2,204.25v.51l-1.25.74-.07.65a3.23,3.23,0,0,1,.5-.4c.57-.34.91-.28.91.31a1.81,1.81,0,0,1-1,1.56,5.38,5.38,0,0,1-1,.43l.06-.47a9.42,9.42,0,0,0,.86-.43.79.79,0,0,0,.43-.67c0-.28-.12-.33-.39-.17a3.78,3.78,0,0,0-.53.38l-.35.13.08-1.56Z"/><path class="cls-55" d="M361.58,204a1,1,0,0,1-.51.92c-.33.19-.51.09-.51-.32a1,1,0,0,1,.51-.92C361.39,203.5,361.58,203.6,361.58,204Zm-.51.58c.08,0,.09-.14.09-.33s0-.27-.09-.22-.09.14-.09.33S361,204.63,361.07,204.59Zm1-1.58.31-.07-1,3.58-.31.08Zm.79,1.93a1,1,0,0,1-.51.92c-.33.19-.51.09-.51-.32a1,1,0,0,1,.51-.92C362.63,204.44,362.81,204.53,362.81,204.94Zm-.51.58c.08,0,.09-.14.09-.34s0-.27-.09-.22-.09.14-.09.33S362.23,205.57,362.31,205.52Z"/><g class="cls-77"><polygon class="cls-78" points="323.8 88.52 369.78 224.17 462.01 170.92 462.01 8.73 323.8 88.52"/></g><g class="cls-1"><polygon class="cls-79" points="503.06 266.92 414.67 257.96 519.67 207.55 503.06 266.92"/></g><polygon class="cls-28" points="503.04 104.73 669.32 8.73 669.32 170.92 503.04 266.92 503.04 104.73"/><polyline class="cls-80" points="529.43 89.5 669.32 8.73 669.32 170.92 529.43 89.5"/><polygon class="cls-27" points="503.04 104.73 487.93 96.01 487.93 258.19 503.04 266.92 503.04 104.73"/><polygon class="cls-81" points="654.21 0.01 487.93 96.01 503.04 104.73 669.32 8.73 654.21 0.01"/><ellipse class="cls-82" cx="530.23" cy="220.37" rx="17.74" ry="10.83"/><ellipse class="cls-83" cx="530.23" cy="218.09" rx="17.74" ry="10.83"/><path class="cls-55" d="M539,217.94a.17.17,0,0,1,0,.32.61.61,0,0,1-.56,0l-7.86-4.54.2,3.09c0,.13-.16.23-.38.23a.57.57,0,0,1-.29-.07.2.2,0,0,1-.12-.15l-.24-3.67c0-.09.09-.18.24-.21a.61.61,0,0,1,.43,0Z"/><path class="cls-55" d="M539.27,212.84c5,2.9,5,7.6.06,10.5s-13.1,2.9-18.13,0-5-7.6-.06-10.5S534.25,209.94,539.27,212.84Zm-9,12.22a17.3,17.3,0,0,0,8.5-2c2.34-1.36,3.51-3.15,3.5-4.93s-1.19-3.57-3.55-4.93a18.75,18.75,0,0,0-17,0c-2.34,1.36-3.51,3.14-3.5,4.93s1.19,3.57,3.55,4.93a17.43,17.43,0,0,0,8.52,2"/><path class="cls-55" d="M534,218.21a.19.19,0,0,1,.12.17c0,.13-.19.22-.41.22l-11-.26,7.85,4.54a.17.17,0,0,1,0,.32.61.61,0,0,1-.56,0l-8.57-4.95c-.12-.07-.15-.17-.09-.25a.48.48,0,0,1,.38-.14l12,.29A.56.56,0,0,1,534,218.21Z"/><ellipse class="cls-82" cx="637.84" cy="169.5" rx="9.44" ry="5.76"/><ellipse class="cls-83" cx="637.84" cy="167.5" rx="9.44" ry="5.76"/><path class="cls-55" d="M642.53,167.42a.09.09,0,0,1,0,.17.33.33,0,0,1-.3,0L638,165.17l.11,1.64c0,.07-.09.12-.2.12a.3.3,0,0,1-.16,0,.11.11,0,0,1-.06-.08l-.13-2s0-.09.13-.11a.32.32,0,0,1,.23,0Z"/><path class="cls-55" d="M642.65,164.7c2.67,1.54,2.69,4,0,5.59a10.63,10.63,0,0,1-9.65,0c-2.67-1.54-2.69-4,0-5.59A10.63,10.63,0,0,1,642.65,164.7Zm-4.79,6.5a9.21,9.21,0,0,0,4.52-1.09,3.17,3.17,0,0,0,1.86-2.62,3.21,3.21,0,0,0-1.89-2.62,10,10,0,0,0-9.06,0,3.17,3.17,0,0,0-1.86,2.62,3.21,3.21,0,0,0,1.89,2.62,9.28,9.28,0,0,0,4.54,1.09"/><path class="cls-55" d="M639.86,167.56a.1.1,0,0,1,.06.09c0,.07-.1.12-.22.12l-5.87-.14L638,170a.09.09,0,0,1,0,.17.32.32,0,0,1-.3,0l-4.56-2.63c-.06,0-.08-.09,0-.13a.25.25,0,0,1,.2-.07l6.4.15A.3.3,0,0,1,639.86,167.56Z"/><ellipse class="cls-82" cx="530.88" cy="115.53" rx="6.99" ry="4.27"/><ellipse class="cls-83" cx="530.88" cy="114.05" rx="6.99" ry="4.27"/><path class="cls-55" d="M534.35,114a.07.07,0,0,1,0,.13.24.24,0,0,1-.22,0l-3.1-1.79.08,1.22s-.06.09-.15.09a.22.22,0,0,1-.11,0,.08.08,0,0,1,0-.06l-.09-1.45s0-.07.09-.08a.24.24,0,0,1,.17,0Z"/><path class="cls-55" d="M534.44,112c2,1.14,2,3,0,4.14a7.87,7.87,0,0,1-7.15,0c-2-1.14-2-3,0-4.14A7.88,7.88,0,0,1,534.44,112Zm-3.55,4.82a6.82,6.82,0,0,0,3.35-.8,2.35,2.35,0,0,0,1.38-1.94,2.38,2.38,0,0,0-1.4-1.94,7.39,7.39,0,0,0-6.71,0,2.35,2.35,0,0,0-1.38,1.94,2.38,2.38,0,0,0,1.4,1.94,6.87,6.87,0,0,0,3.36.8"/><path class="cls-55" d="M532.37,114.1a.08.08,0,0,1,0,.07s-.08.09-.16.09l-4.35-.1,3.1,1.79a.07.07,0,0,1,0,.13.24.24,0,0,1-.22,0l-3.38-1.95s-.06-.07,0-.1a.19.19,0,0,1,.15-.05l4.74.11Z"/><polygon class="cls-84" points="572.04 218.37 503.04 211.46 503.04 150.12 559.11 138.46 582.04 197.37 572.04 218.37"/><polygon class="cls-21" points="517.57 124.03 572.04 92.58 626.51 124.03 572.04 155.48 517.57 124.03"/><polygon class="cls-5" points="517.57 124.03 517.57 186.93 572.04 218.37 572.04 155.48 517.57 124.03"/><polygon class="cls-3" points="572.04 155.48 626.51 124.03 626.51 186.93 572.04 218.37 572.04 155.48"/><polygon class="cls-85" points="517.57 124.03 531.25 131.79 544.89 139.61 572.17 155.26 571.91 155.26 599.19 139.61 612.83 131.78 626.51 124.03 612.95 132 599.36 139.9 572.17 155.7 572.04 155.77 571.91 155.7 544.72 139.9 531.13 132 517.57 124.03"/><rect class="cls-86" x="571.78" y="155.48" width="0.51" height="62.89"/><path class="cls-55" d="M583.08,197.52s2.29-1,4.18-2.13a6,6,0,0,0,3-5.4,23.37,23.37,0,0,1-2.83,2.34c-3.21,1.89-5.1,1.48-5.1-1.73s2.09-6.2,5.43-8.17c3.91-2.31,5.68-.46,5.68,4.24,0,5.88-2.38,9.18-6.18,11.42a27.77,27.77,0,0,1-4.45,2Zm7.19-10.08c0-2.09-.63-3.42-2.52-2.31a4.19,4.19,0,0,0-2.25,3.59c0,1.37.81,1.57,2.18.76A17.12,17.12,0,0,0,590.26,187.44Z"/><path class="cls-55" d="M595.65,178.57a26.18,26.18,0,0,1,4.31-3.35c3.91-2.31,5.19-1.74,5.19,1a6.84,6.84,0,0,1-1.73,4.34c1.24-.06,2,0,2,2,0,3.12-1.44,5.59-5.05,7.72a25.18,25.18,0,0,1-4.83,2.08l.16-2.45a42.69,42.69,0,0,0,4.22-2.06c1.53-.9,2.31-2,2.31-3.34,0-1.1-.88-1.3-2.16-.55l-3,1.76v-2.56l3-1.76a4.33,4.33,0,0,0,1.89-3.13c0-1.06-.7-1.18-2.22-.28a44.7,44.7,0,0,0-3.89,2.7Z"/><path class="cls-55" d="M612.54,171.06a5.37,5.37,0,0,1-2.7,4.87c-1.73,1-2.7.49-2.7-1.69a5.33,5.33,0,0,1,2.7-4.85C611.58,168.37,612.54,168.88,612.54,171.06Zm-2.7,3.07c.4-.24.49-.74.49-1.77s-.09-1.41-.49-1.17-.49.72-.49,1.75S609.44,174.37,609.85,174.13Zm5.08-8.34,1.64-.38-5.28,18.95-1.64.43ZM619.1,176a5.36,5.36,0,0,1-2.69,4.87c-1.73,1-2.7.49-2.7-1.69a5.33,5.33,0,0,1,2.7-4.85C618.14,173.33,619.1,173.84,619.1,176Zm-2.69,3.07c.4-.24.49-.74.49-1.77s-.09-1.41-.49-1.17-.49.72-.49,1.75S616,179.33,616.41,179.09Z"/><g class="cls-1"><path class="cls-83" d="M641.9,53.68c8,4.61,14.42,15.77,14.39,24.93s-6.51,12.86-14.49,8.26-14.42-15.77-14.39-24.93S633.93,49.07,641.9,53.68Z"/></g><path class="cls-87" d="M638.9,54.68c8,4.61,14.42,15.77,14.39,24.93s-6.51,12.86-14.49,8.26-14.42-15.77-14.39-24.93S630.93,50.07,638.9,54.68Z"/><path class="cls-55" d="M634.33,63.63a.59.59,0,0,1,.22.23l6.13,11.23c.11.2.1.41,0,.47a.21.21,0,0,1-.2,0,.62.62,0,0,1-.22-.23L634.63,65l0,9.6c0,.18-.13.26-.3.16a.65.65,0,0,1-.29-.51l0-10.47c0-.14.08-.23.19-.21Z"/><path class="cls-55" d="M643.41,68.87l.11.08a.65.65,0,0,1,.19.43l0,10.47c0,.18-.13.26-.29.17a.65.65,0,0,1-.3-.51l0-9.61-2.75,1.8a.21.21,0,0,1-.21,0,.62.62,0,0,1-.21-.21c-.12-.19-.12-.41,0-.48l3.27-2.13A.21.21,0,0,1,643.41,68.87Z"/><path class="cls-55" d="M638.89,60.71c5.34,3.08,9.66,10.57,9.64,16.7s-4.37,8.61-9.71,5.52-9.66-10.57-9.64-16.7S633.55,57.63,638.89,60.71Zm-.06,21.55c5,2.89,9.1.56,9.11-5.19s-4-12.79-9.05-15.68-9.1-.56-9.11,5.19,4,12.78,9.05,15.67"/><g class="cls-1"><path class="cls-83" d="M594.51,68.19c4.85,2.8,8.76,9.58,8.74,15.14s-4,7.81-8.8,5-8.76-9.58-8.74-15.14S589.66,65.39,594.51,68.19Z"/></g><path class="cls-87" d="M591.51,69.19c4.85,2.8,8.76,9.58,8.74,15.14s-4,7.81-8.8,5-8.76-9.58-8.74-15.14S586.66,66.39,591.51,69.19Z"/><path class="cls-55" d="M588.55,74a.38.38,0,0,1,.14.15l4,7.28c.07.13.06.27,0,.31a.13.13,0,0,1-.13,0,.4.4,0,0,1-.14-.15l-3.64-6.68,0,6.23c0,.12-.09.17-.19.11a.42.42,0,0,1-.19-.33l0-6.79c0-.09,0-.15.12-.14Z"/><path class="cls-55" d="M594.43,77.36l.07.05a.42.42,0,0,1,.12.28l0,6.79c0,.12-.08.17-.19.11a.42.42,0,0,1-.19-.33l0-6.23-1.79,1.16a.13.13,0,0,1-.14,0,.4.4,0,0,1-.13-.14c-.08-.12-.08-.27,0-.31l2.12-1.38A.13.13,0,0,1,594.43,77.36Z"/><path class="cls-55" d="M591.5,72.07a13.79,13.79,0,0,1,6.25,10.83c0,4-2.83,5.58-6.29,3.58a13.79,13.79,0,0,1-6.25-10.82C585.22,71.68,588,70.07,591.5,72.07Zm0,14c3.24,1.87,5.9.37,5.91-3.36a13,13,0,0,0-5.87-10.16c-3.24-1.87-5.9-.37-5.91,3.37A13,13,0,0,0,591.46,86"/><path class="cls-55" d="M581.79,163.13l1.71-1v2.63s-1.24.88-2,1.32c-1.92,1.1-2.41.46-2.41-1.24a4.06,4.06,0,0,1,2.36-4,18.1,18.1,0,0,1,2-1l0,.82s-1,.5-1.83,1a2.26,2.26,0,0,0-1.32,2.47c0,1.35.22,1.6,1.29,1,.35-.2.72-.44.72-.44v-1l-.54.31Z"/><path class="cls-55" d="M588.28,160.24a3.42,3.42,0,0,1-2,3.1c-1.5.87-2,.33-2-.81a3.4,3.4,0,0,1,2-3.09C587.79,158.57,588.28,159.09,588.28,160.24Zm-1.18.68c0-.72-.17-1-.81-.63a1.55,1.55,0,0,0-.81,1.56c0,.72.17,1,.81.64A1.57,1.57,0,0,0,587.1,160.91Z"/><path class="cls-55" d="M592.88,157.59a3.42,3.42,0,0,1-2,3.1c-1.5.87-2,.33-2-.81a3.4,3.4,0,0,1,2-3.09C592.39,155.92,592.88,156.44,592.88,157.59Zm-1.18.68c0-.72-.17-1-.81-.63a1.55,1.55,0,0,0-.81,1.56c0,.72.17,1,.81.64A1.57,1.57,0,0,0,591.7,158.26Z"/><path class="cls-55" d="M597.4,156.86l-1.15.66v-.16a7,7,0,0,1-1,.85c-1.31.75-1.69.32-1.69-1a3.2,3.2,0,0,1,1.79-3,10.1,10.1,0,0,1,.93-.43v-1.5l1.16-.67Zm-1.16-.25v-2a9,9,0,0,0-.85.41,1.56,1.56,0,0,0-.7,1.48c0,.76.16,1,.71.66A7,7,0,0,0,596.24,156.61Z"/><path class="cls-55" d="M602.93,151l1.71-1v2.63s-1.24.88-2,1.32c-1.92,1.1-2.41.46-2.41-1.24a4.06,4.06,0,0,1,2.36-4,18,18,0,0,1,2-1l0,.82s-1,.5-1.83,1a2.26,2.26,0,0,0-1.32,2.47c0,1.35.22,1.6,1.29,1,.35-.2.72-.44.72-.44v-1l-.54.31Z"/><path class="cls-55" d="M609.37,146.25V150l-1.15.66v-.21a6.48,6.48,0,0,1-1.08.92c-1.26.73-1.52.27-1.52-1v-2l1.16-.67v2c0,.66,0,.93.61.6a5.47,5.47,0,0,0,.83-.61v-2.79Z"/><path class="cls-55" d="M610.44,144.14l1.16-.67v1l-1.16.67Zm0,1.49,1.16-.67v3.72l-1.16.67Z"/><path class="cls-55" d="M612.73,142.83l1.16-.67v5.21l-1.16.67Z"/><path class="cls-55" d="M618.69,144.61l-1.15.66v-.16a6.9,6.9,0,0,1-1,.85c-1.31.75-1.69.32-1.69-1a3.19,3.19,0,0,1,1.79-3,10,10,0,0,1,.93-.43v-1.5l1.16-.67Zm-1.16-.25v-2a8.84,8.84,0,0,0-.85.41,1.56,1.56,0,0,0-.7,1.48c0,.76.16,1,.71.66A7.07,7.07,0,0,0,617.53,144.36Z"/><path class="cls-55" d="M588.53,169.2v1.7l-1.19.69v-5.06l2.28-1.31c1.34-.77,2.08-.68,2.08.47a3,3,0,0,1-.86,2l.84,1.45-1.31.75-.68-1.3Zm1.09-3.11-1.09.63v1.61l1.11-.64a1.5,1.5,0,0,0,.84-1.29C590.48,165.91,590.2,165.76,589.63,166.08Z"/><path class="cls-55" d="M595.87,165.66c0,.21.05.28.29.19l0,.77a2.4,2.4,0,0,1-1.24.45,7.32,7.32,0,0,1-1.27,1c-.91.52-1.34.34-1.34-.45s.56-1.4,1.51-2l.92-.59v-.23c0-.32-.16-.31-.51-.11-.57.33-1.63,1-1.63,1l0-.67a16.2,16.2,0,0,1,1.76-1.23c1.12-.65,1.57-.53,1.57.35Zm-1.95.55a.87.87,0,0,0-.48.7c0,.26.11.37.42.19a7.7,7.7,0,0,0,.85-.61v-.8Z"/><path class="cls-55" d="M598.31,162.4v1.53c0,.37,0,.54.36.33l.66-.39.05.77s-.58.44-.88.62c-1,.6-1.35.43-1.35-.64v-1.55l-.51.29v-.85l.51-.29v-1l1.16-.67v1l1.06-.61v.85Z"/><path class="cls-55" d="M600.13,159l1.16-.67v1l-1.16.67Zm0,1.49,1.16-.67v3.72l-1.16.67Z"/><path class="cls-55" d="M602.36,162.94v-3.72l1.15-.66v.21a6,6,0,0,1,1.08-.92c1.21-.7,1.52-.22,1.52.92v2l-1.16.67v-2c0-.57-.09-.88-.65-.56a5.06,5.06,0,0,0-.79.59v2.79Z"/><path class="cls-55" d="M606.92,161a2.13,2.13,0,0,1,.62-1.24.34.34,0,0,1-.32-.38,3.29,3.29,0,0,1,.34-.79c-.3,0-.59-.12-.59-.77a3,3,0,0,1,1.82-2.36,7.12,7.12,0,0,1,.87-.41l1.39-.84v.8l-.65.33a.48.48,0,0,1,.19.4c0,1-.64,1.68-1.83,2.36l-.35.17a1.66,1.66,0,0,0-.09.34c0,.19.1.18.84-.24,1.47-.84,1.89-.79,1.89,0s-.93,1.79-2.05,2.43S606.92,161.83,606.92,161Zm1.38-1.32a1,1,0,0,0-.23.56c0,.22.3.15,1-.23s.87-.61.87-.87-.17-.21-.81.15C608.83,159.42,608.3,159.68,608.3,159.68Zm1.16-3.3c0-.35-.19-.43-.66-.17a1.08,1.08,0,0,0-.67.93c0,.35.2.44.67.17A1.07,1.07,0,0,0,609.46,156.38Z"/><g class="cls-88"><polygon class="cls-89" points="531.12 88.52 577.09 224.17 669.32 170.92 669.32 8.73 531.12 88.52"/></g><g class="cls-1"><polygon class="cls-90" points="710.41 266.92 622.01 257.96 727.01 207.55 710.41 266.92"/></g><polygon class="cls-35" points="710.39 104.73 876.67 8.73 876.67 170.91 710.39 266.92 710.39 104.73"/><polyline class="cls-91" points="736.78 89.49 876.67 8.73 876.67 170.91 736.78 89.49"/><polygon class="cls-92" points="710.39 104.73 695.28 96 695.28 258.19 710.39 266.92 710.39 104.73"/><polygon class="cls-33" points="861.56 0 695.28 96 710.39 104.73 876.67 8.73 861.56 0"/><polygon class="cls-55" points="725.28 113.61 856.83 37.66 856.83 165.97 725.28 241.92 725.28 113.61"/><polygon class="cls-93" points="725.28 113.61 718.42 109.67 718.42 237.98 725.28 241.92 725.28 113.61"/><polygon class="cls-94" points="849.97 33.72 718.42 109.67 725.28 113.61 856.83 37.66 849.97 33.72"/><polygon class="cls-92" points="733.62 161.36 754.21 149.47 754.21 169.55 733.62 181.44 733.62 161.36"/><path class="cls-55" d="M737.57,171.54s.95-.42,1.73-.88a2.46,2.46,0,0,0,1.24-2.23,9.65,9.65,0,0,1-1.17,1c-1.33.78-2.11.61-2.11-.72a4.13,4.13,0,0,1,2.25-3.38c1.62-1,2.35-.19,2.35,1.75a5,5,0,0,1-2.55,4.72,11.46,11.46,0,0,1-1.84.82Zm3-4.17c0-.86-.26-1.42-1-1a1.73,1.73,0,0,0-.93,1.49c0,.57.33.65.9.31A7.12,7.12,0,0,0,740.55,167.37Z"/><path class="cls-55" d="M742.77,163.7a10.82,10.82,0,0,1,1.78-1.39c1.62-1,2.15-.72,2.15.43a2.84,2.84,0,0,1-.72,1.8c.51,0,.83,0,.83.84a3.54,3.54,0,0,1-2.09,3.19,10.43,10.43,0,0,1-2,.86l.06-1a18,18,0,0,0,1.75-.85,1.6,1.6,0,0,0,1-1.38c0-.46-.36-.54-.89-.23l-1.24.73v-1.06l1.24-.73a1.79,1.79,0,0,0,.78-1.3c0-.44-.29-.49-.92-.12a18.54,18.54,0,0,0-1.61,1.12Z"/><path class="cls-55" d="M749.76,160.59a2.22,2.22,0,0,1-1.12,2c-.71.42-1.12.2-1.12-.7a2.21,2.21,0,0,1,1.12-2C749.36,159.48,749.76,159.69,749.76,160.59Zm-1.12,1.27c.17-.1.2-.31.2-.73s0-.58-.2-.48-.21.3-.21.72S748.48,162,748.65,161.86Zm2.1-3.45.68-.16-2.18,7.84-.68.18Zm1.73,4.23a2.22,2.22,0,0,1-1.12,2c-.72.42-1.12.2-1.12-.7a2.21,2.21,0,0,1,1.12-2C752.07,161.53,752.47,161.74,752.47,162.64Zm-1.12,1.27c.17-.1.2-.31.2-.73s0-.58-.2-.48-.2.3-.2.73S751.19,164,751.36,163.91Z"/><path class="cls-95" d="M760.57,153l1.1-.63v1.69s-.79.57-1.29.85c-1.23.71-1.54.29-1.54-.8a2.6,2.6,0,0,1,1.51-2.55,11.59,11.59,0,0,1,1.31-.62l0,.52s-.67.32-1.17.61a1.45,1.45,0,0,0-.85,1.59c0,.86.14,1,.83.63l.46-.28v-.63l-.34.2Z"/><path class="cls-95" d="M764.72,151.16a2.19,2.19,0,0,1-1.27,2c-1,.55-1.27.21-1.27-.52a2.18,2.18,0,0,1,1.27-2C764.41,150.09,764.72,150.42,764.72,151.16Zm-.75.43c0-.46-.11-.64-.52-.4a1,1,0,0,0-.52,1c0,.46.11.65.52.41A1,1,0,0,0,764,151.59Z"/><path class="cls-95" d="M767.67,149.46a2.19,2.19,0,0,1-1.28,2c-1,.55-1.27.21-1.27-.52a2.18,2.18,0,0,1,1.27-2C767.36,148.4,767.67,148.73,767.67,149.46Zm-.75.43c0-.46-.11-.64-.52-.4a1,1,0,0,0-.52,1c0,.46.11.65.52.41A1,1,0,0,0,766.92,149.9Z"/><path class="cls-95" d="M770.57,149l-.74.42v-.1a4.47,4.47,0,0,1-.67.54c-.84.48-1.08.2-1.08-.64a2,2,0,0,1,1.15-1.9,6.47,6.47,0,0,1,.6-.28v-1l.74-.43Zm-.74-.16v-1.26a5.68,5.68,0,0,0-.54.26,1,1,0,0,0-.45.95c0,.49.11.63.46.43A4.46,4.46,0,0,0,769.82,148.84Z"/><path class="cls-95" d="M774.1,145.22l1.1-.63v1.69s-.79.57-1.29.85c-1.23.71-1.54.29-1.54-.8a2.6,2.6,0,0,1,1.51-2.55,11.59,11.59,0,0,1,1.31-.62l0,.52s-.67.32-1.17.61a1.45,1.45,0,0,0-.85,1.59c0,.86.14,1,.83.63l.46-.28v-.63l-.34.2Z"/><path class="cls-95" d="M778.23,142.2v2.39l-.74.42v-.13a4.19,4.19,0,0,1-.69.59c-.81.47-1,.17-1-.63v-1.25l.74-.43v1.26c0,.42,0,.6.39.39a3.5,3.5,0,0,0,.53-.39v-1.79Z"/><path class="cls-95" d="M778.91,140.85l.74-.43v.65l-.74.43Zm0,1,.74-.43v2.39l-.74.43Z"/><path class="cls-95" d="M780.37,140l.74-.43v3.34l-.74.43Z"/><path class="cls-95" d="M784.19,141.16l-.74.42v-.1a4.41,4.41,0,0,1-.67.54c-.84.48-1.08.2-1.08-.64a2,2,0,0,1,1.15-1.9,6.51,6.51,0,0,1,.6-.28v-1l.74-.43Zm-.74-.16v-1.26a5.68,5.68,0,0,0-.54.26,1,1,0,0,0-.45.95c0,.49.11.63.45.43A4.46,4.46,0,0,0,783.45,141Z"/><path class="cls-95" d="M786.87,137.83s-.69.32-1,.5-.39.29-.39.41.11.07.62-.14.87-.24.87.24-.42,1-1.11,1.42a10.42,10.42,0,0,1-1.06.5l0-.55s.69-.32,1-.48.45-.32.45-.44-.06-.12-.57.1-.91.32-.91-.21a1.83,1.83,0,0,1,1.07-1.39,10.66,10.66,0,0,1,1.08-.5Z"/><path class="cls-95" d="M760.76,158.26v.24l-1.27.73-.07.77a3.33,3.33,0,0,1,.61-.49c.51-.29.83-.29.83.18A1.52,1.52,0,0,1,760,161a6.48,6.48,0,0,1-.86.4l0-.23a8,8,0,0,0,.8-.39,1,1,0,0,0,.59-.87c0-.34-.22-.32-.55-.13a3.3,3.3,0,0,0-.62.49l-.21.09.07-1.2Z"/><path class="cls-95" d="M763.13,158a1.72,1.72,0,0,1-.95,1.66c-.6.34-1,.29-1-.57a1.77,1.77,0,0,1,.95-1.74C762.8,157,763.13,157.12,763.13,158Zm-1.58.91c0,.7.22.76.63.52a1.24,1.24,0,0,0,.63-1.25c0-.75-.2-.84-.63-.59S761.55,158.2,761.55,159Z"/><path class="cls-95" d="M765.34,156.78a1.72,1.72,0,0,1-.95,1.66c-.6.34-1,.29-1-.57a1.77,1.77,0,0,1,.95-1.74C765,155.78,765.34,155.85,765.34,156.78Zm-1.58.91c0,.7.23.75.64.52A1.24,1.24,0,0,0,765,157c0-.75-.2-.84-.63-.59S763.76,156.93,763.76,157.69Z"/><path class="cls-95" d="M767.55,155.51a1.72,1.72,0,0,1-.95,1.66c-.59.34-.95.29-.95-.57a1.77,1.77,0,0,1,.95-1.74C767.21,154.51,767.55,154.59,767.55,155.51Zm-1.58.91c0,.7.22.76.63.52a1.23,1.23,0,0,0,.63-1.25c0-.75-.2-.84-.63-.59S766,155.66,766,156.42Z"/><path class="cls-95" d="M768.85,154.14l.29-.17v.23a5.22,5.22,0,0,1,.72-.68v.26a6.69,6.69,0,0,0-.72.64v1.24l-.29.17Z"/><path class="cls-95" d="M771.63,154v.19s-.45.31-.77.5c-.59.34-.78.15-.78-.42a1.5,1.5,0,0,1,.82-1.36c.52-.3.79-.22.79.34l0,.2-1.3.75c0,.36.13.48.52.26S771.63,154,771.63,154Zm-.22-.6c0-.42-.15-.48-.5-.28a1,1,0,0,0-.53.87Z"/><path class="cls-95" d="M772.26,152.18l.46,1.21.15-.08.48-1.75.3-.17-.56,2-.59.34-.56-1.37Z"/><path class="cls-95" d="M774,150.49l.3-.17v.29l-.3.17Zm0,.68.3-.17v1.69l-.3.17Z"/><path class="cls-95" d="M776.35,151.31v.19s-.45.31-.77.5c-.59.34-.78.15-.78-.42a1.5,1.5,0,0,1,.82-1.36c.52-.3.79-.22.79.34l0,.2-1.3.75c0,.36.13.48.52.26S776.35,151.31,776.35,151.31Zm-.22-.6c0-.42-.15-.48-.5-.28a1,1,0,0,0-.53.87Z"/><path class="cls-95" d="M777,149.46l.4,1.24.06,0,.47-1.71.31-.18.47,1.17.07,0,.39-1.7.3-.17-.47,2-.49.28-.42-1.08-.42,1.56-.49.28-.47-1.42Z"/><path class="cls-95" d="M781.16,147.31s-.44.2-.69.34-.43.3-.43.5.09.15.51,0,.68-.23.68.09-.29.7-.76,1c-.25.15-.69.33-.69.33l0-.23s.45-.2.65-.32.5-.35.5-.58-.1-.16-.53,0-.66.25-.66-.09.35-.7.71-.9a7.8,7.8,0,0,1,.71-.35Z"/><polygon class="cls-96" points="793.23 127.22 813.81 115.33 813.81 135.41 793.23 147.29 793.23 127.22"/><path class="cls-55" d="M801.44,131.46a2.56,2.56,0,0,1-.67,1.8c.49.12.76.27.76,1,0,1.29-1.06,2.4-2.35,3.16s-2.32,1-2.32-.3a3.22,3.22,0,0,1,.77-2.05c-.53-.12-.67-.37-.67-1a3.92,3.92,0,0,1,2.22-3C800.5,130.33,801.44,130.38,801.44,131.46Zm-1.28,3.46c0-.3-.19-.45-.55-.37l-.82.48a1.54,1.54,0,0,0-.56,1c0,.57.32.63.95.26A1.64,1.64,0,0,0,800.16,134.92Zm-1.82-1.43c0,.3.16.43.46.46l.82-.48a1.7,1.7,0,0,0,.46-1c0-.46-.3-.55-.86-.22A1.5,1.5,0,0,0,798.34,133.48Z"/><path class="cls-55" d="M802.38,134.33s.95-.42,1.73-.88a2.46,2.46,0,0,0,1.24-2.23,9.7,9.7,0,0,1-1.17,1c-1.33.78-2.11.61-2.11-.72a4.13,4.13,0,0,1,2.25-3.38c1.62-1,2.35-.19,2.35,1.75a5,5,0,0,1-2.56,4.72,11.51,11.51,0,0,1-1.84.82Zm3-4.17c0-.86-.26-1.42-1-1a1.73,1.73,0,0,0-.93,1.49c0,.57.33.65.9.31A7.12,7.12,0,0,0,805.35,130.15Z"/><path class="cls-55" d="M809.36,126.45a2.22,2.22,0,0,1-1.12,2c-.71.42-1.11.2-1.11-.7a2.2,2.2,0,0,1,1.11-2C809,125.34,809.36,125.55,809.36,126.45Zm-1.12,1.27c.17-.1.2-.31.2-.73s0-.58-.2-.48-.2.3-.2.72S808.08,127.82,808.25,127.72Zm2.1-3.45.68-.16L808.84,132l-.68.18Zm1.73,4.23a2.22,2.22,0,0,1-1.12,2c-.72.42-1.12.2-1.12-.7a2.21,2.21,0,0,1,1.12-2C811.68,127.39,812.08,127.6,812.08,128.5ZM811,129.77c.17-.1.21-.31.21-.73s0-.58-.21-.48-.2.3-.2.73S810.79,129.87,811,129.77Z"/><path class="cls-97" d="M819.12,118.68s-.78.37-1.1.56-.6.48-.6.69.15.19.78,0c.82-.24,1.06-.19,1.06.35a2.26,2.26,0,0,1-1.3,1.79,10.31,10.31,0,0,1-1.26.58l.08-.55s.74-.34,1.14-.57.59-.5.59-.76-.13-.21-.68,0c-.85.28-1.17.21-1.17-.31a2.15,2.15,0,0,1,1.29-1.7,12,12,0,0,1,1.24-.59Z"/><path class="cls-97" d="M820.63,118.62v1c0,.24,0,.35.23.21l.42-.25,0,.49s-.37.29-.57.4c-.67.39-.86.28-.86-.41v-1l-.33.19v-.54l.33-.19v-.66l.74-.43v.66l.68-.39v.54Z"/><path class="cls-97" d="M823.91,117.93c0,.14,0,.18.18.12l0,.5a1.54,1.54,0,0,1-.79.29,4.69,4.69,0,0,1-.81.64c-.58.33-.86.22-.86-.29s.36-.9,1-1.29l.59-.38v-.15c0-.21-.11-.2-.33-.07s-1,.64-1,.64l0-.43a10.28,10.28,0,0,1,1.13-.79c.72-.41,1-.34,1,.22Zm-1.25.35a.56.56,0,0,0-.31.45c0,.17.07.24.27.13a4.91,4.91,0,0,0,.54-.39V118Z"/><path class="cls-97" d="M824.62,115.78l.74-.42v.25a7.76,7.76,0,0,1,.89-.82v.64c-.49.36-.88.71-.88.71v1.6l-.74.43Z"/><path class="cls-97" d="M827.53,114.65v1c0,.24,0,.35.23.21l.42-.25,0,.49s-.37.29-.57.4c-.67.39-.86.28-.86-.41v-1l-.33.19v-.54l.33-.19v-.66l.74-.43v.66l.68-.39v.54Z"/><path class="cls-97" d="M831.07,112.07v2.39l-.74.42v-.13a4.19,4.19,0,0,1-.69.59c-.81.46-1,.17-1-.63v-1.25l.74-.43v1.26c0,.42,0,.6.39.39a3.47,3.47,0,0,0,.53-.39V112.5Z"/><path class="cls-97" d="M831.76,111.67l.74-.42v.13a3.56,3.56,0,0,1,.63-.55c.73-.42,1.09-.28,1.09.6a2,2,0,0,1-1.26,2,5,5,0,0,1-.46.23v1l-.74.43Zm.74.18v1.25s.25-.12.4-.2a1,1,0,0,0,.56-1c0-.48-.19-.55-.48-.38A3.15,3.15,0,0,0,832.5,111.86Z"/><path class="cls-97" d="M837.62,109l1.1-.63V110s-.79.57-1.29.85c-1.23.71-1.54.29-1.54-.8a2.6,2.6,0,0,1,1.51-2.55,11.68,11.68,0,0,1,1.31-.62l0,.52s-.66.32-1.17.61a1.45,1.45,0,0,0-.85,1.59c0,.86.14,1,.83.63L838,110v-.63l-.34.2Z"/><path class="cls-97" d="M841.75,105.93v2.39l-.74.42v-.13a4.15,4.15,0,0,1-.69.59c-.81.47-1,.17-1-.63v-1.25l.74-.43v1.26c0,.42,0,.6.39.39a3.53,3.53,0,0,0,.53-.39v-1.79Z"/><path class="cls-97" d="M842.43,104.58l.74-.43v.65l-.74.43Zm0,1,.74-.43v2.39l-.74.43Z"/><path class="cls-97" d="M843.89,103.74l.74-.43v3.34l-.74.43Z"/><path class="cls-97" d="M847.71,104.89l-.74.42v-.1a4.46,4.46,0,0,1-.67.54c-.84.48-1.08.2-1.08-.64a2,2,0,0,1,1.15-1.9c.21-.12.6-.28.6-.28v-1l.74-.43Zm-.74-.16v-1.26a5.77,5.77,0,0,0-.54.26,1,1,0,0,0-.45.95c0,.49.11.63.45.43A4.51,4.51,0,0,0,847,104.73Z"/><path class="cls-97" d="M850.38,101.56s-.69.32-1,.5-.39.29-.39.41.11.07.62-.14.87-.24.87.24-.42,1-1.11,1.42a10.5,10.5,0,0,1-1.06.5l0-.55s.69-.32,1-.48.45-.32.45-.44-.06-.12-.57.1-.91.32-.91-.21a1.83,1.83,0,0,1,1.07-1.39,10.66,10.66,0,0,1,1.08-.5Z"/><path class="cls-97" d="M818.43,125.08v.24l-1.27.73-.07.77a3.33,3.33,0,0,1,.61-.49c.51-.29.83-.29.83.18a1.52,1.52,0,0,1-.87,1.28,6.44,6.44,0,0,1-.86.4l0-.23a8,8,0,0,0,.8-.39,1,1,0,0,0,.59-.87c0-.34-.22-.32-.55-.13a3.3,3.3,0,0,0-.62.49l-.21.09.07-1.2Z"/><path class="cls-97" d="M820.81,124.86a1.72,1.72,0,0,1-.95,1.66c-.6.34-1,.29-1-.57a1.77,1.77,0,0,1,.95-1.74C820.47,123.87,820.81,123.94,820.81,124.86Zm-1.58.91c0,.7.22.76.63.52a1.23,1.23,0,0,0,.63-1.25c0-.75-.2-.84-.63-.59S819.23,125,819.23,125.78Z"/><path class="cls-97" d="M823,123.59a1.72,1.72,0,0,1-.95,1.66c-.6.34-1,.29-1-.57a1.77,1.77,0,0,1,.95-1.74C822.68,122.6,823,122.67,823,123.59Zm-1.58.91c0,.7.22.76.63.52a1.23,1.23,0,0,0,.63-1.25c0-.75-.2-.84-.63-.59S821.43,123.74,821.43,124.51Z"/><path class="cls-97" d="M825.22,122.32a1.72,1.72,0,0,1-.95,1.66c-.59.34-.95.29-.95-.57a1.76,1.76,0,0,1,.95-1.74C824.89,121.33,825.22,121.4,825.22,122.32Zm-1.58.91c0,.7.22.76.63.52a1.23,1.23,0,0,0,.63-1.25c0-.75-.2-.84-.63-.59S823.64,122.47,823.64,123.24Z"/><path class="cls-97" d="M826.53,121l.29-.17V121a5.21,5.21,0,0,1,.72-.68v.26a6.67,6.67,0,0,0-.72.64v1.24l-.29.17Z"/><path class="cls-97" d="M829.31,120.84V121s-.45.31-.77.5c-.59.34-.78.15-.78-.42a1.5,1.5,0,0,1,.82-1.36c.52-.3.79-.22.79.34l0,.2-1.3.75c0,.36.13.48.52.26S829.31,120.84,829.31,120.84Zm-.22-.6c0-.42-.15-.48-.5-.28a1,1,0,0,0-.53.87Z"/><path class="cls-97" d="M829.94,119l.46,1.21.15-.08.48-1.75.3-.17-.56,2-.59.34-.56-1.37Z"/><path class="cls-97" d="M831.71,117.31l.3-.17v.29l-.3.17Zm0,.68.3-.17v1.69l-.3.17Z"/><path class="cls-97" d="M834,118.13v.19s-.45.31-.77.5c-.59.34-.78.15-.78-.42a1.5,1.5,0,0,1,.82-1.36c.52-.3.79-.22.79.34l0,.2-1.3.75c0,.36.13.48.52.26S834,118.13,834,118.13Zm-.22-.6c0-.42-.15-.48-.5-.28a1,1,0,0,0-.53.87Z"/><path class="cls-97" d="M834.67,116.28l.4,1.25.06,0,.47-1.71.31-.18.47,1.17.07,0,.39-1.7.3-.17-.47,2-.49.28-.42-1.08-.42,1.56-.49.28-.47-1.42Z"/><path class="cls-97" d="M838.84,114.13s-.44.2-.69.34-.43.3-.43.5.09.15.51,0,.68-.23.68.09-.29.7-.76,1c-.25.15-.69.33-.69.33l0-.23s.45-.2.65-.32.5-.35.5-.58-.1-.16-.53,0-.66.25-.66-.09.35-.7.71-.9a7.76,7.76,0,0,1,.71-.35Z"/><polygon class="cls-98" points="725.28 113.61 725.28 147.95 856.83 72.32 856.83 37.66 725.28 113.61"/><path class="cls-55" d="M738.66,118.27l7.07-4.07v1.66l-4.85,2.79v2.2l3.89-2.24v1.63l-3.89,2.24v2.26l4.85-2.79v1.66l-7.07,4.07Z"/><path class="cls-55" d="M748.9,114.87l1.28,1.41,1.3-2.89,2.3-1.32-2.28,4.7,2.28,2.22-2.3,1.32-1.3-1.37-1.28,2.86-2.3,1.32,2.2-4.74-2.2-2.18Z"/><path class="cls-55" d="M755,111.37l2.14-1.23v.37a10.39,10.39,0,0,1,1.83-1.59c2.12-1.22,3.17-.83,3.17,1.75,0,2.95-1.19,4.37-3.65,5.78a14.63,14.63,0,0,1-1.33.66V120L755,121.19Zm2.15.53v3.63s.72-.33,1.17-.59a2.92,2.92,0,0,0,1.62-3c0-1.4-.55-1.59-1.4-1.1A9.11,9.11,0,0,0,757.15,111.9Z"/><path class="cls-55" d="M770.1,108l0,1.35a34.8,34.8,0,0,1-3.34,2.31c-2.43,1.4-3.46.95-3.46-1.54a6.4,6.4,0,0,1,3.55-5.77c2.36-1.36,3.5-1,3.5,1.11l-.16,1.38-4.73,2.72c0,.82.47.94,1.62.27C768.45,109.08,770.1,108,770.1,108Zm-1.83-1.44c0-1.12-.37-1.27-1.38-.69a2.36,2.36,0,0,0-1.4,2.28Z"/><path class="cls-55" d="M771.94,101.62l2.14-1.23v.73a22.82,22.82,0,0,1,2.57-2.38v1.87c-1.41,1-2.55,2.05-2.55,2.05v4.64l-2.15,1.24Z"/><path class="cls-55" d="M780.39,98.34v2.84c0,.69,0,1,.67.62.45-.26,1.22-.73,1.22-.73l.1,1.42s-1.08.83-1.64,1.15c-1.94,1.12-2.51.81-2.51-1.19V99.57l-.95.55V98.54l.95-.55V96.07l2.15-1.24v1.92l2-1.14V97.2Z"/><path class="cls-55" d="M789.72,95.16v3.16l-2.22,1.28V90.18l4.24-2.44c2.49-1.43,3.86-1.26,3.86.88A5.51,5.51,0,0,1,794,92.26l1.56,2.7-2.43,1.4-1.27-2.43Zm2-5.79-2,1.16v3l2.06-1.18A2.79,2.79,0,0,0,793.33,90C793.33,89.05,792.8,88.76,791.74,89.37Z"/><path class="cls-55" d="M803.51,88.79l0,1.35a34.76,34.76,0,0,1-3.34,2.31c-2.43,1.4-3.46.95-3.46-1.54a6.4,6.4,0,0,1,3.55-5.77c2.36-1.36,3.5-1,3.5,1.11l-.16,1.38-4.72,2.72c0,.82.47.94,1.62.27C801.85,89.87,803.51,88.79,803.51,88.79Zm-1.83-1.44c0-1.12-.37-1.27-1.38-.69A2.36,2.36,0,0,0,798.9,89Z"/><path class="cls-55" d="M806.74,81.6,808,86.2l.45-.26,1.35-6.12L812,78.57l-1.93,8-3.66,2.11-1.93-5.81Z"/><path class="cls-55" d="M813.25,75.09l2.15-1.24v1.88L813.25,77Zm0,2.77,2.15-1.24v6.92l-2.15,1.24Z"/><path class="cls-55" d="M823.76,77.14l0,1.35a34.76,34.76,0,0,1-3.34,2.31c-2.43,1.4-3.46.95-3.46-1.54a6.4,6.4,0,0,1,3.55-5.77c2.36-1.36,3.5-1,3.5,1.11L823.89,76l-4.73,2.72c0,.82.47.94,1.62.27C822.11,78.22,823.76,77.14,823.76,77.14Zm-1.83-1.44c0-1.12-.37-1.27-1.38-.69a2.36,2.36,0,0,0-1.4,2.28Z"/><path class="cls-55" d="M827.11,69.88l1,4.78.39-.22,1.22-5.91,2.22-1.28,1.22,4.5.39-.22,1-5.91,2.12-1.22-1.53,7.8-3.37,1.94-.92-3.71-.92,4.76-3.37,1.94-1.53-6Z"/><path class="cls-55" d="M843.78,62s-2,.92-2.92,1.46-1.12.83-1.12,1.2.31.21,1.79-.4c1.86-.78,2.52-.69,2.52.71,0,1.62-1.22,2.94-3.23,4.1a30.38,30.38,0,0,1-3.09,1.44l.06-1.59s2-.93,2.81-1.4c1-.59,1.3-.93,1.3-1.29s-.18-.34-1.66.3c-1.74.75-2.65.92-2.65-.61s1.41-3.07,3.1-4a31,31,0,0,1,3.12-1.45Z"/><polygon class="cls-99" points="736.29 213.36 782.74 186.44 782.74 190.85 736.29 217.77 736.29 213.36"/><polygon class="cls-99" points="736.29 206.17 797.99 170.44 797.99 174.85 736.29 210.58 736.29 206.17"/><polygon class="cls-99" points="736.29 198.98 795.23 164.96 795.23 169.37 736.29 203.4 736.29 198.98"/><path class="cls-99" d="M837.86,142.19h0c.41,1.24,1.91,1,3-.46h0c1.69-2.19,3.75-1.38,3,1.19h0c-.5,1.72.29,2.87,1.62,2.32h0c2-.82,2.44,2,.68,4.07h0c-1.18,1.4-1.46,3.38-.56,4h0c1.34.95,0,4.41-2,5h0a4.33,4.33,0,0,0-2.49,3.83h0c.07,2.26-2.45,4.77-3.68,3.65h0c-.82-.75-2.42.16-3.24,1.86h0c-1.23,2.52-3.75,2.91-3.68.56h0c0-1.58-1.18-2.07-2.49-1h0c-2,1.6-3.29-.32-2-2.8h0c.9-1.66.62-3.33-.56-3.37h0c-1.76-.07-1.3-3.4.68-4.84h0c1.33-1,2.13-3,1.62-4.18h0c-.75-1.71,1.31-4.88,3-4.62h0c1.13.17,2.64-1.32,3-3h0C834.56,141.88,837.25,140.34,837.86,142.19Z"/><path class="cls-55" d="M835.9,162.56c-3.76,2.15-6.81.37-6.81-4a15,15,0,0,1,6.81-11.78c3.76-2.15,6.81-.37,6.81,4A15,15,0,0,1,835.9,162.56Zm0-15.24a14,14,0,0,0-6.36,11c0,4.06,2.85,5.73,6.36,3.72a14,14,0,0,0,6.36-11C842.27,147,839.41,145.32,835.9,147.32Z"/><path class="cls-55" d="M836.16,149.77l1,1.85a.16.16,0,0,0,.21.06l2.33-.94c.23-.09.33.18.16.47l-1.69,2.87a.54.54,0,0,0-.08.34l.4,2.46c0,.25-.2.59-.41.58l-2.09-.07a.37.37,0,0,0-.26.15L833.69,160c-.21.25-.45.18-.41-.11l.4-2.91a.23.23,0,0,0-.08-.24l-1.69-.94c-.17-.09-.08-.48.16-.65l2.33-1.73a.65.65,0,0,0,.21-.3l1-3C835.75,149.76,836.05,149.58,836.16,149.77Z"/><polygon class="cls-100" points="725.28 147.95 718.42 143.87 718.42 109.67 725.28 113.61 725.28 147.95"/><g class="cls-77"><polygon class="cls-101" points="738.47 88.52 784.44 224.17 876.67 170.92 876.67 8.73 738.47 88.52"/></g></g></g></svg>