<svg xmlns="http://www.w3.org/2000/svg" xmlns:xlink="http://www.w3.org/1999/xlink" viewBox="0 0 1036.06 869.54"><defs><style>.cls-1{opacity:0.5;}.cls-2{opacity:0.6;}.cls-3{fill:url(#linear-gradient);}.cls-4{fill:url(#linear-gradient-2);}.cls-5{fill:url(#linear-gradient-3);}.cls-6{fill:url(#linear-gradient-4);}.cls-7{fill:url(#linear-gradient-5);}.cls-8{fill:url(#linear-gradient-6);}.cls-9{fill:url(#linear-gradient-7);}.cls-10{fill:url(#linear-gradient-8);}.cls-11{fill:url(#linear-gradient-9);}.cls-12{fill:url(#linear-gradient-10);}.cls-13{fill:url(#linear-gradient-11);}.cls-14{fill:url(#linear-gradient-12);}.cls-15{fill:url(#linear-gradient-13);}.cls-16{fill:url(#linear-gradient-14);}.cls-17{fill:url(#linear-gradient-15);}.cls-18{fill:url(#linear-gradient-16);}.cls-19{fill:url(#linear-gradient-17);}.cls-20{fill:url(#linear-gradient-18);}.cls-21{fill:url(#linear-gradient-19);}.cls-22{fill:url(#linear-gradient-20);}.cls-23{fill:url(#linear-gradient-21);}.cls-125,.cls-24,.cls-57,.cls-77,.cls-90,.cls-91{opacity:0.3;}.cls-24{fill:url(#linear-gradient-22);}.cls-25{fill:#464a64;}.cls-26{fill:#30334a;}.cls-27{fill:#1b1e39;}.cls-28{opacity:0.4;}.cls-29{fill:url(#linear-gradient-23);}.cls-30{fill:url(#linear-gradient-24);}.cls-31{fill:url(#linear-gradient-25);}.cls-32{fill:#e4ecff;}.cls-33{fill:#c3e4ff;}.cls-34{fill:#4e8fe0;}.cls-35{opacity:0.15;}.cls-36{fill:url(#linear-gradient-26);}.cls-37{fill:url(#linear-gradient-27);}.cls-38{fill:url(#linear-gradient-28);}.cls-39{fill:url(#linear-gradient-29);}.cls-40{fill:url(#linear-gradient-30);}.cls-41{fill:url(#linear-gradient-31);}.cls-42{opacity:0.2;}.cls-43{fill:url(#linear-gradient-32);}.cls-44{fill:url(#linear-gradient-33);}.cls-45{fill:url(#linear-gradient-34);}.cls-46{fill:#9dcff2;}.cls-47{fill:#7fbce6;}.cls-48{fill:#114dac;}.cls-49{fill:url(#linear-gradient-35);}.cls-50{fill:url(#linear-gradient-36);}.cls-51{fill:url(#linear-gradient-37);}.cls-52{fill:url(#linear-gradient-38);}.cls-53{fill:url(#linear-gradient-39);}.cls-54{fill:url(#linear-gradient-40);}.cls-55{fill:#114dcf;}.cls-56{fill:url(#linear-gradient-41);}.cls-57{fill:url(#linear-gradient-42);}.cls-58{fill:#bab4f0;}.cls-59{fill:#a49cf0;}.cls-60{fill:#6b67f5;}.cls-61{fill:url(#linear-gradient-43);}.cls-62{fill:url(#linear-gradient-44);}.cls-63{fill:url(#linear-gradient-45);}.cls-64{fill:url(#linear-gradient-46);}.cls-65{fill:url(#linear-gradient-47);}.cls-66{fill:url(#linear-gradient-48);}.cls-67{fill:url(#linear-gradient-49);}.cls-68{fill:url(#linear-gradient-50);}.cls-69{fill:url(#linear-gradient-51);}.cls-70{fill:url(#linear-gradient-52);}.cls-71{fill:url(#linear-gradient-53);}.cls-72{fill:url(#linear-gradient-54);}.cls-73{fill:url(#linear-gradient-55);}.cls-74{fill:url(#linear-gradient-56);}.cls-75{fill:url(#linear-gradient-57);}.cls-76{fill:url(#linear-gradient-58);}.cls-77{fill:url(#linear-gradient-59);}.cls-78{fill:url(#linear-gradient-60);}.cls-79{fill:url(#linear-gradient-61);}.cls-80{fill:url(#linear-gradient-62);}.cls-81{fill:url(#linear-gradient-63);}.cls-82{fill:url(#linear-gradient-64);}.cls-83{fill:url(#linear-gradient-65);}.cls-84{fill:url(#linear-gradient-66);}.cls-85{fill:url(#linear-gradient-67);}.cls-86{fill:url(#linear-gradient-68);}.cls-87{fill:url(#linear-gradient-69);}.cls-88{fill:url(#linear-gradient-70);}.cls-89{fill:url(#linear-gradient-71);}.cls-90{fill:url(#linear-gradient-72);}.cls-91{fill:url(#linear-gradient-73);}.cls-92{fill:url(#linear-gradient-74);}.cls-93{fill:url(#linear-gradient-75);}.cls-94{fill:url(#linear-gradient-76);}.cls-95{fill:url(#linear-gradient-77);}.cls-96{fill:url(#linear-gradient-78);}.cls-97{fill:url(#linear-gradient-79);}.cls-98{fill:url(#linear-gradient-80);}.cls-99{fill:url(#linear-gradient-81);}.cls-100{opacity:0.7;}.cls-101{fill:url(#linear-gradient-82);}.cls-102{fill:url(#linear-gradient-83);}.cls-103{fill:url(#linear-gradient-84);}.cls-104{fill:url(#linear-gradient-85);}.cls-105{fill:url(#linear-gradient-86);}.cls-106{fill:url(#linear-gradient-87);}.cls-107{fill:url(#linear-gradient-88);}.cls-108{fill:url(#linear-gradient-89);}.cls-109{fill:url(#linear-gradient-90);}.cls-110{fill:url(#linear-gradient-91);}.cls-111{fill:url(#linear-gradient-92);}.cls-112{fill:url(#linear-gradient-93);}.cls-113{fill:url(#linear-gradient-94);}.cls-114{fill:url(#linear-gradient-95);}.cls-115{fill:url(#linear-gradient-96);}.cls-116{fill:url(#linear-gradient-97);}.cls-117{fill:url(#linear-gradient-98);}.cls-118{fill:url(#linear-gradient-99);}.cls-119{fill:#f2d79d;}.cls-120{fill:#fff2ff;}.cls-121{fill:#9ba3db;}.cls-122{fill:url(#linear-gradient-100);}.cls-123{fill:url(#linear-gradient-101);}.cls-124{fill:url(#linear-gradient-102);}.cls-126{fill:url(#linear-gradient-103);}.cls-127{fill:url(#linear-gradient-104);}.cls-128{fill:url(#linear-gradient-105);}.cls-129{fill:url(#linear-gradient-106);}.cls-130{fill:url(#linear-gradient-107);}.cls-131{fill:#fff;}.cls-132{fill:#e8edff;}.cls-133{fill:#f5f5f5;}.cls-134{fill:#6eb734;}.cls-135{fill:#e8e8e8;}.cls-136{fill:#0942ab;}.cls-137{fill:#364ced;}.cls-138{fill:#bcc2d0;}.cls-139{fill:#a6c6ff;}.cls-140{fill:#d5f0c3;}.cls-141{fill:#70747d;}.cls-142{fill:#a1a6b3;}.cls-143{fill:#07368c;}.cls-144{fill:url(#linear-gradient-108);}.cls-145{fill:url(#linear-gradient-109);}.cls-146{fill:url(#linear-gradient-110);}.cls-147{fill:url(#linear-gradient-111);}.cls-148{fill:url(#linear-gradient-112);}</style><linearGradient id="linear-gradient" x1="485.79" y1="712.96" x2="1019.52" y2="712.96" gradientTransform="translate(463.16 -282.53) rotate(30.34)" gradientUnits="userSpaceOnUse"><stop offset="0" stop-color="#0022b0"/><stop offset="1" stop-color="#58ade4" stop-opacity="0"/></linearGradient><linearGradient id="linear-gradient-2" x1="455.42" y1="695.48" x2="989.15" y2="695.48" gradientTransform="translate(450.18 -269.58) rotate(30.34)" xlink:href="#linear-gradient"/><linearGradient id="linear-gradient-3" x1="425.06" y1="678" x2="958.79" y2="678" gradientTransform="translate(437.19 -256.64) rotate(30.34)" xlink:href="#linear-gradient"/><linearGradient id="linear-gradient-4" x1="394.7" y1="660.53" x2="928.43" y2="660.53" gradientTransform="translate(424.21 -243.7) rotate(30.34)" xlink:href="#linear-gradient"/><linearGradient id="linear-gradient-5" x1="364.34" y1="643.05" x2="898.07" y2="643.05" gradientTransform="translate(411.23 -230.76) rotate(30.34)" xlink:href="#linear-gradient"/><linearGradient id="linear-gradient-6" x1="333.98" y1="625.57" x2="867.71" y2="625.57" gradientTransform="translate(398.24 -217.82) rotate(30.34)" xlink:href="#linear-gradient"/><linearGradient id="linear-gradient-7" x1="303.62" y1="608.09" x2="837.34" y2="608.09" gradientTransform="translate(385.26 -204.87) rotate(30.34)" xlink:href="#linear-gradient"/><linearGradient id="linear-gradient-8" x1="273.25" y1="590.62" x2="806.98" y2="590.62" gradientTransform="translate(372.27 -191.93) rotate(30.34)" xlink:href="#linear-gradient"/><linearGradient id="linear-gradient-9" x1="242.89" y1="573.14" x2="776.62" y2="573.14" gradientTransform="translate(359.29 -178.99) rotate(30.34)" xlink:href="#linear-gradient"/><linearGradient id="linear-gradient-10" x1="212.53" y1="555.66" x2="746.26" y2="555.66" gradientTransform="translate(346.3 -166.05) rotate(30.34)" xlink:href="#linear-gradient"/><linearGradient id="linear-gradient-11" x1="182.17" y1="538.19" x2="715.9" y2="538.19" gradientTransform="translate(333.32 -153.11) rotate(30.34)" xlink:href="#linear-gradient"/><linearGradient id="linear-gradient-12" x1="151.81" y1="520.71" x2="685.54" y2="520.71" gradientTransform="translate(320.33 -140.16) rotate(30.34)" xlink:href="#linear-gradient"/><linearGradient id="linear-gradient-13" x1="121.45" y1="503.23" x2="655.17" y2="503.23" gradientTransform="translate(307.35 -127.22) rotate(30.34)" xlink:href="#linear-gradient"/><linearGradient id="linear-gradient-14" x1="91.08" y1="485.75" x2="624.81" y2="485.75" gradientTransform="translate(294.36 -114.28) rotate(30.34)" xlink:href="#linear-gradient"/><linearGradient id="linear-gradient-15" x1="60.72" y1="468.28" x2="594.45" y2="468.28" gradientTransform="translate(281.38 -101.34) rotate(30.34)" xlink:href="#linear-gradient"/><linearGradient id="linear-gradient-16" x1="30.36" y1="450.8" x2="564.09" y2="450.8" gradientTransform="translate(268.39 -88.4) rotate(30.34)" xlink:href="#linear-gradient"/><linearGradient id="linear-gradient-17" x1="0" y1="433.32" x2="533.73" y2="433.32" gradientTransform="translate(255.41 -75.45) rotate(30.34)" xlink:href="#linear-gradient"/><linearGradient id="linear-gradient-18" x1="272.89" y1="718.45" x2="329.89" y2="663.45" gradientUnits="userSpaceOnUse"><stop offset="0" stop-color="#bab4f0"/><stop offset="0.23" stop-color="#838fe2"/><stop offset="0.49" stop-color="#4b69d3"/><stop offset="0.72" stop-color="#224dc9"/><stop offset="0.89" stop-color="#093cc2"/><stop offset="1" stop-color="#0036c0"/></linearGradient><linearGradient id="linear-gradient-19" x1="288.41" y1="647.92" x2="273.27" y2="733.81" gradientUnits="userSpaceOnUse"><stop offset="0" stop-color="#58ade4" stop-opacity="0"/><stop offset="0.04" stop-color="#5eaee4" stop-opacity="0.04"/><stop offset="0.12" stop-color="#6db1e5" stop-opacity="0.14"/><stop offset="0.21" stop-color="#86b5e7" stop-opacity="0.32"/><stop offset="0.32" stop-color="#a8bbe9" stop-opacity="0.56"/><stop offset="0.45" stop-color="#d3c3ec" stop-opacity="0.86"/><stop offset="0.5" stop-color="#e8c7ed"/><stop offset="1" stop-color="#58ade4" stop-opacity="0"/></linearGradient><linearGradient id="linear-gradient-20" x1="297.24" y1="688.3" x2="321.09" y2="670.17" gradientUnits="userSpaceOnUse"><stop offset="0" stop-color="#001190"/><stop offset="0.13" stop-color="#021393" stop-opacity="0.94"/><stop offset="0.34" stop-color="#06199d" stop-opacity="0.76"/><stop offset="0.62" stop-color="#0d23ac" stop-opacity="0.48"/><stop offset="0.93" stop-color="#1730c1" stop-opacity="0.09"/><stop offset="1" stop-color="#1933c6" stop-opacity="0"/></linearGradient><linearGradient id="linear-gradient-21" x1="307.41" y1="659.31" x2="288.25" y2="692.5" gradientUnits="userSpaceOnUse"><stop offset="0" stop-color="#0036c0"/><stop offset="0.11" stop-color="#093cc2"/><stop offset="0.28" stop-color="#224dc9"/><stop offset="0.51" stop-color="#4b69d3"/><stop offset="0.77" stop-color="#838fe2"/><stop offset="1" stop-color="#bab4f0"/></linearGradient><linearGradient id="linear-gradient-22" x1="340.28" y1="730.92" x2="533.03" y2="544.94" gradientUnits="userSpaceOnUse"><stop offset="0" stop-color="#0036c0"/><stop offset="0.1" stop-color="#043bc1" stop-opacity="0.95"/><stop offset="0.28" stop-color="#0f49c5" stop-opacity="0.82"/><stop offset="0.5" stop-color="#2060cb" stop-opacity="0.61"/><stop offset="0.75" stop-color="#3980d4" stop-opacity="0.32"/><stop offset="1" stop-color="#53a2dd" stop-opacity="0"/></linearGradient><linearGradient id="linear-gradient-23" x1="319.42" y1="180.65" x2="340.29" y2="180.65" gradientUnits="userSpaceOnUse"><stop offset="0" stop-color="#e6ffe7"/><stop offset="1" stop-color="#0ab1e3"/></linearGradient><linearGradient id="linear-gradient-24" x1="324.64" y1="198.72" x2="324.64" y2="180.65" gradientUnits="userSpaceOnUse"><stop offset="0" stop-color="#0a66e3"/><stop offset="1" stop-color="#c8f7d8"/></linearGradient><linearGradient id="linear-gradient-25" x1="329.86" y1="198.72" x2="340.29" y2="180.65" gradientUnits="userSpaceOnUse"><stop offset="0" stop-color="#3439ff"/><stop offset="1" stop-color="#1286c4"/></linearGradient><linearGradient id="linear-gradient-26" x1="886.91" y1="221.17" x2="906.29" y2="221.17" xlink:href="#linear-gradient-23"/><linearGradient id="linear-gradient-27" x1="891.76" y1="237.95" x2="891.76" y2="221.17" xlink:href="#linear-gradient-24"/><linearGradient id="linear-gradient-28" x1="896.6" y1="237.95" x2="906.29" y2="221.17" xlink:href="#linear-gradient-25"/><linearGradient id="linear-gradient-29" x1="334.07" y1="212.91" x2="416.88" y2="212.91" gradientUnits="userSpaceOnUse"><stop offset="0" stop-color="#464a64"/><stop offset="0.12" stop-color="#3f4a6d" stop-opacity="0.94"/><stop offset="0.3" stop-color="#2d4b85" stop-opacity="0.77"/><stop offset="0.51" stop-color="#114dac" stop-opacity="0.5"/><stop offset="0.62" stop-color="#143d84" stop-opacity="0.67"/><stop offset="0.82" stop-color="#19264c" stop-opacity="0.92"/><stop offset="1" stop-color="#1b1e39"/></linearGradient><linearGradient id="linear-gradient-30" x1="337.06" y1="201.1" x2="372.77" y2="201.1" gradientUnits="userSpaceOnUse"><stop offset="0" stop-color="#bcffe8"/><stop offset="0.09" stop-color="#b7fbe8" stop-opacity="0.97"/><stop offset="0.22" stop-color="#a9f0ea" stop-opacity="0.89"/><stop offset="0.38" stop-color="#92deec" stop-opacity="0.75"/><stop offset="0.56" stop-color="#73c6ef" stop-opacity="0.57"/><stop offset="0.76" stop-color="#4aa6f3" stop-opacity="0.33"/><stop offset="0.97" stop-color="#1980f7" stop-opacity="0.04"/><stop offset="1" stop-color="#137bf8" stop-opacity="0"/></linearGradient><linearGradient id="linear-gradient-31" x1="360.91" y1="214.8" x2="396.62" y2="214.8" gradientUnits="userSpaceOnUse"><stop offset="0" stop-color="#d93bff"/><stop offset="0.09" stop-color="#d33dff" stop-opacity="0.97"/><stop offset="0.22" stop-color="#c342fe" stop-opacity="0.89"/><stop offset="0.38" stop-color="#a84bfd" stop-opacity="0.75"/><stop offset="0.56" stop-color="#8357fc" stop-opacity="0.57"/><stop offset="0.76" stop-color="#5366fa" stop-opacity="0.33"/><stop offset="0.97" stop-color="#1a79f8" stop-opacity="0.04"/><stop offset="1" stop-color="#137bf8" stop-opacity="0"/></linearGradient><linearGradient id="linear-gradient-32" x1="413.93" y1="136.65" x2="443.19" y2="217.04" gradientUnits="userSpaceOnUse"><stop offset="0" stop-color="#bcffe8"/><stop offset="0.05" stop-color="#b5fae9" stop-opacity="0.98"/><stop offset="0.13" stop-color="#a3ecea" stop-opacity="0.93"/><stop offset="0.23" stop-color="#85d4ed" stop-opacity="0.84"/><stop offset="0.35" stop-color="#5bb4f1" stop-opacity="0.71"/><stop offset="0.47" stop-color="#278af6" stop-opacity="0.56"/><stop offset="0.51" stop-color="#137bf8" stop-opacity="0.5"/><stop offset="0.55" stop-color="#298cf6" stop-opacity="0.57"/><stop offset="0.63" stop-color="#56aff2" stop-opacity="0.7"/><stop offset="0.71" stop-color="#7accee" stop-opacity="0.81"/><stop offset="0.79" stop-color="#97e2ec" stop-opacity="0.89"/><stop offset="0.87" stop-color="#abf2ea" stop-opacity="0.95"/><stop offset="0.94" stop-color="#b8fce8" stop-opacity="0.99"/><stop offset="1" stop-color="#bcffe8"/></linearGradient><linearGradient id="linear-gradient-33" x1="428.56" y1="179.04" x2="428.56" y2="146.56" gradientUnits="userSpaceOnUse"><stop offset="0" stop-color="#ffd769"/><stop offset="0.09" stop-color="#f8d46d" stop-opacity="0.97"/><stop offset="0.22" stop-color="#e5cd79" stop-opacity="0.89"/><stop offset="0.38" stop-color="#c5c08c" stop-opacity="0.75"/><stop offset="0.56" stop-color="#98afa7" stop-opacity="0.57"/><stop offset="0.76" stop-color="#6099ca" stop-opacity="0.33"/><stop offset="0.97" stop-color="#1c7ef3" stop-opacity="0.04"/><stop offset="1" stop-color="#137bf8" stop-opacity="0"/></linearGradient><linearGradient id="linear-gradient-34" x1="763" y1="343.59" x2="838.43" y2="343.59" xlink:href="#linear-gradient-29"/><linearGradient id="linear-gradient-35" x1="835.06" y1="457.58" x2="868.22" y2="457.58" xlink:href="#linear-gradient-23"/><linearGradient id="linear-gradient-36" x1="843.35" y1="486.3" x2="843.35" y2="457.58" xlink:href="#linear-gradient-24"/><linearGradient id="linear-gradient-37" x1="851.64" y1="486.3" x2="868.22" y2="457.58" xlink:href="#linear-gradient-25"/><linearGradient id="linear-gradient-38" x1="646.57" y1="482.27" x2="715.42" y2="482.27" xlink:href="#linear-gradient-23"/><linearGradient id="linear-gradient-39" x1="663.78" y1="541.9" x2="663.78" y2="482.27" xlink:href="#linear-gradient-24"/><linearGradient id="linear-gradient-40" x1="681" y1="541.9" x2="715.42" y2="482.27" xlink:href="#linear-gradient-25"/><linearGradient id="linear-gradient-41" x1="619.34" y1="184.05" x2="772.27" y2="272.35" xlink:href="#linear-gradient-29"/><linearGradient id="linear-gradient-42" x1="710.7" y1="514.93" x2="734.83" y2="517.14" gradientUnits="userSpaceOnUse"><stop offset="0" stop-color="#0000b1"/><stop offset="0.11" stop-color="#0105b4" stop-opacity="0.96"/><stop offset="0.28" stop-color="#0314bc" stop-opacity="0.84"/><stop offset="0.49" stop-color="#072cca" stop-opacity="0.64"/><stop offset="0.72" stop-color="#0c4ddd" stop-opacity="0.38"/><stop offset="0.98" stop-color="#1277f6" stop-opacity="0.03"/><stop offset="1" stop-color="#137bf8" stop-opacity="0"/></linearGradient><linearGradient id="linear-gradient-43" x1="750.35" y1="280.99" x2="783.65" y2="280.99" xlink:href="#linear-gradient-23"/><linearGradient id="linear-gradient-44" x1="758.67" y1="309.83" x2="758.67" y2="280.99" xlink:href="#linear-gradient-24"/><linearGradient id="linear-gradient-45" x1="767" y1="309.83" x2="783.65" y2="280.99" xlink:href="#linear-gradient-25"/><linearGradient id="linear-gradient-46" x1="772.82" y1="283.87" x2="781.19" y2="269.37" xlink:href="#linear-gradient-42"/><linearGradient id="linear-gradient-47" x1="438.18" y1="228.39" x2="449.21" y2="209.3" xlink:href="#linear-gradient-42"/><linearGradient id="linear-gradient-48" x1="697.53" y1="485.08" x2="713.09" y2="458.13" xlink:href="#linear-gradient-42"/><linearGradient id="linear-gradient-49" x1="912.44" y1="320" x2="925" y2="320" xlink:href="#linear-gradient-23"/><linearGradient id="linear-gradient-50" x1="915.58" y1="330.87" x2="915.58" y2="320" xlink:href="#linear-gradient-24"/><linearGradient id="linear-gradient-51" x1="918.72" y1="330.87" x2="925" y2="320" xlink:href="#linear-gradient-25"/><linearGradient id="linear-gradient-52" x1="531.48" y1="43.89" x2="547.46" y2="43.89" xlink:href="#linear-gradient-23"/><linearGradient id="linear-gradient-53" x1="535.48" y1="57.73" x2="535.48" y2="43.89" xlink:href="#linear-gradient-24"/><linearGradient id="linear-gradient-54" x1="539.47" y1="57.73" x2="547.46" y2="43.89" xlink:href="#linear-gradient-25"/><linearGradient id="linear-gradient-55" x1="416.94" y1="84.21" x2="536.98" y2="84.21" xlink:href="#linear-gradient-29"/><linearGradient id="linear-gradient-56" x1="400.86" y1="75.81" x2="470.92" y2="75.81" xlink:href="#linear-gradient-23"/><linearGradient id="linear-gradient-57" x1="418.37" y1="136.48" x2="418.37" y2="75.81" xlink:href="#linear-gradient-24"/><linearGradient id="linear-gradient-58" x1="435.89" y1="136.48" x2="470.92" y2="75.81" xlink:href="#linear-gradient-25"/><linearGradient id="linear-gradient-59" x1="467.4" y1="110.72" x2="489.23" y2="112.72" gradientUnits="userSpaceOnUse"><stop offset="0" stop-color="#0000b1"/><stop offset="0.18" stop-color="#020bb7" stop-opacity="0.97"/><stop offset="0.46" stop-color="#0629c9" stop-opacity="0.9"/><stop offset="0.8" stop-color="#0e59e5" stop-opacity="0.78"/><stop offset="1" stop-color="#137bf8" stop-opacity="0.7"/></linearGradient><linearGradient id="linear-gradient-60" x1="648.06" y1="526.97" x2="681" y2="526.97" xlink:href="#linear-gradient-42"/><linearGradient id="linear-gradient-61" x1="780.52" y1="140.59" x2="802.91" y2="140.59" xlink:href="#linear-gradient-42"/><linearGradient id="linear-gradient-62" x1="554.7" y1="520.73" x2="656.06" y2="520.73" xlink:href="#linear-gradient-29"/><linearGradient id="linear-gradient-63" x1="813.37" y1="461.72" x2="794.39" y2="569.4" xlink:href="#linear-gradient-29"/><linearGradient id="linear-gradient-64" x1="532.29" y1="99.16" x2="515.24" y2="146.02" xlink:href="#linear-gradient-29"/><linearGradient id="linear-gradient-65" x1="750.14" y1="52.29" x2="761.55" y2="52.29" xlink:href="#linear-gradient-23"/><linearGradient id="linear-gradient-66" x1="752.99" y1="62.16" x2="752.99" y2="52.29" xlink:href="#linear-gradient-24"/><linearGradient id="linear-gradient-67" x1="755.84" y1="62.16" x2="761.55" y2="52.29" xlink:href="#linear-gradient-25"/><linearGradient id="linear-gradient-68" x1="690.57" y1="76.07" x2="700.75" y2="104.05" xlink:href="#linear-gradient-29"/><linearGradient id="linear-gradient-69" x1="599.39" y1="119.75" x2="654.26" y2="119.75" xlink:href="#linear-gradient-23"/><linearGradient id="linear-gradient-70" x1="613.11" y1="167.27" x2="613.11" y2="119.75" xlink:href="#linear-gradient-24"/><linearGradient id="linear-gradient-71" x1="626.83" y1="167.27" x2="654.26" y2="119.75" xlink:href="#linear-gradient-25"/><linearGradient id="linear-gradient-72" x1="652.84" y1="147.98" x2="672" y2="149.73" xlink:href="#linear-gradient-59"/><linearGradient id="linear-gradient-73" x1="448.75" y1="248.6" x2="464.38" y2="250.03" xlink:href="#linear-gradient-59"/><linearGradient id="linear-gradient-74" x1="569.01" y1="422.53" x2="685" y2="422.53" xlink:href="#linear-gradient-29"/><linearGradient id="linear-gradient-75" x1="501.97" y1="265.13" x2="492.29" y2="291.74" xlink:href="#linear-gradient-29"/><linearGradient id="linear-gradient-76" x1="862.65" y1="475.17" x2="879.08" y2="475.17" gradientUnits="userSpaceOnUse"><stop offset="0" stop-color="#1b1e39"/><stop offset="0.36" stop-color="#19264c" stop-opacity="0.92"/><stop offset="0.79" stop-color="#143d84" stop-opacity="0.67"/><stop offset="1" stop-color="#114dac" stop-opacity="0.5"/></linearGradient><linearGradient id="linear-gradient-77" x1="545.46" y1="289.46" x2="629.77" y2="289.46" gradientUnits="userSpaceOnUse"><stop offset="0" stop-color="#e6ffe7"/><stop offset="1" stop-color="#0ab1e3" stop-opacity="0"/></linearGradient><linearGradient id="linear-gradient-78" x1="566.54" y1="362.47" x2="566.54" y2="289.46" xlink:href="#linear-gradient-24"/><linearGradient id="linear-gradient-79" x1="587.62" y1="362.47" x2="629.77" y2="289.46" xlink:href="#linear-gradient-25"/><linearGradient id="linear-gradient-80" x1="709.74" y1="122.38" x2="728.94" y2="175.14" gradientUnits="userSpaceOnUse"><stop offset="0" stop-color="#1b1e39"/><stop offset="0.2" stop-color="#182a57" stop-opacity="0.87"/><stop offset="0.5" stop-color="#114caa" stop-opacity="0.51"/><stop offset="0.51" stop-color="#114dac" stop-opacity="0.5"/><stop offset="0.62" stop-color="#143d84" stop-opacity="0.67"/><stop offset="0.82" stop-color="#19264c" stop-opacity="0.92"/><stop offset="1" stop-color="#1b1e39"/></linearGradient><linearGradient id="linear-gradient-81" x1="696.76" y1="156.84" x2="785.5" y2="156.84" gradientUnits="userSpaceOnUse"><stop offset="0" stop-color="#36ffff"/><stop offset="0.1" stop-color="#36f6fb" stop-opacity="0.93"/><stop offset="0.3" stop-color="#37ddf1" stop-opacity="0.76"/><stop offset="0.58" stop-color="#38b6e0" stop-opacity="0.48"/><stop offset="0.92" stop-color="#3a81c9" stop-opacity="0.09"/><stop offset="1" stop-color="#3a74c4" stop-opacity="0"/></linearGradient><linearGradient id="linear-gradient-82" x1="899.02" y1="223.31" x2="905.13" y2="212.74" gradientUnits="userSpaceOnUse"><stop offset="0" stop-color="#4e8fe0"/><stop offset="0.09" stop-color="#4e8ddc" stop-opacity="0.97"/><stop offset="0.24" stop-color="#4d86d0" stop-opacity="0.87"/><stop offset="0.41" stop-color="#4c7cbd" stop-opacity="0.72"/><stop offset="0.61" stop-color="#4a6da3" stop-opacity="0.51"/><stop offset="0.83" stop-color="#485a81" stop-opacity="0.24"/><stop offset="1" stop-color="#464a64" stop-opacity="0"/></linearGradient><linearGradient id="linear-gradient-83" x1="814.05" y1="205.95" x2="854.8" y2="256.26" gradientUnits="userSpaceOnUse"><stop offset="0" stop-color="#464a64"/><stop offset="0.12" stop-color="#3f4a6d" stop-opacity="0.94"/><stop offset="0.3" stop-color="#2d4b85" stop-opacity="0.77"/><stop offset="0.51" stop-color="#114dac" stop-opacity="0.5"/><stop offset="0.55" stop-color="#1a57b4" stop-opacity="0.57"/><stop offset="0.65" stop-color="#2d6ac3" stop-opacity="0.73"/><stop offset="0.75" stop-color="#3c7acf" stop-opacity="0.85"/><stop offset="0.84" stop-color="#4685d8" stop-opacity="0.93"/><stop offset="0.93" stop-color="#4d8cdd" stop-opacity="0.98"/><stop offset="1" stop-color="#4f8edf"/></linearGradient><linearGradient id="linear-gradient-84" x1="873.26" y1="337.07" x2="880.76" y2="357.69" xlink:href="#linear-gradient-29"/><linearGradient id="linear-gradient-85" x1="428.56" y1="213.91" x2="428.56" y2="181.43" xlink:href="#linear-gradient-30"/><linearGradient id="linear-gradient-86" x1="457.78" y1="272.34" x2="515.37" y2="272.34" xlink:href="#linear-gradient-30"/><linearGradient id="linear-gradient-87" x1="495.61" y1="144.04" x2="495.61" y2="110.51" xlink:href="#linear-gradient-30"/><linearGradient id="linear-gradient-88" x1="495.88" y1="63.58" x2="530.32" y2="63.58" xlink:href="#linear-gradient-31"/><linearGradient id="linear-gradient-89" x1="666.63" y1="256.04" x2="716.42" y2="256.04" xlink:href="#linear-gradient-30"/><linearGradient id="linear-gradient-90" x1="785.02" y1="212.86" x2="872.13" y2="212.86" xlink:href="#linear-gradient-30"/><linearGradient id="linear-gradient-91" x1="684.21" y1="83.32" x2="730.74" y2="83.32" gradientUnits="userSpaceOnUse"><stop offset="0" stop-color="#137bf8" stop-opacity="0"/><stop offset="0.03" stop-color="#1a79f8" stop-opacity="0.04"/><stop offset="0.24" stop-color="#5366fa" stop-opacity="0.33"/><stop offset="0.44" stop-color="#8357fc" stop-opacity="0.57"/><stop offset="0.62" stop-color="#a84bfd" stop-opacity="0.75"/><stop offset="0.78" stop-color="#c342fe" stop-opacity="0.89"/><stop offset="0.91" stop-color="#d33dff" stop-opacity="0.97"/><stop offset="1" stop-color="#d93bff"/></linearGradient><linearGradient id="linear-gradient-92" x1="862.29" y1="342.39" x2="909.38" y2="342.39" xlink:href="#linear-gradient-33"/><linearGradient id="linear-gradient-93" x1="619.76" y1="435.17" x2="674.02" y2="435.17" xlink:href="#linear-gradient-33"/><linearGradient id="linear-gradient-94" x1="636.23" y1="206.6" x2="636.23" y2="185.14" xlink:href="#linear-gradient-33"/><linearGradient id="linear-gradient-95" x1="851.77" y1="554.76" x2="851.77" y2="513.42" xlink:href="#linear-gradient-33"/><linearGradient id="linear-gradient-96" x1="584.33" y1="530.89" x2="584.33" y2="508.43" xlink:href="#linear-gradient-30"/><linearGradient id="linear-gradient-97" x1="739.67" y1="554.88" x2="739.67" y2="516.79" xlink:href="#linear-gradient-31"/><linearGradient id="linear-gradient-98" x1="885.96" y1="520.17" x2="885.96" y2="474.18" xlink:href="#linear-gradient-30"/><linearGradient id="linear-gradient-99" x1="795.14" y1="358.8" x2="795.14" y2="339.01" xlink:href="#linear-gradient-30"/><linearGradient id="linear-gradient-100" x1="822.88" y1="364.92" x2="845.67" y2="364.92" xlink:href="#linear-gradient-23"/><linearGradient id="linear-gradient-101" x1="828.58" y1="384.65" x2="828.58" y2="364.92" xlink:href="#linear-gradient-24"/><linearGradient id="linear-gradient-102" x1="834.28" y1="384.65" x2="845.67" y2="364.92" xlink:href="#linear-gradient-25"/><linearGradient id="linear-gradient-103" x1="512.05" y1="236.82" x2="234.43" y2="625.11" gradientUnits="userSpaceOnUse"><stop offset="0" stop-color="#7fbce6"/><stop offset="0.11" stop-color="#7ab7e3" stop-opacity="0.93"/><stop offset="0.33" stop-color="#6da9dd" stop-opacity="0.73"/><stop offset="0.63" stop-color="#5792d2" stop-opacity="0.42"/><stop offset="1" stop-color="#3a74c4" stop-opacity="0"/></linearGradient><linearGradient id="linear-gradient-104" x1="446.92" y1="297.25" x2="222.93" y2="610.54" gradientUnits="userSpaceOnUse"><stop offset="0" stop-color="#57aed9"/><stop offset="0.11" stop-color="#55a9d7" stop-opacity="0.92"/><stop offset="0.34" stop-color="#4f9ed3" stop-opacity="0.72"/><stop offset="0.66" stop-color="#458acc" stop-opacity="0.38"/><stop offset="1" stop-color="#3a74c4" stop-opacity="0"/></linearGradient><linearGradient id="linear-gradient-105" x1="488.99" y1="282.57" x2="1036.06" y2="282.57" gradientTransform="translate(246.22 -345.7) rotate(30.25)" gradientUnits="userSpaceOnUse"><stop offset="0" stop-color="aqua"/><stop offset="0.71" stop-color="#58ade4" stop-opacity="0"/></linearGradient><linearGradient id="linear-gradient-106" x1="241.3" y1="550.65" x2="355.82" y2="352.29" gradientUnits="userSpaceOnUse"><stop offset="0" stop-color="#a49cf0"/><stop offset="1" stop-color="#c3e4ff"/></linearGradient><linearGradient id="linear-gradient-107" x1="321.66" y1="708.7" x2="294.73" y2="194.85" gradientUnits="userSpaceOnUse"><stop offset="0" stop-color="#58ade4" stop-opacity="0"/><stop offset="0.04" stop-color="#55b0e5" stop-opacity="0.04"/><stop offset="0.11" stop-color="#4cb8e8" stop-opacity="0.13"/><stop offset="0.2" stop-color="#3ec5ec" stop-opacity="0.29"/><stop offset="0.31" stop-color="#2bd7f2" stop-opacity="0.52"/><stop offset="0.42" stop-color="#12eefa" stop-opacity="0.8"/><stop offset="0.5" stop-color="aqua"/><stop offset="1" stop-color="#58ade4" stop-opacity="0"/></linearGradient><linearGradient id="linear-gradient-108" x1="270.39" y1="571.35" x2="325.97" y2="475.09" gradientUnits="userSpaceOnUse"><stop offset="0.09" stop-color="#fff"/><stop offset="0.16" stop-color="#fff" stop-opacity="0.97"/><stop offset="0.29" stop-color="#fff" stop-opacity="0.88"/><stop offset="0.44" stop-color="#fff" stop-opacity="0.74"/><stop offset="0.61" stop-color="#fff" stop-opacity="0.53"/><stop offset="0.81" stop-color="#fff" stop-opacity="0.28"/><stop offset="1" stop-color="#fff" stop-opacity="0"/></linearGradient><linearGradient id="linear-gradient-109" x1="296.85" y1="777.09" x2="296.85" y2="466.04" gradientUnits="userSpaceOnUse"><stop offset="0" stop-color="#114dac"/><stop offset="0.28" stop-color="#3b5cc6"/><stop offset="0.6" stop-color="#646be0"/><stop offset="0.85" stop-color="#7d74ef"/><stop offset="1" stop-color="#8677f5"/></linearGradient><linearGradient id="linear-gradient-110" x1="246.79" y1="625.07" x2="346.2" y2="625.07" gradientUnits="userSpaceOnUse"><stop offset="0" stop-color="#542bd1" stop-opacity="0"/><stop offset="0.02" stop-color="#542bd2" stop-opacity="0.06"/><stop offset="0.12" stop-color="#5128d4" stop-opacity="0.34"/><stop offset="0.21" stop-color="#4f26d7" stop-opacity="0.58"/><stop offset="0.3" stop-color="#4e25d9" stop-opacity="0.76"/><stop offset="0.38" stop-color="#4d24da" stop-opacity="0.89"/><stop offset="0.45" stop-color="#4c23db" stop-opacity="0.97"/><stop offset="0.5" stop-color="#4c23db"/><stop offset="0.56" stop-color="#4d23db" stop-opacity="0.98"/><stop offset="0.62" stop-color="#4f23db" stop-opacity="0.91"/><stop offset="0.7" stop-color="#5222dc" stop-opacity="0.8"/><stop offset="0.77" stop-color="#5622dc" stop-opacity="0.65"/><stop offset="0.85" stop-color="#5c21dd" stop-opacity="0.46"/><stop offset="0.93" stop-color="#6321dd" stop-opacity="0.22"/><stop offset="1" stop-color="#6920de" stop-opacity="0"/></linearGradient><linearGradient id="linear-gradient-111" x1="246.79" y1="622.57" x2="346.2" y2="622.57" gradientUnits="userSpaceOnUse"><stop offset="0" stop-color="#656bdf" stop-opacity="0"/><stop offset="0.05" stop-color="#6a6de2" stop-opacity="0.16"/><stop offset="0.14" stop-color="#7370e8" stop-opacity="0.41"/><stop offset="0.23" stop-color="#7a72ed" stop-opacity="0.62"/><stop offset="0.31" stop-color="#7f74f0" stop-opacity="0.79"/><stop offset="0.39" stop-color="#8376f3" stop-opacity="0.9"/><stop offset="0.45" stop-color="#8577f4" stop-opacity="0.97"/><stop offset="0.5" stop-color="#8677f5"/><stop offset="0.55" stop-color="#8577f4" stop-opacity="0.98"/><stop offset="0.62" stop-color="#8275f2" stop-opacity="0.92"/><stop offset="0.69" stop-color="#7c73ef" stop-opacity="0.82"/><stop offset="0.76" stop-color="#7470e9" stop-opacity="0.69"/><stop offset="0.83" stop-color="#6a6de3" stop-opacity="0.51"/><stop offset="0.91" stop-color="#5e68db" stop-opacity="0.3"/><stop offset="0.98" stop-color="#5063d2" stop-opacity="0.05"/><stop offset="1" stop-color="#4d62d0" stop-opacity="0"/></linearGradient><linearGradient id="linear-gradient-112" x1="93.25" y1="654.32" x2="500.45" y2="654.32" gradientUnits="userSpaceOnUse"><stop offset="0" stop-color="#58ade4" stop-opacity="0"/><stop offset="0.05" stop-color="#59ace4" stop-opacity="0.04"/><stop offset="0.12" stop-color="#5da8e3" stop-opacity="0.15"/><stop offset="0.22" stop-color="#63a1e2" stop-opacity="0.34"/><stop offset="0.34" stop-color="#6b99e0" stop-opacity="0.59"/><stop offset="0.47" stop-color="#758edf" stop-opacity="0.91"/><stop offset="0.5" stop-color="#788bde"/><stop offset="1" stop-color="#58ade4" stop-opacity="0"/></linearGradient></defs><title>ICO_profile_page_svg</title><g id="Layer_2" data-name="Layer 2"><g id="Layer_2-2" data-name="Layer 2"><g class="cls-1"><g class="cls-2"><rect class="cls-3" x="443.9" y="712.21" width="617.51" height="1.5" transform="translate(-257.04 477.78) rotate(-30.34)"/></g><g class="cls-2"><rect class="cls-4" x="413.53" y="694.73" width="617.51" height="1.5" transform="translate(-252.37 460.05) rotate(-30.34)"/></g><g class="cls-2"><rect class="cls-5" x="383.17" y="677.25" width="617.51" height="1.5" transform="translate(-247.7 442.32) rotate(-30.34)"/></g><g class="cls-2"><rect class="cls-6" x="352.81" y="659.78" width="617.51" height="1.5" transform="translate(-243.03 424.59) rotate(-30.34)"/></g><g class="cls-2"><rect class="cls-7" x="322.45" y="642.3" width="617.51" height="1.5" transform="translate(-238.36 406.86) rotate(-30.34)"/></g><g class="cls-2"><rect class="cls-8" x="292.09" y="624.82" width="617.51" height="1.5" transform="translate(-233.69 389.14) rotate(-30.34)"/></g><g class="cls-2"><rect class="cls-9" x="261.73" y="607.34" width="617.51" height="1.5" transform="translate(-229.02 371.41) rotate(-30.34)"/></g><g class="cls-2"><rect class="cls-10" x="231.36" y="589.87" width="617.51" height="1.5" transform="translate(-224.35 353.68) rotate(-30.34)"/></g><g class="cls-2"><rect class="cls-11" x="201" y="572.39" width="617.51" height="1.5" transform="translate(-219.68 335.95) rotate(-30.34)"/></g><g class="cls-2"><rect class="cls-12" x="170.64" y="554.91" width="617.51" height="1.5" transform="translate(-215.01 318.22) rotate(-30.34)"/></g><g class="cls-2"><rect class="cls-13" x="140.28" y="537.44" width="617.51" height="1.5" transform="translate(-210.34 300.49) rotate(-30.34)"/></g><g class="cls-2"><rect class="cls-14" x="109.92" y="519.96" width="617.51" height="1.5" transform="translate(-205.67 282.77) rotate(-30.34)"/></g><g class="cls-2"><rect class="cls-15" x="79.56" y="502.48" width="617.51" height="1.5" transform="translate(-201 265.04) rotate(-30.34)"/></g><g class="cls-2"><rect class="cls-16" x="49.19" y="485" width="617.51" height="1.5" transform="translate(-196.33 247.31) rotate(-30.34)"/></g><g class="cls-2"><rect class="cls-17" x="18.83" y="467.53" width="617.51" height="1.5" transform="translate(-191.66 229.58) rotate(-30.34)"/></g><g class="cls-2"><rect class="cls-18" x="-11.53" y="450.05" width="617.51" height="1.5" transform="translate(-186.99 211.85) rotate(-30.34)"/></g><g class="cls-2"><rect class="cls-19" x="-41.89" y="432.57" width="617.51" height="1.5" transform="translate(-182.32 194.12) rotate(-30.34)"/></g></g><path class="cls-20" d="M384.09,716.61l-40.26,23.24a20.53,20.53,0,0,1-20.53,0L216.89,678.42a6.42,6.42,0,0,1,0-11.12l40.89-23.61Z"/><path class="cls-21" d="M343.83,739.86a21.11,21.11,0,0,1-5.91,2.51,20.92,20.92,0,0,1-12.81-1c-2.05-.86-3.86-2-5.75-3q-11.23-6.18-22.41-12.44c-7.47-4.15-14.88-8.4-22.32-12.6l-22.24-12.74-22.16-12.88-11-6.5-2.76-1.62a8,8,0,0,1-2.74-2.57,7.7,7.7,0,0,1-.52-7.28,7.52,7.52,0,0,1,2.35-2.92l.78-.51.7-.4,1.4-.78,5.6-3.12,11.22-6.19c7.52-4.06,15-8.2,22.56-12.18-7.23,4.57-14.55,9-21.83,13.45l-11,6.62-5.5,3.29-1.38.82-.68.41-.55.38a5.21,5.21,0,0,0-1.57,2.06,5.27,5.27,0,0,0,.48,5,5.54,5.54,0,0,0,1.92,1.72L220.5,679l11.15,6.32L253.88,698,276,710.93c7.36,4.34,14.74,8.64,22.07,13s14.67,8.77,22,13.19c1.83,1.09,3.62,2.32,5.47,3.2a19.49,19.49,0,0,0,6,1.74A20.86,20.86,0,0,0,343.83,739.86Z"/><path class="cls-22" d="M308.67,704c10.13-1.09,28-11.34,31.51-17.84l-47.25-26.75s-15,21.35-21.6,23.3Z"/><path class="cls-23" d="M284.31,646.24c0,18.52-1.93,30.13-13,36.49L308.67,704c11.06-6.36,13-18,13-36.49Z"/><path class="cls-24" d="M168.34,614.06,493.15,803a25.87,25.87,0,0,0,26.31-.17L691.91,699.41,331.16,490.17,168.08,589.79A14.13,14.13,0,0,0,168.34,614.06Z"/><polygon class="cls-25" points="313.45 177.2 329.86 167.72 346.27 177.2 329.86 186.67 313.45 177.2"/><polygon class="cls-26" points="313.45 177.2 313.45 196.15 329.86 205.62 329.86 186.67 313.45 177.2"/><polygon class="cls-27" points="346.27 177.2 329.86 186.67 329.86 205.62 346.27 196.15 346.27 177.2"/><g class="cls-28"><polygon class="cls-29" points="319.43 180.65 329.86 174.62 340.29 180.65 329.86 186.67 319.43 180.65"/><polygon class="cls-30" points="319.43 180.65 319.43 192.7 329.86 198.72 329.86 186.67 319.43 180.65"/><polygon class="cls-31" points="340.29 180.65 329.86 186.67 329.86 198.72 340.29 192.7 340.29 180.65"/></g><polygon class="cls-32" points="880.19 217.29 896.6 207.82 913.01 217.29 896.6 226.77 880.19 217.29"/><polygon class="cls-33" points="880.19 217.29 880.19 236.24 896.6 245.72 896.6 226.77 880.19 217.29"/><polygon class="cls-34" points="913.01 217.29 896.6 226.77 896.6 245.72 913.01 236.24 913.01 217.29"/><g class="cls-35"><polygon class="cls-36" points="886.91 221.18 896.6 215.58 906.29 221.18 896.6 226.77 886.91 221.18"/><polygon class="cls-37" points="886.91 221.18 886.91 232.36 896.6 237.95 896.6 226.77 886.91 221.18"/><polygon class="cls-38" points="906.29 221.18 896.6 226.77 896.6 237.95 906.29 232.36 906.29 221.18"/></g><g class="cls-1"><path class="cls-39" d="M412.87,238.4a4,4,0,0,1-2-.53l-74.81-43a4,4,0,1,1,4-6.94l74.81,43a4,4,0,0,1-2,7.47Z"/></g><path class="cls-40" d="M371.77,211.78a1,1,0,0,1-.5-.13l-33.71-19.37a1,1,0,1,1,1-1.73l33.71,19.37a1,1,0,0,1-.5,1.87Z"/><path class="cls-41" d="M395.62,225.49a1,1,0,0,1-.5-.13L361.41,206a1,1,0,1,1,1-1.73l33.71,19.37a1,1,0,0,1-.5,1.87Z"/><polygon class="cls-25" points="392.66 218.11 428.56 197.38 464.47 218.11 428.56 238.84 392.66 218.11"/><polygon class="cls-26" points="392.66 218.11 392.66 259.57 428.56 280.3 428.56 238.84 392.66 218.11"/><polygon class="cls-27" points="464.47 218.11 428.56 238.84 428.56 280.3 464.47 259.57 464.47 218.11"/><g class="cls-42"><polygon class="cls-32" points="408.69 227.36 428.57 215.88 448.45 227.36 428.57 238.84 408.69 227.36"/><polygon class="cls-33" points="408.69 227.36 408.69 250.32 428.57 261.8 428.57 238.84 408.69 227.36"/><polygon class="cls-34" points="448.45 227.36 428.57 238.84 428.57 261.8 448.45 250.32 448.45 227.36"/></g><g class="cls-1"><path class="cls-43" d="M428.56,222.11a4,4,0,0,1-4-4V135.59a4,4,0,0,1,8,0v82.52A4,4,0,0,1,428.56,222.11Z"/></g><path class="cls-44" d="M428.56,179a1,1,0,0,1-1-1V147.56a1,1,0,0,1,2,0V178A1,1,0,0,1,428.56,179Z"/><g class="cls-1"><path class="cls-45" d="M834.43,375.59a4,4,0,0,1-2-.54l-62.33-36a14.23,14.23,0,0,1-7.1-12.29V315.6a4,4,0,1,1,8,0v11.16a6.21,6.21,0,0,0,3.1,5.37l62.33,36a4,4,0,0,1-2,7.46Z"/></g><polygon class="cls-46" points="824.21 451.31 851.64 435.47 879.08 451.31 851.64 467.15 824.21 451.31"/><polygon class="cls-47" points="824.21 451.31 824.21 482.99 851.64 498.83 851.64 467.15 824.21 451.31"/><polygon class="cls-48" points="879.08 451.31 851.64 467.15 851.64 498.83 879.08 482.99 879.08 451.31"/><g class="cls-28"><polygon class="cls-49" points="835.06 457.58 851.64 448 868.22 457.58 851.64 467.15 835.06 457.58"/><polygon class="cls-50" points="835.06 457.58 835.06 476.72 851.64 486.3 851.64 467.15 835.06 457.58"/><polygon class="cls-51" points="868.22 457.58 851.64 467.15 851.64 486.3 868.22 476.72 868.22 457.58"/></g><polygon class="cls-32" points="626.83 470.87 681 439.6 735.17 470.87 681 502.15 626.83 470.87"/><polygon class="cls-33" points="626.83 470.87 626.83 533.42 681 564.7 681 502.15 626.83 470.87"/><polygon class="cls-34" points="735.17 470.87 681 502.15 681 564.7 735.17 533.42 735.17 470.87"/><g class="cls-28"><polygon class="cls-52" points="646.57 482.27 681 462.4 715.42 482.27 681 502.15 646.57 482.27"/><polygon class="cls-53" points="646.57 482.27 646.57 522.02 681 541.9 681 502.15 646.57 482.27"/><polygon class="cls-54" points="715.42 482.27 681 502.15 681 541.9 715.42 522.02 715.42 482.27"/></g><g class="cls-1"><path class="cls-55" d="M699.59,472.62a.36.36,0,0,1,0,.68,1.3,1.3,0,0,1-1.17,0l-16.61-9.59.43,6.53c0,.26-.34.49-.8.5a1.2,1.2,0,0,1-.62-.14.43.43,0,0,1-.25-.32l-.5-7.75c0-.19.19-.38.5-.45a1.28,1.28,0,0,1,.92.1Z"/><path class="cls-55" d="M700.09,461.85c10.61,6.13,10.67,16.06.12,22.19s-27.69,6.13-38.3,0-10.67-16.06-.12-22.19S689.48,455.72,700.09,461.85Zm-19,25.82c6.51,0,13-1.44,18-4.31s7.41-6.65,7.39-10.42-2.52-7.54-7.51-10.41-11.49-4.31-18-4.31-13,1.44-18,4.31-7.41,6.64-7.39,10.41,2.52,7.54,7.5,10.42,11.5,4.31,18,4.31"/><path class="cls-55" d="M689,473.19a.41.41,0,0,1,.24.36c0,.26-.4.47-.86.46l-23.3-.56,16.6,9.58a.36.36,0,0,1,0,.68,1.29,1.29,0,0,1-1.17,0l-18.1-10.45c-.24-.14-.31-.35-.18-.53a1,1,0,0,1,.8-.29l25.42.61A1.19,1.19,0,0,1,689,473.19Z"/></g><g class="cls-1"><path class="cls-56" d="M756.07,296.41a4,4,0,0,1-2-.52L639.45,231.29a14.21,14.21,0,0,1-7.23-12.37V162.8a4,4,0,0,1,8,0v56.12a6.2,6.2,0,0,0,3.15,5.4L758,288.93a4,4,0,0,1-2,7.49Z"/></g><path class="cls-57" d="M735.17,511.73v8l-30.08.11a4,4,0,0,1,0-8Z"/><polygon class="cls-58" points="741.52 275.89 767 261.18 792.48 275.89 767 290.6 741.52 275.89"/><polygon class="cls-59" points="741.52 275.89 741.52 305.31 767 320.02 767 290.6 741.52 275.89"/><polygon class="cls-60" points="792.48 275.89 767 290.6 767 320.02 792.48 305.31 792.48 275.89"/><g class="cls-35"><polygon class="cls-61" points="750.35 280.99 767 271.37 783.65 280.99 767 290.6 750.35 280.99"/><polygon class="cls-62" points="750.35 280.99 750.35 300.21 767 309.83 767 290.6 750.35 280.99"/><polygon class="cls-63" points="783.65 280.99 767 290.6 767 309.83 783.65 300.21 783.65 280.99"/></g><g class="cls-42"><path class="cls-64" d="M792.48,275.89l-6.93,4H767a4,4,0,0,1,0-8h18.55Z"/></g><g class="cls-42"><path class="cls-65" d="M464.47,218.11,457.7,222l-29.32.09a4,4,0,0,1,0-8h29.16Z"/></g><g class="cls-42"><path class="cls-66" d="M735.17,470.87l-6.77,3.91-47.48.09a4,4,0,0,1,0-8h47.32Z"/></g><polygon class="cls-46" points="908.38 317.65 918.72 311.68 929.06 317.65 918.72 323.62 908.38 317.65"/><polygon class="cls-47" points="908.38 317.65 908.38 329.59 918.72 335.56 918.72 323.62 908.38 317.65"/><polygon class="cls-48" points="929.06 317.65 918.72 323.62 918.72 335.56 929.06 329.59 929.06 317.65"/><g class="cls-28"><polygon class="cls-67" points="912.44 320 918.72 316.37 925 320 918.72 323.62 912.44 320"/><polygon class="cls-68" points="912.44 320 912.44 327.25 918.72 330.87 918.72 323.62 912.44 320"/><polygon class="cls-69" points="925 320 918.72 323.62 918.72 330.87 925 327.25 925 320"/></g><polygon class="cls-46" points="538.59 493.97 551.52 486.51 564.45 493.97 551.52 501.44 538.59 493.97"/><polygon class="cls-47" points="538.59 493.97 538.59 508.9 551.52 516.36 551.52 501.44 538.59 493.97"/><polygon class="cls-48" points="564.45 493.97 551.52 501.44 551.52 516.36 564.45 508.9 564.45 493.97"/><polygon class="cls-25" points="766.99 103.91 802.9 83.18 838.81 103.91 802.9 124.64 766.99 103.91"/><polygon class="cls-26" points="766.99 103.91 766.99 145.37 802.9 166.1 802.9 124.64 766.99 103.91"/><polygon class="cls-27" points="838.81 103.91 802.9 124.64 802.9 166.1 838.81 145.37 838.81 103.91"/><g class="cls-42"><polygon class="cls-32" points="783.03 113.16 802.91 101.68 822.79 113.16 802.91 124.64 783.03 113.16"/><polygon class="cls-33" points="783.03 113.16 783.03 136.12 802.91 147.6 802.91 124.64 783.03 113.16"/><polygon class="cls-34" points="822.79 113.16 802.91 124.64 802.91 147.6 822.79 136.12 822.79 113.16"/></g><polygon class="cls-32" points="527.02 41.31 539.47 34.12 551.93 41.31 539.47 48.5 527.02 41.31"/><polygon class="cls-33" points="527.02 41.31 527.02 55.69 539.47 62.88 539.47 48.5 527.02 41.31"/><polygon class="cls-34" points="551.93 41.31 539.47 48.5 539.47 62.88 551.93 55.69 551.93 41.31"/><g class="cls-28"><polygon class="cls-70" points="531.48 43.89 539.47 39.28 547.46 43.89 539.47 48.5 531.48 43.89"/><polygon class="cls-71" points="531.48 43.89 531.48 53.12 539.47 57.73 539.47 48.5 531.48 43.89"/><polygon class="cls-72" points="547.46 43.89 539.47 48.5 539.47 57.73 547.46 53.12 547.46 43.89"/></g><g class="cls-1"><path class="cls-73" d="M420.94,120.18a4,4,0,0,1-2-7.47l112-64a4,4,0,1,1,4,6.95l-112,64A4,4,0,0,1,420.94,120.18Z"/></g><polygon class="cls-58" points="382.27 65.08 435.89 34.12 489.5 65.08 435.89 96.03 382.27 65.08"/><polygon class="cls-59" points="382.27 65.08 382.27 126.98 435.89 157.94 435.89 96.03 382.27 65.08"/><polygon class="cls-60" points="489.5 65.08 435.89 96.03 435.89 157.94 489.5 126.98 489.5 65.08"/><g class="cls-35"><polygon class="cls-74" points="400.86 75.81 435.89 55.58 470.92 75.81 435.89 96.03 400.86 75.81"/><polygon class="cls-75" points="400.86 75.81 400.86 116.25 435.89 136.48 435.89 96.03 400.86 75.81"/><polygon class="cls-76" points="470.92 75.81 435.89 96.03 435.89 136.48 470.92 116.25 470.92 75.81"/></g><path class="cls-77" d="M489.5,107.51v8H462.7a4,4,0,1,1,0-8Z"/><g class="cls-42"><path class="cls-78" d="M681,539.57l-30.93-17.74a4,4,0,1,1,4-6.94l27,15.46Z"/></g><g class="cls-42"><path class="cls-79" d="M802.91,150.16,782.53,138.5a4,4,0,0,1,4-6.94l16.39,9.38Z"/></g><g class="cls-1"><path class="cls-80" d="M617.52,540.53a18.4,18.4,0,0,1-9.18-2.45l-51.63-29.7a4,4,0,0,1,4-6.94l51.64,29.7a10.42,10.42,0,0,0,10.51-.08L650,514.92a4,4,0,0,1,4.09,6.88L626.93,538A18.4,18.4,0,0,1,617.52,540.53Z"/></g><g class="cls-1"><path class="cls-81" d="M794.21,569.08a18.41,18.41,0,0,1-9.21-2.46l-82-47.34a4,4,0,1,1,4-6.93l82,47.34a10.45,10.45,0,0,0,10.42,0L901.09,501a.36.36,0,0,0,0-.62l-36.5-21.76a4,4,0,0,1,4.1-6.87l36.5,21.76a8.36,8.36,0,0,1-.1,14.42l-101.68,58.7A18.41,18.41,0,0,1,794.21,569.08Z"/></g><g class="cls-1"><path class="cls-82" d="M521.31,147a18.41,18.41,0,0,1-9.19-2.45L460.7,115a4,4,0,1,1,4-6.93l51.42,29.62a10.44,10.44,0,0,0,10.41,0l36.93-21.32a15.37,15.37,0,0,1,15.33,0l10.83,6.25a4,4,0,1,1-4,6.93l-10.83-6.25a7.36,7.36,0,0,0-7.33,0l-36.93,21.32A18.41,18.41,0,0,1,521.31,147Z"/></g><polygon class="cls-32" points="746.15 49.98 755.85 44.38 765.54 49.98 755.85 55.58 746.15 49.98"/><polygon class="cls-33" points="746.15 49.98 746.15 61.18 755.85 66.78 755.85 55.58 746.15 49.98"/><polygon class="cls-34" points="765.54 49.98 755.85 55.58 755.85 66.78 765.54 61.18 765.54 49.98"/><g class="cls-28"><polygon class="cls-83" points="750.14 52.29 755.85 49 761.55 52.29 755.85 55.58 750.14 52.29"/><polygon class="cls-84" points="750.14 52.29 750.14 58.87 755.85 62.16 755.85 55.58 750.14 52.29"/><polygon class="cls-85" points="761.55 52.29 755.85 55.58 755.85 62.16 761.55 58.87 761.55 52.29"/></g><g class="cls-1"><path class="cls-86" d="M639.65,126a4,4,0,0,1-2-7.47l112-64a4,4,0,1,1,4,6.95l-112,64A4,4,0,0,1,639.65,126Z"/></g><polygon class="cls-46" points="581.44 109.38 626.83 83.18 672.22 109.38 626.83 135.59 581.44 109.38"/><polygon class="cls-47" points="581.44 109.38 581.44 161.79 626.83 188 626.83 135.59 581.44 109.38"/><polygon class="cls-48" points="672.22 109.38 626.83 135.59 626.83 188 672.22 161.79 672.22 109.38"/><g class="cls-28"><polygon class="cls-87" points="599.39 119.75 626.83 103.91 654.26 119.75 626.83 135.59 599.39 119.75"/><polygon class="cls-88" points="599.39 119.75 599.39 151.43 626.83 167.27 626.83 135.59 599.39 119.75"/><polygon class="cls-89" points="654.26 119.75 626.83 135.59 626.83 167.27 654.26 151.43 654.26 119.75"/></g><path class="cls-90" d="M672.19,144.64v8l-23,.11a4,4,0,0,1,0-8Z"/><path class="cls-91" d="M464.47,245.15v8l-18,.11a4,4,0,1,1,0-8Z"/><g class="cls-1"><path class="cls-92" d="M681,474.87a4,4,0,0,1-4-4v-10a6.21,6.21,0,0,0-3.08-5.36l-97.84-56.83A14.24,14.24,0,0,1,569,386.38V374.18a4,4,0,0,1,8,0v12.19a6.22,6.22,0,0,0,3.08,5.36l97.84,56.83A14.24,14.24,0,0,1,685,460.85v10A4,4,0,0,1,681,474.87Z"/></g><g class="cls-1"><path class="cls-93" d="M547.74,311.67a4,4,0,0,1-2-.54L444.52,252.67a4,4,0,1,1,4-6.93l101.23,58.46a4,4,0,0,1-2,7.46Z"/></g><g class="cls-1"><path class="cls-94" d="M879.08,471.17v8H866.65a4,4,0,0,1,0-8Z"/></g><polygon class="cls-46" points="521.32 275.52 587.62 237.25 653.91 275.52 587.62 313.8 521.32 275.52"/><polygon class="cls-47" points="521.32 275.52 521.32 352.07 587.62 390.35 587.62 313.8 521.32 275.52"/><polygon class="cls-48" points="653.91 275.52 587.62 313.8 587.62 390.35 653.91 352.07 653.91 275.52"/><g class="cls-28"><polygon class="cls-95" points="545.46 289.46 587.62 265.12 629.77 289.46 587.62 313.8 545.46 289.46"/><polygon class="cls-96" points="545.46 289.46 545.46 338.13 587.62 362.47 587.62 313.8 545.46 289.46"/><polygon class="cls-97" points="629.77 289.46 587.62 313.8 587.62 362.47 629.77 338.13 629.77 289.46"/></g><g class="cls-1"><path class="cls-98" d="M705,182.68a18.41,18.41,0,0,1-9.21-2.46l-48.62-28.07a4,4,0,0,1,4-6.93l48.62,28.07a10.45,10.45,0,0,0,10.42,0l72.32-41.75a4,4,0,1,1,4,6.93l-72.32,41.75A18.41,18.41,0,0,1,705,182.68Z"/></g><path class="cls-99" d="M705,179.68a15.42,15.42,0,0,1-7.71-2.06,1,1,0,0,1,1-1.73,13.45,13.45,0,0,0,13.42,0L784,134.14a1,1,0,0,1,1,1.73l-72.32,41.75A15.41,15.41,0,0,1,705,179.68Z"/><g class="cls-100"><path class="cls-101" d="M913,217.29l-6.93,4H896.6a4,4,0,0,1,0-8h9.48Z"/></g><g class="cls-1"><path class="cls-102" d="M767,279.89a4,4,0,0,1-4-4V254.06a14.23,14.23,0,0,1,7.14-12.32l117.94-67.6a8.36,8.36,0,0,1,12.52,7.25v35.87a4,4,0,1,1-8,0V181.4a.32.32,0,0,0-.18-.31.32.32,0,0,0-.36,0l-117.94,67.6a6.21,6.21,0,0,0-3.12,5.38v21.83A4,4,0,0,1,767,279.89Z"/></g><g class="cls-1"><path class="cls-103" d="M840.74,372a4,4,0,0,1-2-7.48l72.54-41.24a4,4,0,1,1,4,7l-72.54,41.24A4,4,0,0,1,840.74,372Z"/></g><path class="cls-104" d="M428.56,213.91a1,1,0,0,1-1-1V182.43a1,1,0,0,1,2,0v30.48A1,1,0,0,1,428.56,213.91Z"/><path class="cls-105" d="M514.37,289.4a1,1,0,0,1-.5-.13l-55.6-32.11a1,1,0,1,1,1-1.73l55.6,32.11a1,1,0,0,1-.5,1.87Z"/><path class="cls-106" d="M521.31,144a15.4,15.4,0,0,1-7.69-2.05l-51.42-29.62a1,1,0,0,1,1-1.73l51.42,29.62a13.45,13.45,0,0,0,13.4,0,1,1,0,0,1,1,1.73A15.41,15.41,0,0,1,521.31,144Z"/><path class="cls-107" d="M496.88,73.83a1,1,0,0,1-.5-1.87l32.43-18.51a1,1,0,0,1,1,1.74L497.38,73.7A1,1,0,0,1,496.88,73.83Z"/><path class="cls-108" d="M715.42,270.51a1,1,0,0,1-.49-.13l-47.79-26.93a1,1,0,1,1,1-1.74l47.79,26.93a1,1,0,0,1-.49,1.87Z"/><path class="cls-109" d="M786,238.24a1,1,0,0,1-.5-1.87l85.1-48.78a1,1,0,0,1,1,1.73l-85.1,48.78A1,1,0,0,1,786,238.24Z"/><path class="cls-110" d="M685.21,97a1,1,0,0,1-.5-1.87l44.53-25.42a1,1,0,0,1,1,1.74L685.71,96.9A1,1,0,0,1,685.21,97Z"/><path class="cls-111" d="M863.29,356.18a1,1,0,0,1-.49-1.87l45.1-25.59a1,1,0,0,1,1,1.74l-45.1,25.59A1,1,0,0,1,863.29,356.18Z"/><path class="cls-112" d="M673,451.34a1,1,0,0,1-.5-.14l-52.25-30.35a1,1,0,1,1,1-1.73l52.25,30.35a1,1,0,0,1-.5,1.86Z"/><path class="cls-113" d="M636.23,206.6a1,1,0,0,1-1-1V186.14a1,1,0,0,1,2,0V205.6A1,1,0,0,1,636.23,206.6Z"/><path class="cls-114" d="M817.7,554.76a1,1,0,0,1-.5-1.87l68.13-39.34a1,1,0,0,1,1,1.73L818.2,554.62A1,1,0,0,1,817.7,554.76Z"/><path class="cls-115" d="M602.12,530.89a1,1,0,0,1-.5-.13L566,510.3a1,1,0,1,1,1-1.73L602.62,529a1,1,0,0,1-.5,1.87Z"/><path class="cls-116" d="M770.93,554.88a1,1,0,0,1-.5-.13l-62.52-36.1a1,1,0,0,1,1-1.73L771.43,553a1,1,0,0,1-.5,1.87Z"/><path class="cls-117" d="M877.61,520.17a1,1,0,0,1-.5-1.87l25.48-14.71a3.36,3.36,0,0,0,0-5.8L866.13,476a1,1,0,0,1,1-1.72l36.5,21.76a5.36,5.36,0,0,1-.06,9.25L878.11,520A1,1,0,0,1,877.61,520.17Z"/><path class="cls-118" d="M810.55,358.8a1,1,0,0,1-.5-.13l-30.81-17.79a1,1,0,1,1,1-1.73L811,356.93a1,1,0,0,1-.5,1.87Z"/><polygon class="cls-32" points="344.19 147.38 344.19 164.77 330.73 172.54 328.41 175.71 327.15 174.6 322.47 177.31 322.47 159.92 344.19 147.38"/><path class="cls-34" d="M328.94,163.36a3.3,3.3,0,0,0-1.5,2.59c0,1,.68,1.34,1.51.86a3.3,3.3,0,0,0,1.5-2.59C330.44,163.26,329.76,162.88,328.94,163.36Z"/><path class="cls-34" d="M333.32,161.17a3.3,3.3,0,0,0-1.5,2.59c0,1,.68,1.34,1.51.86a3.3,3.3,0,0,0,1.5-2.59C334.83,161.07,334.15,160.69,333.32,161.17Z"/><path class="cls-34" d="M337.71,159a3.3,3.3,0,0,0-1.5,2.59c0,1,.68,1.34,1.51.86a3.3,3.3,0,0,0,1.5-2.59C339.21,158.88,338.54,158.5,337.71,159Z"/><polygon class="cls-119" points="686.26 388.25 686.26 428.08 717.09 445.88 722.4 453.14 725.29 450.62 736.01 456.8 736.01 416.98 686.26 388.25"/><path class="cls-34" d="M721.19,424.86a7.55,7.55,0,0,1,3.42,5.93c0,2.18-1.55,3.06-3.45,2a7.55,7.55,0,0,1-3.42-5.93C717.75,424.64,719.29,423.76,721.19,424.86Z"/><path class="cls-34" d="M711.14,419.84a7.55,7.55,0,0,1,3.42,5.93c0,2.18-1.55,3.06-3.45,2a7.55,7.55,0,0,1-3.42-5.93C707.7,419.63,709.25,418.75,711.14,419.84Z"/><path class="cls-34" d="M701.09,414.83a7.55,7.55,0,0,1,3.42,5.93c0,2.18-1.55,3.06-3.45,2a7.55,7.55,0,0,1-3.42-5.93C697.65,414.61,699.2,413.73,701.09,414.83Z"/><polygon class="cls-32" points="828.48 321.88 828.48 341.79 843.9 350.69 846.55 354.32 848 353.06 853.36 356.15 853.36 336.24 828.48 321.88"/><path class="cls-34" d="M846,340.18a3.77,3.77,0,0,1,1.71,3c0,1.09-.77,1.53-1.72,1a3.77,3.77,0,0,1-1.71-3C844.23,340.07,845,339.63,846,340.18Z"/><path class="cls-34" d="M840.93,337.67a3.77,3.77,0,0,1,1.71,3c0,1.09-.77,1.53-1.72,1a3.77,3.77,0,0,1-1.71-3C839.21,337.57,840,337.13,840.93,337.67Z"/><path class="cls-34" d="M835.9,335.17a3.77,3.77,0,0,1,1.71,3c0,1.09-.77,1.53-1.72,1a3.77,3.77,0,0,1-1.71-3C834.18,335.06,835,334.62,835.9,335.17Z"/><polygon class="cls-120" points="809.36 53.55 809.36 76.75 827.32 87.12 830.41 91.34 832.1 89.87 838.34 93.48 838.34 70.28 809.36 53.55"/><path class="cls-34" d="M829.71,74.87a4.4,4.4,0,0,1,2,3.46c0,1.27-.9,1.78-2,1.14a4.4,4.4,0,0,1-2-3.46C827.71,74.75,828.61,74.23,829.71,74.87Z"/><path class="cls-34" d="M823.86,71.95a4.4,4.4,0,0,1,2,3.46c0,1.27-.9,1.78-2,1.14a4.4,4.4,0,0,1-2-3.46C821.85,71.82,822.75,71.31,823.86,71.95Z"/><path class="cls-34" d="M818,69a4.4,4.4,0,0,1,2,3.46c0,1.27-.9,1.78-2,1.14a4.4,4.4,0,0,1-2-3.46C816,68.9,816.9,68.39,818,69Z"/><g class="cls-1"><path class="cls-55" d="M642.15,109.12a.29.29,0,0,1,0,.56,1.07,1.07,0,0,1-1,0l-13.69-7.9.35,5.38c0,.22-.28.4-.66.41a1,1,0,0,1-.51-.12.36.36,0,0,1-.2-.26l-.42-6.38c0-.16.16-.31.41-.37a1.06,1.06,0,0,1,.76.08Z"/><path class="cls-55" d="M642.56,100.24c8.75,5,8.79,13.24.1,18.28s-22.82,5-31.56,0-8.79-13.23-.1-18.28S633.82,95.19,642.56,100.24ZM626.9,121.52a30.12,30.12,0,0,0,14.8-3.55c4.07-2.37,6.1-5.48,6.09-8.58s-2.08-6.21-6.19-8.58a32.65,32.65,0,0,0-29.63,0c-4.08,2.37-6.11,5.47-6.09,8.58s2.08,6.21,6.18,8.58a30.35,30.35,0,0,0,14.84,3.55"/><path class="cls-55" d="M633.42,109.59a.34.34,0,0,1,.2.3c0,.22-.33.39-.71.38l-19.2-.46,13.68,7.9a.29.29,0,0,1,0,.56,1.06,1.06,0,0,1-1,0l-14.92-8.61c-.2-.12-.26-.29-.15-.44A.83.83,0,0,1,612,109l20.95.5A1,1,0,0,1,633.42,109.59Z"/></g><path class="cls-121" d="M815.63,103.69a.24.24,0,0,1,0,.46.89.89,0,0,1-.8,0l-11.37-6.56.29,4.46c0,.18-.23.33-.55.34a.82.82,0,0,1-.42-.1.3.3,0,0,1-.17-.22l-.34-5.3c0-.13.13-.26.34-.31a.88.88,0,0,1,.63.07Z"/><path class="cls-121" d="M816,96.32c7.26,4.19,7.3,11,.09,15.18s-18.95,4.19-26.21,0-7.3-11-.09-15.18S808.71,92.13,816,96.32ZM803,114a25,25,0,0,0,12.29-3c3.38-2,5.07-4.55,5.05-7.13s-1.73-5.16-5.14-7.13a27.11,27.11,0,0,0-24.6,0c-3.39,2-5.07,4.55-5.06,7.13s1.73,5.16,5.13,7.13A25.2,25.2,0,0,0,803,114"/><path class="cls-121" d="M808.38,104.08a.28.28,0,0,1,.17.25c0,.18-.28.32-.59.31L792,104.26l11.36,6.56a.24.24,0,0,1,0,.46.88.88,0,0,1-.8,0l-12.39-7.15c-.17-.1-.21-.24-.12-.37a.69.69,0,0,1,.54-.2L808,104A.81.81,0,0,1,808.38,104.08Z"/><g class="cls-1"><path class="cls-55" d="M610.38,275.31a.44.44,0,0,1,0,.83,1.59,1.59,0,0,1-1.44,0L588.61,264.4l.52,8c0,.32-.42.6-1,.61a1.47,1.47,0,0,1-.75-.17.53.53,0,0,1-.3-.39l-.62-9.48c0-.24.23-.46.61-.56a1.57,1.57,0,0,1,1.12.12Z"/><path class="cls-55" d="M611,262.12c13,7.5,13.05,19.66.15,27.15s-33.89,7.5-46.88,0-13.06-19.65-.15-27.15S598,254.62,611,262.12Zm-23.26,31.6c8,0,15.91-1.76,22-5.28s9.06-8.13,9-12.75-3.09-9.22-9.19-12.75-14.07-5.28-22-5.28-15.92,1.76-22,5.28-9.07,8.13-9,12.75,3.09,9.23,9.18,12.75,14.07,5.28,22,5.28"/><path class="cls-55" d="M597.41,276a.5.5,0,0,1,.3.44c0,.32-.5.58-1.05.56l-28.52-.68,20.31,11.73a.44.44,0,0,1,0,.83,1.58,1.58,0,0,1-1.44,0l-22.16-12.79c-.3-.17-.38-.43-.22-.65a1.24,1.24,0,0,1,1-.35l31.11.75A1.46,1.46,0,0,1,597.41,276Z"/></g><polygon class="cls-25" points="816.36 361.15 834.28 350.8 852.19 361.15 834.28 371.49 816.36 361.15"/><polygon class="cls-26" points="816.36 361.15 816.36 381.84 834.28 392.18 834.28 371.49 816.36 361.15"/><polygon class="cls-27" points="852.19 361.15 834.28 371.49 834.28 392.18 852.19 381.84 852.19 361.15"/><g class="cls-28"><polygon class="cls-122" points="822.88 364.92 834.28 358.34 845.67 364.92 834.28 371.49 822.88 364.92"/><polygon class="cls-123" points="822.88 364.92 822.88 378.07 834.28 384.65 834.28 371.49 822.88 364.92"/><polygon class="cls-124" points="845.67 364.92 834.28 371.49 834.28 384.65 845.67 378.07 845.67 364.92"/></g><g class="cls-125"><path class="cls-126" d="M97.12,206.47l117.4-65.79a10.75,10.75,0,0,1,10.85,0L596.8,355.12a37.56,37.56,0,0,1,18.78,32.53V699.2a10.73,10.73,0,0,1-4.73,9l-118.77,68.3Z"/></g><path class="cls-127" d="M492.09,776.46l43.84-24.84a10.76,10.76,0,0,0,4.74-9V430.05a37.69,37.69,0,0,0-18.84-32.64L149.16,182.25a10.78,10.78,0,0,0-10.89,0L97.12,206.47Z"/><g class="cls-2"><rect class="cls-128" x="446.67" y="281.06" width="631.7" height="3" transform="translate(-38.51 422.67) rotate(-30.25)"/></g><path class="cls-129" d="M498.95,445.15V699.41L94.75,466V210.93a5.41,5.41,0,0,1,8.11-4.68L490.1,429.82A17.7,17.7,0,0,1,498.95,445.15Z"/><path class="cls-130" d="M102.86,206.25c26.15,14.71,52.2,29.58,78.3,44.36l78.14,44.63c26.07,14.84,52,29.87,78,44.81l78,44.88,38.93,22.55,19.47,11.28,9.73,5.64,4.87,2.82,2.43,1.41a20,20,0,0,1,2.48,1.73,19.07,19.07,0,0,1,6.42,10,18.46,18.46,0,0,1,.51,3,28.89,28.89,0,0,1,.09,2.93v5.62l0,22.5-.14,45-.42,90c-.25,30-.4,60-.74,90-.34-30-.49-60-.74-90l-.42-90-.14-45,0-22.5V446.3a26.24,26.24,0,0,0-.08-2.68,15.77,15.77,0,0,0-.45-2.56,16.35,16.35,0,0,0-5.53-8.58,17.26,17.26,0,0,0-2.13-1.47L487,429.6l-4.88-2.8-9.75-5.61L452.85,410l-39-22.44L336,342.41c-25.94-15.06-51.94-30-77.83-45.18l-77.73-45.36C154.58,236.66,128.67,221.54,102.86,206.25Z"/><polygon class="cls-131" points="484.52 445.79 484.52 671.18 111.84 456.94 111.84 231.54 484.52 445.79"/><polygon class="cls-132" points="484.52 722.12 111.84 507.88 111.84 231.54 484.52 445.78 484.52 722.12"/><polygon class="cls-132" points="484.52 722.12 111.84 507.88 111.84 277.72 484.52 491.96 484.52 722.12"/><polygon class="cls-131" points="484.52 556.05 111.84 341.81 111.84 277.72 484.52 491.96 484.52 556.05"/><polygon class="cls-131" points="469.37 703.08 334.39 625.48 334.39 484.22 469.37 561.81 469.37 703.08"/><polygon class="cls-133" points="469.37 593.26 334.39 515.67 334.39 484.22 469.37 561.81 469.37 593.26"/><polygon class="cls-134" points="451.92 681.1 351.84 623.57 351.84 596.01 451.92 653.54 451.92 681.1"/><polygon class="cls-135" points="394.97 607.02 351.84 582.22 351.84 554.66 394.97 579.45 394.97 607.02"/><polygon class="cls-135" points="450.6 639 407.47 614.21 407.47 586.64 450.6 611.43 450.6 639"/><polygon class="cls-131" points="320.56 617.53 126.32 505.87 126.32 364.61 320.56 476.27 320.56 617.53"/><polygon class="cls-136" points="484.52 477.49 111.84 263.25 111.84 231.54 484.52 445.78 484.52 477.49"/><polygon class="cls-137" points="171.1 366.57 127.64 341.59 127.64 296.11 171.1 321.09 171.1 366.57"/><polygon class="cls-138" points="228.75 365.35 185.29 340.37 185.29 329.25 228.75 354.24 228.75 365.35"/><polygon class="cls-139" points="213.74 310.38 185.29 294.03 185.29 288.59 213.74 304.94 213.74 310.38"/><polygon class="cls-139" points="249.89 331.16 221.44 314.81 221.44 309.37 249.89 325.72 249.89 331.16"/><polygon class="cls-139" points="286.04 351.94 257.59 335.59 257.59 330.15 286.04 346.5 286.04 351.94"/><polygon class="cls-139" points="468.08 456.59 439.63 440.24 439.63 434.8 468.08 451.15 468.08 456.59"/><polygon class="cls-138" points="429.04 480.49 398.01 462.65 398.01 451.53 429.04 469.37 429.04 480.49"/><polygon class="cls-138" points="382.87 562.83 351.84 544.99 351.84 536.95 382.87 554.79 382.87 562.83"/><polygon class="cls-138" points="469.37 503.68 438.34 485.84 438.34 474.72 469.37 492.56 469.37 503.68"/><polygon class="cls-138" points="274.66 400.68 185.29 349.31 185.29 343.75 274.66 395.12 274.66 400.68"/><polygon class="cls-138" points="203.84 385.39 185.29 374.73 185.29 369.18 203.84 379.84 203.84 385.39"/><polygon class="cls-138" points="228.75 399.72 210.21 389.06 210.21 383.5 228.75 394.16 228.75 399.72"/><polygon class="cls-138" points="469.37 538.04 398.01 497.01 398.01 491.46 469.37 532.48 469.37 538.04"/><polygon class="cls-140" points="451.92 576.84 351.84 519.31 351.84 513.75 451.92 571.29 451.92 576.84"/><polygon class="cls-134" points="401.88 548.08 351.84 519.31 351.84 513.75 401.88 542.52 401.88 548.08"/><polygon class="cls-134" points="451.92 564.6 440.74 558.17 440.74 554.76 451.92 561.19 451.92 564.6"/><polygon class="cls-138" points="212.12 459.41 140.75 418.38 140.75 412.83 212.12 453.85 212.12 459.41"/><polygon class="cls-137" points="310.34 599.72 140.75 502.22 140.75 433.31 310.34 530.8 310.34 599.72"/><polygon class="cls-138" points="310.34 515.88 238.98 474.85 238.98 469.29 310.34 510.32 310.34 515.88"/><path class="cls-138" d="M361.14,473c0,2.54-2,3.46-4.39,2.07a9.24,9.24,0,0,1-4.39-7.12c0-2.54,2-3.46,4.39-2.07A9.24,9.24,0,0,1,361.14,473Z"/><path class="cls-138" d="M374.6,480.78c0,2.54-2,3.46-4.39,2.07a9.24,9.24,0,0,1-4.39-7.12c0-2.54,2-3.46,4.39-2.07A9.24,9.24,0,0,1,374.6,480.78Z"/><path class="cls-138" d="M388.07,488.52c0,2.54-2,3.46-4.39,2.07a9.24,9.24,0,0,1-4.39-7.12c0-2.54,2-3.46,4.39-2.07A9.24,9.24,0,0,1,388.07,488.52Z"/><path class="cls-138" d="M149.51,402.06c0,2.54-2,3.46-4.39,2.07a9.24,9.24,0,0,1-4.39-7.12c0-2.54,2-3.46,4.39-2.07A9.24,9.24,0,0,1,149.51,402.06Z"/><path class="cls-138" d="M163,409.8c0,2.54-2,3.46-4.39,2.07a9.24,9.24,0,0,1-4.39-7.12c0-2.54,2-3.46,4.39-2.07A9.24,9.24,0,0,1,163,409.8Z"/><path class="cls-138" d="M176.44,417.54c0,2.54-2,3.46-4.39,2.07a9.24,9.24,0,0,1-4.39-7.12c0-2.54,2-3.46,4.39-2.07A9.24,9.24,0,0,1,176.44,417.54Z"/><path class="cls-138" d="M247.74,458.52c0,2.54-2,3.46-4.39,2.07a9.24,9.24,0,0,1-4.39-7.12c0-2.54,2-3.46,4.39-2.07A9.24,9.24,0,0,1,247.74,458.52Z"/><path class="cls-138" d="M261.2,466.26c0,2.54-2,3.46-4.39,2.07a9.24,9.24,0,0,1-4.39-7.12c0-2.54,2-3.46,4.39-2.07A9.24,9.24,0,0,1,261.2,466.26Z"/><path class="cls-138" d="M274.66,474c0,2.54-2,3.46-4.39,2.07a9.24,9.24,0,0,1-4.39-7.12c0-2.54,2-3.46,4.39-2.07A9.24,9.24,0,0,1,274.66,474Z"/><path class="cls-141" d="M360,568.79l6.41,3.69v1.83l-4.4-2.53v2.43l3.53,2V578L362,576v2.49l4.4,2.53v1.83L360,579.17Z"/><path class="cls-141" d="M367.19,572.92l7.29,4.19V579l-2.62-1.51V586l-2-1.16v-8.52l-2.65-1.52Z"/><path class="cls-141" d="M381.45,587.19l-3.69-2.12v4.3l-2-1.16V577.84l2,1.16v4.24l3.69,2.12v-4.24l2,1.16v10.38l-2-1.16Z"/><path class="cls-141" d="M414.36,600l7.29,4.19v1.86L419,604.58v8.51l-2-1.16v-8.51l-2.65-1.53Z"/><path class="cls-141" d="M429.2,618.78a20.16,20.16,0,0,1-2.89-1.31c-3.06-1.76-3.79-3.92-3.79-7.55,0-3.94.85-4.88,3.79-3.19a24.27,24.27,0,0,1,2.9,2.08l-.06,1.64c-.67-.49-1.9-1.32-2.55-1.7-1.53-.88-2-.59-2,2.35,0,2.79.35,3.71,2.07,4.7.67.39,1.91,1,2.49,1.22Z"/><path class="cls-141" d="M437.11,623.33a20.23,20.23,0,0,1-2.89-1.31c-3.06-1.76-3.79-3.92-3.79-7.55,0-3.94.85-4.89,3.79-3.19a24.37,24.37,0,0,1,2.9,2.08l-.06,1.64c-.67-.49-1.89-1.32-2.55-1.7-1.53-.88-2-.59-2,2.35,0,2.79.35,3.71,2.07,4.7.67.38,1.91,1,2.49,1.22Z"/><path class="cls-142" d="M356,505.72s-.62-.43-1.16-.77l-.17,1.34c1.17,1.07,1.53,1.63,1.53,2.6,0,1.29-.84,1.41-2,.77h0l-.13,1a6.34,6.34,0,0,1-.63-.43l.12-1c-.62-.43-1.23-.93-1.23-.93l.11-.87s.68.49,1.25.85l.19-1.45c-1.17-1-1.62-1.76-1.62-2.68,0-1.23.78-1.31,1.93-.65l.11.06.15-1.15.63.36L355,504c.58.4,1.12.82,1.12.82Zm-1.93,0,.15-1.16c-.52-.27-.77-.18-.77.17S353.57,505.25,354.07,505.73Zm.47,1.67-.16,1.28c.48.22.69.06.69-.35S354.95,507.8,354.54,507.4Z"/><path class="cls-142" d="M357.18,510.14s.87.64,1.59,1,1.14.11,1.14-.8a4.36,4.36,0,0,1-1.08-.35,3.43,3.43,0,0,1-1.94-3c0-1.24.8-1.52,2.07-.79a4.61,4.61,0,0,1,2.16,4.27c0,2.35-.91,2.58-2.35,1.75a15.17,15.17,0,0,1-1.7-1.23Zm2.74-.75a2.24,2.24,0,0,0-1-2.06c-.55-.32-.86-.16-.86.41a1.48,1.48,0,0,0,.83,1.29A3.5,3.5,0,0,0,359.92,509.38Z"/><path class="cls-142" d="M366,513.4c0,2.24-.79,2.58-2.19,1.77s-2.19-2-2.19-4.29.79-2.65,2.19-1.84S366,511.17,366,513.4Zm-3.17-1.82c0,1.45.3,2.13,1,2.52s1,.05,1-1.4-.28-2.19-1-2.58S362.86,510,362.86,511.58Z"/><path class="cls-142" d="M370.82,516.16c0,2.24-.79,2.57-2.19,1.77s-2.19-2-2.19-4.29.79-2.65,2.19-1.84S370.82,513.92,370.82,516.16Zm-3.17-1.82c0,1.45.3,2.13,1,2.52s1,.05,1-1.4-.28-2.19-1-2.58S367.65,512.8,367.65,514.34Z"/><path class="cls-142" d="M375.61,518.91c0,2.24-.79,2.58-2.19,1.77s-2.19-2-2.19-4.29.79-2.65,2.19-1.84S375.61,516.68,375.61,518.91Zm-3.17-1.82c0,1.45.3,2.13,1,2.52s1,.05,1-1.4-.28-2.19-1-2.58S372.45,515.55,372.45,517.09Z"/><path class="cls-142" d="M380.4,521.67c0,2.24-.79,2.58-2.19,1.77s-2.19-2-2.19-4.29.79-2.65,2.19-1.84S380.4,519.43,380.4,521.67Zm-3.17-1.82c0,1.45.3,2.13,1,2.52s1,.05,1-1.4-.28-2.19-1-2.58S377.24,518.31,377.24,519.85Z"/><path class="cls-142" d="M385.2,524.42c0,2.24-.79,2.57-2.19,1.77s-2.19-2-2.19-4.29.79-2.65,2.19-1.84S385.2,522.18,385.2,524.42ZM382,522.6c0,1.45.3,2.13,1,2.52s1,.05,1-1.4-.28-2.19-1-2.58S382,521.06,382,522.6Z"/><path class="cls-139" d="M128.17,260.77v-6.56l.42.24,2.72,4.8,2.72-1.67.42.24v6.56l-1.25-.72v-3.81l-1.88,1.11-1.88-3.27v3.8Z"/><path class="cls-139" d="M135.37,262.72q0-1,.58-1.24a1.63,1.63,0,0,1,1.5.25,4,4,0,0,1,1.46,1.45,3.68,3.68,0,0,1,.54,1.89v.44l-2.88-1.66a1.48,1.48,0,0,0,.29.71,1.9,1.9,0,0,0,.58.53,1.55,1.55,0,0,0,1,.25l.67,1.08q-.46.39-1.71-.33a4.23,4.23,0,0,1-1.5-1.48A3.6,3.6,0,0,1,135.37,262.72Zm2.67.55a1.88,1.88,0,0,0-.59-.53.84.84,0,0,0-.58-.14c-.17,0-.25.17-.25.4l1.67,1A1.15,1.15,0,0,0,138,263.27Z"/><path class="cls-139" d="M141.56,265.68v2.78l-1.17-.67v-4.25l1.17.54v.4a1.2,1.2,0,0,1,1,.18,3.16,3.16,0,0,1,1.21,1.2,2.87,2.87,0,0,1,.42,1.4V270L143,269.3V266.9a1.56,1.56,0,0,0-.21-.8,1.76,1.76,0,0,0-.63-.62A.44.44,0,0,0,141.56,265.68Z"/><path class="cls-139" d="M145.17,270.54V264l1.17.67v6.56Z"/><path class="cls-139" d="M147.93,271.53a3.7,3.7,0,0,1-.61-1.94,1.23,1.23,0,0,1,.61-1.24,1.64,1.64,0,0,1,1.52.24A4.31,4.31,0,0,1,151,270.1a3.68,3.68,0,0,1,.61,1.94,1.23,1.23,0,0,1-.61,1.24,1.63,1.63,0,0,1-1.52-.24A4.3,4.3,0,0,1,147.93,271.53Zm1.52.45a.78.78,0,0,0,.77.11.68.68,0,0,0,.3-.66,2,2,0,0,0-.3-1,2.11,2.11,0,0,0-.78-.78.77.77,0,0,0-.77-.11.7.7,0,0,0-.3.67,2,2,0,0,0,.3,1A2.1,2.1,0,0,0,149.45,272Z"/><path class="cls-139" d="M156,275.81a5.43,5.43,0,0,1-.9-2.85,1.8,1.8,0,0,1,.9-1.82,2.4,2.4,0,0,1,2.23.34,6.34,6.34,0,0,1,2.24,2.23,5.42,5.42,0,0,1,.9,2.86,1.81,1.81,0,0,1-.9,1.82,2.4,2.4,0,0,1-2.24-.35A6.32,6.32,0,0,1,156,275.81Zm2.24,1a1.37,1.37,0,0,0,1.35.19,1.21,1.21,0,0,0,.52-1.16,3.47,3.47,0,0,0-.52-1.77,3.71,3.71,0,0,0-1.36-1.37,1.36,1.36,0,0,0-1.35-.19,1.21,1.21,0,0,0-.52,1.16,3.48,3.48,0,0,0,.52,1.77A3.72,3.72,0,0,0,158.22,276.82Z"/><path class="cls-139" d="M163.35,278.21V281l-1.17-.67v-4.25l1.17.54v.4a1.19,1.19,0,0,1,1,.18,3.16,3.16,0,0,1,1.21,1.2,2.87,2.87,0,0,1,.42,1.4v2.71l-1.17-.67v-2.4a1.55,1.55,0,0,0-.21-.8A1.75,1.75,0,0,0,164,278,.45.45,0,0,0,163.35,278.21Z"/><path class="cls-139" d="M166.75,280.76q0-1,.58-1.24a1.64,1.64,0,0,1,1.5.25,4,4,0,0,1,1.46,1.45,3.69,3.69,0,0,1,.54,1.89v.44L168,281.89a1.46,1.46,0,0,0,.29.71,1.88,1.88,0,0,0,.58.53,1.55,1.55,0,0,0,1,.25l.67,1.08q-.46.39-1.71-.33a4.22,4.22,0,0,1-1.5-1.48A3.6,3.6,0,0,1,166.75,280.76Zm2.67.55a1.91,1.91,0,0,0-.58-.53.84.84,0,0,0-.58-.14q-.25.05-.25.4l1.67,1A1.16,1.16,0,0,0,169.42,281.31Z"/><path class="cls-139" d="M432.26,433.28c0,4.4-3.41,6-7.61,3.59S417,428.93,417,424.53s3.41-6,7.61-3.59S432.26,428.88,432.26,433.28Z"/><polygon class="cls-143" points="377.9 416.2 405.77 432.22 405.77 400.51 377.9 384.49 377.9 416.2"/><polygon class="cls-144" points="484.52 694.05 111.84 479.81 111.84 352.39 484.52 566.63 484.52 694.05"/><path class="cls-145" d="M498.95,699.41v66.88a10.79,10.79,0,0,1-16.18,9.34L113.43,562.39A37.35,37.35,0,0,1,94.75,530V466Z"/><polygon class="cls-146" points="246.79 588.43 246.79 605.29 346.2 661.7 346.2 645.23 246.79 588.43"/><polygon class="cls-147" points="246.79 585.93 246.79 602.79 346.2 659.2 346.2 642.73 246.79 585.93"/><path class="cls-148" d="M488.16,778.59a12.26,12.26,0,0,1-6.14-1.67L112.68,563.69A39,39,0,0,1,93.25,530h3a36,36,0,0,0,17.92,31L483.51,774.33a9.29,9.29,0,0,0,13.93-8h3a12.34,12.34,0,0,1-12.29,12.31Z"/><polygon class="cls-46" points="466.21 0 466.21 39.76 435.44 57.53 430.13 64.77 427.25 62.26 416.55 68.43 416.55 28.67 466.21 0"/><path class="cls-34" d="M431.34,36.54a7.53,7.53,0,0,0-3.42,5.92c0,2.18,1.55,3.06,3.44,2a7.54,7.54,0,0,0,3.42-5.92C434.78,36.33,433.23,35.45,431.34,36.54Z"/><path class="cls-34" d="M441.37,31.53A7.53,7.53,0,0,0,438,37.46c0,2.18,1.55,3.06,3.44,2a7.54,7.54,0,0,0,3.42-5.92C444.81,31.32,443.27,30.44,441.37,31.53Z"/><path class="cls-34" d="M451.4,26.53A7.53,7.53,0,0,0,448,32.45c0,2.18,1.55,3.06,3.44,2a7.54,7.54,0,0,0,3.42-5.92C454.84,26.31,453.3,25.43,451.4,26.53Z"/></g></g></svg>