<svg xmlns="http://www.w3.org/2000/svg" xmlns:xlink="http://www.w3.org/1999/xlink" viewBox="0 0 1148.04 865.26"><defs><style>.cls-1{fill:#e4ecff;}.cls-2{fill:#4e8fe0;}.cls-3{fill:#c3e4ff;}.cls-4{fill:url(#linear-gradient);}.cls-5{fill:url(#linear-gradient-2);}.cls-6{fill:#275bea;}.cls-7{fill:url(#linear-gradient-3);}.cls-8{fill:url(#linear-gradient-4);}.cls-9{fill:url(#linear-gradient-5);}.cls-10{fill:url(#linear-gradient-6);}.cls-11{fill:url(#linear-gradient-7);}.cls-12{fill:url(#linear-gradient-8);}.cls-13{fill:#464a64;}.cls-14{fill:#1b1e39;}.cls-15{fill:#30334a;}.cls-16{fill:url(#linear-gradient-9);}.cls-17{fill:url(#linear-gradient-10);}.cls-18{fill:url(#linear-gradient-11);}.cls-19{fill:url(#linear-gradient-12);}.cls-20{fill:url(#linear-gradient-13);}.cls-21{fill:url(#linear-gradient-14);}.cls-22{fill:url(#linear-gradient-15);}.cls-23{fill:url(#linear-gradient-16);}.cls-24{fill:url(#linear-gradient-17);}.cls-25{fill:url(#linear-gradient-18);}.cls-26{opacity:0.2;}.cls-27{fill:url(#linear-gradient-19);}.cls-28{opacity:0.5;}.cls-29{fill:url(#linear-gradient-20);}.cls-30{fill:url(#linear-gradient-21);}.cls-31{fill:url(#linear-gradient-22);}.cls-32{fill:url(#linear-gradient-23);}.cls-33{fill:url(#linear-gradient-24);}.cls-34{fill:url(#linear-gradient-25);}.cls-35{fill:url(#linear-gradient-26);}.cls-36{fill:url(#linear-gradient-27);}.cls-37{fill:url(#linear-gradient-28);}.cls-38{fill:url(#linear-gradient-29);}.cls-39{fill:url(#linear-gradient-30);}.cls-40{fill:url(#linear-gradient-31);}.cls-41{fill:url(#linear-gradient-32);}.cls-42{fill:url(#radial-gradient);}.cls-43{fill:#dcdcdc;}</style><linearGradient id="linear-gradient" x1="137.33" y1="159.32" x2="137.33" y2="78.73" gradientUnits="userSpaceOnUse"><stop offset="0" stop-color="#fff"/><stop offset="1" stop-color="#ffc4ff" stop-opacity="0.1"/></linearGradient><linearGradient id="linear-gradient-2" x1="2650.88" y1="317.15" x2="2650.88" y2="158.57" gradientTransform="matrix(-1, 0, 0, 1, 2788.21, 0)" gradientUnits="userSpaceOnUse"><stop offset="0" stop-color="#ffc4ff" stop-opacity="0.1"/><stop offset="1" stop-color="#fff"/></linearGradient><linearGradient id="linear-gradient-3" x1="4741.89" y1="237.86" x2="4908.04" y2="237.86" gradientTransform="matrix(-1, 0, 0, 1, 5099.62, 0)" gradientUnits="userSpaceOnUse"><stop offset="0" stop-color="#1163ec"/><stop offset="0.57" stop-color="#1163ec"/><stop offset="0.62" stop-color="#1666eb" stop-opacity="0.93"/><stop offset="0.72" stop-color="#226fe9" stop-opacity="0.75"/><stop offset="0.85" stop-color="#367ee5" stop-opacity="0.45"/><stop offset="1" stop-color="#4e8fe0" stop-opacity="0.1"/></linearGradient><linearGradient id="linear-gradient-4" x1="4778.2" y1="241.69" x2="4856.25" y2="241.69" gradientTransform="matrix(-1, 0, 0, 1, 5099.62, 0)" gradientUnits="userSpaceOnUse"><stop offset="0" stop-color="#1163ec" stop-opacity="0"/><stop offset="0.11" stop-color="#3d7af0" stop-opacity="0.19"/><stop offset="0.24" stop-color="#6e93f4" stop-opacity="0.4"/><stop offset="0.37" stop-color="#98a8f7" stop-opacity="0.59"/><stop offset="0.5" stop-color="#babafa" stop-opacity="0.74"/><stop offset="0.63" stop-color="#d5c7fc" stop-opacity="0.85"/><stop offset="0.76" stop-color="#e8d1fe" stop-opacity="0.93"/><stop offset="0.88" stop-color="#f3d7ff" stop-opacity="0.98"/><stop offset="1" stop-color="#f7d9ff"/></linearGradient><linearGradient id="linear-gradient-5" x1="985.31" y1="175.46" x2="985.31" y2="94.87" xlink:href="#linear-gradient"/><linearGradient id="linear-gradient-6" x1="1802.89" y1="333.29" x2="1802.89" y2="174.72" xlink:href="#linear-gradient-2"/><linearGradient id="linear-gradient-7" x1="771.65" y1="259.92" x2="937.79" y2="259.92" gradientUnits="userSpaceOnUse"><stop offset="0" stop-color="#1163ec"/><stop offset="0.05" stop-color="#116aed"/><stop offset="0.25" stop-color="#117ff1"/><stop offset="0.44" stop-color="#118cf3"/><stop offset="0.62" stop-color="#1190f4"/><stop offset="0.64" stop-color="#2197f5" stop-opacity="0.91"/><stop offset="0.71" stop-color="#51aef8" stop-opacity="0.64"/><stop offset="0.79" stop-color="#7ac1fa" stop-opacity="0.41"/><stop offset="0.85" stop-color="#99d0fc" stop-opacity="0.23"/><stop offset="0.91" stop-color="#b0dbfe" stop-opacity="0.11"/><stop offset="0.96" stop-color="#bee2ff" stop-opacity="0.03"/><stop offset="0.99" stop-color="#c3e4ff" stop-opacity="0"/></linearGradient><linearGradient id="linear-gradient-8" x1="807.96" y1="263.76" x2="886.01" y2="263.76" gradientUnits="userSpaceOnUse"><stop offset="0" stop-color="#1163ec" stop-opacity="0"/><stop offset="0.11" stop-color="#1181ee" stop-opacity="0.19"/><stop offset="0.24" stop-color="#11a2ef" stop-opacity="0.4"/><stop offset="0.37" stop-color="#11bff1" stop-opacity="0.59"/><stop offset="0.5" stop-color="#11d6f2" stop-opacity="0.74"/><stop offset="0.63" stop-color="#11e8f3" stop-opacity="0.85"/><stop offset="0.76" stop-color="#11f5f3" stop-opacity="0.93"/><stop offset="0.88" stop-color="#11fcf4" stop-opacity="0.98"/><stop offset="1" stop-color="#11fff4"/></linearGradient><linearGradient id="linear-gradient-9" x1="559.92" y1="575.17" x2="559.92" y2="352.2" gradientUnits="userSpaceOnUse"><stop offset="0" stop-color="#8890c2"/><stop offset="1" stop-color="#ffc4ff" stop-opacity="0.1"/></linearGradient><linearGradient id="linear-gradient-10" x1="2228.28" y1="865.26" x2="2228.28" y2="573.12" gradientTransform="matrix(-1, 0, 0, 1, 2788.21, 0)" gradientUnits="userSpaceOnUse"><stop offset="0" stop-color="#ffc4ff" stop-opacity="0.1"/><stop offset="1" stop-color="#8890c2"/></linearGradient><linearGradient id="linear-gradient-11" x1="216.02" y1="649.51" x2="382.16" y2="649.51" gradientUnits="userSpaceOnUse"><stop offset="0" stop-color="#1163ec"/><stop offset="0.04" stop-color="#116aed"/><stop offset="0.2" stop-color="#117ff1"/><stop offset="0.36" stop-color="#118cf3"/><stop offset="0.5" stop-color="#1190f4"/><stop offset="0.94" stop-color="#30334a" stop-opacity="0.6"/></linearGradient><linearGradient id="linear-gradient-12" x1="252.32" y1="653.35" x2="330.37" y2="653.35" xlink:href="#linear-gradient-8"/><linearGradient id="linear-gradient-13" x1="4195.79" y1="649.51" x2="4361.94" y2="649.51" gradientTransform="matrix(-1, 0, 0, 1, 5099.62, 0)" gradientUnits="userSpaceOnUse"><stop offset="0" stop-color="#1163ec"/><stop offset="0.04" stop-color="#116aed"/><stop offset="0.2" stop-color="#117ff1"/><stop offset="0.36" stop-color="#118cf3"/><stop offset="0.5" stop-color="#1190f4"/><stop offset="0.94" stop-color="#1b1e39" stop-opacity="0.6"/></linearGradient><linearGradient id="linear-gradient-14" x1="4232.1" y1="653.35" x2="4310.15" y2="653.35" xlink:href="#linear-gradient-4"/><linearGradient id="linear-gradient-15" x1="141.84" y1="705.82" x2="141.84" y2="625.24" xlink:href="#linear-gradient"/><linearGradient id="linear-gradient-16" x1="2646.37" y1="863.66" x2="2646.37" y2="705.08" xlink:href="#linear-gradient-2"/><linearGradient id="linear-gradient-17" x1="1010.71" y1="705.82" x2="1010.71" y2="625.24" xlink:href="#linear-gradient"/><linearGradient id="linear-gradient-18" x1="1777.49" y1="863.66" x2="1777.49" y2="705.08" xlink:href="#linear-gradient-2"/><linearGradient id="linear-gradient-19" x1="238.66" y1="278.98" x2="623.51" y2="278.98" gradientUnits="userSpaceOnUse"><stop offset="0" stop-color="#464a64" stop-opacity="0"/><stop offset="0" stop-color="#464b65" stop-opacity="0.01"/><stop offset="0.09" stop-color="#525675" stop-opacity="0.31"/><stop offset="0.18" stop-color="#5b6082" stop-opacity="0.56"/><stop offset="0.27" stop-color="#62678c" stop-opacity="0.75"/><stop offset="0.35" stop-color="#676d93" stop-opacity="0.89"/><stop offset="0.44" stop-color="#6a7098" stop-opacity="0.97"/><stop offset="0.52" stop-color="#6b7199"/><stop offset="1" stop-color="#464a64" stop-opacity="0"/></linearGradient><linearGradient id="linear-gradient-20" x1="279.95" y1="304.33" x2="664.8" y2="304.33" xlink:href="#linear-gradient-19"/><linearGradient id="linear-gradient-21" x1="321.24" y1="329.69" x2="706.09" y2="329.69" xlink:href="#linear-gradient-19"/><linearGradient id="linear-gradient-22" x1="362.53" y1="355.04" x2="747.38" y2="355.04" xlink:href="#linear-gradient-19"/><linearGradient id="linear-gradient-23" x1="403.82" y1="380.4" x2="788.67" y2="380.4" xlink:href="#linear-gradient-19"/><linearGradient id="linear-gradient-24" x1="445.11" y1="405.75" x2="829.96" y2="405.75" xlink:href="#linear-gradient-19"/><linearGradient id="linear-gradient-25" x1="486.4" y1="431.11" x2="871.25" y2="431.11" xlink:href="#linear-gradient-19"/><linearGradient id="linear-gradient-26" x1="4437.83" y1="278.98" x2="4822.67" y2="278.98" gradientTransform="matrix(-1, 0, 0, 1, 5309.07, 0)" xlink:href="#linear-gradient-19"/><linearGradient id="linear-gradient-27" x1="4479.11" y1="304.33" x2="4863.96" y2="304.33" gradientTransform="matrix(-1, 0, 0, 1, 5309.07, 0)" xlink:href="#linear-gradient-19"/><linearGradient id="linear-gradient-28" x1="4520.4" y1="329.69" x2="4905.25" y2="329.69" gradientTransform="matrix(-1, 0, 0, 1, 5309.07, 0)" xlink:href="#linear-gradient-19"/><linearGradient id="linear-gradient-29" x1="4561.69" y1="355.04" x2="4946.54" y2="355.04" gradientTransform="matrix(-1, 0, 0, 1, 5309.07, 0)" xlink:href="#linear-gradient-19"/><linearGradient id="linear-gradient-30" x1="4602.98" y1="380.4" x2="4987.83" y2="380.4" gradientTransform="matrix(-1, 0, 0, 1, 5309.07, 0)" xlink:href="#linear-gradient-19"/><linearGradient id="linear-gradient-31" x1="4644.27" y1="405.75" x2="5029.12" y2="405.75" gradientTransform="matrix(-1, 0, 0, 1, 5309.07, 0)" xlink:href="#linear-gradient-19"/><linearGradient id="linear-gradient-32" x1="4685.56" y1="431.11" x2="5070.41" y2="431.11" gradientTransform="matrix(-1, 0, 0, 1, 5309.07, 0)" xlink:href="#linear-gradient-19"/><radialGradient id="radial-gradient" cx="550.21" cy="356.58" r="105.1" gradientUnits="userSpaceOnUse"><stop offset="0.41" stop-color="#464a64"/><stop offset="0.52" stop-color="#464a64" stop-opacity="0.96"/><stop offset="0.64" stop-color="#464a64" stop-opacity="0.83"/><stop offset="0.77" stop-color="#464a64" stop-opacity="0.62"/><stop offset="0.89" stop-color="#464a64" stop-opacity="0.33"/><stop offset="1" stop-color="#464a64" stop-opacity="0"/></radialGradient></defs><title>Techno_1_svg</title><g id="Layer_2" data-name="Layer 2"><g id="Layer_2-2" data-name="Layer 2"><polygon class="cls-1" points="274.66 79.29 137.33 0 0 79.29 137.33 158.57 274.66 79.29"/><polygon class="cls-2" points="274.66 79.29 274.66 237.86 137.33 317.15 137.33 158.57 274.66 79.29"/><polygon class="cls-3" points="137.33 158.57 0 79.29 0 237.86 137.33 317.15 137.33 158.57"/><polygon class="cls-4" points="274.66 79.29 240.48 99.38 206.24 119.36 137.65 159.13 137.33 159.32 137.01 159.13 68.42 119.36 34.17 99.38 0 79.29 34.49 98.83 68.91 118.5 137.65 158.02 137.01 158.02 205.75 118.5 240.17 98.84 274.66 79.29"/><rect class="cls-5" x="136.68" y="158.57" width="1.29" height="158.57"/><path class="cls-6" d="M205.91,168.07c14.49-8.37,26.28-1.65,26.32,15s-11.66,36.93-26.15,45.3-26.28,1.65-26.32-15S191.42,176.43,205.91,168.07Z"/><path class="cls-7" d="M345.5,290.09a12.16,12.16,0,0,1-6-1.58l-141.71-80a12.22,12.22,0,0,1,12-21.28l141.71,80a12.22,12.22,0,0,1-6,22.86Z"/><path class="cls-8" d="M319,264.26a2.42,2.42,0,0,1-1.18-.3l-73.16-40.24a2.44,2.44,0,1,1,2.35-4.28l73.16,40.24a2.44,2.44,0,0,1-1.18,4.58Z"/><polygon class="cls-1" points="1122.64 95.43 985.31 16.14 847.98 95.43 985.31 174.72 1122.64 95.43"/><polygon class="cls-2" points="1122.64 95.43 1122.64 254 985.31 333.29 985.31 174.72 1122.64 95.43"/><polygon class="cls-3" points="985.31 174.72 847.98 95.43 847.98 254 985.31 333.29 985.31 174.72"/><polygon class="cls-9" points="1122.64 95.43 1088.47 115.52 1054.22 135.5 985.63 175.27 985.31 175.46 984.99 175.27 916.4 135.5 882.16 115.53 847.98 95.43 882.47 114.98 916.9 134.65 985.63 174.16 984.99 174.16 1053.73 134.65 1088.15 114.98 1122.64 95.43"/><rect class="cls-10" x="984.67" y="174.72" width="1.29" height="158.57"/><path class="cls-2" d="M923,188.21c-14.49-8.37-26.28-1.65-26.32,15s11.66,36.93,26.15,45.3,26.28,1.65,26.32-15S937.51,196.58,923,188.21Z"/><path class="cls-11" d="M783.88,312.15a12.22,12.22,0,0,1-6-22.86l141.71-80a12.22,12.22,0,0,1,12,21.28l-141.71,80A12.16,12.16,0,0,1,783.88,312.15Z"/><path class="cls-12" d="M810.4,286.32a2.44,2.44,0,0,1-1.18-4.58l73.16-40.24a2.44,2.44,0,1,1,2.35,4.28L811.58,286A2.43,2.43,0,0,1,810.4,286.32Z"/><polygon class="cls-13" points="939.88 353.75 559.92 134.38 179.96 353.75 559.92 573.12 939.88 353.75"/><polygon class="cls-14" points="939.88 353.75 939.88 645.89 559.92 865.26 559.92 573.12 939.88 353.75"/><polygon class="cls-15" points="559.92 573.12 179.96 353.75 179.96 645.89 559.92 865.26 559.92 573.12"/><path class="cls-16" d="M939.88,353.75c-31.46,18.63-63,37.06-94.56,55.59l-94.74,55.27c-31.56,18.47-63.24,36.71-94.86,55.06l-94.91,55-.89.52-.89-.52-94.91-55-47.45-27.49-23.72-13.75-23.69-13.82-94.74-55.27-47.29-27.77L180,353.75l47.73,27,47.7,27.07,95.24,54.41,23.81,13.6,23.77,13.67,47.54,27.35,95.07,54.71H559l95.07-54.7c31.7-18.21,63.35-36.53,95.12-54.62l95.24-54.41C876.27,389.81,908,371.68,939.88,353.75Z"/><rect class="cls-17" x="558.14" y="573.12" width="3.56" height="292.15"/><path class="cls-18" d="M228.25,701.74a12.22,12.22,0,0,1-6-22.86l141.71-80a12.22,12.22,0,0,1,12,21.28l-141.71,80A12.16,12.16,0,0,1,228.25,701.74Z"/><path class="cls-19" d="M254.77,675.91a2.44,2.44,0,0,1-1.18-4.58l73.16-40.24a2.44,2.44,0,1,1,2.35,4.28l-73.16,40.24A2.43,2.43,0,0,1,254.77,675.91Z"/><path class="cls-20" d="M891.6,701.74a12.16,12.16,0,0,1-6-1.58l-141.71-80a12.22,12.22,0,0,1,12-21.28l141.71,80a12.22,12.22,0,0,1-6,22.86Z"/><path class="cls-21" d="M865.08,675.91a2.42,2.42,0,0,1-1.18-.3l-73.16-40.24a2.44,2.44,0,1,1,2.35-4.28l73.16,40.24a2.44,2.44,0,0,1-1.18,4.58Z"/><polygon class="cls-1" points="279.17 625.79 141.84 546.51 4.51 625.79 141.84 705.08 279.17 625.79"/><polygon class="cls-2" points="279.17 625.79 279.17 784.37 141.84 863.65 141.84 705.08 279.17 625.79"/><polygon class="cls-3" points="141.84 705.08 4.51 625.79 4.51 784.37 141.84 863.65 141.84 705.08"/><polygon class="cls-22" points="279.17 625.79 244.99 645.89 210.75 665.87 142.16 705.64 141.84 705.83 141.52 705.64 72.93 665.87 38.68 645.89 4.51 625.79 39 645.34 73.42 665.01 142.16 704.52 141.52 704.52 210.26 665.01 244.68 645.35 279.17 625.79"/><rect class="cls-23" x="141.19" y="705.08" width="1.29" height="158.57"/><polygon class="cls-1" points="1148.04 625.79 1010.71 546.51 873.38 625.79 1010.71 705.08 1148.04 625.79"/><polygon class="cls-2" points="1148.04 625.79 1148.04 784.37 1010.71 863.65 1010.71 705.08 1148.04 625.79"/><polygon class="cls-3" points="1010.71 705.08 873.38 625.79 873.38 784.37 1010.71 863.65 1010.71 705.08"/><polygon class="cls-24" points="1148.04 625.79 1113.87 645.89 1079.62 665.87 1011.03 705.64 1010.71 705.83 1010.39 705.64 941.8 665.87 907.56 645.89 873.38 625.79 907.87 645.34 942.29 665.01 1011.03 704.52 1010.39 704.52 1079.13 665.01 1113.55 645.35 1148.04 625.79"/><rect class="cls-25" x="1010.07" y="705.08" width="1.29" height="158.57"/><g class="cls-26"><path class="cls-27" d="M241.11,391.1a2.44,2.44,0,0,1-1.22-4.56l380-219.37a2.44,2.44,0,0,1,2.44,4.23l-380,219.37A2.44,2.44,0,0,1,241.11,391.1Z"/></g><g class="cls-28"><path class="cls-29" d="M282.4,416.46a2.44,2.44,0,0,1-1.22-4.56l380-219.37a2.44,2.44,0,0,1,2.44,4.23l-380,219.37A2.44,2.44,0,0,1,282.4,416.46Z"/></g><path class="cls-30" d="M323.69,441.82a2.44,2.44,0,0,1-1.22-4.56l380-219.37a2.44,2.44,0,0,1,2.44,4.23l-380,219.37A2.44,2.44,0,0,1,323.69,441.82Z"/><path class="cls-31" d="M365,467.17a2.44,2.44,0,0,1-1.22-4.56l380-219.37a2.44,2.44,0,0,1,2.44,4.23l-380,219.37A2.44,2.44,0,0,1,365,467.17Z"/><path class="cls-32" d="M406.27,492.53A2.44,2.44,0,0,1,405,488L785,268.6a2.44,2.44,0,0,1,2.44,4.23l-380,219.37A2.44,2.44,0,0,1,406.27,492.53Z"/><g class="cls-28"><path class="cls-33" d="M447.56,517.88a2.44,2.44,0,0,1-1.22-4.56L826.29,294a2.44,2.44,0,0,1,2.44,4.23l-380,219.37A2.44,2.44,0,0,1,447.56,517.88Z"/></g><g class="cls-26"><path class="cls-34" d="M488.85,543.24a2.44,2.44,0,0,1-1.22-4.56l380-219.37a2.44,2.44,0,0,1,2.44,4.23l-380,219.37A2.44,2.44,0,0,1,488.85,543.24Z"/></g><g class="cls-26"><path class="cls-35" d="M868.8,391.1a2.44,2.44,0,0,1-1.22-.33l-380-219.37a2.44,2.44,0,0,1,2.44-4.23L870,386.54a2.44,2.44,0,0,1-1.22,4.56Z"/></g><g class="cls-28"><path class="cls-36" d="M827.51,416.46a2.44,2.44,0,0,1-1.22-.33l-380-219.37a2.44,2.44,0,0,1,2.44-4.23l380,219.37a2.44,2.44,0,0,1-1.22,4.56Z"/></g><path class="cls-37" d="M786.22,441.82a2.44,2.44,0,0,1-1.22-.33L405,222.12a2.44,2.44,0,0,1,2.44-4.23l380,219.37a2.44,2.44,0,0,1-1.22,4.56Z"/><path class="cls-38" d="M744.93,467.17a2.44,2.44,0,0,1-1.22-.33l-380-219.37a2.44,2.44,0,0,1,2.44-4.23l380,219.37a2.44,2.44,0,0,1-1.22,4.56Z"/><path class="cls-39" d="M703.65,492.53a2.44,2.44,0,0,1-1.22-.33l-380-219.37a2.44,2.44,0,0,1,2.44-4.23L704.87,488a2.44,2.44,0,0,1-1.22,4.56Z"/><g class="cls-28"><path class="cls-40" d="M662.36,517.88a2.44,2.44,0,0,1-1.22-.33l-380-219.37a2.44,2.44,0,0,1,2.44-4.23l380,219.37a2.44,2.44,0,0,1-1.22,4.56Z"/></g><g class="cls-26"><path class="cls-41" d="M621.07,543.24a2.44,2.44,0,0,1-1.22-.33l-380-219.37a2.44,2.44,0,0,1,2.44-4.23l380,219.37a2.44,2.44,0,0,1-1.22,4.56Z"/></g><path class="cls-42" d="M640.86,303.89c50.4,29.1,50.64,76.27.59,105.36s-131.49,29.1-181.89,0S408.9,333,459,303.89,590.48,274.81,640.86,303.89Z"/><path class="cls-43" d="M615.51,355.45a1.26,1.26,0,0,1,0,2.38,4.55,4.55,0,0,1-4.12,0l-58.33-33.67,1.5,22.91c.05.93-1.2,1.71-2.8,1.74a4.22,4.22,0,0,1-2.16-.49,1.52,1.52,0,0,1-.86-1.13L547,320c0-.68.66-1.32,1.75-1.59a4.5,4.5,0,0,1,3.22.35Z"/><path class="cls-43" d="M617.24,317.62c37.27,21.52,37.45,56.4.44,77.9s-97.23,21.52-134.49,0-37.46-56.39-.44-77.9S580,296.11,617.24,317.62ZM550.5,408.29c22.86,0,45.65-5,63.06-15.14s26-23.34,25.93-36.57-8.86-26.46-26.36-36.57-40.36-15.15-63.21-15.15-45.67,5.05-63,15.15-26,23.33-25.95,36.57,8.86,26.48,26.34,36.57,40.37,15.14,63.23,15.14"/><path class="cls-43" d="M578.3,357.46a1.44,1.44,0,0,1,.86,1.26c-.07.93-1.42,1.66-3,1.61l-81.83-2L552.59,392a1.26,1.26,0,0,1,0,2.38,4.52,4.52,0,0,1-4.12,0l-63.57-36.7c-.86-.5-1.1-1.24-.63-1.87a3.55,3.55,0,0,1,2.79-1L576.33,357A4.18,4.18,0,0,1,578.3,357.46Z"/></g></g></svg>