<svg xmlns="http://www.w3.org/2000/svg" xmlns:xlink="http://www.w3.org/1999/xlink" viewBox="0 0 786.79 739.74"><defs><style>.cls-1{fill:url(#linear-gradient);}.cls-2{fill:url(#linear-gradient-2);}.cls-3{fill:#9dcff2;}.cls-4{fill:#7fbce6;}.cls-5{fill:#114dac;}.cls-6{fill:url(#linear-gradient-3);}.cls-7{fill:url(#linear-gradient-4);}.cls-8{fill:url(#linear-gradient-5);}.cls-9{fill:#0f4294;}.cls-10{fill:url(#linear-gradient-6);}.cls-11{fill:url(#linear-gradient-7);}.cls-12{fill:url(#linear-gradient-8);}.cls-13{fill:#464a64;}.cls-14{fill:#1b1e39;}.cls-15{fill:#121426;}.cls-16{fill:#30334a;}.cls-17{fill:url(#linear-gradient-9);}.cls-18{fill:url(#linear-gradient-10);}.cls-19{fill:url(#linear-gradient-11);}.cls-20{opacity:0.6;fill:url(#linear-gradient-12);}.cls-21{fill:url(#linear-gradient-13);}.cls-22{fill:url(#linear-gradient-14);}.cls-23{fill:url(#linear-gradient-15);}.cls-24{fill:url(#linear-gradient-16);}.cls-25{opacity:0.4;}.cls-26{fill:url(#linear-gradient-17);}.cls-27{fill:url(#linear-gradient-18);}.cls-28{fill:url(#linear-gradient-19);}.cls-29{fill:#e4ecff;}.cls-30{fill:#4e8fe0;}.cls-31{fill:#c3e4ff;}.cls-32{fill:url(#linear-gradient-20);}.cls-33{fill:url(#linear-gradient-21);}.cls-34{fill:url(#linear-gradient-22);}.cls-35{fill:#bab4f0;}.cls-36{fill:#6b67f5;}.cls-37{fill:#a49cf0;}.cls-38{fill:url(#linear-gradient-23);}.cls-39{fill:url(#linear-gradient-24);}</style><linearGradient id="linear-gradient" x1="-3902.12" y1="545.7" x2="-4246.91" y2="341.18" gradientTransform="matrix(-1, 0, 0, 1, -3815.82, 0)" gradientUnits="userSpaceOnUse"><stop offset="0" stop-color="#3e95e8" stop-opacity="0"/><stop offset="1" stop-color="#114dac"/></linearGradient><linearGradient id="linear-gradient-2" x1="-4245.48" y1="347.43" x2="-4117.48" y2="382.1" gradientTransform="matrix(-1, 0, 0, 1, -3815.82, 0)" gradientUnits="userSpaceOnUse"><stop offset="0" stop-color="#114dac"/><stop offset="1" stop-color="#3e95e8" stop-opacity="0"/></linearGradient><linearGradient id="linear-gradient-3" x1="460.52" y1="252.42" x2="460.52" y2="177.18" gradientUnits="userSpaceOnUse"><stop offset="0" stop-color="#6de8ff"/><stop offset="1" stop-color="#ffc4ff" stop-opacity="0.1"/></linearGradient><linearGradient id="linear-gradient-4" x1="-4276.34" y1="399.78" x2="-4276.34" y2="251.73" gradientTransform="matrix(-1, 0, 0, 1, -3815.82, 0)" gradientUnits="userSpaceOnUse"><stop offset="0" stop-color="#ffc4ff" stop-opacity="0.1"/><stop offset="1" stop-color="#6de8ff"/></linearGradient><linearGradient id="linear-gradient-5" x1="-974.13" y1="460.53" x2="-1095.26" y2="250.73" gradientTransform="translate(1675.73)" gradientUnits="userSpaceOnUse"><stop offset="0" stop-color="#1190f4"/><stop offset="0.77" stop-color="#1163ec"/><stop offset="0.81" stop-color="#115fe0" stop-opacity="0.93"/><stop offset="0.94" stop-color="#1152bb" stop-opacity="0.69"/><stop offset="1" stop-color="#114dac" stop-opacity="0.6"/></linearGradient><linearGradient id="linear-gradient-6" x1="-4221.36" y1="306.11" x2="-4182.86" y2="354.61" gradientTransform="matrix(-1, 0, 0, 1, -3815.82, 0)" gradientUnits="userSpaceOnUse"><stop offset="0" stop-color="#112fac"/><stop offset="0.14" stop-color="#1130ac" stop-opacity="0.97"/><stop offset="0.3" stop-color="#1132ac" stop-opacity="0.9"/><stop offset="0.45" stop-color="#1136ac" stop-opacity="0.78"/><stop offset="0.61" stop-color="#113bac" stop-opacity="0.6"/><stop offset="0.78" stop-color="#1142ac" stop-opacity="0.38"/><stop offset="0.94" stop-color="#114aac" stop-opacity="0.11"/><stop offset="1" stop-color="#114dac" stop-opacity="0"/></linearGradient><linearGradient id="linear-gradient-7" x1="-991.48" y1="322.2" x2="-887.64" y2="322.2" gradientTransform="translate(1304.87)" gradientUnits="userSpaceOnUse"><stop offset="0" stop-color="#114dac"/><stop offset="0.76" stop-color="#236fce"/><stop offset="1" stop-color="#0f4294"/></linearGradient><linearGradient id="linear-gradient-8" x1="-4229.55" y1="308.65" x2="-4182.38" y2="308.65" gradientTransform="matrix(-1, 0, 0, 1, -3815.82, 0)" gradientUnits="userSpaceOnUse"><stop offset="0" stop-color="#c456ff" stop-opacity="0"/><stop offset="1" stop-color="#e4ecff"/></linearGradient><linearGradient id="linear-gradient-9" x1="740.27" y1="426.68" x2="740.27" y2="399.38" gradientUnits="userSpaceOnUse"><stop offset="0" stop-color="#8890c2"/><stop offset="1" stop-color="#ffc4ff" stop-opacity="0.1"/></linearGradient><linearGradient id="linear-gradient-10" x1="-935.46" y1="480.14" x2="-935.46" y2="426.43" gradientTransform="translate(1675.73)" gradientUnits="userSpaceOnUse"><stop offset="0" stop-color="#ffc4ff" stop-opacity="0.1"/><stop offset="1" stop-color="#8890c2"/></linearGradient><linearGradient id="linear-gradient-11" x1="-4368" y1="682.94" x2="-3933.63" y2="409.64" gradientTransform="matrix(-1, 0, 0, 1, -3815.82, 0)" gradientUnits="userSpaceOnUse"><stop offset="0" stop-color="#464a64"/><stop offset="1" stop-color="#beadf6" stop-opacity="0"/></linearGradient><linearGradient id="linear-gradient-12" x1="-3990.7" y1="499.5" x2="-3867.78" y2="532.79" xlink:href="#linear-gradient-11"/><linearGradient id="linear-gradient-13" x1="-4223.12" y1="643.54" x2="-4152.46" y2="674.87" xlink:href="#linear-gradient-11"/><linearGradient id="linear-gradient-14" x1="-1597.07" y1="330.54" x2="-1466.77" y2="330.54" gradientTransform="translate(1675.73)" gradientUnits="userSpaceOnUse"><stop offset="0" stop-color="#464a64" stop-opacity="0"/><stop offset="0.23" stop-color="#3e425b" stop-opacity="0.34"/><stop offset="0.53" stop-color="#373a52" stop-opacity="0.7"/><stop offset="0.79" stop-color="#32354c" stop-opacity="0.92"/><stop offset="1" stop-color="#30334a"/></linearGradient><linearGradient id="linear-gradient-15" x1="204.08" y1="400.48" x2="204.08" y2="325.23" xlink:href="#linear-gradient-9"/><linearGradient id="linear-gradient-16" x1="-1471.65" y1="547.84" x2="-1471.65" y2="399.78" xlink:href="#linear-gradient-10"/><linearGradient id="linear-gradient-17" x1="-1400.17" y1="444.63" x2="-1361.67" y2="493.13" gradientTransform="translate(1675.73)" gradientUnits="userSpaceOnUse"><stop offset="0" stop-color="#111324"/><stop offset="0.33" stop-color="#121427" stop-opacity="0.88"/><stop offset="0.67" stop-color="#16182e" stop-opacity="0.53"/><stop offset="1" stop-color="#1b1e39" stop-opacity="0"/></linearGradient><linearGradient id="linear-gradient-18" x1="-3812.67" y1="460.73" x2="-3708.83" y2="460.73" gradientTransform="matrix(-1, 0, 0, 1, -3444.96, 0)" gradientUnits="userSpaceOnUse"><stop offset="0" stop-color="#236fce"/><stop offset="1" stop-color="#1b1e39"/></linearGradient><linearGradient id="linear-gradient-19" x1="-1107.8" y1="487.15" x2="-953.8" y2="487.15" gradientTransform="translate(1675.73)" gradientUnits="userSpaceOnUse"><stop offset="0" stop-color="#114dac" stop-opacity="0.6"/><stop offset="0.06" stop-color="#1152bb" stop-opacity="0.69"/><stop offset="0.19" stop-color="#115fe0" stop-opacity="0.93"/><stop offset="0.23" stop-color="#1163ec"/><stop offset="0.27" stop-color="#116aed"/><stop offset="0.41" stop-color="#117ff1"/><stop offset="0.55" stop-color="#118cf3"/><stop offset="0.69" stop-color="#1190f4"/><stop offset="0.97" stop-color="#121426"/></linearGradient><linearGradient id="linear-gradient-20" x1="460.52" y1="548.53" x2="460.52" y2="473.29" gradientUnits="userSpaceOnUse"><stop offset="0" stop-color="#fff"/><stop offset="1" stop-color="#ffc4ff" stop-opacity="0.1"/></linearGradient><linearGradient id="linear-gradient-21" x1="-1215.21" y1="695.89" x2="-1215.21" y2="547.84" gradientTransform="translate(1675.73)" gradientUnits="userSpaceOnUse"><stop offset="0" stop-color="#ffc4ff" stop-opacity="0.1"/><stop offset="1" stop-color="#fff"/></linearGradient><linearGradient id="linear-gradient-22" x1="-1471.77" y1="334.14" x2="-1471.77" y2="273.33" gradientTransform="translate(1675.73)" gradientUnits="userSpaceOnUse"><stop offset="0" stop-color="#30334a"/><stop offset="0.05" stop-color="#2f3650"/><stop offset="0.12" stop-color="#2e3d60"/><stop offset="0.19" stop-color="#2b497b"/><stop offset="0.27" stop-color="#285aa0"/><stop offset="0.36" stop-color="#236fce"/><stop offset="1" stop-color="#114dac"/></linearGradient><linearGradient id="linear-gradient-23" x1="203.96" y1="148.75" x2="203.96" y2="73.51" xlink:href="#linear-gradient-20"/><linearGradient id="linear-gradient-24" x1="-1471.77" y1="296.11" x2="-1471.77" y2="148.05" xlink:href="#linear-gradient-21"/></defs><title>Techno_right_svg_1</title><g id="Layer_2" data-name="Layer 2"><g id="Layer_2-2" data-name="Layer 2"><polygon class="cls-1" points="0 473.13 458.08 207.19 664.6 326.43 206.53 592.37 0 473.13"/><polygon class="cls-2" points="460.52 399.82 328.55 405.05 269.22 330.14 332.3 325.79 460.52 399.82"/><polygon class="cls-3" points="588.74 177.7 460.52 103.67 332.3 177.7 460.52 251.73 588.74 177.7"/><polygon class="cls-4" points="588.74 177.7 588.74 325.75 460.52 399.78 460.52 251.73 588.74 177.7"/><polygon class="cls-5" points="460.52 251.73 332.3 177.7 332.3 325.75 460.52 399.78 460.52 251.73"/><polygon class="cls-6" points="588.74 177.7 556.83 196.46 524.86 215.11 460.82 252.25 460.52 252.42 460.22 252.25 396.18 215.11 364.21 196.46 332.3 177.7 364.5 195.95 396.64 214.31 460.82 251.21 460.22 251.21 524.4 214.31 556.54 195.95 588.74 177.7"/><rect class="cls-7" x="459.92" y="251.73" width="1.2" height="148.05"/><path class="cls-8" d="M757.43,427.51a5,5,0,0,1-2.49-.67L522.14,293.08a5,5,0,0,1,5-8.67L759.93,418.18a5,5,0,0,1-2.5,9.34Z"/><path class="cls-9" d="M412.62,283.6c-6.16-3.56-11.17-.7-11.19,6.38s5,15.7,11.12,19.25,11.17.7,11.19-6.38S418.78,287.15,412.62,283.6Z"/><path class="cls-10" d="M368.06,346.4l8.74,5,39.41-51.81a5,5,0,0,0-8-6Z"/><path class="cls-11" d="M318.39,352.81a5,5,0,0,1-2.4-9.39l93.85-51.2a5,5,0,0,1,4.79,8.78l-93.85,51.2A5,5,0,0,1,318.39,352.81Z"/><path class="cls-12" d="M368.06,322.2a1.5,1.5,0,0,1-.72-2.82l44.17-24.1a1.5,1.5,0,0,1,1.44,2.63L368.78,322A1.49,1.49,0,0,1,368.06,322.2Z"/><polygon class="cls-13" points="693.75 399.57 740.27 372.72 786.79 399.57 740.27 426.43 693.75 399.57"/><polygon class="cls-14" points="693.75 399.57 693.75 453.28 740.27 480.14 740.27 426.43 693.75 399.57"/><path class="cls-15" d="M718.6,432.26c-5.42-3.13-9.82-.62-9.84,5.61s4.36,13.81,9.78,16.94,9.82.62,9.84-5.61S724,435.39,718.6,432.26Z"/><polygon class="cls-16" points="740.27 426.43 786.79 399.57 786.79 453.28 740.27 480.14 740.27 426.43"/><polygon class="cls-17" points="693.75 399.57 705.44 406.19 717.09 412.88 740.38 426.24 740.16 426.24 763.46 412.87 775.11 406.19 786.79 399.57 775.21 406.38 763.6 413.13 740.38 426.62 740.27 426.68 740.16 426.62 716.94 413.13 705.33 406.38 693.75 399.57"/><rect class="cls-18" x="740.05" y="426.43" width="0.44" height="53.71"/><polygon class="cls-19" points="668.67 620.5 210.59 354.56 4.07 473.8 462.14 739.74 668.67 620.5"/><polygon class="cls-20" points="203.96 547.76 141.17 554.64 21.36 484.94 75.74 473.74 203.96 547.76"/><polygon class="cls-21" points="460.52 695.89 394 700.18 270.28 628.35 332.3 621.86 460.52 695.89"/><polygon class="cls-13" points="75.86 325.75 204.08 251.73 332.3 325.75 204.08 399.78 75.86 325.75"/><path class="cls-22" d="M209,329a5,5,0,0,1-4.87,5.13L95.25,336.95l-16.59-9.57,125.17-3.24A5,5,0,0,1,209,329Z"/><polygon class="cls-14" points="75.86 325.75 75.86 473.81 204.08 547.84 204.08 399.78 75.86 325.75"/><polygon class="cls-16" points="204.08 399.78 332.3 325.75 332.3 473.81 204.08 547.84 204.08 399.78"/><path class="cls-15" d="M268.16,420.43c6.06-3.5,11-.69,11,6.28s-4.88,15.46-10.95,19-11,.69-11-6.28S262.09,423.94,268.16,420.43Z"/><polygon class="cls-23" points="75.86 325.75 108.06 344.01 140.2 362.37 204.38 399.26 203.78 399.26 267.96 362.37 300.1 344.01 332.3 325.75 300.39 344.52 268.42 363.17 204.38 400.3 204.08 400.48 203.78 400.3 139.74 363.17 107.77 344.51 75.86 325.75"/><rect class="cls-24" x="203.48" y="399.78" width="1.2" height="148.05"/><g class="cls-25"><path class="cls-26" d="M313,484.92l-8.74,5-39.41-51.81a5,5,0,0,1,8-6Z"/></g><path class="cls-27" d="M362.71,491.33a5,5,0,0,1-2.39-.61l-93.85-51.2a5,5,0,0,1,4.79-8.78l93.85,51.2a5,5,0,0,1-2.4,9.39Z"/><path class="cls-28" d="M572.94,533.51a5,5,0,0,1-2.5-9.34l144-82.73a5,5,0,1,1,5,8.67l-144,82.73A5,5,0,0,1,572.94,533.51Z"/><polygon class="cls-29" points="332.3 473.81 460.52 399.78 588.74 473.81 460.52 547.84 332.3 473.81"/><polygon class="cls-30" points="332.3 473.81 332.3 621.86 460.52 695.89 460.52 547.84 332.3 473.81"/><polygon class="cls-31" points="460.52 547.84 588.74 473.81 588.74 621.86 460.52 695.89 460.52 547.84"/><polygon class="cls-32" points="332.3 473.81 364.5 492.06 396.64 510.42 460.82 547.32 460.22 547.32 524.4 510.42 556.54 492.06 588.74 473.81 556.83 492.57 524.86 511.22 460.82 548.36 460.52 548.53 460.22 548.36 396.18 511.22 364.21 492.57 332.3 473.81"/><rect class="cls-33" x="459.92" y="547.84" width="1.2" height="148.05"/><path class="cls-5" d="M524.59,276.12c6.06-3.5,11-.69,11,6.28s-4.88,15.46-10.95,19-11,.69-11-6.28S518.53,279.62,524.59,276.12Z"/><ellipse class="cls-16" cx="203.96" cy="329.14" rx="13.88" ry="8.75"/><path class="cls-34" d="M204,334.14a5,5,0,0,1-5-5V278.33a5,5,0,0,1,10,0v50.81A5,5,0,0,1,204,334.14Z"/><polygon class="cls-35" points="75.74 74.03 203.96 0 332.18 74.03 203.96 148.05 75.74 74.03"/><polygon class="cls-36" points="75.74 74.03 75.74 222.08 203.96 296.11 203.96 148.05 75.74 74.03"/><polygon class="cls-37" points="203.96 148.05 332.18 74.03 332.18 222.08 203.96 296.11 203.96 148.05"/><polygon class="cls-38" points="75.74 74.03 107.94 92.28 140.08 110.64 204.26 147.53 203.66 147.53 267.84 110.64 299.98 92.28 332.18 74.03 300.27 92.79 268.3 111.44 204.26 148.57 203.96 148.75 203.66 148.57 139.62 111.44 107.65 92.79 75.74 74.03"/><rect class="cls-39" x="203.36" y="148.05" width="1.2" height="148.05"/></g></g></svg>