<svg xmlns="http://www.w3.org/2000/svg" xmlns:xlink="http://www.w3.org/1999/xlink" viewBox="0 0 786.79 739.74"><defs><style>.cls-1{fill:url(#linear-gradient);}.cls-2{fill:url(#linear-gradient-2);}.cls-3{fill:#9dcff2;}.cls-4{fill:#7fbce6;}.cls-5{fill:#114dac;}.cls-6{fill:url(#linear-gradient-3);}.cls-7{fill:url(#linear-gradient-4);}.cls-8{fill:url(#linear-gradient-5);}.cls-9{fill:#0f4294;}.cls-10{fill:url(#linear-gradient-6);}.cls-11{fill:url(#linear-gradient-7);}.cls-12{fill:url(#linear-gradient-8);}.cls-13{fill:#464a64;}.cls-14{fill:#1b1e39;}.cls-15{fill:#121426;}.cls-16{fill:#30334a;}.cls-17{fill:url(#linear-gradient-9);}.cls-18{fill:url(#linear-gradient-10);}.cls-19{fill:url(#linear-gradient-11);}.cls-20{opacity:0.6;fill:url(#linear-gradient-12);}.cls-21{fill:url(#linear-gradient-13);}.cls-22{fill:url(#linear-gradient-14);}.cls-23{fill:url(#linear-gradient-15);}.cls-24{fill:url(#linear-gradient-16);}.cls-25{opacity:0.4;}.cls-26{fill:url(#linear-gradient-17);}.cls-27{fill:url(#linear-gradient-18);}.cls-28{fill:url(#linear-gradient-19);}.cls-29{fill:#e4ecff;}.cls-30{fill:#4e8fe0;}.cls-31{fill:#c3e4ff;}.cls-32{fill:url(#linear-gradient-20);}.cls-33{fill:url(#linear-gradient-21);}.cls-34{fill:url(#linear-gradient-22);}.cls-35{fill:#bab4f0;}.cls-36{fill:#6b67f5;}.cls-37{fill:#a49cf0;}.cls-38{fill:url(#linear-gradient-23);}.cls-39{fill:url(#linear-gradient-24);}</style><linearGradient id="linear-gradient" x1="3100.36" y1="545.7" x2="2755.57" y2="341.18" gradientTransform="translate(-2399.88)" gradientUnits="userSpaceOnUse"><stop offset="0" stop-color="#3e95e8" stop-opacity="0"/><stop offset="1" stop-color="#114dac"/></linearGradient><linearGradient id="linear-gradient-2" x1="2757" y1="347.43" x2="2885" y2="382.1" gradientTransform="translate(-2399.88)" gradientUnits="userSpaceOnUse"><stop offset="0" stop-color="#114dac"/><stop offset="1" stop-color="#3e95e8" stop-opacity="0"/></linearGradient><linearGradient id="linear-gradient-3" x1="326.27" y1="252.42" x2="326.27" y2="177.18" gradientUnits="userSpaceOnUse"><stop offset="0" stop-color="#6de8ff"/><stop offset="1" stop-color="#ffc4ff" stop-opacity="0.1"/></linearGradient><linearGradient id="linear-gradient-4" x1="2726.14" y1="399.78" x2="2726.14" y2="251.73" gradientTransform="translate(-2399.88)" gradientUnits="userSpaceOnUse"><stop offset="0" stop-color="#ffc4ff" stop-opacity="0.1"/><stop offset="1" stop-color="#6de8ff"/></linearGradient><linearGradient id="linear-gradient-5" x1="-6342.93" y1="460.53" x2="-6464.06" y2="250.73" gradientTransform="matrix(-1, 0, 0, 1, -6257.74, 0)" gradientUnits="userSpaceOnUse"><stop offset="0" stop-color="#1190f4"/><stop offset="0.77" stop-color="#1163ec"/><stop offset="0.81" stop-color="#115fe0" stop-opacity="0.93"/><stop offset="0.94" stop-color="#1152bb" stop-opacity="0.69"/><stop offset="1" stop-color="#114dac" stop-opacity="0.6"/></linearGradient><linearGradient id="linear-gradient-6" x1="2781.12" y1="306.11" x2="2819.62" y2="354.61" gradientTransform="translate(-2399.88)" gradientUnits="userSpaceOnUse"><stop offset="0" stop-color="#112fac"/><stop offset="0.14" stop-color="#1130ac" stop-opacity="0.97"/><stop offset="0.3" stop-color="#1132ac" stop-opacity="0.9"/><stop offset="0.45" stop-color="#1136ac" stop-opacity="0.78"/><stop offset="0.61" stop-color="#113bac" stop-opacity="0.6"/><stop offset="0.78" stop-color="#1142ac" stop-opacity="0.38"/><stop offset="0.94" stop-color="#114aac" stop-opacity="0.11"/><stop offset="1" stop-color="#114dac" stop-opacity="0"/></linearGradient><linearGradient id="linear-gradient-7" x1="-6360.28" y1="322.2" x2="-6256.44" y2="322.2" gradientTransform="matrix(-1, 0, 0, 1, -5886.88, 0)" gradientUnits="userSpaceOnUse"><stop offset="0" stop-color="#114dac"/><stop offset="0.76" stop-color="#236fce"/><stop offset="1" stop-color="#0f4294"/></linearGradient><linearGradient id="linear-gradient-8" x1="2772.93" y1="308.65" x2="2820.1" y2="308.65" gradientTransform="translate(-2399.88)" gradientUnits="userSpaceOnUse"><stop offset="0" stop-color="#c456ff" stop-opacity="0"/><stop offset="1" stop-color="#e4ecff"/></linearGradient><linearGradient id="linear-gradient-9" x1="46.52" y1="426.68" x2="46.52" y2="399.38" gradientUnits="userSpaceOnUse"><stop offset="0" stop-color="#8890c2"/><stop offset="1" stop-color="#ffc4ff" stop-opacity="0.1"/></linearGradient><linearGradient id="linear-gradient-10" x1="-6304.26" y1="480.14" x2="-6304.26" y2="426.43" gradientTransform="matrix(-1, 0, 0, 1, -6257.74, 0)" gradientUnits="userSpaceOnUse"><stop offset="0" stop-color="#ffc4ff" stop-opacity="0.1"/><stop offset="1" stop-color="#8890c2"/></linearGradient><linearGradient id="linear-gradient-11" x1="2634.48" y1="682.94" x2="3068.85" y2="409.64" gradientTransform="translate(-2399.88)" gradientUnits="userSpaceOnUse"><stop offset="0" stop-color="#464a64"/><stop offset="1" stop-color="#beadf6" stop-opacity="0"/></linearGradient><linearGradient id="linear-gradient-12" x1="3011.78" y1="499.5" x2="3134.7" y2="532.79" xlink:href="#linear-gradient-11"/><linearGradient id="linear-gradient-13" x1="2779.36" y1="643.54" x2="2850.02" y2="674.87" xlink:href="#linear-gradient-11"/><linearGradient id="linear-gradient-14" x1="-6965.87" y1="330.54" x2="-6835.56" y2="330.54" gradientTransform="matrix(-1, 0, 0, 1, -6257.74, 0)" gradientUnits="userSpaceOnUse"><stop offset="0" stop-color="#464a64" stop-opacity="0"/><stop offset="0.23" stop-color="#3e425b" stop-opacity="0.34"/><stop offset="0.53" stop-color="#373a52" stop-opacity="0.7"/><stop offset="0.79" stop-color="#32354c" stop-opacity="0.92"/><stop offset="1" stop-color="#30334a"/></linearGradient><linearGradient id="linear-gradient-15" x1="582.7" y1="400.48" x2="582.7" y2="325.23" xlink:href="#linear-gradient-9"/><linearGradient id="linear-gradient-16" x1="-6840.45" y1="547.84" x2="-6840.45" y2="399.78" xlink:href="#linear-gradient-10"/><linearGradient id="linear-gradient-17" x1="-6768.97" y1="444.63" x2="-6730.47" y2="493.13" gradientTransform="matrix(-1, 0, 0, 1, -6257.74, 0)" gradientUnits="userSpaceOnUse"><stop offset="0" stop-color="#111324"/><stop offset="0.33" stop-color="#121427" stop-opacity="0.88"/><stop offset="0.67" stop-color="#16182e" stop-opacity="0.53"/><stop offset="1" stop-color="#1b1e39" stop-opacity="0"/></linearGradient><linearGradient id="linear-gradient-18" x1="3189.81" y1="460.73" x2="3293.65" y2="460.73" gradientTransform="translate(-2770.74)" gradientUnits="userSpaceOnUse"><stop offset="0" stop-color="#236fce"/><stop offset="1" stop-color="#1b1e39"/></linearGradient><linearGradient id="linear-gradient-19" x1="-6476.6" y1="487.15" x2="-6322.6" y2="487.15" gradientTransform="matrix(-1, 0, 0, 1, -6257.74, 0)" gradientUnits="userSpaceOnUse"><stop offset="0" stop-color="#114dac" stop-opacity="0.6"/><stop offset="0.06" stop-color="#1152bb" stop-opacity="0.69"/><stop offset="0.19" stop-color="#115fe0" stop-opacity="0.93"/><stop offset="0.23" stop-color="#1163ec"/><stop offset="0.27" stop-color="#116aed"/><stop offset="0.41" stop-color="#117ff1"/><stop offset="0.55" stop-color="#118cf3"/><stop offset="0.69" stop-color="#1190f4"/><stop offset="0.97" stop-color="#121426"/></linearGradient><linearGradient id="linear-gradient-20" x1="326.27" y1="548.53" x2="326.27" y2="473.29" gradientUnits="userSpaceOnUse"><stop offset="0" stop-color="#fff"/><stop offset="1" stop-color="#ffc4ff" stop-opacity="0.1"/></linearGradient><linearGradient id="linear-gradient-21" x1="-6584.01" y1="695.89" x2="-6584.01" y2="547.84" gradientTransform="matrix(-1, 0, 0, 1, -6257.74, 0)" gradientUnits="userSpaceOnUse"><stop offset="0" stop-color="#ffc4ff" stop-opacity="0.1"/><stop offset="1" stop-color="#fff"/></linearGradient><linearGradient id="linear-gradient-22" x1="-6840.57" y1="334.14" x2="-6840.57" y2="273.33" gradientTransform="matrix(-1, 0, 0, 1, -6257.74, 0)" gradientUnits="userSpaceOnUse"><stop offset="0" stop-color="#30334a"/><stop offset="0.05" stop-color="#2f3650"/><stop offset="0.12" stop-color="#2e3d60"/><stop offset="0.19" stop-color="#2b497b"/><stop offset="0.27" stop-color="#285aa0"/><stop offset="0.36" stop-color="#236fce"/><stop offset="1" stop-color="#114dac"/></linearGradient><linearGradient id="linear-gradient-23" x1="582.83" y1="148.75" x2="582.83" y2="73.51" xlink:href="#linear-gradient-20"/><linearGradient id="linear-gradient-24" x1="-6840.57" y1="296.11" x2="-6840.57" y2="148.05" xlink:href="#linear-gradient-21"/></defs><title>Techno_right_svg</title><g id="Layer_2" data-name="Layer 2"><g id="Layer_2-2" data-name="Layer 2"><polygon class="cls-1" points="786.79 473.13 328.71 207.19 122.18 326.43 580.26 592.37 786.79 473.13"/><polygon class="cls-2" points="326.27 399.82 458.24 405.05 517.57 330.14 454.49 325.79 326.27 399.82"/><polygon class="cls-3" points="198.05 177.7 326.27 103.67 454.49 177.7 326.27 251.73 198.05 177.7"/><polygon class="cls-4" points="198.05 177.7 198.05 325.75 326.27 399.78 326.27 251.73 198.05 177.7"/><polygon class="cls-5" points="326.27 251.73 454.49 177.7 454.49 325.75 326.27 399.78 326.27 251.73"/><polygon class="cls-6" points="198.05 177.7 230.25 195.95 262.39 214.31 326.57 251.21 325.97 251.21 390.14 214.31 422.28 195.95 454.49 177.7 422.58 196.46 390.61 215.11 326.57 252.25 326.27 252.42 325.97 252.25 261.93 215.11 229.96 196.46 198.05 177.7"/><rect class="cls-7" x="325.66" y="251.73" width="1.2" height="148.05"/><path class="cls-8" d="M29.36,427.51a5,5,0,0,1-2.5-9.34l232.8-133.77a5,5,0,1,1,5,8.67L31.84,426.85A5,5,0,0,1,29.36,427.51Z"/><path class="cls-9" d="M374.17,283.6c6.16-3.56,11.17-.7,11.19,6.38s-5,15.7-11.12,19.25-11.17.7-11.19-6.38S368,287.15,374.17,283.6Z"/><path class="cls-10" d="M418.73,346.4l-8.74,5-39.41-51.81a5,5,0,0,1,8-6Z"/><path class="cls-11" d="M468.4,352.81a5,5,0,0,1-2.39-.61L372.16,301a5,5,0,0,1,4.79-8.78l93.85,51.2a5,5,0,0,1-2.4,9.39Z"/><path class="cls-12" d="M418.72,322.2A1.49,1.49,0,0,1,418,322l-44.17-24.1a1.5,1.5,0,1,1,1.44-2.63l44.17,24.1a1.5,1.5,0,0,1-.72,2.82Z"/><polygon class="cls-13" points="93.03 399.57 46.52 372.72 0 399.57 46.52 426.43 93.03 399.57"/><polygon class="cls-14" points="93.03 399.57 93.03 453.28 46.52 480.14 46.52 426.43 93.03 399.57"/><path class="cls-15" d="M68.18,432.26c5.42-3.13,9.82-.62,9.84,5.61s-4.36,13.81-9.78,16.94-9.82.62-9.84-5.61S62.76,435.39,68.18,432.26Z"/><polygon class="cls-16" points="46.52 426.43 0 399.57 0 453.28 46.52 480.14 46.52 426.43"/><polygon class="cls-17" points="93.03 399.57 81.46 406.38 69.85 413.13 46.63 426.62 46.52 426.68 46.41 426.62 23.19 413.13 11.58 406.38 0 399.57 11.68 406.19 23.33 412.87 46.63 426.24 46.41 426.24 69.7 412.88 81.35 406.19 93.03 399.57"/><rect class="cls-18" x="46.3" y="426.43" width="0.44" height="53.71"/><polygon class="cls-19" points="118.12 620.5 576.19 354.56 782.72 473.8 324.64 739.74 118.12 620.5"/><polygon class="cls-20" points="582.83 547.76 645.61 554.64 765.42 484.94 711.04 473.74 582.83 547.76"/><polygon class="cls-21" points="326.27 695.89 392.79 700.18 516.5 628.35 454.49 621.86 326.27 695.89"/><polygon class="cls-13" points="710.92 325.75 582.7 251.73 454.49 325.75 582.7 399.78 710.92 325.75"/><path class="cls-22" d="M577.82,329a5,5,0,0,0,4.87,5.13l108.84,2.81,16.59-9.57L583,324.14A5,5,0,0,0,577.82,329Z"/><polygon class="cls-14" points="710.92 325.75 710.92 473.81 582.7 547.84 582.7 399.78 710.92 325.75"/><polygon class="cls-16" points="582.7 399.78 454.49 325.75 454.49 473.81 582.7 547.84 582.7 399.78"/><path class="cls-15" d="M518.63,420.43c-6.06-3.5-11-.69-11,6.28s4.88,15.46,10.95,19,11,.69,11-6.28S524.7,423.94,518.63,420.43Z"/><polygon class="cls-23" points="710.92 325.75 679.01 344.51 647.04 363.17 583 400.3 582.7 400.48 582.4 400.3 518.36 363.17 486.39 344.52 454.49 325.75 486.69 344.01 518.83 362.37 583 399.26 582.4 399.26 646.58 362.37 678.72 344.01 710.92 325.75"/><rect class="cls-24" x="582.1" y="399.78" width="1.2" height="148.05"/><g class="cls-25"><path class="cls-26" d="M473.74,484.92l8.74,5,39.41-51.81a5,5,0,0,0-8-6Z"/></g><path class="cls-27" d="M424.07,491.33a5,5,0,0,1-2.4-9.39l93.85-51.2a5,5,0,1,1,4.79,8.78l-93.85,51.2A5,5,0,0,1,424.07,491.33Z"/><path class="cls-28" d="M213.85,533.51a5,5,0,0,1-2.49-.67l-144-82.73a5,5,0,0,1,5-8.67l144,82.73a5,5,0,0,1-2.5,9.34Z"/><polygon class="cls-29" points="454.49 473.81 326.27 399.78 198.05 473.81 326.27 547.84 454.49 473.81"/><polygon class="cls-30" points="454.49 473.81 454.49 621.86 326.27 695.89 326.27 547.84 454.49 473.81"/><polygon class="cls-31" points="326.27 547.84 198.05 473.81 198.05 621.86 326.27 695.89 326.27 547.84"/><polygon class="cls-32" points="454.49 473.81 422.58 492.57 390.61 511.22 326.57 548.36 326.27 548.53 325.97 548.36 261.93 511.22 229.96 492.57 198.05 473.81 230.25 492.06 262.39 510.42 326.57 547.32 325.97 547.32 390.15 510.42 422.28 492.06 454.49 473.81"/><rect class="cls-33" x="325.66" y="547.84" width="1.2" height="148.05"/><path class="cls-5" d="M262.19,276.12c-6.06-3.5-11-.69-11,6.28s4.88,15.46,10.95,19,11,.69,11-6.28S268.26,279.62,262.19,276.12Z"/><ellipse class="cls-16" cx="582.83" cy="329.14" rx="13.88" ry="8.75"/><path class="cls-34" d="M582.83,334.14a5,5,0,0,1-5-5V278.33a5,5,0,1,1,10,0v50.81A5,5,0,0,1,582.83,334.14Z"/><polygon class="cls-35" points="711.04 74.03 582.83 0 454.61 74.03 582.83 148.05 711.04 74.03"/><polygon class="cls-36" points="711.04 74.03 711.04 222.08 582.83 296.11 582.83 148.05 711.04 74.03"/><polygon class="cls-37" points="582.83 148.05 454.61 74.03 454.61 222.08 582.83 296.11 582.83 148.05"/><polygon class="cls-38" points="711.04 74.03 679.14 92.79 647.17 111.44 583.13 148.57 582.83 148.75 582.53 148.57 518.49 111.44 486.51 92.79 454.61 74.03 486.81 92.28 518.95 110.64 583.13 147.53 582.53 147.53 646.71 110.64 678.84 92.28 711.04 74.03"/><rect class="cls-39" x="582.22" y="148.05" width="1.2" height="148.05"/></g></g></svg>