<svg xmlns="http://www.w3.org/2000/svg" xmlns:xlink="http://www.w3.org/1999/xlink" viewBox="0 0 925.11 748.35"><defs><style>.cls-1{fill:url(#linear-gradient);}.cls-2{fill:url(#linear-gradient-2);}.cls-3{opacity:0.6;fill:url(#linear-gradient-3);}.cls-4{fill:#464a64;}.cls-5{fill:url(#linear-gradient-4);}.cls-6{fill:#30334a;}.cls-7{fill:#1b1e39;}.cls-8{fill:#121426;}.cls-9{fill:url(#linear-gradient-5);}.cls-10{fill:url(#linear-gradient-6);}.cls-11{opacity:0.4;}.cls-12{fill:url(#linear-gradient-7);}.cls-13{fill:url(#linear-gradient-8);}.cls-14{fill:url(#linear-gradient-9);}.cls-15{fill:url(#linear-gradient-10);}.cls-16{fill:url(#linear-gradient-11);}.cls-17{fill:#9dcff2;}.cls-18{fill:#7fbce6;}.cls-19{fill:#114dac;}.cls-20{fill:url(#linear-gradient-12);}.cls-21{fill:url(#linear-gradient-13);}.cls-22{fill:#e4ecff;}.cls-23{fill:#c3e4ff;}.cls-24{fill:#4e8fe0;}.cls-25{fill:url(#linear-gradient-14);}.cls-26{fill:url(#linear-gradient-15);}.cls-27{fill:url(#linear-gradient-16);}.cls-28{fill:url(#linear-gradient-17);}.cls-29{fill:url(#linear-gradient-18);}.cls-30{fill:#0d3b85;}.cls-31{fill:url(#linear-gradient-19);}.cls-32{fill:url(#linear-gradient-20);}.cls-33{fill:url(#linear-gradient-21);}.cls-34{fill:#bab4f0;}.cls-35{fill:#a49cf0;}.cls-36{fill:#6b67f5;}.cls-37{fill:url(#linear-gradient-22);}.cls-38{fill:url(#linear-gradient-23);}.cls-39{fill:url(#linear-gradient-24);}.cls-40{fill:url(#linear-gradient-25);}</style><linearGradient id="linear-gradient" x1="116.49" y1="684.65" x2="550.86" y2="411.36" gradientUnits="userSpaceOnUse"><stop offset="0" stop-color="#464a64"/><stop offset="1" stop-color="#beadf6" stop-opacity="0"/></linearGradient><linearGradient id="linear-gradient-2" x1="838.8" y1="694.79" x2="494.02" y2="490.27" gradientUnits="userSpaceOnUse"><stop offset="0" stop-color="#114dac"/><stop offset="1" stop-color="#3e95e8" stop-opacity="0"/></linearGradient><linearGradient id="linear-gradient-3" x1="497.96" y1="501.37" x2="650.53" y2="542.69" xlink:href="#linear-gradient"/><linearGradient id="linear-gradient-4" x1="470.47" y1="332.66" x2="587.35" y2="332.66" gradientUnits="userSpaceOnUse"><stop offset="0" stop-color="#30334a"/><stop offset="0.21" stop-color="#32354c" stop-opacity="0.92"/><stop offset="0.47" stop-color="#373a52" stop-opacity="0.7"/><stop offset="0.77" stop-color="#3e425b" stop-opacity="0.34"/><stop offset="1" stop-color="#464a64" stop-opacity="0"/></linearGradient><linearGradient id="linear-gradient-5" x1="464.59" y1="403.86" x2="464.59" y2="328.62" gradientUnits="userSpaceOnUse"><stop offset="0" stop-color="#8890c2"/><stop offset="1" stop-color="#ffc4ff" stop-opacity="0.1"/></linearGradient><linearGradient id="linear-gradient-6" x1="464.59" y1="551.22" x2="464.59" y2="403.17" gradientUnits="userSpaceOnUse"><stop offset="0" stop-color="#ffc4ff" stop-opacity="0.1"/><stop offset="1" stop-color="#8890c2"/></linearGradient><linearGradient id="linear-gradient-7" x1="401.75" y1="440.89" x2="437.75" y2="544.39" gradientUnits="userSpaceOnUse"><stop offset="0" stop-color="#1b1e39"/><stop offset="0.27" stop-color="#1f223c" stop-opacity="0.82"/><stop offset="0.74" stop-color="#292c44" stop-opacity="0.33"/><stop offset="1" stop-color="#30334a" stop-opacity="0"/></linearGradient><linearGradient id="linear-gradient-8" x1="536.06" y1="448.02" x2="574.56" y2="496.52" gradientUnits="userSpaceOnUse"><stop offset="0" stop-color="#111324"/><stop offset="0.33" stop-color="#121427" stop-opacity="0.88"/><stop offset="0.67" stop-color="#16182e" stop-opacity="0.53"/><stop offset="1" stop-color="#1b1e39" stop-opacity="0"/></linearGradient><linearGradient id="linear-gradient-9" x1="300.95" y1="464.12" x2="404.8" y2="464.12" gradientUnits="userSpaceOnUse"><stop offset="0" stop-color="#114dac"/><stop offset="1" stop-color="#236fce"/></linearGradient><linearGradient id="linear-gradient-10" x1="321.54" y1="465.57" x2="378.7" y2="465.57" gradientUnits="userSpaceOnUse"><stop offset="0" stop-color="#c456ff" stop-opacity="0"/><stop offset="1" stop-color="#e4ecff"/></linearGradient><linearGradient id="linear-gradient-11" x1="-2062.93" y1="464.12" x2="-1959.09" y2="464.12" gradientTransform="matrix(-1, 0, 0, 1, -1434.71, 0)" gradientUnits="userSpaceOnUse"><stop offset="0" stop-color="#236fce"/><stop offset="1" stop-color="#1b1e39"/></linearGradient><linearGradient id="linear-gradient-12" x1="208.15" y1="550.25" x2="208.15" y2="475.01" gradientUnits="userSpaceOnUse"><stop offset="0" stop-color="#b8e8ff"/><stop offset="1" stop-color="#ffc4ff" stop-opacity="0.1"/></linearGradient><linearGradient id="linear-gradient-13" x1="208.15" y1="697.61" x2="208.15" y2="549.55" gradientUnits="userSpaceOnUse"><stop offset="0" stop-color="#ffc4ff" stop-opacity="0.1"/><stop offset="1" stop-color="#b8e8ff"/></linearGradient><linearGradient id="linear-gradient-14" x1="721.03" y1="551.91" x2="721.03" y2="476.67" gradientUnits="userSpaceOnUse"><stop offset="0" stop-color="#fff"/><stop offset="1" stop-color="#ffc4ff" stop-opacity="0.1"/></linearGradient><linearGradient id="linear-gradient-15" x1="721.03" y1="699.28" x2="721.03" y2="551.22" gradientUnits="userSpaceOnUse"><stop offset="0" stop-color="#ffc4ff" stop-opacity="0.1"/><stop offset="1" stop-color="#fff"/></linearGradient><linearGradient id="linear-gradient-16" x1="261.36" y1="645.26" x2="332.03" y2="676.59" xlink:href="#linear-gradient"/><linearGradient id="linear-gradient-17" x1="751.89" y1="646.89" x2="879.89" y2="681.56" xlink:href="#linear-gradient-2"/><linearGradient id="linear-gradient-18" x1="527.87" y1="450.56" x2="575.05" y2="450.56" gradientUnits="userSpaceOnUse"><stop offset="0" stop-color="#c456ff" stop-opacity="0"/><stop offset="1" stop-color="#29d6c7"/></linearGradient><linearGradient id="linear-gradient-19" x1="565.78" y1="714.64" x2="565.78" y2="587.29" gradientUnits="userSpaceOnUse"><stop offset="0" stop-color="#1190f4"/><stop offset="0.64" stop-color="#1163ec"/><stop offset="0.7" stop-color="#115fe0" stop-opacity="0.93"/><stop offset="0.91" stop-color="#1152bb" stop-opacity="0.69"/><stop offset="1" stop-color="#114dac" stop-opacity="0.6"/></linearGradient><linearGradient id="linear-gradient-20" x1="365.68" y1="714.64" x2="365.68" y2="590.52" gradientUnits="userSpaceOnUse"><stop offset="0" stop-color="#1190f4"/><stop offset="0.64" stop-color="#114dac"/><stop offset="0.75" stop-color="#0f459b"/><stop offset="0.89" stop-color="#0e3e8b"/><stop offset="1" stop-color="#0d3b85"/></linearGradient><linearGradient id="linear-gradient-21" x1="464.59" y1="334.14" x2="464.59" y2="273.33" gradientUnits="userSpaceOnUse"><stop offset="0" stop-color="#30334a"/><stop offset="0.05" stop-color="#2f3650"/><stop offset="0.12" stop-color="#2e3d60"/><stop offset="0.19" stop-color="#2b497b"/><stop offset="0.27" stop-color="#285aa0"/><stop offset="0.36" stop-color="#236fce"/><stop offset="1" stop-color="#114dac"/></linearGradient><linearGradient id="linear-gradient-22" x1="464.59" y1="148.75" x2="464.59" y2="73.51" xlink:href="#linear-gradient-14"/><linearGradient id="linear-gradient-23" x1="464.59" y1="296.11" x2="464.59" y2="148.05" xlink:href="#linear-gradient-15"/><linearGradient id="linear-gradient-24" x1="464.59" y1="694.89" x2="464.59" y2="667.59" xlink:href="#linear-gradient-5"/><linearGradient id="linear-gradient-25" x1="-1211.14" y1="748.35" x2="-1211.14" y2="694.64" gradientTransform="translate(1675.73)" xlink:href="#linear-gradient-6"/></defs><title>Techno_top_svg</title><g id="Layer_2" data-name="Layer 2"><g id="Layer_2-2" data-name="Layer 2"><polygon class="cls-1" points="0 622.22 458.08 356.28 664.6 475.52 206.53 741.46 0 622.22"/><polygon class="cls-2" points="925.11 622.22 467.03 356.28 260.5 475.52 718.58 741.46 925.11 622.22"/><polygon class="cls-3" points="464.59 551.22 603.29 562.55 685.79 493.35 592.81 477.19 464.59 551.22"/><polygon class="cls-4" points="336.37 329.14 464.59 255.11 592.81 329.14 464.59 403.17 336.37 329.14"/><path class="cls-5" d="M587.35,332.29l-15.41,8.9-96.84-7.07a5,5,0,1,1,.73-10Z"/><polygon class="cls-6" points="336.37 329.14 336.37 477.19 464.59 551.22 464.59 403.17 336.37 329.14"/><path class="cls-7" d="M401.28,425c-6.16-3.56-11.17-.7-11.19,6.38s5,15.7,11.12,19.25,11.17.7,11.19-6.38S407.44,428.51,401.28,425Z"/><polygon class="cls-7" points="464.59 403.17 592.81 329.14 592.81 477.19 464.59 551.22 464.59 403.17"/><path class="cls-8" d="M528.66,423.82c6.06-3.5,11-.69,11,6.28s-4.88,15.46-10.95,19-11,.69-11-6.28S522.6,427.32,528.66,423.82Z"/><polygon class="cls-9" points="336.37 329.14 368.57 347.39 400.71 365.75 464.89 402.65 464.29 402.65 528.47 365.75 560.61 347.39 592.81 329.14 560.9 347.9 528.93 366.55 464.89 403.69 464.59 403.86 464.29 403.69 400.25 366.55 368.28 347.9 336.37 329.14"/><rect class="cls-10" x="463.99" y="403.17" width="1.2" height="148.05"/><g class="cls-11"><path class="cls-12" d="M442,538.2l-13.57-7.84-33.35-90.11a5,5,0,0,1,9.38-3.47Z"/><path class="cls-13" d="M573.55,488.31l-8.74,5L525.4,441.54a5,5,0,0,1,8-6Z"/></g><path class="cls-14" d="M306,494.72a5,5,0,0,1-2.4-9.39l93.85-51.2a5,5,0,0,1,4.79,8.78l-93.85,51.2A5,5,0,0,1,306,494.72Z"/><path class="cls-15" d="M323,481.8a1.5,1.5,0,0,1-.72-2.82l54.16-29.45a1.5,1.5,0,0,1,1.43,2.63l-54.16,29.45A1.49,1.49,0,0,1,323,481.8Z"/><path class="cls-16" d="M623.22,494.72a5,5,0,0,1-2.39-.61L527,442.9a5,5,0,0,1,4.79-8.78l93.85,51.2a5,5,0,0,1-2.4,9.39Z"/><polygon class="cls-17" points="79.93 475.53 208.15 401.5 336.37 475.53 208.15 549.55 79.93 475.53"/><polygon class="cls-18" points="79.93 475.53 79.93 623.58 208.15 697.61 208.15 549.55 79.93 475.53"/><polygon class="cls-19" points="208.15 549.55 336.37 475.53 336.37 623.58 208.15 697.61 208.15 549.55"/><polygon class="cls-20" points="79.93 475.53 112.13 493.78 144.27 512.14 208.45 549.03 207.85 549.03 272.03 512.14 304.17 493.78 336.37 475.53 304.46 494.29 272.49 512.94 208.45 550.07 208.15 550.25 207.85 550.07 143.81 512.94 111.84 494.29 79.93 475.53"/><rect class="cls-21" x="207.55" y="549.55" width="1.2" height="148.05"/><polygon class="cls-22" points="592.81 477.19 721.02 403.17 849.24 477.19 721.02 551.22 592.81 477.19"/><polygon class="cls-23" points="592.81 477.19 592.81 625.25 721.02 699.27 721.02 551.22 592.81 477.19"/><polygon class="cls-24" points="721.02 551.22 849.24 477.19 849.24 625.25 721.02 699.27 721.02 551.22"/><polygon class="cls-25" points="592.81 477.19 625.01 495.45 657.15 513.81 721.33 550.7 720.73 550.7 784.9 513.81 817.04 495.45 849.24 477.19 817.34 495.95 785.37 514.61 721.33 551.74 721.02 551.91 720.73 551.74 656.69 514.61 624.72 495.95 592.81 477.19"/><rect class="cls-26" x="720.42" y="551.22" width="1.2" height="148.05"/><polygon class="cls-27" points="208.15 697.61 274.67 701.9 398.39 630.07 336.37 623.58 208.15 697.61"/><polygon class="cls-28" points="721.02 699.27 787.11 701.9 912.33 629.6 849.24 625.25 721.02 699.27"/><path class="cls-29" d="M573.55,464.11a1.49,1.49,0,0,1-.72-.18l-44.17-24.1a1.5,1.5,0,0,1,1.44-2.63l44.17,24.1a1.5,1.5,0,0,1-.72,2.82Z"/><path class="cls-30" d="M266.74,582.4c6.06-3.5,11-.69,11,6.28s-4.88,15.46-10.95,19-11,.69-11-6.28S260.68,585.9,266.74,582.4Z"/><path class="cls-19" d="M664.64,580.8c-6.16-3.56-11.17-.7-11.19,6.38s5,15.7,11.12,19.25,11.17.7,11.19-6.38S670.8,584.36,664.64,580.8Z"/><path class="cls-31" d="M464.59,714.64a5,5,0,0,1-2.51-9.33L664.47,588a5,5,0,0,1,5,8.65L467.1,714A5,5,0,0,1,464.59,714.64Z"/><path class="cls-32" d="M464.58,714.64a5,5,0,0,1-2.49-.67L264.28,599.85a5,5,0,1,1,5-8.66L467.09,705.31a5,5,0,0,1-2.5,9.33Z"/><ellipse class="cls-6" cx="464.59" cy="329.14" rx="13.88" ry="8.75"/><path class="cls-33" d="M464.59,334.14a5,5,0,0,1-5-5V278.33a5,5,0,0,1,10,0v50.81A5,5,0,0,1,464.59,334.14Z"/><polygon class="cls-34" points="336.37 74.03 464.59 0 592.81 74.03 464.59 148.05 336.37 74.03"/><polygon class="cls-35" points="336.37 74.03 336.37 222.08 464.59 296.11 464.59 148.05 336.37 74.03"/><polygon class="cls-36" points="464.59 148.05 592.81 74.03 592.81 222.08 464.59 296.11 464.59 148.05"/><polygon class="cls-37" points="336.37 74.03 368.57 92.28 400.71 110.64 464.89 147.53 464.29 147.53 528.47 110.64 560.61 92.28 592.81 74.03 560.9 92.79 528.93 111.44 464.89 148.57 464.59 148.75 464.29 148.57 400.25 111.44 368.28 92.79 336.37 74.03"/><rect class="cls-38" x="463.99" y="148.05" width="1.2" height="148.05"/><polygon class="cls-4" points="418.07 667.78 464.59 640.92 511.1 667.78 464.59 694.64 418.07 667.78"/><polygon class="cls-6" points="418.07 667.78 418.07 721.49 464.59 748.35 464.59 694.64 418.07 667.78"/><polygon class="cls-7" points="464.59 694.64 511.1 667.78 511.1 721.49 464.59 748.35 464.59 694.64"/><polygon class="cls-39" points="418.07 667.78 429.75 674.4 441.4 681.08 464.7 694.45 464.48 694.45 487.77 681.08 499.42 674.4 511.1 667.78 499.53 674.59 487.92 681.33 464.7 694.83 464.59 694.89 464.48 694.83 441.26 681.33 429.65 674.59 418.07 667.78"/><rect class="cls-40" x="464.37" y="694.64" width="0.44" height="53.71"/></g></g></svg>