<?xml version="1.0" encoding="utf-8"?>
<!-- Generator: Adobe Illustrator 21.1.0, SVG Export Plug-In . SVG Version: 6.00 Build 0)  -->
<svg version="1.1" id="Layer_1" xmlns="http://www.w3.org/2000/svg" xmlns:xlink="http://www.w3.org/1999/xlink" x="0px" y="0px"
	 viewBox="0 0 880 554.6" style="enable-background:new 0 0 880 554.6;" xml:space="preserve">
<style type="text/css">
	.st0{opacity:0.1;}
	.st1{fill:url(#SVGID_1_);}
	.st2{fill:url(#SVGID_2_);}
	.st3{fill:url(#SVGID_3_);}
	.st4{fill:url(#SVGID_4_);}
	.st5{fill:url(#SVGID_5_);}
	.st6{fill:#002781;}
	.st7{fill:#001C5C;}
	.st8{fill:#114DAC;}
	.st9{enable-background:new    ;}
	.st10{clip-path:url(#SVGID_7_);enable-background:new    ;}
	.st11{fill:#001D60;}
	.st12{fill:#1253BA;}
	.st13{fill:#002A8C;}
	.st14{fill:#1354BD;}
	.st15{clip-path:url(#SVGID_9_);enable-background:new    ;}
	.st16{fill:#001E63;}
	.st17{fill:#002372;}
	.st18{fill:#57AED9;}
	.st19{opacity:0.9;fill:#FFFFFF;}
	.st20{opacity:0.5;}
	.st21{opacity:0.2;}
	.st22{fill:url(#SVGID_10_);}
	.st23{fill:url(#SVGID_11_);}
	.st24{fill:url(#SVGID_12_);}
	.st25{fill:url(#SVGID_13_);}
	.st26{fill:url(#SVGID_14_);}
	.st27{fill:url(#SVGID_15_);}
	.st28{fill:url(#SVGID_16_);}
	.st29{fill:url(#SVGID_17_);}
	.st30{clip-path:url(#SVGID_19_);enable-background:new    ;}
	.st31{fill:#002476;}
	.st32{fill:#478DB0;}
	.st33{clip-path:url(#SVGID_21_);enable-background:new    ;}
	.st34{fill:#002579;}
	.st35{clip-path:url(#SVGID_23_);enable-background:new    ;}
	.st36{clip-path:url(#SVGID_25_);enable-background:new    ;}
	.st37{fill:#51A2C9;}
	.st38{fill:#4283A3;}
	.st39{fill:#509FC7;}
	.st40{fill:#9DCFF2;}
	.st41{opacity:0.9;}
	.st42{fill:#FFFFFF;}
	.st43{fill:url(#SVGID_26_);}
	.st44{fill:url(#SVGID_27_);}
	.st45{fill:url(#SVGID_28_);}
	.st46{fill:url(#SVGID_29_);}
	.st47{fill:url(#SVGID_30_);}
	.st48{fill:url(#SVGID_31_);}
	.st49{fill:url(#SVGID_32_);}
	.st50{fill:url(#SVGID_33_);}
	.st51{fill:#30334A;}
	.st52{fill:#2B2E42;}
	.st53{fill:#393C52;}
	.st54{fill:#282B3B;}
	.st55{fill:#303245;}
	.st56{fill:#42445E;}
	.st57{fill:#464A64;}
	.st58{fill:#35374D;}
	.st59{fill:#5540FF;}
	.st60{fill:#6E5CFF;}
	.st61{fill:#5E4AFF;}
	.st62{fill:#4E38FF;}
	.st63{fill:#9E743C;}
	.st64{fill:#8677F5;}
	.st65{opacity:0.8;fill:#FFFFFF;}
	.st66{fill:url(#SVGID_34_);}
	.st67{fill:url(#SVGID_35_);}
	.st68{fill:url(#SVGID_36_);}
	.st69{fill:url(#SVGID_37_);}
	.st70{fill:url(#SVGID_38_);}
	.st71{fill:url(#SVGID_39_);}
	.st72{fill:url(#SVGID_40_);}
	.st73{fill:url(#SVGID_41_);}
	.st74{fill:url(#SVGID_42_);}
	.st75{fill:url(#SVGID_43_);}
	.st76{fill:url(#SVGID_44_);}
	.st77{fill:url(#SVGID_45_);}
	.st78{fill:url(#SVGID_46_);}
	.st79{fill:url(#SVGID_47_);}
	.st80{fill:url(#SVGID_48_);}
	.st81{fill:url(#SVGID_49_);}
	.st82{fill:#A04ECF;}
	.st83{fill:#BF5EF7;}
	.st84{fill:#D8ADFF;}
	.st85{fill:#A852D9;}
	.st86{fill:#CA9EF2;}
	.st87{fill:url(#SVGID_50_);}
	.st88{fill:url(#SVGID_51_);}
	.st89{fill:url(#SVGID_52_);}
	.st90{fill:url(#SVGID_53_);}
	.st91{fill:url(#SVGID_54_);}
	.st92{fill:url(#SVGID_55_);}
	.st93{fill:url(#SVGID_56_);}
	.st94{fill:url(#SVGID_57_);}
</style>
<title>Utility_svg_2</title>
<g>
	<g class="st0">
		<g>
			<linearGradient id="SVGID_1_" gradientUnits="userSpaceOnUse" x1="280.2854" y1="199.5215" x2="347.2209" y2="83.5859">
				<stop  offset="0" style="stop-color:#373B52"/>
				<stop  offset="1" style="stop-color:#5D6285;stop-opacity:0"/>
			</linearGradient>
			<path class="st1" d="M361.4,179.6l6.3,8.3l-31.6,8l-6.3-8.3c-9.3,1.1-19.1,1.2-28.7,0.3l-5.7,8.5l-32.1-7.3l5.7-8.5
				c-4.4-1.7-8.5-3.7-12.2-5.8c-3.1-1.8-5.9-3.7-8.5-5.8l-14.4,3.6l-13.9-18.3l14.4-3.6c-1.9-5.4-2.2-11-0.6-16.6l-14.6-3.3
				l12.5-18.6l14.6,3.3c5.4-4.7,12.2-8.8,19.9-12l-6.3-8.3l31.6-8l6.3,8.3c9.3-1.1,19.1-1.2,28.8-0.3l5.7-8.5l32.2,7.3l-5.7,8.5
				c4.5,1.7,8.6,3.7,12.3,5.8c3.1,1.8,5.9,3.7,8.5,5.7l14.4-3.6l13.9,18.3l-14.4,3.6c-0.1-0.2-0.1-0.4-0.2-0.6
				c2.1,5.6,2.5,11.5,0.8,17.3l14.6,3.3L395.9,171l-14.6-3.3C375.9,172.4,369.1,176.4,361.4,179.6z M295.4,168.8
				c26,5.9,55.3-1.5,65.4-16.5c7.5-11.2,2.4-23.4-11.5-31.4c-4.8-2.8-10.6-5-17.3-6.5c-26-5.9-55.3,1.5-65.4,16.5
				c-7.5,11.2-2.4,23.4,11.5,31.4C282.9,165,288.8,167.3,295.4,168.8"/>
		</g>
		<g>
			<linearGradient id="SVGID_2_" gradientUnits="userSpaceOnUse" x1="673.482" y1="298.9612" x2="781.363" y2="112.1058">
				<stop  offset="0" style="stop-color:#373B52"/>
				<stop  offset="1" style="stop-color:#5D6285;stop-opacity:0"/>
			</linearGradient>
			<path class="st2" d="M820.9,256.5l14.1,11.9l-45,17.8L776,274.3c-13.9,3.3-28.9,5.2-44.4,5.4l-4.5,14.1l-53.6-5.8l4.5-14.1
				c0.9,0.2,1.8,0.4,2.7,0.6c-15.4-3.5-29.1-8.7-40.8-15l-20.5,8.1l-30.9-26.1l20.5-8.1c-5.7-8.1-9-16.8-9.5-25.8l-24.4-2.7
				l9.9-31.1l24.4,2.7c-0.4,0.5-0.7,1-1,1.5c6-8.9,14.9-16.9,25.8-23.6l-14.1-11.9l44.9-17.8l14.1,11.9c14.8-3.5,30.9-5.4,47.5-5.4
				c-1.1,0-2.1,0-3.1,0l4.5-14.1l53.7,5.8l-4.5,14.1c14.4,3.5,27.2,8.4,38.2,14.4l20.4-8.1l31,26.1l-20.5,8.1
				c6,8.6,9.4,17.8,9.5,27.3c0-0.5,0-1.1,0-1.6L880,206l-9.9,31.1l-24.4-2.7C839.7,242.7,831.2,250.2,820.9,256.5z M712.9,251
				c43.4,4.7,85-11.8,93-36.9c5-15.6-4.2-30.8-22.3-41.3c-11-6.4-25.3-10.9-41.7-12.7c-43.4-4.7-85,11.8-93,36.9
				c-5,15.6,4.2,30.9,22.3,41.3C682.2,244.6,696.5,249.2,712.9,251"/>
		</g>
		<g>
			<linearGradient id="SVGID_3_" gradientUnits="userSpaceOnUse" x1="353.7125" y1="426.3311" x2="497.8219" y2="176.7263">
				<stop  offset="0" style="stop-color:#373B52"/>
				<stop  offset="1" style="stop-color:#5D6285;stop-opacity:0"/>
			</linearGradient>
			<path class="st3" d="M543.8,400.3l-23.9-13.8c-17.7,6.6-37,11.1-57,13.6l0,19.5l-74.1-0.1l0-19.5c-20.3-2.6-40-7.3-58-14.1
				L308,399.9l-52.4-30.4l23.8-13.8c-11.4-10.3-19.3-21.5-23.7-33.1c-0.3-0.9-0.6-1.8-0.9-2.6c0.2,0.9,0.6,1.8,0.9,2.6l-33.7,0
				l0-42.9l33.7,0c4.3-11.5,12.2-22.7,23.6-33L255.5,233l52.3-30.3l23.8,13.8c17.7-6.6,37.1-11.1,57-13.6l0-19.5l74,0.1l0,19.5
				c20.5,2.6,40.3,7.4,58.4,14.3c-0.4-0.2-0.9-0.4-1.4-0.5l23.8-13.7l52.4,30.4l-23.8,13.8c-0.4-0.3-0.7-0.6-1.1-0.9
				c12.6,11.1,21.1,23.3,25.4,35.9c-0.2-0.6-0.4-1.3-0.6-1.9l33.7,0.1l0.1,42.9l-33.7,0c-4.4,11.8-12.5,23.2-24.3,33.7
				c0.3-0.2,0.5-0.5,0.8-0.7l23.8,13.8L543.8,400.3z M349.2,345.8c42.6,24.6,111.1,24.6,153.3,0.2c42.3-24.5,42.2-64.2-0.1-88.8
				c-42.6-24.6-111.1-24.6-153.2-0.2C306.8,281.5,306.9,321.2,349.2,345.8"/>
		</g>
		<g>
			<linearGradient id="SVGID_4_" gradientUnits="userSpaceOnUse" x1="81.8821" y1="438.8855" x2="171.3486" y2="283.9249">
				<stop  offset="0" style="stop-color:#373B52"/>
				<stop  offset="1" style="stop-color:#5D6285;stop-opacity:0"/>
			</linearGradient>
			<path class="st4" d="M204.4,403.7c-8.8,5.5-19.1,9.8-30.3,13l5,11.6l-44,6.3l-5.1-11.6c0.5,0,1,0,1.5,0
				c-13,0.3-26.1-0.7-38.9-3.2l-10.6,10.3l-39-13.5l10.6-10.3c-0.8-0.4-1.6-0.9-2.4-1.4c-8.3-4.8-15.1-10.3-20.1-16.2l-20,2.9
				L0.1,366.1l20-2.9c-0.4-7.2,1.3-14.6,5.4-21.6l-17.7-6.2l23.2-22.5l17.7,6.2c8.8-5.4,19.1-9.8,30.3-13L74,294.5l44-6.3l5.1,11.6
				c13.9-0.2,28.1,1.1,41.6,4.1c-1.4-0.3-2.8-0.6-4.2-0.9l10.5-10.2l39,13.5l-10.6,10.2c0.8,0.4,1.6,0.9,2.4,1.3
				c8.5,4.9,15.3,10.5,20.4,16.5l19.8-3.2l11.1,25.5l-20,2.9c0-0.3,0-0.6-0.1-0.8c0.6,7.5-1.1,15.1-5.4,22.5l17.7,6.2l-23.2,22.5
				L204.4,403.7z M92.6,394.3c31.5,10.9,72.2,5.1,91-13.2c15.9-15.4,10.9-34.8-10.2-47c-3.8-2.2-8-4.1-12.8-5.8
				c-31.5-10.9-72.2-5-91,13.2c-15.9,15.4-10.9,34.8,10.2,47C83.6,390.7,87.9,392.7,92.6,394.3 M121.3,299.8c0.5,0,1,0,1.5,0
				C122.3,299.7,121.8,299.7,121.3,299.8"/>
		</g>
		<g>
			<linearGradient id="SVGID_5_" gradientUnits="userSpaceOnUse" x1="486.4377" y1="558.8077" x2="575.9043" y2="403.8472">
				<stop  offset="0" style="stop-color:#373B52"/>
				<stop  offset="1" style="stop-color:#5D6285;stop-opacity:0"/>
			</linearGradient>
			<path class="st5" d="M609,523.6c-8.8,5.5-19.1,9.8-30.3,13l5,11.6l-44,6.3l-5.1-11.6c0.5,0,1,0,1.5,0c-13,0.3-26.1-0.7-38.9-3.2
				L486.7,550l-39-13.5l10.6-10.3c-0.8-0.4-1.6-0.9-2.4-1.4c-8.3-4.8-15.1-10.3-20.1-16.2l-20,2.9L404.7,486l20-2.9
				c-0.4-7.2,1.3-14.6,5.4-21.6l-17.7-6.2l23.2-22.5l17.7,6.2c8.8-5.4,19.1-9.8,30.3-13l-5.1-11.6l44-6.3l5.1,11.6
				c13.9-0.2,28.1,1.1,41.6,4.1c-1.4-0.3-2.8-0.6-4.2-0.9l10.5-10.2l39,13.5L604,436.4c0.8,0.4,1.6,0.9,2.4,1.3
				c8.5,4.9,15.3,10.5,20.4,16.5l19.8-3.2l11.1,25.5l-20,2.9c0-0.3,0-0.6-0.1-0.8c0.6,7.5-1.1,15.1-5.4,22.5l17.7,6.2l-23.2,22.5
				L609,523.6z M497.2,514.3c31.5,10.9,72.2,5.1,91-13.2c15.9-15.4,10.9-34.8-10.2-47c-3.8-2.2-8-4.1-12.8-5.8
				c-31.5-10.9-72.2-5-91,13.2c-15.9,15.4-10.9,34.8,10.2,47C488.1,510.7,492.4,512.6,497.2,514.3 M525.9,419.7c0.5,0,1,0,1.5,0
				C526.8,419.7,526.3,419.7,525.9,419.7"/>
		</g>
	</g>
	<g>
		<g>
			<g>
				<g>
					<polygon class="st6" points="364.3,7.3 364.2,48.9 358.5,57.4 358.6,15.8 					"/>
				</g>
				<g>
					<polygon class="st7" points="266.1,16.7 266,58.3 259.7,50 259.8,8.4 					"/>
				</g>
				<g>
					<polygon class="st8" points="407.6,42.1 407.5,83.7 393.1,87.3 393.2,45.7 					"/>
				</g>
				<g class="st9">
					<defs>
						<path id="SVGID_6_" class="st9" d="M393.2,45.7l-0.1,41.6c-0.1-0.2-0.1-0.4-0.2-0.6L393,45C393.1,45.3,393.2,45.5,393.2,45.7z
							"/>
					</defs>
					<clipPath id="SVGID_7_">
						<use xlink:href="#SVGID_6_"  style="overflow:visible;"/>
					</clipPath>
					<g class="st10">
						<path class="st11" d="M393.2,45.7l-0.1,41.6c-0.1-0.2-0.1-0.4-0.2-0.6L393,45C393.1,45.3,393.2,45.5,393.2,45.7"/>
					</g>
				</g>
				<g>
					<polygon class="st8" points="233.7,47.3 233.6,88.9 218.9,85.6 219.1,44 					"/>
				</g>
				<path class="st8" d="M371.3,61.1l-19.1,16.6c-0.9-0.7-1.9-1.3-2.9-1.8c-4.8-2.8-10.6-5-17.3-6.5c-20.5-4.6-43-1-56.6,8l-15.8-15
					L257,37.5l58.4-19.4l51.1,18.5L371.3,61.1z"/>
				<path class="st6" d="M394.6,58.5c0,0.2-0.1,0.4-0.1,0.6c-0.2,1.1-0.4,2.2-0.7,3.2l-0.1,41.6c0.2-0.7,0.3-1.3,0.5-2
					c0.1-0.4,0.1-0.8,0.2-1.2c0-0.2,0.1-0.4,0.1-0.6c0.1-0.9,0.2-1.8,0.2-2.7c0-0.2,0-0.5,0-0.7l0.1-41.6
					C394.8,56.2,394.8,57.4,394.6,58.5z"/>
				<path class="st6" d="M232.7,54.6l-0.1,41.6c0,3.2,0.5,6.3,1.6,9.4l0.1-41.6C233.2,60.9,232.6,57.8,232.7,54.6z"/>
				<g>
					<polygon class="st8" points="395.9,84.3 395.8,125.9 381.2,122.5 381.3,80.9 					"/>
				</g>
				<g>
					<polygon class="st12" points="408.5,65.7 408.3,107.3 395.8,125.9 395.9,84.3 					"/>
				</g>
				<g>
					<polygon class="st12" points="233.8,86 233.6,127.6 219.8,109.2 219.9,67.6 					"/>
				</g>
				<g>
					<polygon class="st13" points="248.2,82.3 248,123.9 233.6,127.6 233.8,86 					"/>
				</g>
				<path class="st14" d="M381.2,122.5l0.1-41.6c-1.3,1.2-2.8,2.3-4.3,3.4c-0.5,0.4-1.1,0.7-1.6,1.1c-1,0.7-2,1.4-3.1,2
					c-1.1,0.7-2.3,1.3-3.5,1.9c-0.6,0.3-1.1,0.7-1.7,1c-1.8,0.9-3.7,1.8-5.7,2.6l-0.1,41.6c1.9-0.8,3.8-1.7,5.7-2.6
					c0.6-0.3,1.1-0.6,1.7-0.9c1.2-0.6,2.4-1.3,3.6-2c0,0,0.1-0.1,0.1-0.1c1-0.6,2-1.3,3-2c0.5-0.4,1.1-0.7,1.6-1.1
					C378.4,124.8,379.9,123.7,381.2,122.5z"/>
				<g class="st9">
					<defs>
						<path id="SVGID_8_" class="st9" d="M268.9,93.9l-0.1,41.6c-4.4-1.7-8.5-3.7-12.2-5.8c-3.1-1.8-5.9-3.7-8.5-5.8l0.1-41.6
							c2.5,2,5.4,4,8.5,5.8C260.4,90.2,264.5,92.2,268.9,93.9z"/>
					</defs>
					<clipPath id="SVGID_9_">
						<use xlink:href="#SVGID_8_"  style="overflow:visible;"/>
					</clipPath>
					<g class="st15">
						<path class="st16" d="M268.9,93.9l-0.1,41.6c-0.2-0.1-0.3-0.1-0.5-0.2l0.1-41.6C268.6,93.8,268.7,93.8,268.9,93.9"/>
						<path class="st14" d="M268.4,93.7l-0.1,41.6c-4.3-1.7-8.2-3.6-11.7-5.6c-3.1-1.8-5.9-3.7-8.5-5.8l0.1-41.6
							c2.5,2,5.4,4,8.5,5.8C260.2,90.1,264.2,92,268.4,93.7"/>
					</g>
				</g>
				<path class="st14" d="M325.9,101.2c-1.9,0.2-3.7,0.3-5.6,0.4c-1,0-2,0.1-3,0.1c-1.6,0-3.2,0-4.8,0c-1,0-2.1,0-3.1,0
					c-1.5,0-3-0.1-4.4-0.2c-1.3-0.1-2.7-0.1-4-0.3h0l0,0h0l-0.1,41.6c0.5,0.1,1.1,0.1,1.6,0.1c0.8,0.1,1.6,0.1,2.4,0.1
					c1.5,0.1,3,0.2,4.4,0.2c0.3,0,0.7,0,1,0.1c0.7,0,1.4,0,2.1,0c1.6,0,3.2,0,4.7,0c0.5,0,0.9,0,1.4,0c0.5,0,1-0.1,1.5-0.1
					c1.9-0.1,3.8-0.2,5.6-0.4c0.6,0,1.2-0.1,1.7-0.1c0.7-0.1,1.4-0.1,2.1-0.2l0.1-41.6C328.5,101.1,327.2,101.1,325.9,101.2z"/>
				<g>
					<polygon class="st8" points="336.1,109.2 336,150.8 329.7,142.5 329.8,100.9 					"/>
				</g>
				<g>
					<polygon class="st13" points="367.7,101.3 367.6,142.9 336,150.8 336.1,109.2 					"/>
				</g>
				<g>
					<polygon class="st6" points="301.1,101.2 300.9,142.8 295.2,151.3 295.3,109.7 					"/>
				</g>
				<g>
					<polygon class="st17" points="295.3,109.7 295.2,151.3 263.1,143.9 263.2,102.3 					"/>
				</g>
				<g>
					<path class="st18" d="M361.4,92.9l6.3,8.3l-31.6,8l-6.3-8.3c-9.3,1.1-19.1,1.2-28.7,0.3l-5.7,8.5l-32.1-7.3l5.7-8.5
						c-4.4-1.7-8.5-3.7-12.2-5.8c-3.1-1.8-5.9-3.7-8.5-5.8L233.8,86l-13.9-18.3l14.4-3.6c-1.9-5.4-2.2-11-0.6-16.6L219.1,44
						l12.5-18.6l14.6,3.3c5.4-4.7,12.2-8.8,19.9-12l-6.3-8.3l31.6-8l6.3,8.3c9.3-1.1,19.1-1.2,28.8-0.3l5.7-8.5l32.2,7.3l-5.7,8.5
						c4.5,1.7,8.6,3.7,12.3,5.8c3.1,1.8,5.9,3.7,8.5,5.7l14.4-3.6l13.9,18.3l-14.4,3.6c-0.1-0.2-0.1-0.4-0.2-0.6
						c2.1,5.6,2.5,11.5,0.8,17.3l14.6,3.3l-12.5,18.6l-14.6-3.3C375.9,85.7,369.1,89.7,361.4,92.9z M295.4,82.1
						c26,5.9,55.3-1.5,65.4-16.5c7.5-11.2,2.4-23.4-11.5-31.4c-4.8-2.8-10.6-5-17.3-6.5c-26-5.9-55.3,1.5-65.4,16.5
						c-7.5,11.2-2.4,23.4,11.5,31.4C282.9,78.3,288.8,80.5,295.4,82.1"/>
				</g>
			</g>
			<path class="st19" d="M295.4,82.1c26,5.9,55.3-1.5,65.4-16.5c7.5-11.2,2.4-23.4-11.5-31.4c-4.8-2.8-10.6-5-17.3-6.5
				c-26-5.9-55.3,1.5-65.4,16.5c-7.5,11.2-2.4,23.4,11.5,31.4C282.9,78.3,288.8,80.5,295.4,82.1"/>
			<g class="st20">
				<g class="st21">
					
						<linearGradient id="SVGID_10_" gradientUnits="userSpaceOnUse" x1="478.5395" y1="35.2221" x2="575.9186" y2="35.2221" gradientTransform="matrix(-1 0 0 1 870.7313 0)">
						<stop  offset="0" style="stop-color:#57AED9;stop-opacity:0"/>
						<stop  offset="7.096914e-02" style="stop-color:#428CC0;stop-opacity:0.1368"/>
						<stop  offset="0.1631" style="stop-color:#2A66A4;stop-opacity:0.3143"/>
						<stop  offset="0.2552" style="stop-color:#18498E;stop-opacity:0.4917"/>
						<stop  offset="0.3458" style="stop-color:#0B347E;stop-opacity:0.6665"/>
						<stop  offset="0.4345" style="stop-color:#032775;stop-opacity:0.8373"/>
						<stop  offset="0.5189" style="stop-color:#002372"/>
						<stop  offset="1" style="stop-color:#57AED9;stop-opacity:0"/>
					</linearGradient>
					<path class="st22" d="M392,63.4c0,0-0.1,0-0.1,0L294.9,7.5c-0.1-0.1-0.2-0.2-0.1-0.3c0.1-0.1,0.2-0.2,0.3-0.1L392.1,63
						c0.1,0.1,0.2,0.2,0.1,0.3C392.1,63.4,392,63.4,392,63.4z"/>
				</g>
				<g class="st20">
					
						<linearGradient id="SVGID_11_" gradientUnits="userSpaceOnUse" x1="489.0693" y1="41.6878" x2="586.4477" y2="41.6878" gradientTransform="matrix(-1 0 0 1 870.7313 0)">
						<stop  offset="0" style="stop-color:#57AED9;stop-opacity:0"/>
						<stop  offset="7.096914e-02" style="stop-color:#428CC0;stop-opacity:0.1368"/>
						<stop  offset="0.1631" style="stop-color:#2A66A4;stop-opacity:0.3143"/>
						<stop  offset="0.2552" style="stop-color:#18498E;stop-opacity:0.4917"/>
						<stop  offset="0.3458" style="stop-color:#0B347E;stop-opacity:0.6665"/>
						<stop  offset="0.4345" style="stop-color:#032775;stop-opacity:0.8373"/>
						<stop  offset="0.5189" style="stop-color:#002372"/>
						<stop  offset="1" style="stop-color:#57AED9;stop-opacity:0"/>
					</linearGradient>
					<path class="st23" d="M381.4,69.9c0,0-0.1,0-0.1,0l-96.9-55.9c-0.1-0.1-0.2-0.2-0.1-0.3c0.1-0.1,0.2-0.2,0.3-0.1l96.9,55.9
						c0.1,0.1,0.2,0.2,0.1,0.3C381.6,69.9,381.5,69.9,381.4,69.9z"/>
				</g>
				<g>
					
						<linearGradient id="SVGID_12_" gradientUnits="userSpaceOnUse" x1="499.599" y1="48.1546" x2="596.9775" y2="48.1546" gradientTransform="matrix(-1 0 0 1 870.7313 0)">
						<stop  offset="0" style="stop-color:#57AED9;stop-opacity:0"/>
						<stop  offset="7.096914e-02" style="stop-color:#428CC0;stop-opacity:0.1368"/>
						<stop  offset="0.1631" style="stop-color:#2A66A4;stop-opacity:0.3143"/>
						<stop  offset="0.2552" style="stop-color:#18498E;stop-opacity:0.4917"/>
						<stop  offset="0.3458" style="stop-color:#0B347E;stop-opacity:0.6665"/>
						<stop  offset="0.4345" style="stop-color:#032775;stop-opacity:0.8373"/>
						<stop  offset="0.5189" style="stop-color:#002372"/>
						<stop  offset="1" style="stop-color:#57AED9;stop-opacity:0"/>
					</linearGradient>
					<path class="st24" d="M370.9,76.4c0,0-0.1,0-0.1,0l-96.9-55.9c-0.1-0.1-0.2-0.2-0.1-0.3c0.1-0.1,0.2-0.2,0.3-0.1L371,75.9
						c0.1,0.1,0.2,0.2,0.1,0.3C371.1,76.3,371,76.4,370.9,76.4z"/>
				</g>
				<g>
					
						<linearGradient id="SVGID_13_" gradientUnits="userSpaceOnUse" x1="510.1288" y1="54.6207" x2="607.5072" y2="54.6207" gradientTransform="matrix(-1 0 0 1 870.7313 0)">
						<stop  offset="0" style="stop-color:#57AED9;stop-opacity:0"/>
						<stop  offset="7.096914e-02" style="stop-color:#428CC0;stop-opacity:0.1368"/>
						<stop  offset="0.1631" style="stop-color:#2A66A4;stop-opacity:0.3143"/>
						<stop  offset="0.2552" style="stop-color:#18498E;stop-opacity:0.4917"/>
						<stop  offset="0.3458" style="stop-color:#0B347E;stop-opacity:0.6665"/>
						<stop  offset="0.4345" style="stop-color:#032775;stop-opacity:0.8373"/>
						<stop  offset="0.5189" style="stop-color:#002372"/>
						<stop  offset="1" style="stop-color:#57AED9;stop-opacity:0"/>
					</linearGradient>
					<path class="st25" d="M360.4,82.8c0,0-0.1,0-0.1,0l-96.9-55.9c-0.1-0.1-0.2-0.2-0.1-0.3c0.1-0.1,0.2-0.2,0.3-0.1l96.9,55.9
						c0.1,0.1,0.2,0.2,0.1,0.3C360.5,82.8,360.4,82.8,360.4,82.8z"/>
				</g>
				<g>
					
						<linearGradient id="SVGID_14_" gradientUnits="userSpaceOnUse" x1="520.6585" y1="61.0873" x2="618.037" y2="61.0873" gradientTransform="matrix(-1 0 0 1 870.7313 0)">
						<stop  offset="0" style="stop-color:#57AED9;stop-opacity:0"/>
						<stop  offset="7.096914e-02" style="stop-color:#428CC0;stop-opacity:0.1368"/>
						<stop  offset="0.1631" style="stop-color:#2A66A4;stop-opacity:0.3143"/>
						<stop  offset="0.2552" style="stop-color:#18498E;stop-opacity:0.4917"/>
						<stop  offset="0.3458" style="stop-color:#0B347E;stop-opacity:0.6665"/>
						<stop  offset="0.4345" style="stop-color:#032775;stop-opacity:0.8373"/>
						<stop  offset="0.5189" style="stop-color:#002372"/>
						<stop  offset="1" style="stop-color:#57AED9;stop-opacity:0"/>
					</linearGradient>
					<path class="st26" d="M349.8,89.3c0,0-0.1,0-0.1,0l-96.9-55.9c-0.1-0.1-0.2-0.2-0.1-0.3c0.1-0.1,0.2-0.2,0.3-0.1L350,88.9
						c0.1,0.1,0.2,0.2,0.1,0.3C350,89.3,349.9,89.3,349.8,89.3z"/>
				</g>
				<g class="st20">
					
						<linearGradient id="SVGID_15_" gradientUnits="userSpaceOnUse" x1="531.1883" y1="67.553" x2="628.5667" y2="67.553" gradientTransform="matrix(-1 0 0 1 870.7313 0)">
						<stop  offset="0" style="stop-color:#57AED9;stop-opacity:0"/>
						<stop  offset="7.096914e-02" style="stop-color:#428CC0;stop-opacity:0.1368"/>
						<stop  offset="0.1631" style="stop-color:#2A66A4;stop-opacity:0.3143"/>
						<stop  offset="0.2552" style="stop-color:#18498E;stop-opacity:0.4917"/>
						<stop  offset="0.3458" style="stop-color:#0B347E;stop-opacity:0.6665"/>
						<stop  offset="0.4345" style="stop-color:#032775;stop-opacity:0.8373"/>
						<stop  offset="0.5189" style="stop-color:#002372"/>
						<stop  offset="1" style="stop-color:#57AED9;stop-opacity:0"/>
					</linearGradient>
					<path class="st27" d="M339.3,95.8c0,0-0.1,0-0.1,0l-96.9-55.9c-0.1-0.1-0.2-0.2-0.1-0.3c0.1-0.1,0.2-0.2,0.3-0.1l96.9,55.9
						c0.1,0.1,0.2,0.2,0.1,0.3C339.5,95.7,339.4,95.8,339.3,95.8z"/>
				</g>
				<g class="st21">
					
						<linearGradient id="SVGID_16_" gradientUnits="userSpaceOnUse" x1="541.7181" y1="74.0198" x2="639.0965" y2="74.0198" gradientTransform="matrix(-1 0 0 1 870.7313 0)">
						<stop  offset="0" style="stop-color:#57AED9;stop-opacity:0"/>
						<stop  offset="7.096914e-02" style="stop-color:#428CC0;stop-opacity:0.1368"/>
						<stop  offset="0.1631" style="stop-color:#2A66A4;stop-opacity:0.3143"/>
						<stop  offset="0.2552" style="stop-color:#18498E;stop-opacity:0.4917"/>
						<stop  offset="0.3458" style="stop-color:#0B347E;stop-opacity:0.6665"/>
						<stop  offset="0.4345" style="stop-color:#032775;stop-opacity:0.8373"/>
						<stop  offset="0.5189" style="stop-color:#002372"/>
						<stop  offset="1" style="stop-color:#57AED9;stop-opacity:0"/>
					</linearGradient>
					<path class="st28" d="M328.8,102.2c0,0-0.1,0-0.1,0l-96.9-55.9c-0.1-0.1-0.2-0.2-0.1-0.3c0.1-0.1,0.2-0.2,0.3-0.1l96.9,55.9
						c0.1,0.1,0.2,0.2,0.1,0.3C328.9,102.2,328.9,102.2,328.8,102.2z"/>
				</g>
			</g>
			<linearGradient id="SVGID_17_" gradientUnits="userSpaceOnUse" x1="313.7579" y1="84.0973" x2="313.7579" y2="5.1375">
				<stop  offset="0" style="stop-color:#FFFFFF"/>
				<stop  offset="1" style="stop-color:#FFFFFF;stop-opacity:0"/>
			</linearGradient>
			<path class="st29" d="M364.4,5.1H263.1v49.6h0c0,7.5,5,15,14.8,20.7c19.9,11.5,51.9,11.5,71.6,0.1c9.9-5.7,14.8-13.3,14.8-20.8h0
				V5.1z"/>
		</g>
		<g>
			<g>
				<g class="st9">
					<defs>
						<path id="SVGID_18_" class="st9" d="M726.4,44.5l-0.1,41.6c-1.1,0-2.1,0-3.1,0l0.1-41.6C724.3,44.5,725.3,44.5,726.4,44.5z"/>
					</defs>
					<clipPath id="SVGID_19_">
						<use xlink:href="#SVGID_18_"  style="overflow:visible;"/>
					</clipPath>
					<g class="st30">
						<path class="st31" d="M726.4,44.5l-0.1,41.6c-1.1,0-2.1,0-3.1,0l0.1-41.6C724.3,44.5,725.3,44.5,726.4,44.5"/>
					</g>
				</g>
				<g>
					<polygon class="st32" points="781.5,36.3 781.4,77.9 776.9,92 777,50.4 					"/>
				</g>
				<g>
					<polygon class="st32" points="633.9,67.8 633.8,109.4 619.7,97.5 619.9,55.9 					"/>
				</g>
				<g>
					<polygon class="st18" points="866.6,82.8 866.4,124.4 846,132.5 846.1,90.9 					"/>
				</g>
				<g class="st9">
					<defs>
						<path id="SVGID_20_" class="st9" d="M609.2,89.9l-0.1,41.6c-0.4,0.5-0.7,1-1,1.5l0.1-41.6C608.4,90.9,608.8,90.4,609.2,89.9z"
							/>
					</defs>
					<clipPath id="SVGID_21_">
						<use xlink:href="#SVGID_20_"  style="overflow:visible;"/>
					</clipPath>
					<g class="st33">
						<path class="st34" d="M609.2,89.9l-0.1,41.6c-0.4,0.5-0.7,1-1,1.5l0.1-41.6C608.4,90.9,608.8,90.4,609.2,89.9"/>
					</g>
				</g>
				<g class="st9">
					<defs>
						<path id="SVGID_22_" class="st9" d="M855.6,117.1l-0.1,41.6c0-0.2,0-0.3,0-0.5l0.1-41.6C855.6,116.8,855.6,117,855.6,117.1z"
							/>
					</defs>
					<clipPath id="SVGID_23_">
						<use xlink:href="#SVGID_22_"  style="overflow:visible;"/>
					</clipPath>
					<g class="st35">
						<path class="st11" d="M855.6,117.1l-0.1,41.6c0-0.2,0-0.3,0-0.5l0.1-41.6C855.6,116.8,855.6,117,855.6,117.1"/>
					</g>
				</g>
				<g class="st9">
					<defs>
						<path id="SVGID_24_" class="st9" d="M855.5,159.4l0.1-41.6c0,0.2,0,0.3,0,0.5l-0.1,41.6C855.5,159.7,855.5,159.5,855.5,159.4z
							"/>
					</defs>
					<clipPath id="SVGID_25_">
						<use xlink:href="#SVGID_24_"  style="overflow:visible;"/>
					</clipPath>
					<g class="st36">
						<path class="st11" d="M855.6,118.2l-0.1,41.6c0-0.2,0-0.3,0-0.5l0.1-41.6C855.6,117.9,855.6,118.1,855.6,118.2"/>
					</g>
				</g>
				<g>
					<path class="st18" d="M820.8,118.8l-19.5,24.3c-4.1-5.7-10.1-10.9-17.6-15.3c-11-6.4-25.3-10.9-41.7-12.7
						c-37.4-4.1-73.4,7.7-87.8,27l-16.3-19.7l22.3-44l64.8-16.6l71.8,15.9L820.8,118.8z"/>
				</g>
				<g>
					<polygon class="st18" points="599.3,120.9 599.2,162.5 574.8,159.9 574.9,118.3 					"/>
				</g>
				<g>
					<polygon class="st32" points="870.1,150.4 870,192 845.6,189.3 845.7,147.7 					"/>
				</g>
				<g>
					<polygon class="st18" points="880,119.3 879.9,160.9 870,192 870.1,150.4 					"/>
				</g>
				<g>
					<path class="st37" d="M599.3,120.9L599.3,120.9L599.3,120.9l-0.1,41.6c0.5,9,3.8,17.7,9.5,25.8l0.1-41.6
						c-3.6-5-6.2-10.3-7.8-15.8C600,127.6,599.5,124.3,599.3,120.9z"/>
					<path class="st37" d="M843.8,150.2c-1,1.3-2.1,2.6-3.3,3.8c-0.2,0.2-0.4,0.4-0.6,0.6c-1,1.1-2.1,2.1-3.2,3.2
						c-0.4,0.4-0.8,0.7-1.2,1.1c-0.6,0.6-1.3,1.1-1.9,1.7c-0.5,0.4-0.9,0.8-1.4,1.2c-0.7,0.6-1.4,1.1-2.2,1.7
						c-0.5,0.4-0.9,0.7-1.4,1.1c-0.8,0.6-1.7,1.2-2.5,1.8c-0.4,0.3-0.8,0.6-1.2,0.9c-1.3,0.9-2.6,1.7-4,2.6l-0.1,41.6
						c1.4-0.8,2.7-1.7,4-2.6c0.4-0.3,0.8-0.6,1.3-0.9c0.8-0.6,1.7-1.2,2.5-1.8c0.5-0.4,0.9-0.7,1.4-1.1c0.7-0.6,1.5-1.1,2.2-1.7
						c0.5-0.4,0.9-0.8,1.4-1.2c0.7-0.6,1.3-1.1,1.9-1.7c0.2-0.2,0.4-0.4,0.6-0.5c0.2-0.2,0.4-0.4,0.5-0.5c1.1-1,2.2-2.1,3.2-3.2
						c0.2-0.2,0.4-0.4,0.6-0.6c1.2-1.3,2.2-2.5,3.3-3.8c0.1-0.1,0.2-0.2,0.3-0.4c0.5-0.7,1.1-1.4,1.6-2.1l0.1-41.6
						C845.1,148.6,844.4,149.4,843.8,150.2z"/>
				</g>
				<g>
					<polygon class="st32" points="619.2,180.9 619.1,222.5 588.2,196.4 588.3,154.8 					"/>
				</g>
				<g>
					<polygon class="st38" points="639.7,172.8 639.6,214.4 619.1,222.5 619.2,180.9 					"/>
				</g>
				<g>
					<path class="st37" d="M670.4,185.2c-2.4-0.7-4.7-1.4-6.9-2.1c-0.4-0.1-0.7-0.3-1.1-0.4c-1.9-0.7-3.8-1.4-5.7-2.1
						c-0.5-0.2-1.1-0.4-1.6-0.6c-2.5-1-4.8-2-7.2-3.1c-0.4-0.2-0.8-0.4-1.2-0.6c-2.4-1.1-4.7-2.3-7-3.5l-0.1,41.6
						c2.2,1.2,4.6,2.4,7,3.5c0.4,0.2,0.8,0.4,1.2,0.6c2.3,1.1,4.7,2.1,7.2,3.1c0.2,0.1,0.4,0.2,0.6,0.3c0.3,0.1,0.7,0.2,1,0.4
						c1.9,0.7,3.8,1.4,5.7,2.1c0.4,0.1,0.7,0.3,1.1,0.4c2.3,0.8,4.6,1.5,6.9,2.1c0.2,0.1,0.4,0.1,0.7,0.2c0.3,0.1,0.6,0.2,0.9,0.2
						c2.8,0.8,5.6,1.5,8.5,2.2l0.1-41.6c-2.9-0.7-5.7-1.4-8.5-2.2C671.5,185.5,670.9,185.3,670.4,185.2z"/>
					<path class="st37" d="M776,187.6c-3.3,0.8-6.6,1.5-10,2.1c-0.1,0-0.3,0.1-0.4,0.1c-2.3,0.4-4.7,0.8-7.1,1.1
						c-0.6,0.1-1.2,0.2-1.8,0.3c-2.1,0.3-4.2,0.5-6.4,0.8c-0.4,0-0.7,0.1-1.1,0.1c-2.1,0.2-4.2,0.4-6.4,0.5c-0.5,0-1,0.1-1.5,0.1
						c-1.7,0.1-3.3,0.2-5,0.2c-1.6,0.1-3.1,0.1-4.7,0.1l-0.1,41.6c1.3,0,2.6-0.1,3.9-0.1c0.3,0,0.6,0,0.8,0c1.7-0.1,3.3-0.1,5-0.2
						c0.5,0,1-0.1,1.5-0.1c2.1-0.1,4.3-0.3,6.4-0.5c0.1,0,0.2,0,0.3,0c0.3,0,0.5-0.1,0.8-0.1c2.1-0.2,4.3-0.5,6.4-0.8
						c0.6-0.1,1.2-0.2,1.8-0.3c2.4-0.3,4.8-0.7,7.1-1.1c0,0,0.1,0,0.1,0c0.1,0,0.2,0,0.3-0.1c3.4-0.6,6.7-1.3,10-2.1L776,187.6z"/>
				</g>
				<g>
					<polygon class="st32" points="790.1,199.5 789.9,241.1 775.8,229.2 776,187.6 					"/>
				</g>
				<g>
					<polygon class="st39" points="835,181.7 834.9,223.3 789.9,241.1 790.1,199.5 					"/>
				</g>
				<g>
					<polygon class="st32" points="731.5,193 731.4,234.6 726.9,248.8 727,207.2 					"/>
				</g>
				<g>
					<polygon class="st39" points="727,207.2 726.9,248.8 673.2,242.9 673.4,201.3 					"/>
				</g>
				<g>
					<path class="st40" d="M820.9,169.8l14.1,11.9l-45,17.8L776,187.6c-13.9,3.3-28.9,5.2-44.4,5.4l-4.5,14.1l-53.6-5.8l4.5-14.1
						c0.9,0.2,1.8,0.4,2.7,0.6c-15.4-3.5-29.1-8.7-40.8-15l-20.5,8.1l-30.9-26.1l20.5-8.1c-5.7-8.1-9-16.8-9.5-25.8l-24.4-2.7
						l9.9-31.1l24.4,2.7c-0.4,0.5-0.7,1-1,1.5c6-8.9,14.9-16.9,25.8-23.6l-14.1-11.9l44.9-17.8L678.9,50c14.8-3.5,30.9-5.4,47.5-5.4
						c-1.1,0-2.1,0-3.1,0l4.5-14.1l53.7,5.8L777,50.4c14.4,3.5,27.2,8.4,38.2,14.4l20.4-8.1l31,26.1l-20.5,8.1
						c6,8.6,9.4,17.8,9.5,27.3c0-0.5,0-1.1,0-1.6l24.4,2.7l-9.9,31.1l-24.4-2.7C839.7,156,831.2,163.5,820.9,169.8z M712.9,164.3
						c43.4,4.7,85-11.8,93-36.9c5-15.6-4.2-30.8-22.3-41.3c-11-6.4-25.3-10.9-41.7-12.7c-43.4-4.7-85,11.8-93,36.9
						c-5,15.6,4.2,30.9,22.3,41.3C682.2,157.9,696.5,162.5,712.9,164.3"/>
				</g>
			</g>
			<g class="st41">
				<path class="st42" d="M712.9,164.3c43.4,4.7,85-11.8,93-36.9c5-15.6-4.2-30.8-22.3-41.3c-11-6.4-25.3-10.9-41.7-12.7
					c-43.4-4.7-85,11.8-93,36.9c-5,15.6,4.2,30.9,22.3,41.3C682.2,157.9,696.5,162.5,712.9,164.3"/>
			</g>
			<g>
				<g class="st21">
					
						<linearGradient id="SVGID_26_" gradientUnits="userSpaceOnUse" x1="14.3925" y1="84.4981" x2="175.8862" y2="84.4981" gradientTransform="matrix(-1 0 0 1 870.7313 0)">
						<stop  offset="0" style="stop-color:#9DCFF2;stop-opacity:0"/>
						<stop  offset="6.314689e-02" style="stop-color:#8AC0E3;stop-opacity:0.1217"/>
						<stop  offset="0.1805" style="stop-color:#6DAACD;stop-opacity:0.3478"/>
						<stop  offset="0.2968" style="stop-color:#589ABD;stop-opacity:0.5719"/>
						<stop  offset="0.4106" style="stop-color:#4B90B3;stop-opacity:0.7912"/>
						<stop  offset="0.5189" style="stop-color:#478DB0"/>
						<stop  offset="1" style="stop-color:#9DCFF2;stop-opacity:0"/>
					</linearGradient>
					<path class="st43" d="M855.9,131.3c-0.1,0-0.1,0-0.2-0.1L695,38.5c-0.2-0.1-0.3-0.4-0.1-0.5c0.1-0.2,0.4-0.3,0.5-0.1
						l160.7,92.8c0.2,0.1,0.3,0.4,0.1,0.5C856.2,131.2,856.1,131.3,855.9,131.3z"/>
				</g>
				<g class="st20">
					
						<linearGradient id="SVGID_27_" gradientUnits="userSpaceOnUse" x1="31.8545" y1="95.2223" x2="193.3482" y2="95.2223" gradientTransform="matrix(-1 0 0 1 870.7313 0)">
						<stop  offset="0" style="stop-color:#9DCFF2;stop-opacity:0"/>
						<stop  offset="6.314689e-02" style="stop-color:#8AC0E3;stop-opacity:0.1217"/>
						<stop  offset="0.1805" style="stop-color:#6DAACD;stop-opacity:0.3478"/>
						<stop  offset="0.2968" style="stop-color:#589ABD;stop-opacity:0.5719"/>
						<stop  offset="0.4106" style="stop-color:#4B90B3;stop-opacity:0.7912"/>
						<stop  offset="0.5189" style="stop-color:#478DB0"/>
						<stop  offset="1" style="stop-color:#9DCFF2;stop-opacity:0"/>
					</linearGradient>
					<path class="st44" d="M838.5,142c-0.1,0-0.1,0-0.2-0.1L677.6,49.2c-0.2-0.1-0.3-0.4-0.1-0.5c0.1-0.2,0.4-0.3,0.5-0.1
						l160.7,92.8c0.2,0.1,0.3,0.4,0.1,0.5C838.7,141.9,838.6,142,838.5,142z"/>
				</g>
				<g>
					
						<linearGradient id="SVGID_28_" gradientUnits="userSpaceOnUse" x1="49.3179" y1="105.9456" x2="210.8103" y2="105.9456" gradientTransform="matrix(-1 0 0 1 870.7313 0)">
						<stop  offset="0" style="stop-color:#9DCFF2;stop-opacity:0"/>
						<stop  offset="6.314689e-02" style="stop-color:#8AC0E3;stop-opacity:0.1217"/>
						<stop  offset="0.1805" style="stop-color:#6DAACD;stop-opacity:0.3478"/>
						<stop  offset="0.2968" style="stop-color:#589ABD;stop-opacity:0.5719"/>
						<stop  offset="0.4106" style="stop-color:#4B90B3;stop-opacity:0.7912"/>
						<stop  offset="0.5189" style="stop-color:#478DB0"/>
						<stop  offset="1" style="stop-color:#9DCFF2;stop-opacity:0"/>
					</linearGradient>
					<path class="st45" d="M821,152.7c-0.1,0-0.1,0-0.2-0.1L660.1,59.9c-0.2-0.1-0.3-0.4-0.1-0.5c0.1-0.2,0.4-0.3,0.5-0.1L821.2,152
						c0.2,0.1,0.3,0.4,0.1,0.5C821.3,152.7,821.2,152.7,821,152.7z"/>
				</g>
				<g>
					
						<linearGradient id="SVGID_29_" gradientUnits="userSpaceOnUse" x1="66.7799" y1="116.6687" x2="228.2729" y2="116.6687" gradientTransform="matrix(-1 0 0 1 870.7313 0)">
						<stop  offset="0" style="stop-color:#9DCFF2;stop-opacity:0"/>
						<stop  offset="6.314689e-02" style="stop-color:#8AC0E3;stop-opacity:0.1217"/>
						<stop  offset="0.1805" style="stop-color:#6DAACD;stop-opacity:0.3478"/>
						<stop  offset="0.2968" style="stop-color:#589ABD;stop-opacity:0.5719"/>
						<stop  offset="0.4106" style="stop-color:#4B90B3;stop-opacity:0.7912"/>
						<stop  offset="0.5189" style="stop-color:#478DB0"/>
						<stop  offset="1" style="stop-color:#9DCFF2;stop-opacity:0"/>
					</linearGradient>
					<path class="st46" d="M803.6,163.5c-0.1,0-0.1,0-0.2-0.1L642.7,70.6c-0.2-0.1-0.3-0.4-0.1-0.5c0.1-0.2,0.4-0.3,0.5-0.1
						l160.7,92.8c0.2,0.1,0.3,0.4,0.1,0.5C803.8,163.4,803.7,163.5,803.6,163.5z"/>
				</g>
				<g>
					
						<linearGradient id="SVGID_30_" gradientUnits="userSpaceOnUse" x1="84.242" y1="127.3928" x2="245.7356" y2="127.3928" gradientTransform="matrix(-1 0 0 1 870.7313 0)">
						<stop  offset="0" style="stop-color:#9DCFF2;stop-opacity:0"/>
						<stop  offset="6.314689e-02" style="stop-color:#8AC0E3;stop-opacity:0.1217"/>
						<stop  offset="0.1805" style="stop-color:#6DAACD;stop-opacity:0.3478"/>
						<stop  offset="0.2968" style="stop-color:#589ABD;stop-opacity:0.5719"/>
						<stop  offset="0.4106" style="stop-color:#4B90B3;stop-opacity:0.7912"/>
						<stop  offset="0.5189" style="stop-color:#478DB0"/>
						<stop  offset="1" style="stop-color:#9DCFF2;stop-opacity:0"/>
					</linearGradient>
					<path class="st47" d="M786.1,174.2c-0.1,0-0.1,0-0.2-0.1L625.2,81.3c-0.2-0.1-0.3-0.4-0.1-0.5c0.1-0.2,0.4-0.3,0.5-0.1
						l160.7,92.8c0.2,0.1,0.3,0.4,0.1,0.5C786.4,174.1,786.2,174.2,786.1,174.2z"/>
				</g>
				<g class="st20">
					
						<linearGradient id="SVGID_31_" gradientUnits="userSpaceOnUse" x1="101.7053" y1="138.1161" x2="263.1983" y2="138.1161" gradientTransform="matrix(-1 0 0 1 870.7313 0)">
						<stop  offset="0" style="stop-color:#9DCFF2;stop-opacity:0"/>
						<stop  offset="6.314689e-02" style="stop-color:#8AC0E3;stop-opacity:0.1217"/>
						<stop  offset="0.1805" style="stop-color:#6DAACD;stop-opacity:0.3478"/>
						<stop  offset="0.2968" style="stop-color:#589ABD;stop-opacity:0.5719"/>
						<stop  offset="0.4106" style="stop-color:#4B90B3;stop-opacity:0.7912"/>
						<stop  offset="0.5189" style="stop-color:#478DB0"/>
						<stop  offset="1" style="stop-color:#9DCFF2;stop-opacity:0"/>
					</linearGradient>
					<path class="st48" d="M768.6,184.9c-0.1,0-0.1,0-0.2-0.1L607.7,92.1c-0.2-0.1-0.3-0.4-0.1-0.5c0.1-0.2,0.4-0.3,0.5-0.1
						l160.7,92.8c0.2,0.1,0.3,0.4,0.1,0.5C768.9,184.8,768.8,184.9,768.6,184.9z"/>
				</g>
				<g class="st21">
					
						<linearGradient id="SVGID_32_" gradientUnits="userSpaceOnUse" x1="119.1674" y1="148.8397" x2="280.6604" y2="148.8397" gradientTransform="matrix(-1 0 0 1 870.7313 0)">
						<stop  offset="0" style="stop-color:#9DCFF2;stop-opacity:0"/>
						<stop  offset="6.314689e-02" style="stop-color:#8AC0E3;stop-opacity:0.1217"/>
						<stop  offset="0.1805" style="stop-color:#6DAACD;stop-opacity:0.3478"/>
						<stop  offset="0.2968" style="stop-color:#589ABD;stop-opacity:0.5719"/>
						<stop  offset="0.4106" style="stop-color:#4B90B3;stop-opacity:0.7912"/>
						<stop  offset="0.5189" style="stop-color:#478DB0"/>
						<stop  offset="1" style="stop-color:#9DCFF2;stop-opacity:0"/>
					</linearGradient>
					<path class="st49" d="M751.2,195.6c-0.1,0-0.1,0-0.2-0.1l-160.7-92.8c-0.2-0.1-0.3-0.4-0.1-0.5c0.1-0.2,0.4-0.3,0.5-0.1
						l160.7,92.8c0.2,0.1,0.3,0.4,0.1,0.5C751.4,195.6,751.3,195.6,751.2,195.6z"/>
				</g>
			</g>
			<linearGradient id="SVGID_33_" gradientUnits="userSpaceOnUse" x1="727.4242" y1="165.06" x2="727.4242" y2="40.6496">
				<stop  offset="0" style="stop-color:#FFFFFF"/>
				<stop  offset="1" style="stop-color:#FFFFFF;stop-opacity:0"/>
			</linearGradient>
			<path class="st50" d="M807.2,40.6H647.7v78.2h0c0.1,11.8,7.9,23.6,23.4,32.6c31.3,18.1,81.7,18.1,112.8,0.2
				c15.6-9,23.4-20.9,23.3-32.8h0V40.6z"/>
		</g>
		<g>
			<g>
				<polygon class="st51" points="279.3,160.1 279.2,201.7 255.3,187.9 255.5,146.3 				"/>
			</g>
			<path class="st52" d="M564,226.9L532.9,246c-3.3-12.8-13.5-25.1-30.5-35c-42.6-24.6-111-24.6-153.2-0.2
				c-13.7,7.9-22.9,17.4-27.8,27.5l-21.5-26.8l24.2-48l102.6-31.2L536.6,166L564,226.9z"/>
			<g>
				<polygon class="st51" points="629.5,236.6 629.4,278.2 595.7,278.1 595.8,236.5 				"/>
			</g>
			<g>
				<polygon class="st51" points="255.8,236 255.6,277.6 221.9,277.6 222,236 				"/>
			</g>
			<path class="st53" d="M593.7,282.8c0.7-1.6,1.4-3.1,2-4.7l0.1-41.6c-0.6,1.6-1.3,3.2-2,4.7c-0.2,0.5-0.5,1-0.8,1.5
				c-0.5,1.1-1,2.1-1.6,3.2c-0.3,0.6-0.6,1.1-1,1.7c-0.6,1.1-1.3,2.2-2,3.3c-0.4,0.6-0.8,1.2-1.2,1.7c-0.7,1.1-1.5,2.1-2.3,3.2
				c-0.5,0.6-0.9,1.2-1.4,1.9c-0.3,0.3-0.6,0.7-0.8,1c-0.8,1-1.7,2-2.6,3c-0.2,0.3-0.4,0.5-0.7,0.8c-1.1,1.2-2.3,2.4-3.5,3.6
				c-0.3,0.3-0.6,0.6-0.9,0.8c-1.2,1.1-2.4,2.3-3.7,3.4l-0.1,41.6c0.7-0.6,1.3-1.2,2-1.8c0.6-0.5,1.1-1.1,1.6-1.6
				c0.3-0.3,0.6-0.6,0.9-0.8c1.2-1.2,2.4-2.4,3.5-3.6c0.2-0.2,0.4-0.5,0.7-0.8c0.9-1,1.8-2,2.6-3c0.3-0.3,0.6-0.7,0.8-1
				c0.2-0.3,0.4-0.5,0.6-0.8c0.3-0.4,0.5-0.7,0.8-1.1c0.8-1.1,1.6-2.1,2.3-3.2c0.4-0.6,0.8-1.2,1.2-1.7c0.7-1.1,1.4-2.2,2-3.3
				c0.2-0.4,0.5-0.7,0.7-1.1c0.1-0.2,0.2-0.4,0.3-0.5c0.6-1,1.1-2.1,1.6-3.2C593.2,283.9,593.5,283.4,593.7,282.8z"/>
			<g>
				<polygon class="st51" points="543.8,313.6 543.6,355.2 519.8,341.3 519.9,299.7 				"/>
			</g>
			<g>
				<polygon class="st54" points="596.1,283.3 596,324.9 543.6,355.2 543.8,313.6 				"/>
			</g>
			<path class="st53" d="M255.8,236l-0.1,41.6c2.2,5.8,5.2,11.5,9.2,17c3.9,5.5,8.8,10.9,14.5,16.1l0.1-41.6
				C268,258.8,260.1,247.6,255.8,236z"/>
			<path class="st54" d="M508.5,303.6c-1.5,0.5-2.9,0.9-4.4,1.3c-1,0.3-2,0.6-3.1,0.9c-1.5,0.4-3,0.8-4.6,1.2c-1,0.3-2,0.5-3,0.8
				c-1.6,0.4-3.3,0.8-5,1.1c-0.9,0.2-1.8,0.4-2.8,0.6c-2.1,0.4-4.1,0.8-6.2,1.2c-0.5,0.1-1.1,0.2-1.6,0.3c-1.7,0.3-3.4,0.6-5.1,0.8
				c-0.8,0.1-1.6,0.3-2.4,0.4c-2.5,0.4-5,0.7-7.5,1l-0.1,41.6c2.5-0.3,5-0.7,7.5-1c0.8-0.1,1.6-0.3,2.4-0.4c1.7-0.3,3.4-0.5,5-0.8
				c0.1,0,0.1,0,0.2,0c0.5-0.1,1-0.2,1.4-0.3c2.1-0.4,4.1-0.8,6.2-1.2c0.9-0.2,1.8-0.4,2.7-0.6c1.7-0.4,3.3-0.7,5-1.1
				c1-0.2,2-0.5,3-0.8c1.5-0.4,3.1-0.8,4.6-1.2c1-0.3,2-0.6,3.1-0.9c1.5-0.4,3-0.9,4.4-1.3c0.6-0.2,1.1-0.3,1.7-0.5
				c0.4-0.1,0.7-0.2,1-0.4c2.9-0.9,5.8-1.9,8.6-3c0,0,0,0,0,0l0.1-41.6c-2.8,1-5.7,2-8.6,3C510.4,303,509.5,303.3,508.5,303.6z"/>
			<path class="st52" d="M378.3,311.7c-1.1-0.2-2.1-0.3-3.2-0.5c-1.7-0.3-3.5-0.6-5.2-1c-0.9-0.2-1.9-0.4-2.8-0.5
				c-2.8-0.6-5.6-1.2-8.4-1.9c-0.5-0.1-1-0.2-1.4-0.4c-2.3-0.6-4.6-1.2-6.8-1.8c-0.8-0.2-1.7-0.5-2.5-0.7c-2.1-0.6-4.2-1.3-6.3-1.9
				c-0.8-0.3-1.7-0.5-2.5-0.8c-2.8-0.9-5.5-1.9-8.3-2.9l-0.1,41.6c2.7,1,5.5,2,8.3,2.9c0.8,0.3,1.6,0.5,2.5,0.8
				c2.1,0.7,4.2,1.3,6.3,1.9c0.5,0.2,1,0.3,1.6,0.5c0.3,0.1,0.7,0.2,1,0.3c2.3,0.6,4.5,1.2,6.8,1.8c0.5,0.1,0.9,0.2,1.4,0.4
				c2.8,0.7,5.6,1.3,8.4,1.9c0.2,0,0.4,0.1,0.6,0.1c0.7,0.2,1.5,0.3,2.2,0.4c1.7,0.3,3.5,0.7,5.2,1c1.1,0.2,2.1,0.4,3.2,0.5
				c1.6,0.3,3.3,0.5,5,0.8c0.5,0.1,1,0.2,1.5,0.2c1.4,0.2,2.7,0.4,4.1,0.5c0,0,0,0,0,0l0.1-41.6c-1.9-0.2-3.8-0.5-5.6-0.8
				C381.6,312.2,379.9,311.9,378.3,311.7z"/>
			<g>
				<polygon class="st55" points="308,313.2 307.9,354.8 255.5,324.4 255.6,282.8 				"/>
			</g>
			<g>
				<polygon class="st56" points="330.9,299.1 330.8,340.7 307.9,354.8 308,313.2 				"/>
			</g>
			<g>
				<polygon class="st51" points="595.9,146.8 595.8,188.4 572,202.2 572.1,160.6 				"/>
			</g>
			<g>
				<polygon class="st40" points="595.9,161.2 588.3,154.8 595.9,151.8 				"/>
				<polygon class="st32" points="588.3,154.8 588.3,182.1 593.3,190.5 595.8,188.4 595.9,161.2 				"/>
			</g>
			<g>
				<path class="st57" d="M543.8,313.6l-23.9-13.8c-17.7,6.6-37,11.1-57,13.6l0,19.5l-74.1-0.1l0-19.5c-20.3-2.6-40-7.3-58-14.1
					L308,313.2l-52.4-30.4l23.8-13.8c-11.4-10.3-19.3-21.5-23.7-33.1c-0.3-0.9-0.6-1.8-0.9-2.6c0.2,0.9,0.6,1.8,0.9,2.6l-33.7,0
					l0-42.9l33.7,0c4.3-11.5,12.2-22.7,23.6-33l-23.8-13.8l52.3-30.3l23.8,13.8c17.7-6.6,37.1-11.1,57-13.6l0-19.5l74,0.1l0,19.5
					c20.5,2.6,40.3,7.4,58.4,14.3c-0.4-0.2-0.9-0.4-1.4-0.5l23.8-13.7l52.4,30.4l-23.8,13.8c-0.4-0.3-0.7-0.6-1.1-0.9
					c12.6,11.1,21.1,23.3,25.4,35.9c-0.2-0.6-0.4-1.3-0.6-1.9l33.7,0.1l0.1,42.9l-33.7,0c-4.4,11.8-12.5,23.2-24.3,33.7
					c0.3-0.2,0.5-0.5,0.8-0.7l23.8,13.8L543.8,313.6z M349.2,259.1c42.6,24.6,111.1,24.6,153.3,0.2c42.3-24.5,42.2-64.2-0.1-88.8
					c-42.6-24.6-111.1-24.6-153.2-0.2C306.8,194.8,306.9,234.5,349.2,259.1"/>
			</g>
			<g>
				<polygon class="st54" points="463,332.9 462.8,374.5 388.8,374.3 388.9,332.7 				"/>
			</g>
			<g>
				<polygon class="st58" points="388.9,332.7 388.8,374.3 388.7,354.8 388.8,313.2 				"/>
			</g>
		</g>
		<path class="st19" d="M349.2,259.1c42.6,24.6,111.1,24.6,153.3,0.2c42.3-24.5,42.2-64.2-0.1-88.8c-42.6-24.6-111.1-24.6-153.2-0.2
			C306.8,194.8,306.9,234.5,349.2,259.1"/>
		<g>
			<g>
				<g>
					<polygon class="st59" points="79.1,219.3 79,260.9 73.9,249.4 74,207.8 					"/>
				</g>
				<g>
					<polygon class="st59" points="210,219.5 209.9,261.1 199.3,271.4 199.4,229.8 					"/>
				</g>
				<g>
					<polygon class="st59" points="25.6,254.9 25.5,296.5 7.8,290.3 7.9,248.7 					"/>
				</g>
				<g>
					<polygon class="st59" points="253.1,270 253,311.6 233,314.4 233.1,272.8 					"/>
				</g>
				<path class="st60" d="M233.1,276.6c0,0.6-0.1,1.2-0.1,1.9c0,0.3-0.1,0.6-0.1,1c-0.1,0.7-0.2,1.4-0.3,2.1c0,0.2-0.1,0.5-0.1,0.7
					c-0.2,0.9-0.4,1.8-0.7,2.7c-0.1,0.2-0.1,0.4-0.2,0.6c-0.2,0.7-0.5,1.4-0.7,2.2c-0.1,0.3-0.2,0.6-0.4,0.9
					c-0.2,0.6-0.5,1.3-0.8,1.9c-0.1,0.3-0.3,0.6-0.4,1c-0.3,0.6-0.6,1.3-1,1.9c-0.2,0.4-0.4,0.8-0.6,1.1l-0.1,41.6
					c0.1-0.2,0.2-0.3,0.3-0.5c0.1-0.2,0.2-0.4,0.3-0.6c0.3-0.6,0.7-1.3,1-1.9c0.2-0.3,0.3-0.6,0.4-1c0.3-0.6,0.5-1.3,0.8-1.9
					c0.1-0.2,0.2-0.4,0.3-0.6c0-0.1,0.1-0.2,0.1-0.3c0.3-0.7,0.5-1.4,0.7-2.2c0.1-0.2,0.1-0.4,0.2-0.6c0.3-0.9,0.5-1.8,0.7-2.7
					c0,0,0-0.1,0-0.1c0-0.2,0.1-0.4,0.1-0.6c0.1-0.7,0.2-1.4,0.3-2.1c0-0.3,0.1-0.6,0.1-1c0.1-0.6,0.1-1.2,0.1-1.9
					c0-0.2,0-0.4,0-0.6c0-0.3,0-0.6,0-0.9l0.1-41.6C233.2,275.6,233.1,276.1,233.1,276.6z"/>
				<g>
					<polygon class="st60" points="11.2,304.9 11.1,346.5 0,321 0.1,279.4 					"/>
				</g>
				<g>
					<polygon class="st61" points="31.3,302 31.1,343.6 11.1,346.5 11.2,304.9 					"/>
				</g>
				<g>
					<polygon class="st61" points="222.1,323.2 222,364.8 204.3,358.6 204.4,317 					"/>
				</g>
				<g>
					<polygon class="st60" points="245.4,300.7 245.2,342.3 222,364.8 222.1,323.2 					"/>
				</g>
				<path class="st62" d="M31.3,302l-0.1,41.6c5.1,5.9,11.8,11.4,20.1,16.2c0.8,0.5,1.6,0.9,2.4,1.4l0.1-41.6
					c-0.8-0.4-1.6-0.9-2.4-1.4C43.1,313.4,36.3,307.9,31.3,302z"/>
				<path class="st62" d="M196.5,321.3c-1.8,0.9-3.7,1.8-5.7,2.7c-0.8,0.3-1.6,0.7-2.4,1c-1.6,0.7-3.2,1.3-4.8,1.9
					c-0.9,0.3-1.8,0.6-2.8,1c-2.2,0.7-4.4,1.5-6.7,2.1l-0.1,41.6c1.6-0.4,3.1-0.9,4.7-1.4c0.7-0.2,1.4-0.5,2.1-0.7
					c0.9-0.3,1.8-0.6,2.8-1c1.6-0.6,3.2-1.2,4.8-1.9c0.8-0.3,1.6-0.7,2.4-1c1.9-0.8,3.8-1.7,5.7-2.7c0.4-0.2,0.8-0.4,1.1-0.5
					c2-1,4-2.1,5.9-3.3c0.3-0.2,0.6-0.3,0.8-0.5l0,0l0,0l0,0l0.1-41.6c-2.2,1.3-4.4,2.6-6.7,3.8C197.3,321,196.9,321.2,196.5,321.3z
					"/>
				<path class="st62" d="M121.5,336.3c-3.1-0.1-6.2-0.3-9.2-0.5c-0.1,0-0.2,0-0.3,0c-3.1-0.2-6.1-0.6-9.1-1c-0.2,0-0.5-0.1-0.7-0.1
					c-3.2-0.4-6.3-1-9.4-1.6l-0.1,41.6c3,0.6,5.9,1.1,8.9,1.5c0.2,0,0.3,0,0.5,0.1c0.2,0,0.5,0.1,0.7,0.1c3,0.4,6,0.7,9,1
					c0,0,0.1,0,0.1,0c0.1,0,0.2,0,0.3,0c3.1,0.2,6.2,0.4,9.2,0.5c0.1,0,0.3,0,0.4,0c0.1,0,0.2,0,0.2,0c3.1,0.1,6.3,0.1,9.4,0
					l0.1-41.6c-3.2,0.1-6.4,0.1-9.6,0C121.8,336.3,121.7,336.3,121.5,336.3z"/>
				<g>
					<polygon class="st60" points="82.2,343.4 82.1,385 43.1,371.5 43.2,329.9 					"/>
				</g>
				<g>
					<polygon class="st61" points="92.7,333.1 92.6,374.7 82.1,385 82.2,343.4 					"/>
				</g>
				<g>
					<polygon class="st60" points="179.1,341.6 179,383.2 135.1,389.6 135.2,348 					"/>
				</g>
				<g>
					<polygon class="st61" points="135.2,348 135.1,389.6 130,378 130.1,336.4 					"/>
				</g>
				<path class="st63" d="M202.4,277.1L184.6,297c-3-3.1-6.7-6-11.2-8.6c-3.8-2.2-8-4.1-12.8-5.8c-31.5-10.9-72.2-5-91,13.2
					c-0.8,0.7-1.5,1.5-2.1,2.2l-18.7-18.7l23.9-40l55.5-10.2l56.5,14.3L202.4,277.1z"/>
				<g>
					<path class="st64" d="M204.4,317c-8.8,5.5-19.1,9.8-30.3,13l5,11.6l-44,6.3l-5.1-11.6c0.5,0,1,0,1.5,0
						c-13,0.3-26.1-0.7-38.9-3.2l-10.6,10.3l-39-13.5l10.6-10.3c-0.8-0.4-1.6-0.9-2.4-1.4c-8.3-4.8-15.1-10.3-20.1-16.2l-20,2.9
						L0.1,279.4l20-2.9c-0.4-7.2,1.3-14.6,5.4-21.6l-17.7-6.2l23.2-22.5l17.7,6.2c8.8-5.4,19.1-9.8,30.3-13L74,207.8l44-6.3
						l5.1,11.6c13.9-0.2,28.1,1.1,41.6,4.1c-1.4-0.3-2.8-0.6-4.2-0.9L171,206l39,13.5l-10.6,10.2c0.8,0.4,1.6,0.9,2.4,1.3
						c8.5,4.9,15.3,10.5,20.4,16.5l19.8-3.2l11.1,25.5l-20,2.9c0-0.3,0-0.6-0.1-0.8c0.6,7.5-1.1,15.1-5.4,22.5l17.7,6.2l-23.2,22.5
						L204.4,317z M92.6,307.6c31.5,10.9,72.2,5.1,91-13.2c15.9-15.4,10.9-34.8-10.2-47c-3.8-2.2-8-4.1-12.8-5.8
						c-31.5-10.9-72.2-5-91,13.2c-15.9,15.4-10.9,34.8,10.2,47C83.6,304,87.9,306,92.6,307.6 M121.3,213c0.5,0,1,0,1.5,0
						C122.3,213,121.8,213,121.3,213"/>
				</g>
			</g>
			<path class="st65" d="M92.6,307.6c31.5,10.9,72.2,5.1,91-13.2c15.9-15.4,10.9-34.8-10.2-47c-3.8-2.2-8-4.1-12.8-5.8
				c-31.5-10.9-72.2-5-91,13.2c-15.9,15.4-10.9,34.8,10.2,47C83.6,304,87.9,306,92.6,307.6"/>
			<g>
				<g class="st21">
					
						<linearGradient id="SVGID_34_" gradientUnits="userSpaceOnUse" x1="639.27" y1="246.9838" x2="768.5405" y2="246.9838" gradientTransform="matrix(-1 0 0 1 870.7313 0)">
						<stop  offset="0" style="stop-color:#8677F5;stop-opacity:0"/>
						<stop  offset="0.1215" style="stop-color:#705EF9;stop-opacity:0.2341"/>
						<stop  offset="0.2577" style="stop-color:#5D49FC;stop-opacity:0.4967"/>
						<stop  offset="0.3915" style="stop-color:#523CFE;stop-opacity:0.7545"/>
						<stop  offset="0.5189" style="stop-color:#4E38FF"/>
						<stop  offset="1" style="stop-color:#8677F5;stop-opacity:0"/>
					</linearGradient>
					<path class="st66" d="M231.1,284.4c-0.1,0-0.1,0-0.2,0l-128.6-74.3c-0.2-0.1-0.2-0.3-0.1-0.4c0.1-0.2,0.3-0.2,0.4-0.1
						l128.6,74.3c0.2,0.1,0.2,0.3,0.1,0.4C231.4,284.4,231.3,284.4,231.1,284.4z"/>
				</g>
				<g class="st20">
					
						<linearGradient id="SVGID_35_" gradientUnits="userSpaceOnUse" x1="653.2482" y1="255.5685" x2="782.5187" y2="255.5685" gradientTransform="matrix(-1 0 0 1 870.7313 0)">
						<stop  offset="0" style="stop-color:#8677F5;stop-opacity:0"/>
						<stop  offset="0.1215" style="stop-color:#705EF9;stop-opacity:0.2341"/>
						<stop  offset="0.2577" style="stop-color:#5D49FC;stop-opacity:0.4967"/>
						<stop  offset="0.3915" style="stop-color:#523CFE;stop-opacity:0.7545"/>
						<stop  offset="0.5189" style="stop-color:#4E38FF"/>
						<stop  offset="1" style="stop-color:#8677F5;stop-opacity:0"/>
					</linearGradient>
					<path class="st67" d="M217.2,293c-0.1,0-0.1,0-0.2,0L88.4,218.7c-0.2-0.1-0.2-0.3-0.1-0.4c0.1-0.2,0.3-0.2,0.4-0.1l128.6,74.3
						c0.2,0.1,0.2,0.3,0.1,0.4C217.4,293,217.3,293,217.2,293z"/>
				</g>
				<g>
					
						<linearGradient id="SVGID_36_" gradientUnits="userSpaceOnUse" x1="667.2265" y1="264.152" x2="796.4971" y2="264.152" gradientTransform="matrix(-1 0 0 1 870.7313 0)">
						<stop  offset="0" style="stop-color:#8677F5;stop-opacity:0"/>
						<stop  offset="0.1215" style="stop-color:#705EF9;stop-opacity:0.2341"/>
						<stop  offset="0.2577" style="stop-color:#5D49FC;stop-opacity:0.4967"/>
						<stop  offset="0.3915" style="stop-color:#523CFE;stop-opacity:0.7545"/>
						<stop  offset="0.5189" style="stop-color:#4E38FF"/>
						<stop  offset="1" style="stop-color:#8677F5;stop-opacity:0"/>
					</linearGradient>
					<path class="st68" d="M203.2,301.6c-0.1,0-0.1,0-0.2,0L74.4,227.3c-0.2-0.1-0.2-0.3-0.1-0.4c0.1-0.2,0.3-0.2,0.4-0.1L203.3,301
						c0.2,0.1,0.2,0.3,0.1,0.4C203.4,301.5,203.3,301.6,203.2,301.6z"/>
				</g>
				<g>
					
						<linearGradient id="SVGID_37_" gradientUnits="userSpaceOnUse" x1="681.2041" y1="272.7368" x2="810.4753" y2="272.7368" gradientTransform="matrix(-1 0 0 1 870.7313 0)">
						<stop  offset="0" style="stop-color:#8677F5;stop-opacity:0"/>
						<stop  offset="0.1215" style="stop-color:#705EF9;stop-opacity:0.2341"/>
						<stop  offset="0.2577" style="stop-color:#5D49FC;stop-opacity:0.4967"/>
						<stop  offset="0.3915" style="stop-color:#523CFE;stop-opacity:0.7545"/>
						<stop  offset="0.5189" style="stop-color:#4E38FF"/>
						<stop  offset="1" style="stop-color:#8677F5;stop-opacity:0"/>
					</linearGradient>
					<path class="st69" d="M189.2,310.2c-0.1,0-0.1,0-0.2,0L60.4,235.9c-0.2-0.1-0.2-0.3-0.1-0.4c0.1-0.2,0.3-0.2,0.4-0.1
						l128.6,74.3c0.2,0.1,0.2,0.3,0.1,0.4C189.4,310.1,189.3,310.2,189.2,310.2z"/>
				</g>
				<g>
					
						<linearGradient id="SVGID_38_" gradientUnits="userSpaceOnUse" x1="695.1824" y1="281.3202" x2="824.4529" y2="281.3202" gradientTransform="matrix(-1 0 0 1 870.7313 0)">
						<stop  offset="0" style="stop-color:#8677F5;stop-opacity:0"/>
						<stop  offset="0.1215" style="stop-color:#705EF9;stop-opacity:0.2341"/>
						<stop  offset="0.2577" style="stop-color:#5D49FC;stop-opacity:0.4967"/>
						<stop  offset="0.3915" style="stop-color:#523CFE;stop-opacity:0.7545"/>
						<stop  offset="0.5189" style="stop-color:#4E38FF"/>
						<stop  offset="1" style="stop-color:#8677F5;stop-opacity:0"/>
					</linearGradient>
					<path class="st70" d="M175.2,318.8c-0.1,0-0.1,0-0.2,0L46.4,244.5c-0.2-0.1-0.2-0.3-0.1-0.4c0.1-0.2,0.3-0.2,0.4-0.1
						l128.6,74.3c0.2,0.1,0.2,0.3,0.1,0.4C175.4,318.7,175.3,318.8,175.2,318.8z"/>
				</g>
				<g class="st20">
					
						<linearGradient id="SVGID_39_" gradientUnits="userSpaceOnUse" x1="709.1606" y1="289.9049" x2="838.4312" y2="289.9049" gradientTransform="matrix(-1 0 0 1 870.7313 0)">
						<stop  offset="0" style="stop-color:#8677F5;stop-opacity:0"/>
						<stop  offset="0.1215" style="stop-color:#705EF9;stop-opacity:0.2341"/>
						<stop  offset="0.2577" style="stop-color:#5D49FC;stop-opacity:0.4967"/>
						<stop  offset="0.3915" style="stop-color:#523CFE;stop-opacity:0.7545"/>
						<stop  offset="0.5189" style="stop-color:#4E38FF"/>
						<stop  offset="1" style="stop-color:#8677F5;stop-opacity:0"/>
					</linearGradient>
					<path class="st71" d="M161.3,327.4c-0.1,0-0.1,0-0.2,0L32.5,253c-0.2-0.1-0.2-0.3-0.1-0.4c0.1-0.2,0.3-0.2,0.4-0.1l128.6,74.3
						c0.2,0.1,0.2,0.3,0.1,0.4C161.5,327.3,161.4,327.4,161.3,327.4z"/>
				</g>
				<g class="st21">
					
						<linearGradient id="SVGID_40_" gradientUnits="userSpaceOnUse" x1="723.1389" y1="298.488" x2="852.4095" y2="298.488" gradientTransform="matrix(-1 0 0 1 870.7313 0)">
						<stop  offset="0" style="stop-color:#8677F5;stop-opacity:0"/>
						<stop  offset="0.1215" style="stop-color:#705EF9;stop-opacity:0.2341"/>
						<stop  offset="0.2577" style="stop-color:#5D49FC;stop-opacity:0.4967"/>
						<stop  offset="0.3915" style="stop-color:#523CFE;stop-opacity:0.7545"/>
						<stop  offset="0.5189" style="stop-color:#4E38FF"/>
						<stop  offset="1" style="stop-color:#8677F5;stop-opacity:0"/>
					</linearGradient>
					<path class="st72" d="M147.3,335.9c-0.1,0-0.1,0-0.2,0L18.5,261.6c-0.2-0.1-0.2-0.3-0.1-0.4c0.1-0.2,0.3-0.2,0.4-0.1
						l128.6,74.3c0.2,0.1,0.2,0.3,0.1,0.4C147.5,335.9,147.4,335.9,147.3,335.9z"/>
				</g>
			</g>
			<linearGradient id="SVGID_41_" gradientUnits="userSpaceOnUse" x1="126.6153" y1="313.1278" x2="126.6153" y2="209.9524">
				<stop  offset="0" style="stop-color:#FFFFFF"/>
				<stop  offset="1" style="stop-color:#FFFFFF;stop-opacity:0"/>
			</linearGradient>
			<path class="st73" d="M192.8,210H60.5v64.9h0c0.1,9.8,6.5,19.5,19.4,27c26,15,67.8,15,93.5,0.1c13-7.5,19.4-17.3,19.3-27.2h0V210
				z"/>
		</g>
		<g>
			<g class="st21">
				<linearGradient id="SVGID_42_" gradientUnits="userSpaceOnUse" x1="212.4215" y1="163.3082" x2="471.2129" y2="163.3082">
					<stop  offset="0" style="stop-color:#464A64;stop-opacity:0"/>
					<stop  offset="0.1364" style="stop-color:#3C3F56;stop-opacity:0.2728"/>
					<stop  offset="0.3225" style="stop-color:#333549;stop-opacity:0.645"/>
					<stop  offset="0.5" style="stop-color:#303245"/>
					<stop  offset="0.6821" style="stop-color:#333549;stop-opacity:0.6359"/>
					<stop  offset="0.8559" style="stop-color:#3B3E54;stop-opacity:0.2881"/>
					<stop  offset="1" style="stop-color:#464A64;stop-opacity:0"/>
				</linearGradient>
				<path class="st74" d="M213.1,238.3c-0.2,0-0.4-0.1-0.6-0.3c-0.2-0.3-0.1-0.7,0.2-0.9L470.3,88.4c0.3-0.2,0.7-0.1,0.9,0.2
					c0.2,0.3,0.1,0.7-0.2,0.9L213.4,238.2C213.3,238.3,213.2,238.3,213.1,238.3z"/>
			</g>
			<g class="st20">
				<linearGradient id="SVGID_43_" gradientUnits="userSpaceOnUse" x1="240.4046" y1="180.4926" x2="499.196" y2="180.4926">
					<stop  offset="0" style="stop-color:#464A64;stop-opacity:0"/>
					<stop  offset="0.1364" style="stop-color:#3C3F56;stop-opacity:0.2728"/>
					<stop  offset="0.3225" style="stop-color:#333549;stop-opacity:0.645"/>
					<stop  offset="0.5" style="stop-color:#303245"/>
					<stop  offset="0.6821" style="stop-color:#333549;stop-opacity:0.6359"/>
					<stop  offset="0.8559" style="stop-color:#3B3E54;stop-opacity:0.2881"/>
					<stop  offset="1" style="stop-color:#464A64;stop-opacity:0"/>
				</linearGradient>
				<path class="st75" d="M241,255.5c-0.2,0-0.4-0.1-0.6-0.3c-0.2-0.3-0.1-0.7,0.2-0.9l257.5-148.7c0.3-0.2,0.7-0.1,0.9,0.2
					c0.2,0.3,0.1,0.7-0.2,0.9L241.4,255.4C241.3,255.4,241.2,255.5,241,255.5z"/>
			</g>
			<g>
				<linearGradient id="SVGID_44_" gradientUnits="userSpaceOnUse" x1="268.3878" y1="197.677" x2="527.1791" y2="197.677">
					<stop  offset="0" style="stop-color:#464A64;stop-opacity:0"/>
					<stop  offset="0.1364" style="stop-color:#3C3F56;stop-opacity:0.2728"/>
					<stop  offset="0.3225" style="stop-color:#333549;stop-opacity:0.645"/>
					<stop  offset="0.5" style="stop-color:#303245"/>
					<stop  offset="0.6821" style="stop-color:#333549;stop-opacity:0.6359"/>
					<stop  offset="0.8559" style="stop-color:#3B3E54;stop-opacity:0.2881"/>
					<stop  offset="1" style="stop-color:#464A64;stop-opacity:0"/>
				</linearGradient>
				<path class="st76" d="M269,272.7c-0.2,0-0.4-0.1-0.6-0.3c-0.2-0.3-0.1-0.7,0.2-0.9l257.5-148.7c0.3-0.2,0.7-0.1,0.9,0.2
					c0.2,0.3,0.1,0.7-0.2,0.9L269.3,272.6C269.2,272.6,269.1,272.7,269,272.7z"/>
			</g>
			<g>
				<linearGradient id="SVGID_45_" gradientUnits="userSpaceOnUse" x1="296.3716" y1="214.8615" x2="555.163" y2="214.8615">
					<stop  offset="0" style="stop-color:#464A64;stop-opacity:0"/>
					<stop  offset="0.1364" style="stop-color:#3C3F56;stop-opacity:0.2728"/>
					<stop  offset="0.3225" style="stop-color:#333549;stop-opacity:0.645"/>
					<stop  offset="0.5" style="stop-color:#303245"/>
					<stop  offset="0.6821" style="stop-color:#333549;stop-opacity:0.6359"/>
					<stop  offset="0.8559" style="stop-color:#3B3E54;stop-opacity:0.2881"/>
					<stop  offset="1" style="stop-color:#464A64;stop-opacity:0"/>
				</linearGradient>
				<path class="st77" d="M297,289.8c-0.2,0-0.4-0.1-0.6-0.3c-0.2-0.3-0.1-0.7,0.2-0.9L554.2,140c0.3-0.2,0.7-0.1,0.9,0.2
					c0.2,0.3,0.1,0.7-0.2,0.9L297.3,289.8C297.2,289.8,297.1,289.8,297,289.8z"/>
			</g>
			<g>
				<linearGradient id="SVGID_46_" gradientUnits="userSpaceOnUse" x1="324.3547" y1="232.0465" x2="583.1461" y2="232.0465">
					<stop  offset="0" style="stop-color:#464A64;stop-opacity:0"/>
					<stop  offset="0.1364" style="stop-color:#3C3F56;stop-opacity:0.2728"/>
					<stop  offset="0.3225" style="stop-color:#333549;stop-opacity:0.645"/>
					<stop  offset="0.5" style="stop-color:#303245"/>
					<stop  offset="0.6821" style="stop-color:#333549;stop-opacity:0.6359"/>
					<stop  offset="0.8559" style="stop-color:#3B3E54;stop-opacity:0.2881"/>
					<stop  offset="1" style="stop-color:#464A64;stop-opacity:0"/>
				</linearGradient>
				<path class="st78" d="M325,307c-0.2,0-0.4-0.1-0.6-0.3c-0.2-0.3-0.1-0.7,0.2-0.9l257.5-148.7c0.3-0.2,0.7-0.1,0.9,0.2
					c0.2,0.3,0.1,0.7-0.2,0.9L325.3,306.9C325.2,307,325.1,307,325,307z"/>
			</g>
			<g class="st20">
				<linearGradient id="SVGID_47_" gradientUnits="userSpaceOnUse" x1="352.3386" y1="249.2313" x2="611.1299" y2="249.2313">
					<stop  offset="0" style="stop-color:#464A64;stop-opacity:0"/>
					<stop  offset="0.1364" style="stop-color:#3C3F56;stop-opacity:0.2728"/>
					<stop  offset="0.3225" style="stop-color:#333549;stop-opacity:0.645"/>
					<stop  offset="0.5" style="stop-color:#303245"/>
					<stop  offset="0.6821" style="stop-color:#333549;stop-opacity:0.6359"/>
					<stop  offset="0.8559" style="stop-color:#3B3E54;stop-opacity:0.2881"/>
					<stop  offset="1" style="stop-color:#464A64;stop-opacity:0"/>
				</linearGradient>
				<path class="st79" d="M353,324.2c-0.2,0-0.4-0.1-0.6-0.3c-0.2-0.3-0.1-0.7,0.2-0.9l257.5-148.7c0.3-0.2,0.7-0.1,0.9,0.2
					c0.2,0.3,0.1,0.7-0.2,0.9L353.3,324.1C353.2,324.2,353.1,324.2,353,324.2z"/>
			</g>
			<g class="st21">
				<linearGradient id="SVGID_48_" gradientUnits="userSpaceOnUse" x1="380.3217" y1="266.4154" x2="639.1131" y2="266.4154">
					<stop  offset="0" style="stop-color:#464A64;stop-opacity:0"/>
					<stop  offset="0.1364" style="stop-color:#3C3F56;stop-opacity:0.2728"/>
					<stop  offset="0.3225" style="stop-color:#333549;stop-opacity:0.645"/>
					<stop  offset="0.5" style="stop-color:#303245"/>
					<stop  offset="0.6821" style="stop-color:#333549;stop-opacity:0.6359"/>
					<stop  offset="0.8559" style="stop-color:#3B3E54;stop-opacity:0.2881"/>
					<stop  offset="1" style="stop-color:#464A64;stop-opacity:0"/>
				</linearGradient>
				<path class="st80" d="M381,341.4c-0.2,0-0.4-0.1-0.6-0.3c-0.2-0.3-0.1-0.7,0.2-0.9l257.5-148.7c0.3-0.2,0.7-0.1,0.9,0.2
					c0.2,0.3,0.1,0.7-0.2,0.9L381.3,341.3C381.2,341.4,381.1,341.4,381,341.4z"/>
			</g>
		</g>
		<linearGradient id="SVGID_49_" gradientUnits="userSpaceOnUse" x1="425.7692" y1="277.5697" x2="425.7692" y2="108.5289">
			<stop  offset="0" style="stop-color:#FFFFFF"/>
			<stop  offset="1" style="stop-color:#FFFFFF;stop-opacity:0"/>
		</linearGradient>
		<path class="st81" d="M534.1,108.5H317.4v106.3h0c0.1,16,10.7,32,31.8,44.3c42.6,24.6,111.1,24.6,153.3,0.2
			c21.2-12.3,31.8-28.4,31.7-44.5h0V108.5z"/>
		<g>
			<g>
				<path class="st57" d="M466.8,215.1c0.8,0.4,0.8,1.2,0,1.6c-0.8,0.4-2,0.5-2.8,0l-39.5-22.8l1,15.5c0,0.6-0.8,1.2-1.9,1.2
					c-0.6,0-1.1-0.1-1.5-0.3c-0.3-0.2-0.6-0.5-0.6-0.8l-1.2-18.4c0-0.5,0.4-0.9,1.2-1.1c0.7-0.2,1.6-0.1,2.2,0.2L466.8,215.1z"/>
			</g>
			<g>
				<path class="st57" d="M468,189.5c25.3,14.6,25.4,38.2,0.3,52.8c-25.1,14.6-65.9,14.6-91.2,0c-25.2-14.6-25.4-38.2-0.3-52.8
					C401.9,174.9,442.7,174.9,468,189.5z M422.7,250.9c15.5,0,30.9-3.4,42.7-10.3c11.8-6.8,17.6-15.8,17.6-24.8s-6-17.9-17.9-24.8
					c-11.9-6.8-27.4-10.3-42.8-10.3c-15.5,0-31,3.4-42.7,10.3c-11.8,6.8-17.6,15.8-17.6,24.8c0.1,9,6,17.9,17.9,24.8
					C391.8,247.5,407.3,250.9,422.7,250.9"/>
			</g>
			<g>
				<path class="st57" d="M441.6,216.5c0.4,0.2,0.6,0.5,0.6,0.9c0,0.6-1,1.1-2,1.1l-55.5-1.3l39.5,22.8c0.8,0.4,0.8,1.2,0,1.6
					c-0.8,0.5-2,0.5-2.8,0l-43.1-24.9c-0.6-0.3-0.7-0.8-0.4-1.3c0.3-0.4,1.1-0.7,1.9-0.7l60.5,1.5
					C440.8,216.2,441.2,216.3,441.6,216.5z"/>
			</g>
		</g>
		<g>
			<g>
				<g>
					<polygon class="st82" points="483.7,339.3 483.6,380.9 478.5,369.3 478.6,327.7 					"/>
				</g>
				<g>
					<polygon class="st82" points="614.5,339.4 614.4,381 603.8,391.3 604,349.7 					"/>
				</g>
				<g>
					<polygon class="st82" points="430.2,374.8 430,416.4 412.3,410.3 412.4,368.7 					"/>
				</g>
				<g>
					<polygon class="st82" points="657.7,389.9 657.5,431.5 637.5,434.4 637.7,392.8 					"/>
				</g>
				<path class="st83" d="M637.7,396.5c0,0.6-0.1,1.2-0.1,1.9c0,0.3-0.1,0.6-0.1,1c-0.1,0.7-0.2,1.4-0.3,2.1c0,0.2-0.1,0.5-0.1,0.7
					c-0.2,0.9-0.4,1.8-0.7,2.7c-0.1,0.2-0.1,0.4-0.2,0.6c-0.2,0.7-0.5,1.4-0.7,2.2c-0.1,0.3-0.2,0.6-0.4,0.9
					c-0.2,0.6-0.5,1.3-0.8,1.9c-0.1,0.3-0.3,0.6-0.4,1c-0.3,0.6-0.6,1.3-1,1.9c-0.2,0.4-0.4,0.8-0.6,1.1l-0.1,41.6
					c0.1-0.2,0.2-0.3,0.3-0.5c0.1-0.2,0.2-0.4,0.3-0.6c0.3-0.6,0.7-1.3,1-1.9c0.2-0.3,0.3-0.6,0.4-1c0.3-0.6,0.5-1.3,0.8-1.9
					c0.1-0.2,0.2-0.4,0.3-0.6c0-0.1,0.1-0.2,0.1-0.3c0.3-0.7,0.5-1.4,0.7-2.2c0.1-0.2,0.1-0.4,0.2-0.6c0.3-0.9,0.5-1.8,0.7-2.7
					c0,0,0-0.1,0-0.1c0-0.2,0.1-0.4,0.1-0.6c0.1-0.7,0.2-1.4,0.3-2.1c0-0.3,0.1-0.6,0.1-1c0.1-0.6,0.1-1.2,0.1-1.9
					c0-0.2,0-0.4,0-0.6c0-0.3,0-0.6,0-0.9l0.1-41.6C637.7,395.5,637.7,396,637.7,396.5z"/>
				<g>
					<polygon class="st84" points="415.8,424.8 415.7,466.4 404.6,440.9 404.7,399.3 					"/>
				</g>
				<g>
					<polygon class="st83" points="435.8,421.9 435.7,463.5 415.7,466.4 415.8,424.8 					"/>
				</g>
				<g>
					<polygon class="st83" points="626.7,443.1 626.6,484.7 608.8,478.5 609,436.9 					"/>
				</g>
				<g>
					<polygon class="st84" points="649.9,420.6 649.8,462.2 626.6,484.7 626.7,443.1 					"/>
				</g>
				<path class="st85" d="M435.8,421.9l-0.1,41.6c5.1,5.9,11.8,11.4,20.1,16.2c0.8,0.5,1.6,0.9,2.4,1.4l0.1-41.6
					c-0.8-0.4-1.6-0.9-2.4-1.4C447.6,433.4,440.9,427.9,435.8,421.9z"/>
				<path class="st85" d="M601.1,441.3c-1.8,0.9-3.7,1.8-5.7,2.7c-0.8,0.3-1.6,0.7-2.4,1c-1.6,0.7-3.2,1.3-4.8,1.9
					c-0.9,0.3-1.8,0.6-2.8,1c-2.2,0.7-4.4,1.5-6.7,2.1l-0.1,41.6c1.6-0.4,3.1-0.9,4.7-1.4c0.7-0.2,1.4-0.5,2.1-0.7
					c0.9-0.3,1.8-0.6,2.8-1c1.6-0.6,3.2-1.2,4.8-1.9c0.8-0.3,1.6-0.7,2.4-1c1.9-0.8,3.8-1.7,5.7-2.7c0.4-0.2,0.8-0.4,1.1-0.5
					c2-1,4-2.1,5.9-3.3c0.3-0.2,0.6-0.3,0.8-0.5l0,0l0,0l0,0l0.1-41.6c-2.2,1.3-4.4,2.6-6.7,3.8
					C601.9,440.9,601.5,441.1,601.1,441.3z"/>
				<path class="st85" d="M526.1,456.2c-3.1-0.1-6.2-0.3-9.2-0.5c-0.1,0-0.2,0-0.3,0c-3.1-0.2-6.1-0.6-9.1-1c-0.2,0-0.5-0.1-0.7-0.1
					c-3.2-0.4-6.3-1-9.4-1.6l-0.1,41.6c3,0.6,5.9,1.1,8.9,1.5c0.2,0,0.3,0,0.5,0.1c0.2,0,0.5,0.1,0.7,0.1c3,0.4,6,0.7,9,1
					c0,0,0.1,0,0.1,0c0.1,0,0.2,0,0.3,0c3.1,0.2,6.2,0.4,9.2,0.5c0.1,0,0.3,0,0.4,0c0.1,0,0.2,0,0.2,0c3.1,0.1,6.3,0.1,9.4,0
					l0.1-41.6c-3.2,0.1-6.4,0.1-9.6,0C526.4,456.2,526.2,456.2,526.1,456.2z"/>
				<g>
					<polygon class="st84" points="486.7,463.3 486.6,504.9 447.7,491.4 447.8,449.8 					"/>
				</g>
				<g>
					<polygon class="st83" points="497.3,453.1 497.2,494.7 486.6,504.9 486.7,463.3 					"/>
				</g>
				<g>
					<polygon class="st84" points="583.7,461.5 583.6,503.1 539.6,509.5 539.7,467.9 					"/>
				</g>
				<g>
					<polygon class="st83" points="539.7,467.9 539.6,509.5 534.6,497.9 534.7,456.3 					"/>
				</g>
				<path class="st85" d="M607,397l-17.8,19.9c-3-3.1-6.7-6-11.2-8.6c-3.8-2.2-8-4.1-12.8-5.8c-31.5-10.9-72.2-5-91,13.2
					c-0.8,0.7-1.5,1.5-2.1,2.2l-18.7-18.7l23.9-40l55.5-10.2l56.5,14.3L607,397z"/>
				<g>
					<path class="st86" d="M609,436.9c-8.8,5.5-19.1,9.8-30.3,13l5,11.6l-44,6.3l-5.1-11.6c0.5,0,1,0,1.5,0
						c-13,0.3-26.1-0.7-38.9-3.2l-10.6,10.3l-39-13.5l10.6-10.3c-0.8-0.4-1.6-0.9-2.4-1.4c-8.3-4.8-15.1-10.3-20.1-16.2l-20,2.9
						l-11.1-25.5l20-2.9c-0.4-7.2,1.3-14.6,5.4-21.6l-17.7-6.2l23.2-22.5l17.7,6.2c8.8-5.4,19.1-9.8,30.3-13l-5.1-11.6l44-6.3
						l5.1,11.6c13.9-0.2,28.1,1.1,41.6,4.1c-1.4-0.3-2.8-0.6-4.2-0.9l10.5-10.2l39,13.5L604,349.7c0.8,0.4,1.6,0.9,2.4,1.3
						c8.5,4.9,15.3,10.5,20.4,16.5l19.8-3.2l11.1,25.5l-20,2.9c0-0.3,0-0.6-0.1-0.8c0.6,7.5-1.1,15.1-5.4,22.5l17.7,6.2l-23.2,22.5
						L609,436.9z M497.2,427.6c31.5,10.9,72.2,5.1,91-13.2c15.9-15.4,10.9-34.8-10.2-47c-3.8-2.2-8-4.1-12.8-5.8
						c-31.5-10.9-72.2-5-91,13.2c-15.9,15.4-10.9,34.8,10.2,47C488.1,424,492.4,425.9,497.2,427.6 M525.9,333c0.5,0,1,0,1.5,0
						C526.8,332.9,526.3,332.9,525.9,333"/>
				</g>
			</g>
			<path class="st65" d="M497.2,427.6c31.5,10.9,72.2,5.1,91-13.2c15.9-15.4,10.9-34.8-10.2-47c-3.8-2.2-8-4.1-12.8-5.8
				c-31.5-10.9-72.2-5-91,13.2c-15.9,15.4-10.9,34.8,10.2,47C488.1,424,492.4,425.9,497.2,427.6"/>
			<g>
				<g class="st21">
					
						<linearGradient id="SVGID_50_" gradientUnits="userSpaceOnUse" x1="232.9989" y1="369.5878" x2="362.2694" y2="369.5878" gradientTransform="matrix(-1 0 0 1 870.7313 0)">
						<stop  offset="0" style="stop-color:#CA9EF2;stop-opacity:0"/>
						<stop  offset="3.285243e-02" style="stop-color:#C695EF;stop-opacity:6.330937e-02"/>
						<stop  offset="0.158" style="stop-color:#B978E5;stop-opacity:0.3045"/>
						<stop  offset="0.282" style="stop-color:#B063DF;stop-opacity:0.5435"/>
						<stop  offset="0.4034" style="stop-color:#AA56DA;stop-opacity:0.7774"/>
						<stop  offset="0.5189" style="stop-color:#A852D9"/>
						<stop  offset="1" style="stop-color:#CA9EF2;stop-opacity:0"/>
					</linearGradient>
					<path class="st87" d="M637.4,407c-0.1,0-0.1,0-0.2,0l-128.6-74.3c-0.2-0.1-0.2-0.3-0.1-0.4c0.1-0.2,0.3-0.2,0.4-0.1l128.6,74.3
						c0.2,0.1,0.2,0.3,0.1,0.4C637.6,407,637.5,407,637.4,407z"/>
				</g>
				<g class="st20">
					
						<linearGradient id="SVGID_51_" gradientUnits="userSpaceOnUse" x1="246.9765" y1="378.172" x2="376.2477" y2="378.172" gradientTransform="matrix(-1 0 0 1 870.7313 0)">
						<stop  offset="0" style="stop-color:#CA9EF2;stop-opacity:0"/>
						<stop  offset="3.285243e-02" style="stop-color:#C695EF;stop-opacity:6.330937e-02"/>
						<stop  offset="0.158" style="stop-color:#B978E5;stop-opacity:0.3045"/>
						<stop  offset="0.282" style="stop-color:#B063DF;stop-opacity:0.5435"/>
						<stop  offset="0.4034" style="stop-color:#AA56DA;stop-opacity:0.7774"/>
						<stop  offset="0.5189" style="stop-color:#A852D9"/>
						<stop  offset="1" style="stop-color:#CA9EF2;stop-opacity:0"/>
					</linearGradient>
					<path class="st88" d="M623.4,415.6c-0.1,0-0.1,0-0.2,0l-128.6-74.3c-0.2-0.1-0.2-0.3-0.1-0.4c0.1-0.2,0.3-0.2,0.4-0.1
						L623.6,415c0.2,0.1,0.2,0.3,0.1,0.4C623.7,415.6,623.5,415.6,623.4,415.6z"/>
				</g>
				<g>
					
						<linearGradient id="SVGID_52_" gradientUnits="userSpaceOnUse" x1="260.9548" y1="386.756" x2="390.2253" y2="386.756" gradientTransform="matrix(-1 0 0 1 870.7313 0)">
						<stop  offset="0" style="stop-color:#CA9EF2;stop-opacity:0"/>
						<stop  offset="3.285243e-02" style="stop-color:#C695EF;stop-opacity:6.330937e-02"/>
						<stop  offset="0.158" style="stop-color:#B978E5;stop-opacity:0.3045"/>
						<stop  offset="0.282" style="stop-color:#B063DF;stop-opacity:0.5435"/>
						<stop  offset="0.4034" style="stop-color:#AA56DA;stop-opacity:0.7774"/>
						<stop  offset="0.5189" style="stop-color:#A852D9"/>
						<stop  offset="1" style="stop-color:#CA9EF2;stop-opacity:0"/>
					</linearGradient>
					<path class="st89" d="M609.5,424.2c-0.1,0-0.1,0-0.2,0l-128.6-74.3c-0.2-0.1-0.2-0.3-0.1-0.4c0.1-0.2,0.3-0.2,0.4-0.1
						l128.6,74.3c0.2,0.1,0.2,0.3,0.1,0.4C609.7,424.2,609.6,424.2,609.5,424.2z"/>
				</g>
				<g>
					
						<linearGradient id="SVGID_53_" gradientUnits="userSpaceOnUse" x1="274.933" y1="395.3394" x2="404.2036" y2="395.3394" gradientTransform="matrix(-1 0 0 1 870.7313 0)">
						<stop  offset="0" style="stop-color:#CA9EF2;stop-opacity:0"/>
						<stop  offset="3.285243e-02" style="stop-color:#C695EF;stop-opacity:6.330937e-02"/>
						<stop  offset="0.158" style="stop-color:#B978E5;stop-opacity:0.3045"/>
						<stop  offset="0.282" style="stop-color:#B063DF;stop-opacity:0.5435"/>
						<stop  offset="0.4034" style="stop-color:#AA56DA;stop-opacity:0.7774"/>
						<stop  offset="0.5189" style="stop-color:#A852D9"/>
						<stop  offset="1" style="stop-color:#CA9EF2;stop-opacity:0"/>
					</linearGradient>
					<path class="st90" d="M595.5,432.8c-0.1,0-0.1,0-0.2,0l-128.6-74.3c-0.2-0.1-0.2-0.3-0.1-0.4c0.1-0.2,0.3-0.2,0.4-0.1
						l128.6,74.3c0.2,0.1,0.2,0.3,0.1,0.4C595.7,432.7,595.6,432.8,595.5,432.8z"/>
				</g>
				<g>
					
						<linearGradient id="SVGID_54_" gradientUnits="userSpaceOnUse" x1="288.9113" y1="403.9242" x2="418.1819" y2="403.9242" gradientTransform="matrix(-1 0 0 1 870.7313 0)">
						<stop  offset="0" style="stop-color:#CA9EF2;stop-opacity:0"/>
						<stop  offset="3.285243e-02" style="stop-color:#C695EF;stop-opacity:6.330937e-02"/>
						<stop  offset="0.158" style="stop-color:#B978E5;stop-opacity:0.3045"/>
						<stop  offset="0.282" style="stop-color:#B063DF;stop-opacity:0.5435"/>
						<stop  offset="0.4034" style="stop-color:#AA56DA;stop-opacity:0.7774"/>
						<stop  offset="0.5189" style="stop-color:#A852D9"/>
						<stop  offset="1" style="stop-color:#CA9EF2;stop-opacity:0"/>
					</linearGradient>
					<path class="st91" d="M581.5,441.4c-0.1,0-0.1,0-0.2,0l-128.6-74.3c-0.2-0.1-0.2-0.3-0.1-0.4c0.1-0.2,0.3-0.2,0.4-0.1
						l128.6,74.3c0.2,0.1,0.2,0.3,0.1,0.4C581.7,441.3,581.6,441.4,581.5,441.4z"/>
				</g>
				<g class="st20">
					
						<linearGradient id="SVGID_55_" gradientUnits="userSpaceOnUse" x1="302.8896" y1="412.5073" x2="432.1602" y2="412.5073" gradientTransform="matrix(-1 0 0 1 870.7313 0)">
						<stop  offset="0" style="stop-color:#CA9EF2;stop-opacity:0"/>
						<stop  offset="3.285243e-02" style="stop-color:#C695EF;stop-opacity:6.330937e-02"/>
						<stop  offset="0.158" style="stop-color:#B978E5;stop-opacity:0.3045"/>
						<stop  offset="0.282" style="stop-color:#B063DF;stop-opacity:0.5435"/>
						<stop  offset="0.4034" style="stop-color:#AA56DA;stop-opacity:0.7774"/>
						<stop  offset="0.5189" style="stop-color:#A852D9"/>
						<stop  offset="1" style="stop-color:#CA9EF2;stop-opacity:0"/>
					</linearGradient>
					<path class="st92" d="M567.5,450c-0.1,0-0.1,0-0.2,0l-128.6-74.3c-0.2-0.1-0.2-0.3-0.1-0.4c0.1-0.2,0.3-0.2,0.4-0.1l128.6,74.3
						c0.2,0.1,0.2,0.3,0.1,0.4C567.7,449.9,567.6,450,567.5,450z"/>
				</g>
				<g class="st21">
					
						<linearGradient id="SVGID_56_" gradientUnits="userSpaceOnUse" x1="316.8679" y1="421.0923" x2="446.1384" y2="421.0923" gradientTransform="matrix(-1 0 0 1 870.7313 0)">
						<stop  offset="0" style="stop-color:#CA9EF2;stop-opacity:0"/>
						<stop  offset="3.285243e-02" style="stop-color:#C695EF;stop-opacity:6.330937e-02"/>
						<stop  offset="0.158" style="stop-color:#B978E5;stop-opacity:0.3045"/>
						<stop  offset="0.282" style="stop-color:#B063DF;stop-opacity:0.5435"/>
						<stop  offset="0.4034" style="stop-color:#AA56DA;stop-opacity:0.7774"/>
						<stop  offset="0.5189" style="stop-color:#A852D9"/>
						<stop  offset="1" style="stop-color:#CA9EF2;stop-opacity:0"/>
					</linearGradient>
					<path class="st93" d="M553.5,458.5c-0.1,0-0.1,0-0.2,0l-128.6-74.3c-0.2-0.1-0.2-0.3-0.1-0.4c0.1-0.2,0.3-0.2,0.4-0.1
						l128.6,74.3c0.2,0.1,0.2,0.3,0.1,0.4C553.8,458.5,553.7,458.5,553.5,458.5z"/>
				</g>
			</g>
			<linearGradient id="SVGID_57_" gradientUnits="userSpaceOnUse" x1="531.1849" y1="433.242" x2="531.1849" y2="329.6826">
				<stop  offset="0" style="stop-color:#FFFFFF"/>
				<stop  offset="1" style="stop-color:#FFFFFF;stop-opacity:0"/>
			</linearGradient>
			<path class="st94" d="M597.6,329.7H464.8v65.1h0c0.1,9.8,6.5,19.6,19.5,27.1c26.1,15.1,68,15.1,93.9,0.1
				c13-7.5,19.5-17.4,19.4-27.3h0V329.7z"/>
		</g>
		<g>
			<g>
				<path class="st64" d="M118.2,292.9c-0.1,0.1-2.4,1.9-4,2.8c-4.2,2.4-7.7,1.7-12.1-0.9c-4.6-2.7-5.6-4.7-1.7-7
					c2-1.2,4.8-2.2,5-2.3l1.6,1c-0.1,0.1-2.6,1.2-4.4,2.2c-2.6,1.5-2.1,2.6,1.6,4.8c3.6,2.1,5.5,2.5,8.2,1c0.9-0.5,1.7-1.1,1.9-1.3
					l-3.2-1.9l-1.6,0.9l-1.9-1.1l3.7-2.2L118.2,292.9z"/>
			</g>
			<g class="st9">
				<g>
					<path class="st64" d="M164.4,261.8c2.9,1.7,2.3,3.4-0.2,4.9c-1.7,1-4.7,2.1-4.8,2.2l-1.5-1.1c0.1-0.1,2.9-1.3,4.3-2.1
						c1.6-0.9,1.6-1.8,0.2-2.6c-1.1-0.6-2.1-0.5-4.6,0.4c-3.6,1.2-5.7,1.4-8,0.1c-2.7-1.5-2-3.2,0.6-4.7c1.7-1,4.5-2.1,4.6-2.2
						l1.6,1.1c-0.1,0.1-3,1.4-4.1,2c-1.6,0.9-1.9,1.7-0.7,2.4c1.2,0.7,2.2,0.5,5.1-0.5C160.4,260.6,162.1,260.5,164.4,261.8z"/>
				</g>
				<g>
					<path class="st64" d="M150.8,266.3c4.2,2.4,5.9,4.5,1.6,7l-4.6,2.6l-13.2-7.6l4.6-2.6C143.4,263.2,146.7,263.9,150.8,266.3z
						 M148.1,273.6l2.4-1.4c2.6-1.5,1-3-1.9-4.6c-2.9-1.7-4.9-2.4-7.6-0.8l-2.4,1.4L148.1,273.6"/>
				</g>
				<g>
					<polygon class="st64" points="146.1,276.9 138.7,281.2 125.5,273.6 127.6,272.3 139,278.9 144.2,275.8 					"/>
				</g>
				<g>
					<polygon class="st64" points="135.7,283 133.6,284.2 120.3,276.6 122.5,275.3 					"/>
				</g>
			</g>
			<g>
				<path class="st64" d="M126.4,283.5c3.2,1.8,2.8,3.6-0.4,5.4c-3.1,1.8-6.1,2.1-9.3,0.2l-9-5.2l2.2-1.3l9,5.2c1.8,1,3.5,1,5.2-0.1
					c1.8-1,1.9-2,0.1-3.1l-9-5.2l2.2-1.3L126.4,283.5z"/>
			</g>
		</g>
		<g>
			<g>
				<path class="st85" d="M526.2,403.3c2,1.2,1.5,2.3-0.7,3.6c-1.2,0.7-3.5,1.6-3.6,1.6l-1.5-1c0.1-0.1,2.4-1,3.2-1.6
					c1.2-0.7,1.5-1.2,0.7-1.6c-0.6-0.4-1.1-0.3-3.1,0.5c-2.2,0.9-3.6,1.2-5.4,0.2c-2-1.1-1.2-2.4,0.5-3.4c1.3-0.7,3.5-1.6,3.6-1.7
					l1.5,0.9c-0.1,0.1-2.3,1-3.4,1.6c-1,0.6-1.3,1-0.5,1.4c0.6,0.3,1.1,0.2,3.1-0.6C523.2,402.4,524.5,402.2,526.2,403.3z"/>
			</g>
			<g>
				<path class="st85" d="M520.2,409.5c-0.1,0.1-1.6,1.4-3.1,2.3c-2.6,1.5-5,1.3-8-0.5c-3.2-1.8-3.3-3.5-0.9-4.8
					c2.4-1.4,4.9-1.4,7.6,0.2l1.2,0.9l-5.4,3.1c1.4,0.8,2.6,0.9,4.1,0.1c1.4-0.8,2.9-1.9,3-1.9L520.2,409.5z M510.2,409.7l3.6-2.1
					c-1.7-1-2.8-1-4.1-0.3C508.5,408.1,508.6,408.8,510.2,409.7"/>
			</g>
			<g>
				<polygon class="st85" points="511.4,414.9 509.4,416 499.7,410.4 499.4,410.5 505.9,417.5 503.9,418.7 491.8,414.9 491.5,415.1 
					501.3,420.7 499.4,421.8 487.5,415 490.8,413 502.8,416.9 496.1,409.9 499.5,408 				"/>
			</g>
			<g>
				<path class="st85" d="M546,395c-1.1,0.6-1.8,0.9-2.9,1c0,0.1-0.7,1.2-2.1,2c-1.7,1-3.5,0.9-5.3-0.1c-1.8-1.1-1.5-2,0.2-3.2
					l2-1.4l-0.6-0.4c-1-0.6-1.7-0.5-2.5,0c-1.2,0.7-3,1.9-3.1,2l-1.4-0.7c0.1-0.1,1.4-1.4,3-2.3c2.1-1.2,3.9-1.2,5.8-0.1l4,2.3
					c0.6,0.3,1,0.3,1.6,0L546,395z M537.4,396.7c0.8,0.5,1.6,0.5,2.3,0.1c1-0.6,1.7-1.4,1.8-1.5l-2.3-1.3l-1.8,1.3
					C536.7,395.8,536.7,396.2,537.4,396.7"/>
			</g>
			<g>
				<path class="st85" d="M534.3,398.5c2,1.2,1.5,2.3-0.7,3.6c-1.2,0.7-3.5,1.6-3.6,1.6l-1.5-1c0.1-0.1,2.4-1,3.2-1.6
					c1.2-0.7,1.5-1.2,0.7-1.6c-0.6-0.4-1.1-0.3-3.1,0.5c-2.2,0.9-3.6,1.2-5.4,0.2c-2-1.1-1.2-2.4,0.5-3.4c1.3-0.7,3.5-1.6,3.6-1.7
					l1.5,0.9c-0.1,0.1-2.3,1-3.4,1.6c-1,0.6-1.3,1-0.5,1.4c0.6,0.3,1.1,0.2,3.1-0.6C531.3,397.7,532.6,397.5,534.3,398.5z"/>
			</g>
			<g>
				<path class="st85" d="M578.9,377c2.1,1.2,1.2,2.6-1.1,4c-2.6,1.5-4.5,2-6.5,0.9c-0.9-0.5-1-1.1-0.8-2c-0.6,0.1-1.3-0.1-1.8-0.4
					c-0.4-0.2-0.8-1.1-0.8-1.2c-1,0.2-2.3,0.1-3.9-0.8c-2.2-1.3-1.6-2.6,0.4-3.8c0.8-0.5,1.9-0.9,2-0.9l2.6-1.6l1.5,0.9l-1.5,0.8
					c0.5,0,1.2,0.2,1.9,0.6c2.4,1.4,1.8,2.4-0.5,3.8c-0.2,0.1-0.6,0.3-0.8,0.4c0,0,0.3,0.5,0.6,0.6c0.6,0.3,0.9,0.3,2.5-0.7
					C575.5,376,576.9,375.9,578.9,377z M573,380.7c0.8,0.5,1.7,0.3,3.3-0.6c1.4-0.8,1.7-1.4,0.9-1.9c-0.9-0.5-1.5-0.3-2.9,0.5
					c-0.5,0.3-1.7,0.9-1.8,0.9C572.3,380.1,572.4,380.4,573,380.7 M565.9,376.4c1.1,0.6,2,0.6,3.1,0c1.2-0.7,1.1-1.2,0.1-1.8
					c-1-0.6-2-0.6-3.2,0C564.8,375.3,564.8,375.8,565.9,376.4"/>
			</g>
			<g class="st9">
				<g>
					<path class="st85" d="M568,382l-1.9,1.1l-4.6-2.7c-1.7-1-2.8-1.4-4.1-0.6c-1,0.6-1.5,1.4-1.5,1.4l6.7,3.9l-1.9,1.1l-8.7-5
						l1.9-1.1l0.5,0.3c0-0.1,0.5-1.2,1.7-1.8c2.4-1.4,4.4-0.9,7.2,0.7L568,382z"/>
				</g>
				<g>
					<polygon class="st85" points="549.8,382.5 558.4,387.5 556.6,388.6 547.9,383.6 					"/>
				</g>
				<g>
					<path class="st85" d="M556.2,390.2c2.1,1.2,1.2,2.6-1.1,4c-2.6,1.5-4.5,2-6.5,0.9c-0.9-0.5-1-1.1-0.8-2
						c-0.6,0.1-1.3-0.1-1.8-0.4c-0.4-0.2-0.7-1.1-0.8-1.2c-1,0.2-2.3,0.1-3.9-0.8c-2.2-1.3-1.6-2.6,0.4-3.8c0.8-0.5,1.9-0.9,2-0.9
						l2.6-1.6l1.5,0.9l-1.5,0.8c0.5,0,1.2,0.2,1.9,0.6c2.4,1.4,1.8,2.4-0.5,3.8c-0.2,0.1-0.6,0.3-0.8,0.4c0,0,0.3,0.5,0.6,0.6
						c0.6,0.3,0.9,0.3,2.5-0.7C552.8,389.2,554.2,389,556.2,390.2z M550.3,393.8c0.8,0.5,1.7,0.3,3.3-0.6c1.4-0.8,1.7-1.4,0.9-1.9
						c-0.9-0.5-1.5-0.3-2.9,0.5c-0.5,0.3-1.7,0.9-1.8,0.9C549.7,393.2,549.7,393.5,550.3,393.8 M543.2,389.6c1.1,0.6,2,0.6,3.1,0
						c1.2-0.7,1.1-1.2,0.1-1.8c-1-0.6-2-0.6-3.2,0C542.2,388.4,542.2,389,543.2,389.6"/>
				</g>
			</g>
			<g>
				<polygon class="st85" points="544.4,381.6 546.3,380.5 548.3,381.6 546.4,382.7 				"/>
			</g>
		</g>
		<g>
			<g>
				<path class="st18" d="M300.3,65.2c-0.7,0.4-1.2,0.6-1.9,0.7c0,0-0.4,0.7-1.2,1.1c-1.1,0.7-2.3,0.6-3.5-0.1
					c-1.2-0.7-0.9-1.3,0.2-2.1l1.1-0.7l-0.3-0.2c-0.5-0.3-0.8-0.2-1.2,0c-0.7,0.4-1.9,1.2-2,1.2l-1.1-0.6c0,0,0.8-0.9,1.9-1.5
					c1.4-0.8,2.5-0.8,3.8-0.1l2.3,1.3c0.3,0.2,0.5,0.2,0.9,0.1L300.3,65.2z M295,66.1c0.4,0.2,0.8,0.3,1.2,0.1
					c0.5-0.3,0.9-0.7,0.9-0.7l-1.2-0.7l-0.9,0.6C294.7,65.7,294.7,65.9,295,66.1"/>
			</g>
			<g>
				<polygon class="st18" points="294.2,68.6 292.7,69.5 286.9,66.2 286.7,66.3 290.7,70.3 289.2,71.1 282.3,68.8 282.1,68.9 
					287.9,72.3 286.4,73.1 278.9,68.8 281.5,67.3 288.3,69.7 284.1,65.8 286.7,64.3 				"/>
			</g>
			<g>
				<path class="st18" d="M300.3,60.3c-0.8,0.7-1.2,1.2-1.3,1.3l3.7,2.1l-1.5,0.8l-5.5-3.2l1.5-0.8l0.6,0.3c0,0,0.4-0.8,1-1.4
					L300.3,60.3z"/>
			</g>
			<g>
				<path class="st18" d="M319.4,53.9c0,0-0.6,0.5-0.9,0.7c-1.3,0.8-2.2,0.7-3.8-0.2l-2.3-1.3l-0.6,0.4l-1.3-0.7l0.6-0.4l-1.5-0.9
					l1.5-0.8l1.5,0.9l1.3-0.8l1.3,0.7l-1.3,0.8l2.3,1.3c0.6,0.3,0.8,0.5,1.3,0.2c0.3-0.2,0.8-0.5,0.8-0.5L319.4,53.9z"/>
			</g>
			<g>
				<path class="st18" d="M315,56.3c0,0-1,0.9-2,1.5c-1.7,1-3.2,0.9-5.1-0.3c-2-1.1-2.1-2.2-0.5-3.1c1.6-0.9,3.2-0.9,4.9,0l0.9,0.7
					l-3.2,1.9c0.7,0.4,1.3,0.4,2.1-0.1c0.9-0.5,1.9-1.2,1.9-1.2L315,56.3z M308.8,56.4l1.9-1.1c-0.9-0.5-1.4-0.5-2.1-0.1
					C307.8,55.6,307.9,55.9,308.8,56.4"/>
			</g>
			<g>
				<polygon class="st18" points="310.1,59.4 308.5,60.3 305.2,59.7 304.7,60.1 306.8,61.3 305.3,62.2 297.6,57.7 299.1,56.9 
					303.4,59.4 303.9,59 302.9,57.2 304.5,56.2 305.7,58.6 				"/>
			</g>
			<g>
				<path class="st18" d="M344.4,39.1c0,0-1,0.9-2,1.5c-1.7,1-3.2,0.9-5.1-0.3c-2-1.1-2.1-2.2-0.5-3.1c1.6-0.9,3.2-0.9,4.9,0
					l0.9,0.7l-3.2,1.9c0.7,0.4,1.3,0.4,2.1-0.1c0.9-0.5,1.9-1.2,1.9-1.2L344.4,39.1z M338.2,39.2l1.9-1.1c-0.9-0.5-1.4-0.5-2.1-0.1
					C337.2,38.3,337.3,38.7,338.2,39.2"/>
			</g>
			<g>
				<path class="st18" d="M339.1,42.3c0,0-0.9,0.8-1.6,1.2c-1.6,0.9-3.1,0.8-5.2-0.4c-1.9-1.1-2.1-2-0.5-3c0.6-0.4,1.9-0.8,2-0.9
					l1.1,0.7c0,0-0.9,0.4-1.4,0.7c-1,0.6-0.8,1,0.3,1.6c1.2,0.7,1.8,0.8,2.9,0.2c0.4-0.2,1.1-0.8,1.2-0.8L339.1,42.3z"/>
			</g>
			<g>
				<path class="st18" d="M334.4,45.2c-0.7,0.4-1.2,0.6-1.9,0.7c0,0-0.4,0.7-1.2,1.2c-1.1,0.7-2.3,0.6-3.5-0.1
					c-1.2-0.7-0.9-1.3,0.2-2.1l1.1-0.7l-0.3-0.2c-0.5-0.3-0.8-0.2-1.2,0c-0.7,0.4-1.9,1.2-2,1.2l-1.1-0.6c0,0,0.8-0.9,1.9-1.5
					c1.4-0.8,2.5-0.8,3.8-0.1l2.3,1.3c0.4,0.2,0.5,0.2,0.9,0.1L334.4,45.2z M329.2,46.1c0.4,0.2,0.8,0.3,1.2,0.1
					c0.5-0.3,0.9-0.7,0.9-0.7l-1.2-0.7l-0.9,0.6C328.9,45.7,328.8,45.9,329.2,46.1"/>
			</g>
			<g>
				<polygon class="st18" points="328.4,48.6 326.9,49.5 319.2,45 320.7,44.2 				"/>
			</g>
			<g>
				<path class="st18" d="M321.8,52.3l2.2,1.3l-1.5,0.9l-7.5-4.3l2.7-1.6c1.8-1,3.5-1,5.2,0s1.8,2.1,0.1,3.1L321.8,52.3z
					 M320.5,51.5l1.2-0.7c0.7-0.4,0.7-0.9-0.3-1.5c-0.9-0.5-1.7-0.5-2.4-0.1l-1.2,0.7L320.5,51.5"/>
			</g>
		</g>
		<g>
			<g>
				<polygon class="st39" points="703.7,92.1 700.9,93.7 696.9,91.4 684.6,98.6 681.5,96.8 693.9,89.6 689.8,87.3 692.5,85.7 				
					"/>
			</g>
			<g class="st9">
				<g>
					<path class="st39" d="M704.6,97c3.9,2.2,2.8,4.3-0.6,6.3c-3.4,2-7.1,2.7-11,0.4c-3.9-2.2-2.7-4.4,0.7-6.3
						C697.1,95.4,700.7,94.8,704.6,97z M695.5,102.3c1.7,1,3.3,0.5,5.4-0.7s2.8-2.2,1.2-3.1c-1.6-0.9-3.2-0.6-5.3,0.7
						C694.6,100.4,693.9,101.3,695.5,102.3"/>
				</g>
				<g>
					<polygon class="st39" points="727,110.2 713.8,115.4 709.1,112.7 714.6,108.1 706.6,111.3 701.9,108.6 710.8,100.9 
						713.8,102.6 706.6,108.4 707.1,108.7 717.2,104.8 720.2,106.6 713.6,112.4 714.1,112.7 724,108.5 					"/>
				</g>
			</g>
			<g>
				<path class="st39" d="M734.9,114.5c3.1,1.8,2,3.4-1.4,5.4l-6,3.5l-3-1.7l5.9-3.4c1.7-1,2.5-1.7,1.1-2.6
					c-1.1-0.6-2.3-0.9-2.4-0.9l-8.3,4.8l-3-1.7l11.1-6.4l3,1.7l-0.6,0.4C731.4,113.4,733.6,113.8,734.9,114.5z"/>
			</g>
			<g>
				<polygon class="st39" points="775.3,133 759.8,142 756.8,140.3 772.3,131.3 				"/>
			</g>
			<g>
				<polygon class="st39" points="781.3,136.5 765.8,145.5 762.8,143.8 778.3,134.8 				"/>
			</g>
			<g>
				<path class="st39" d="M756.8,136.8c-0.6,0.4-0.8,0.6-0.3,1l-2.3,1.2c-1.5-0.9-2.1-1.4-2.4-2.3c-0.1,0-2.4-0.5-4.1-1.4
					c-2.3-1.4-2.2-2.7,0.2-4.1c2.5-1.5,4.7-1,7.3,0.3l2.6,1.3l0.7-0.4c1-0.6,0.8-0.9-0.1-1.5c-1.5-0.9-4.2-2.2-4.4-2.3l2-1.2
					c0.2,0.1,3,1,5.2,2.2c2.9,1.7,2.9,3,0.3,4.5L756.8,136.8z M753.3,135.4l2.4-1.4l-2.2-1.1c-0.8-0.4-1.7-0.5-2.5,0
					c-0.8,0.4-1,0.9-0.2,1.4C751.7,134.9,753.2,135.4,753.3,135.4"/>
			</g>
			<g>
				<polygon class="st39" points="757.3,123.1 742.2,131.9 739.1,130.1 745.4,126.5 739.7,123.2 733.5,126.8 730.4,125.1 
					745.5,116.3 748.6,118.1 742.4,121.7 748.1,124.9 754.2,121.3 				"/>
			</g>
		</g>
	</g>
</g>
</svg>
