<svg xmlns="http://www.w3.org/2000/svg" xmlns:xlink="http://www.w3.org/1999/xlink" viewBox="0 0 362.03 347.55"><defs><style>.cls-1{fill:url(#linear-gradient);}.cls-2{fill:url(#linear-gradient-2);}.cls-3{fill:#d9e4ff;}.cls-4{fill:#4e8fe0;}.cls-5{fill:#c3e4ff;}.cls-6{fill:url(#linear-gradient-3);}.cls-7{fill:url(#linear-gradient-4);}.cls-8{opacity:0.8;}.cls-9{isolation:isolate;}.cls-10{fill:#54697d;}.cls-11{fill:#1876ef;}.cls-12{fill:#d9f0ff;}.cls-13{fill:#114dac;}.cls-14{fill:#7fbce6;}.cls-15{fill:url(#linear-gradient-5);}.cls-16{fill:url(#linear-gradient-6);}.cls-17{fill:url(#linear-gradient-7);}.cls-18{fill:url(#linear-gradient-8);}.cls-19,.cls-52{fill:#464a64;}.cls-20{fill:#1b1e39;}.cls-21{fill:#30334a;}.cls-22{fill:url(#linear-gradient-9);}.cls-23{fill:url(#linear-gradient-10);}.cls-24{fill:url(#linear-gradient-11);}.cls-25{fill:url(#linear-gradient-12);}.cls-26{fill:url(#linear-gradient-13);}.cls-27{fill:url(#linear-gradient-14);}.cls-28{fill:url(#linear-gradient-15);}.cls-29{fill:url(#linear-gradient-16);}.cls-30{fill:url(#linear-gradient-17);}.cls-31{fill:url(#linear-gradient-18);}.cls-32{fill:url(#linear-gradient-19);}.cls-33{fill:url(#linear-gradient-20);}.cls-34{fill:url(#linear-gradient-21);}.cls-35{fill:url(#linear-gradient-22);}.cls-36{fill:url(#linear-gradient-23);}.cls-37{fill:url(#linear-gradient-24);}.cls-38{fill:url(#linear-gradient-25);}.cls-39{fill:url(#linear-gradient-26);}.cls-40{fill:url(#linear-gradient-27);}.cls-41{fill:url(#linear-gradient-28);}.cls-42{fill:url(#radial-gradient);}.cls-43{fill:#bdc1e3;}.cls-44{fill:url(#linear-gradient-29);}.cls-45{fill:#4c537d;}.cls-46{fill:url(#linear-gradient-30);}.cls-47{fill:url(#linear-gradient-31);}.cls-48{fill:url(#linear-gradient-32);}.cls-49{fill:url(#linear-gradient-33);}.cls-50{fill:#545a7d;}.cls-51{opacity:0.3;}.cls-52{opacity:0.3;}.cls-53{opacity:0.5;}.cls-54{opacity:0.6;}.cls-55{fill:url(#linear-gradient-34);}.cls-56{fill:url(#linear-gradient-35);}.cls-57{fill:#188ff4;}.cls-58{fill:url(#linear-gradient-36);}.cls-59{fill:#dcd9ff;}.cls-60{fill:#6b67f5;}.cls-61{fill:#a49cf0;}.cls-62{fill:url(#linear-gradient-37);}.cls-63{fill:url(#linear-gradient-38);}.cls-64{fill:#9f99ef;}.cls-65{fill:url(#linear-gradient-39);}.cls-66{fill:url(#linear-gradient-40);}.cls-67{fill:url(#linear-gradient-41);}.cls-68{fill:url(#linear-gradient-42);}.cls-69{fill:#fff3d9;}.cls-70{fill:#e6be7e;}.cls-71{fill:#d99e53;}.cls-72{fill:url(#linear-gradient-43);}.cls-73{fill:url(#linear-gradient-44);}.cls-74{fill:#d89d54;}.cls-75{fill:url(#linear-gradient-45);}.cls-76{fill:url(#linear-gradient-46);}.cls-77{fill:url(#linear-gradient-47);}.cls-78{fill:url(#linear-gradient-48);}.cls-79{fill:url(#linear-gradient-49);}.cls-80{fill:url(#linear-gradient-50);}.cls-81{fill:url(#linear-gradient-51);}</style><linearGradient id="linear-gradient" x1="27.55" y1="131.8" x2="28.35" y2="131.8" gradientUnits="userSpaceOnUse"><stop offset="0" stop-color="#6b67f5" stop-opacity="0"/><stop offset="0.19" stop-color="#3b75f4" stop-opacity="0.53"/><stop offset="0.35" stop-color="#1181f4"/><stop offset="0.45" stop-color="#1185f3"/><stop offset="0.55" stop-color="#1192ef"/><stop offset="0.61" stop-color="#119bed"/><stop offset="0.97" stop-color="#6ba0f5"/></linearGradient><linearGradient id="linear-gradient-2" x1="130.16" y1="56.24" x2="131.94" y2="158.19" xlink:href="#linear-gradient"/><linearGradient id="linear-gradient-3" x1="104.47" y1="39.95" x2="104.47" y2="19.74" gradientUnits="userSpaceOnUse"><stop offset="0" stop-color="#fff"/><stop offset="1" stop-color="#ffc4ff" stop-opacity="0.1"/></linearGradient><linearGradient id="linear-gradient-4" x1="-4953.52" y1="79.54" x2="-4953.52" y2="39.77" gradientTransform="matrix(-1, 0, 0, 1, -4849.05, 0)" gradientUnits="userSpaceOnUse"><stop offset="0" stop-color="#ffc4ff" stop-opacity="0.1"/><stop offset="1" stop-color="#fff"/></linearGradient><linearGradient id="linear-gradient-5" x1="218.14" y1="30.8" x2="218.14" y2="15.54" xlink:href="#linear-gradient-3"/><linearGradient id="linear-gradient-6" x1="-5067.18" y1="60.67" x2="-5067.18" y2="30.66" xlink:href="#linear-gradient-4"/><linearGradient id="linear-gradient-7" x1="259.16" y1="37.54" x2="259.78" y2="73.08" gradientUnits="userSpaceOnUse"><stop offset="0.03" stop-color="#114dac"/><stop offset="0.29" stop-color="#1169ed"/><stop offset="0.29" stop-color="#116aed"/><stop offset="0.4" stop-color="#117ff1"/><stop offset="0.5" stop-color="#118cf3"/><stop offset="0.6" stop-color="#1190f4"/><stop offset="0.69" stop-color="#1391f4" stop-opacity="0.99"/><stop offset="0.74" stop-color="#1893f4" stop-opacity="0.95"/><stop offset="0.79" stop-color="#2298f4" stop-opacity="0.89"/><stop offset="0.84" stop-color="#2f9ef4" stop-opacity="0.81"/><stop offset="0.88" stop-color="#40a5f3" stop-opacity="0.7"/><stop offset="0.91" stop-color="#56aff3" stop-opacity="0.56"/><stop offset="0.95" stop-color="#6fbaf3" stop-opacity="0.4"/><stop offset="0.98" stop-color="#8bc7f2" stop-opacity="0.21"/><stop offset="1" stop-color="#9dcff2" stop-opacity="0.1"/></linearGradient><linearGradient id="linear-gradient-8" x1="266.49" y1="179.57" x2="235.93" y2="126.64" gradientUnits="userSpaceOnUse"><stop offset="0" stop-color="#1163ec"/><stop offset="0.05" stop-color="#116aed"/><stop offset="0.25" stop-color="#117ff1"/><stop offset="0.44" stop-color="#118cf3"/><stop offset="0.62" stop-color="#1190f4"/><stop offset="0.63" stop-color="#1893f3" stop-opacity="0.98"/><stop offset="0.75" stop-color="#44a4ed" stop-opacity="0.81"/><stop offset="0.85" stop-color="#64b1e9" stop-opacity="0.7"/><stop offset="0.94" stop-color="#78b9e7" stop-opacity="0.63"/><stop offset="1" stop-color="#7fbce6" stop-opacity="0.6"/></linearGradient><linearGradient id="linear-gradient-9" x1="179.59" y1="196.57" x2="179.59" y2="164.68" gradientUnits="userSpaceOnUse"><stop offset="0" stop-color="#8890c2"/><stop offset="1" stop-color="#ffc4ff" stop-opacity="0.1"/></linearGradient><linearGradient id="linear-gradient-10" x1="-5028.63" y1="259.5" x2="-5028.63" y2="196.28" gradientTransform="matrix(-1, 0, 0, 1, -4849.05, 0)" gradientUnits="userSpaceOnUse"><stop offset="0" stop-color="#ffc4ff" stop-opacity="0.1"/><stop offset="1" stop-color="#8890c2"/></linearGradient><linearGradient id="linear-gradient-11" x1="178.21" y1="164.55" x2="128.44" y2="164.55" gradientUnits="userSpaceOnUse"><stop offset="0" stop-color="#6b7199"/><stop offset="1" stop-color="#6b7199"/></linearGradient><linearGradient id="linear-gradient-12" x1="178.21" y1="173.79" x2="157.85" y2="173.79" xlink:href="#linear-gradient-11"/><linearGradient id="linear-gradient-13" x1="183.05" y1="180.44" x2="179.24" y2="180.44" xlink:href="#linear-gradient-11"/><linearGradient id="linear-gradient-14" x1="196.47" y1="175.48" x2="182.35" y2="175.48" xlink:href="#linear-gradient-11"/><linearGradient id="linear-gradient-15" x1="175.88" y1="154.9" x2="158.4" y2="154.9" xlink:href="#linear-gradient-11"/><linearGradient id="linear-gradient-16" x1="167.8" y1="159.38" x2="143.86" y2="159.38" xlink:href="#linear-gradient-11"/><linearGradient id="linear-gradient-17" x1="203.83" y1="156.17" x2="181.3" y2="156.17" xlink:href="#linear-gradient-11"/><linearGradient id="linear-gradient-18" x1="227.87" y1="162.59" x2="184.19" y2="162.59" xlink:href="#linear-gradient-11"/><linearGradient id="linear-gradient-19" x1="210.86" y1="171.43" x2="186" y2="171.43" xlink:href="#linear-gradient-11"/><linearGradient id="linear-gradient-20" x1="219.27" y1="167.39" x2="197.02" y2="167.39" xlink:href="#linear-gradient-11"/><linearGradient id="linear-gradient-21" x1="196.94" y1="151.17" x2="190.43" y2="151.17" xlink:href="#linear-gradient-11"/><linearGradient id="linear-gradient-22" x1="186.7" y1="150.33" x2="179.24" y2="150.33" xlink:href="#linear-gradient-11"/><linearGradient id="linear-gradient-23" x1="179.04" y1="151.82" x2="167.1" y2="151.82" xlink:href="#linear-gradient-11"/><linearGradient id="linear-gradient-24" x1="172.28" y1="145.81" x2="163.52" y2="145.81" xlink:href="#linear-gradient-11"/><linearGradient id="linear-gradient-25" x1="156.42" y1="170.16" x2="149.8" y2="170.16" xlink:href="#linear-gradient-11"/><linearGradient id="linear-gradient-26" x1="183.05" y1="180.98" x2="163.52" y2="180.98" xlink:href="#linear-gradient-11"/><linearGradient id="linear-gradient-27" x1="173.63" y1="183.27" x2="167.55" y2="183.27" xlink:href="#linear-gradient-11"/><linearGradient id="linear-gradient-28" x1="191.79" y1="184.8" x2="182.35" y2="184.8" xlink:href="#linear-gradient-11"/><radialGradient id="radial-gradient" cx="178.2" cy="165.31" r="25.01" gradientTransform="matrix(1, 0.01, -0.01, 0.72, 1.05, 44.5)" gradientUnits="userSpaceOnUse"><stop offset="0.41" stop-color="#464a64"/><stop offset="0.52" stop-color="#464a64" stop-opacity="0.96"/><stop offset="0.64" stop-color="#464a64" stop-opacity="0.83"/><stop offset="0.77" stop-color="#464a64" stop-opacity="0.62"/><stop offset="0.89" stop-color="#464a64" stop-opacity="0.33"/><stop offset="1" stop-color="#464a64" stop-opacity="0"/></radialGradient><linearGradient id="linear-gradient-29" x1="36.39" y1="65.43" x2="90.4" y2="65.43" gradientUnits="userSpaceOnUse"><stop offset="0" stop-color="#1163ec"/><stop offset="0.04" stop-color="#116aed"/><stop offset="0.2" stop-color="#117ff1"/><stop offset="0.36" stop-color="#118cf3"/><stop offset="0.5" stop-color="#1190f4"/><stop offset="0.59" stop-color="#1c95f5" stop-opacity="0.98"/><stop offset="0.7" stop-color="#3ba4f7" stop-opacity="0.91"/><stop offset="0.83" stop-color="#6ebcfa" stop-opacity="0.79"/><stop offset="0.97" stop-color="#b4ddfe" stop-opacity="0.63"/><stop offset="1" stop-color="#c3e4ff" stop-opacity="0.6"/></linearGradient><linearGradient id="linear-gradient-30" x1="25.99" y1="93.86" x2="25.99" y2="78.61" xlink:href="#linear-gradient-3"/><linearGradient id="linear-gradient-31" x1="-4875.04" y1="123.74" x2="-4875.04" y2="93.72" xlink:href="#linear-gradient-4"/><linearGradient id="linear-gradient-32" x1="298.19" y1="79.99" x2="298.19" y2="59.78" xlink:href="#linear-gradient-3"/><linearGradient id="linear-gradient-33" x1="-5147.24" y1="119.58" x2="-5147.24" y2="79.81" xlink:href="#linear-gradient-4"/><linearGradient id="linear-gradient-34" x1="336.04" y1="166.55" x2="336.04" y2="151.3" xlink:href="#linear-gradient-3"/><linearGradient id="linear-gradient-35" x1="-5185.09" y1="196.43" x2="-5185.09" y2="166.41" xlink:href="#linear-gradient-4"/><linearGradient id="linear-gradient-36" x1="61.14" y1="221.49" x2="130.91" y2="221.49" gradientUnits="userSpaceOnUse"><stop offset="0" stop-color="#6b67f5"/><stop offset="0.1" stop-color="#7e79f3"/><stop offset="0.24" stop-color="#938cf1"/><stop offset="0.37" stop-color="#a098f0"/><stop offset="0.5" stop-color="#a49cf0"/><stop offset="0.57" stop-color="#a19aec" stop-opacity="0.99"/><stop offset="0.64" stop-color="#9992e1" stop-opacity="0.96"/><stop offset="0.71" stop-color="#8c86ce" stop-opacity="0.92"/><stop offset="0.79" stop-color="#7a76b3" stop-opacity="0.85"/><stop offset="0.87" stop-color="#626091" stop-opacity="0.77"/><stop offset="0.95" stop-color="#454668" stop-opacity="0.67"/><stop offset="1" stop-color="#30334a" stop-opacity="0.6"/></linearGradient><linearGradient id="linear-gradient-37" x1="45.2" y1="262.59" x2="45.2" y2="242.35" xlink:href="#linear-gradient-3"/><linearGradient id="linear-gradient-38" x1="-4894.24" y1="302.23" x2="-4894.24" y2="262.4" xlink:href="#linear-gradient-4"/><linearGradient id="linear-gradient-39" x1="60.79" y1="291.19" x2="122.75" y2="291.19" xlink:href="#linear-gradient-36"/><linearGradient id="linear-gradient-40" x1="122.71" y1="317.67" x2="122.71" y2="302.42" xlink:href="#linear-gradient-3"/><linearGradient id="linear-gradient-41" x1="-4971.76" y1="347.55" x2="-4971.76" y2="317.53" xlink:href="#linear-gradient-4"/><linearGradient id="linear-gradient-42" x1="286.27" y1="221.49" x2="356.04" y2="221.49" gradientTransform="matrix(-1, 0, 0, 1, 584.27, 0)" gradientUnits="userSpaceOnUse"><stop offset="0" stop-color="#d99e53"/><stop offset="0.32" stop-color="#da9f55"/><stop offset="0.43" stop-color="#dca45c"/><stop offset="0.52" stop-color="#dfad67"/><stop offset="0.58" stop-color="#e4ba78"/><stop offset="0.6" stop-color="#e6be7e"/><stop offset="0.69" stop-color="#e4bc7d" stop-opacity="0.99"/><stop offset="0.74" stop-color="#dcb67b" stop-opacity="0.95"/><stop offset="0.79" stop-color="#cfac76" stop-opacity="0.9"/><stop offset="0.83" stop-color="#bc9d70" stop-opacity="0.81"/><stop offset="0.87" stop-color="#a48a67" stop-opacity="0.71"/><stop offset="0.91" stop-color="#86725d" stop-opacity="0.57"/><stop offset="0.94" stop-color="#625651" stop-opacity="0.42"/><stop offset="0.98" stop-color="#3a3744" stop-opacity="0.24"/><stop offset="1" stop-color="#1b1e39" stop-opacity="0.1"/></linearGradient><linearGradient id="linear-gradient-43" x1="313.95" y1="262.59" x2="313.95" y2="242.35" xlink:href="#linear-gradient-3"/><linearGradient id="linear-gradient-44" x1="-5119.37" y1="302.23" x2="-5119.37" y2="262.4" gradientTransform="translate(5433.32)" xlink:href="#linear-gradient-4"/><linearGradient id="linear-gradient-45" x1="347.88" y1="291.2" x2="285.92" y2="291.2" gradientTransform="matrix(-1, 0, 0, 1, 584.27, 0)" gradientUnits="userSpaceOnUse"><stop offset="0" stop-color="#d99e53"/><stop offset="0.6" stop-color="#d99e53"/><stop offset="0.69" stop-color="#d99e54" stop-opacity="0.99"/><stop offset="0.75" stop-color="#daa056" stop-opacity="0.95"/><stop offset="0.8" stop-color="#dba259" stop-opacity="0.88"/><stop offset="0.85" stop-color="#dca65d" stop-opacity="0.78"/><stop offset="0.89" stop-color="#deaa63" stop-opacity="0.65"/><stop offset="0.93" stop-color="#e0b06b" stop-opacity="0.5"/><stop offset="0.96" stop-color="#e3b674" stop-opacity="0.32"/><stop offset="1" stop-color="#e6be7d" stop-opacity="0.11"/><stop offset="1" stop-color="#e6be7e" stop-opacity="0.1"/></linearGradient><linearGradient id="linear-gradient-46" x1="236.43" y1="317.67" x2="236.43" y2="302.42" xlink:href="#linear-gradient-3"/><linearGradient id="linear-gradient-47" x1="-5196.89" y1="347.55" x2="-5196.89" y2="317.53" gradientTransform="translate(5433.32)" xlink:href="#linear-gradient-4"/><linearGradient id="linear-gradient-48" x1="321.08" y1="181.76" x2="282.02" y2="174.88" gradientUnits="userSpaceOnUse"><stop offset="0" stop-color="#7fbce6" stop-opacity="0.6"/><stop offset="0.04" stop-color="#78b9e7" stop-opacity="0.63"/><stop offset="0.09" stop-color="#64b1e9" stop-opacity="0.7"/><stop offset="0.15" stop-color="#44a4ed" stop-opacity="0.81"/><stop offset="0.22" stop-color="#1893f3" stop-opacity="0.98"/><stop offset="0.23" stop-color="#1190f4"/><stop offset="0.45" stop-color="#118cf3"/><stop offset="0.69" stop-color="#117ff1"/><stop offset="0.93" stop-color="#116aed"/><stop offset="1" stop-color="#1163ec"/></linearGradient><linearGradient id="linear-gradient-49" x1="101.43" y1="151.28" x2="257.74" y2="151.28" gradientUnits="userSpaceOnUse"><stop offset="0" stop-color="#6b67f5"/><stop offset="0.51" stop-color="#30338c"/><stop offset="0.97" stop-color="#464acf"/></linearGradient><linearGradient id="linear-gradient-50" x1="101.43" y1="218.96" x2="179.99" y2="218.96" xlink:href="#linear-gradient-49"/><linearGradient id="linear-gradient-51" x1="179.18" y1="218.96" x2="257.74" y2="218.96" xlink:href="#linear-gradient-49"/></defs><title>Wallet_svg_1</title><g id="Layer_2" data-name="Layer 2"><g id="Layer_2-2" data-name="Layer 2"><path class="cls-1" d="M28,164.2a.4.4,0,0,1-.4-.4v-64a.4.4,0,0,1,.8,0v64A.4.4,0,0,1,28,164.2Z"/><path class="cls-2" d="M143,158a.4.4,0,0,1-.2-.05L120.4,145.07a.4.4,0,0,1-.2-.35V56.81a.4.4,0,1,1,.8,0v87.68l22.23,12.75a.4.4,0,0,1-.2.75Z"/><polygon class="cls-3" points="138.91 19.88 104.47 0 70.03 19.88 104.47 39.77 138.91 19.88"/><polygon class="cls-4" points="138.91 19.88 138.91 59.65 104.47 79.54 104.47 39.77 138.91 19.88"/><polygon class="cls-5" points="104.47 39.77 70.03 19.88 70.03 59.65 104.47 79.54 104.47 39.77"/><path class="cls-6" d="M138.91,19.88q-8.56,5.05-17.17,10l-17.19,10-.08,0-.08,0-17.19-10q-8.61-5-17.17-10,8.66,4.89,17.27,9.85l17.25,9.9h-.16l17.25-9.9Q130.26,24.77,138.91,19.88Z"/><rect class="cls-7" x="104.31" y="39.77" width="0.32" height="39.77"/><g class="cls-8"><g class="cls-9"><path class="cls-10" d="M115.84,12.43c6.33,3.65,6.35,9.56.06,13.22s-16.47,3.65-22.79,0-6.36-9.56-.09-13.2S109.53,8.78,115.84,12.43Zm-.67,8,2-1.15L104,11.69l-2,1.15,4,2.3-8.23,4.79-4-2.3-2,1.15L105,26.38l2-1.15-4.05-2.34,8.23-4.79,4.05,2.34"/><polygon class="cls-10" points="109.63 17.24 101.39 22.03 99.25 20.79 107.49 16.01 109.63 17.24"/></g></g><path class="cls-11" d="M237.85,84.26a.4.4,0,0,1-.2-.75l10.08-5.71v-29a.4.4,0,1,1,.8,0V78a.4.4,0,0,1-.2.35L238,84.21A.4.4,0,0,1,237.85,84.26Z"/><polygon class="cls-12" points="244.13 15.65 218.13 0.64 192.14 15.65 218.13 30.66 244.13 15.65"/><polygon class="cls-13" points="244.13 15.65 244.13 45.66 218.13 60.67 218.13 30.66 244.13 15.65"/><polygon class="cls-14" points="218.13 30.66 192.14 15.65 192.14 45.66 218.13 60.67 218.13 30.66"/><path class="cls-15" d="M244.13,15.65c-8.61,5.09-17.29,10.07-25.93,15.11l-.06,0-.06,0c-8.64-5-17.32-10-25.93-15.11,8.72,4.91,17.37,9.94,26.05,14.9h-.12C226.76,25.59,235.41,20.56,244.13,15.65Z"/><rect class="cls-16" x="218.01" y="30.66" width="0.24" height="30.01"/><path class="cls-17" d="M288.67,72.57a.4.4,0,0,1-.2-.05L230.06,38.8a.4.4,0,1,1,.4-.7l58.41,33.72a.4.4,0,0,1-.2.75Z"/><path class="cls-18" d="M218.48,206.4a.4.4,0,0,1-.2-.75L283.18,169V99.59a.4.4,0,1,1,.8,0v69.65a.4.4,0,0,1-.2.35l-65.1,36.76A.4.4,0,0,1,218.48,206.4Z"/><polygon class="cls-19" points="233.93 164.9 179.59 133.53 125.25 164.9 179.59 196.28 233.93 164.9"/><polygon class="cls-20" points="233.93 164.9 233.93 228.13 179.59 259.5 179.59 196.28 233.93 164.9"/><polygon class="cls-21" points="179.59 196.28 125.25 164.9 125.25 228.13 179.59 259.5 179.59 196.28"/><polygon class="cls-22" points="233.93 164.9 220.4 172.85 206.84 180.74 179.71 196.5 179.59 196.57 179.46 196.5 152.33 180.74 138.77 172.85 125.25 164.9 138.89 172.64 152.5 180.44 179.71 196.06 179.46 196.06 206.67 180.44 220.28 172.64 233.93 164.9"/><rect class="cls-23" x="179.33" y="196.28" width="0.51" height="63.23"/><path class="cls-24" d="M141.56,166.76h0l-12.76-1.28a.35.35,0,0,1-.31-.38.33.33,0,0,1,.38-.31l12.65,1.26,6.35-3.67a.37.37,0,0,1,.21,0L177.89,165a.35.35,0,0,1,.32.38.34.34,0,0,1-.38.32l-29.75-2.6-6.35,3.67A.36.36,0,0,1,141.56,166.76Z"/><path class="cls-25" d="M158.2,182.62A.35.35,0,0,1,158,182l4.47-2.48.18-5.63a.35.35,0,0,1,.17-.29L177.68,165a.35.35,0,1,1,.35.61l-14.66,8.46-.18,5.63a.35.35,0,0,1-.18.29l-4.64,2.57A.35.35,0,0,1,158.2,182.62Z"/><path class="cls-26" d="M179.59,194.81a.35.35,0,0,1-.35-.35v-7.81a.35.35,0,0,1,.18-.31l2.93-1.59V179l-3-2.15a.35.35,0,0,1-.14-.28V166.41a.35.35,0,0,1,.7,0v10l3,2.15a.35.35,0,0,1,.14.28V185a.35.35,0,0,1-.18.31l-2.93,1.59v7.6A.35.35,0,0,1,179.59,194.81Z"/><path class="cls-27" d="M196.12,184.89a.34.34,0,0,1-.17,0l-7.14-4.1a.35.35,0,0,1-.18-.3v-6.07l-5.22-3.8a.35.35,0,0,1-.13-.2l-.93-3.87a.35.35,0,0,1,.26-.42.35.35,0,0,1,.42.26l.9,3.75,5.26,3.83a.35.35,0,0,1,.14.28v6l7,4a.35.35,0,0,1-.17.65Z"/><path class="cls-28" d="M175.54,163.58a.34.34,0,0,1-.19-.05l-11.76-7.43a.35.35,0,0,1-.16-.29v-6.14l-4.85-2.8a.35.35,0,0,1,.35-.61l5,2.9a.35.35,0,0,1,.17.3v6.15l11.59,7.33a.35.35,0,0,1-.19.64Z"/><path class="cls-29" d="M167.45,164.15a.35.35,0,0,1-.28-.14l-2.8-3.87-4.61-2.34-3.87.73a.35.35,0,0,1-.24,0l-3.32-1.86h-5.76a.35.35,0,0,1-.17,0L144,155.26a.35.35,0,0,1,.34-.61l2.28,1.27h5.76a.35.35,0,0,1,.17,0l3.29,1.85,3.86-.73a.35.35,0,0,1,.22,0l4.79,2.43a.36.36,0,0,1,.13.11l2.85,3.94a.35.35,0,0,1-.28.55Z"/><path class="cls-30" d="M181.65,164.15a.35.35,0,0,1-.19-.64l10.89-7,.12,0,5.33-1.11,4.31-2.52.45-4a.35.35,0,0,1,.17-.26l.57-.33a.35.35,0,0,1,.35.6l-.42.25-.45,4a.35.35,0,0,1-.17.26L198.1,156l-.1,0-5.32,1.11-10.84,6.93A.34.34,0,0,1,181.65,164.15Z"/><path class="cls-31" d="M227.52,166.76a.35.35,0,0,1-.17,0l-13.14-7.59-8.42.38-7,4-.13,0-14.1,1.82a.35.35,0,1,1-.09-.69l14-1.81,7-4a.34.34,0,0,1,.16,0l8.61-.39a.27.27,0,0,1,.19,0l13.23,7.64a.35.35,0,0,1-.17.65Z"/><path class="cls-32" d="M210.51,176.8a.35.35,0,0,1-.17,0l-7.46-4.3-7.71-.3a.36.36,0,0,1-.17-.05l-8.84-5.38a.35.35,0,0,1,.36-.6l8.76,5.33,7.7.3a.36.36,0,0,1,.16,0l7.53,4.35a.35.35,0,0,1-.17.65Z"/><path class="cls-33" d="M218.92,171.73a.35.35,0,0,1-.17,0l-5.23-3-8.25,1a.34.34,0,0,1-.19,0l-6.38-2.95a.35.35,0,0,1-.17-.16l-1.48-3a.35.35,0,0,1,.63-.31l1.43,2.9,6.17,2.85,8.27-1a.35.35,0,0,1,.22,0l5.33,3.08a.35.35,0,0,1-.17.65Z"/><path class="cls-34" d="M191.16,158.12a.35.35,0,0,1-.35-.34l-.38-9.85a.35.35,0,0,1,.17-.32l5.81-3.35a.35.35,0,0,1,.35.61l-5.63,3.25.37,9.64a.35.35,0,0,1-.34.36Z"/><path class="cls-35" d="M179.59,162.33a.35.35,0,0,1-.35-.35V147.72a.35.35,0,0,1,.18-.31l4.77-2.65v-5a.35.35,0,0,1,.18-.3l1.81-1a.35.35,0,1,1,.35.61l-1.64.93v5a.35.35,0,0,1-.18.31l-4.77,2.65V162A.35.35,0,0,1,179.59,162.33Z"/><path class="cls-36" d="M178.69,162.33a.35.35,0,0,1-.31-.19L171.62,149a.35.35,0,0,1,0-.16v-4.43L167.27,142a.35.35,0,1,1,.35-.61l4.48,2.59a.35.35,0,0,1,.17.3v4.55l6.72,13a.35.35,0,0,1-.31.51Z"/><path class="cls-37" d="M171.93,147.41h0l-4.79-.5a.35.35,0,0,1-.15,0l-3.27-2a.35.35,0,1,1,.36-.6l3.2,2,4.71.49a.35.35,0,0,1,0,.7Z"/><path class="cls-38" d="M150.15,177.27a.35.35,0,0,1-.35-.35v-5.55a.35.35,0,0,1,.17-.3l4.85-2.8.89-4.94a.35.35,0,0,1,.69.13l-.92,5.09a.35.35,0,0,1-.17.24l-4.82,2.78v5.35A.35.35,0,0,1,150.15,177.27Z"/><path class="cls-39" d="M163.87,183.66a.35.35,0,0,1-.17-.65l8.06-4.65a.39.39,0,0,1,.18,0l10.77.19a.35.35,0,0,1,0,.7h0L172,179l-8,4.6A.35.35,0,0,1,163.87,183.66Z"/><path class="cls-40" d="M167.9,188.23a.35.35,0,0,1-.18-.65l5.16-3-1.3-5.83a.35.35,0,0,1,.26-.42.34.34,0,0,1,.42.26l1.35,6.08a.35.35,0,0,1-.17.38l-5.38,3.14A.35.35,0,0,1,167.9,188.23Z"/><path class="cls-41" d="M191.44,187.59a.36.36,0,0,1-.17,0l-8.75-4.88a.35.35,0,1,1,.34-.61l8.75,4.88a.35.35,0,0,1-.17.66Z"/><path class="cls-42" d="M195.74,155.11c9.76,5.63,9.8,14.76.11,20.39s-25.45,5.63-35.21,0-9.81-14.76-.11-20.39S186,149.48,195.74,155.11Z"/><path class="cls-43" d="M190.5,165.1a.24.24,0,0,1,0,.45.86.86,0,0,1-.78,0l-11-6.35.28,4.32c0,.17-.23.32-.53.33a.8.8,0,0,1-.41-.09.29.29,0,0,1-.16-.21l-.33-5.13c0-.13.12-.25.33-.3a.85.85,0,0,1,.61.07Z"/><path class="cls-43" d="M190.83,158c7,4.06,7.06,10.63.08,14.68s-18.33,4.06-25.35,0S158.5,162,165.48,158,183.81,153.91,190.83,158Zm-12.58,17.09a24.19,24.19,0,0,0,11.89-2.85c3.27-1.9,4.9-4.4,4.89-6.89s-1.67-5-5-6.89a26.22,26.22,0,0,0-23.8,0c-3.28,1.9-4.9,4.4-4.89,6.89s1.67,5,5,6.89a24.37,24.37,0,0,0,11.92,2.85"/><path class="cls-43" d="M183.49,165.47a.27.27,0,0,1,.16.24c0,.17-.27.31-.57.3l-15.42-.37,11,6.34a.24.24,0,0,1,0,.45.85.85,0,0,1-.78,0l-12-6.92c-.16-.09-.21-.23-.12-.35a.67.67,0,0,1,.53-.19l16.82.4A.79.79,0,0,1,183.49,165.47Z"/><polygon class="cls-43" points="139.7 187.07 139.68 193.32 138.59 192.69 138.6 189.07 136.96 190.21 135.34 187.18 135.32 190.81 134.24 190.18 134.26 183.93 134.62 184.14 136.97 188.59 139.34 186.87 139.7 187.07"/><path class="cls-43" d="M144,193.76v.42l-2.5-1.44a1.38,1.38,0,0,0,.25.67,1.59,1.59,0,0,0,.51.48,1.2,1.2,0,0,0,.91.19l.58,1q-.4.39-1.49-.24a3.77,3.77,0,0,1-1.81-3.13,1.29,1.29,0,0,1,.51-1.21,1.3,1.3,0,0,1,1.31.17,3.36,3.36,0,0,1,1.27,1.32A3.63,3.63,0,0,1,144,193.76Zm-2.46-1.84,1.45.84a1.12,1.12,0,0,0-.21-.64,1.58,1.58,0,0,0-.51-.48.66.66,0,0,0-.51-.11q-.22.06-.22.4"/><path class="cls-43" d="M145.87,192.72v.38a1,1,0,0,1,.87.13,2.67,2.67,0,0,1,1.05,1.09,2.8,2.8,0,0,1,.36,1.31v2.58l-1-.59v-2.29a1.56,1.56,0,0,0-.18-.75,1.5,1.5,0,0,0-.55-.56c-.21-.1-.39,0-.54.22v2.65l-1-.59v-4Z"/><polygon class="cls-43" points="150.03 193.03 150.01 199.28 148.99 198.7 149.01 192.45 150.03 193.03"/><path class="cls-43" d="M154,198a3.61,3.61,0,0,1,.53,1.82A1.27,1.27,0,0,1,154,201a1.29,1.29,0,0,1-1.32-.15,3.64,3.64,0,0,1-1.32-1.37,3.6,3.6,0,0,1-.52-1.82,1.28,1.28,0,0,1,.53-1.21,1.3,1.3,0,0,1,1.32.16A3.62,3.62,0,0,1,154,198Zm-.66,1.94a.72.72,0,0,0,.26-.65,2,2,0,0,0-.25-.94,1.79,1.79,0,0,0-.67-.71.61.61,0,0,0-.67-.06.72.72,0,0,0-.26.64,1.91,1.91,0,0,0,.26.95,1.77,1.77,0,0,0,.67.7.62.62,0,0,0,.67.07"/><path class="cls-43" d="M161.63,200.76a5,5,0,0,1,.73,2.53,1.78,1.78,0,0,1-.74,1.68,1.82,1.82,0,0,1-1.83-.22,5.5,5.5,0,0,1-2.55-4.42,1.78,1.78,0,0,1,.74-1.68,1.79,1.79,0,0,1,1.83.21A5,5,0,0,1,161.63,200.76Zm-.55,3.31a1.37,1.37,0,0,0,.5-1.23,3.71,3.71,0,0,0-.49-1.8,3.46,3.46,0,0,0-1.29-1.37,1.19,1.19,0,0,0-1.29-.12,1.38,1.38,0,0,0-.5,1.23,3.7,3.7,0,0,0,.49,1.8,3.45,3.45,0,0,0,1.29,1.37,1.18,1.18,0,0,0,1.29.12"/><path class="cls-43" d="M165.13,204a2.38,2.38,0,0,1,.93,1,2.53,2.53,0,0,1,.32,1.17v2.41l-.71-.41V206a1.85,1.85,0,0,0-.22-.9,1.87,1.87,0,0,0-.67-.68.47.47,0,0,0-.67.24l0,2.55-.71-.41v-3.71l.71.32V204l.26-.11A.82.82,0,0,1,165.13,204Z"/><path class="cls-43" d="M170.59,209.08v.24l-2.53-1.46,0,.21a1.77,1.77,0,0,0,.31.82,1.9,1.9,0,0,0,.6.58,1.44,1.44,0,0,0,.88.23l.39.67c-.25.14-.68,0-1.28-.3a3.42,3.42,0,0,1-1.65-2.86c0-.56.15-.93.47-1.11a1.18,1.18,0,0,1,1.2.16,3.07,3.07,0,0,1,1.15,1.19A3.35,3.35,0,0,1,170.59,209.08Zm-.71-.64v-.18a1.51,1.51,0,0,0-.28-.83,2,2,0,0,0-.6-.57.82.82,0,0,0-.6-.13c-.19.06-.28.23-.28.51v.18l1.76,1"/><path class="cls-44" d="M36.8,80.85a.4.4,0,0,1-.2-.75l53.2-30a.4.4,0,0,1,.4.7L37,80.8A.4.4,0,0,1,36.8,80.85Z"/><g class="cls-8"><g class="cls-9"><polygon class="cls-45" points="127.66 337.1 125.04 336.68 124.23 335.78 127.66 337.1"/><path class="cls-45" d="M130.88,333.17c4.54,2.62,4.57,6.87.05,9.5s-11.85,2.62-16.39,0-4.56-6.88-.05-9.5S126.35,330.55,130.88,333.17Zm-2,8.36.09,0,.06-.05,0-.06,1.43-3.58,0,0v-.07l0-.06-.06,0-.07,0-7-2.7-.08,0h-.09l-6.17-.49h-.17l-.09,0-.09,0-.06,0,0,0,0,.05v.05l.87,3.58,0,.06,0,0,4.61,4.07.06,0,.09,0,.09,0h.22l6.22-.88.11,0"/><polygon class="cls-45" points="122.84 335.28 123.92 336.5 119.75 335.84 118.14 334.91 122.84 335.28"/><polygon class="cls-45" points="119.17 336.19 120.3 338.58 118.22 337.97 117.55 335.25 119.17 336.19"/><polygon class="cls-45" points="124.45 337.1 126.54 339.46 125.44 340.1 121.31 338.88 120.15 336.41 124.45 337.1"/><polygon class="cls-45" points="120.6 339.22 121.33 340.77 119.05 338.76 120.6 339.22"/></g><g class="cls-9"><polygon class="cls-45" points="129.28 337.87 127.17 339.1 125.55 337.27 129.28 337.87"/><polygon class="cls-45" points="129.35 338.53 128.51 340.61 127.58 339.56 129.35 338.53"/><polygon class="cls-45" points="126.95 339.92 127.69 340.76 126.24 340.33 126.95 339.92"/><polygon class="cls-45" points="124.82 340.46 122.65 341.73 121.61 339.52 124.82 340.46"/><polygon class="cls-45" points="127.45 341.24 123.8 341.75 125.61 340.7 127.45 341.24"/></g></g><polygon class="cls-3" points="51.99 78.71 25.99 63.71 0 78.71 25.99 93.72 51.99 78.71"/><polygon class="cls-4" points="51.99 78.71 51.99 108.73 25.99 123.74 25.99 93.72 51.99 78.71"/><polygon class="cls-5" points="25.99 93.72 0 78.71 0 108.73 25.99 123.74 25.99 93.72"/><path class="cls-46" d="M52,78.71C43.38,83.81,34.7,88.79,26.05,93.83l-.06,0-.06,0c-8.64-5-17.32-10-25.93-15.11,8.72,4.91,17.37,9.94,26.05,14.9h-.12C34.62,88.65,43.27,83.63,52,78.71Z"/><rect class="cls-47" x="25.87" y="93.72" width="0.24" height="30.02"/><g class="cls-8"><g class="cls-9"><path class="cls-10" d="M34.16,74c4.51,2.6,4.52,6.81,0,9.41S22.48,86,18,83.43s-4.53-6.81-.06-9.4S29.67,71.42,34.16,74Zm-.47,5.71,1.41-.82-9.39-5.42-1.41.82L27.15,76l-5.87,3.41-2.84-1.64L17,78.54,26.42,84l1.41-.82-2.89-1.67,5.87-3.41,2.89,1.67"/><polygon class="cls-10" points="29.74 77.45 23.87 80.86 22.35 79.98 28.21 76.57 29.74 77.45"/></g></g><polygon class="cls-12" points="332.63 59.92 298.19 40.04 263.75 59.92 298.19 79.81 332.63 59.92"/><polygon class="cls-13" points="332.63 59.92 332.63 99.69 298.19 119.58 298.19 79.81 332.63 59.92"/><polygon class="cls-14" points="298.19 79.81 263.75 59.92 263.75 99.69 298.19 119.58 298.19 79.81"/><path class="cls-48" d="M332.63,59.92Q324.07,65,315.46,70l-17.19,10-.08,0-.08,0L280.91,70q-8.61-5-17.17-10,8.66,4.89,17.27,9.85l17.25,9.9h-.16l17.25-9.9Q324,64.81,332.63,59.92Z"/><rect class="cls-49" x="298.03" y="79.81" width="0.32" height="39.77"/><g class="cls-8"><path class="cls-50" d="M310.1,53.59c6.63,3.83,6.67,10,.09,13.86s-17.3,3.83-23.93,0-6.66-10-.07-13.86S303.48,49.76,310.1,53.59ZM288.67,55l3.9,9,9.2-1.43,2.44-5.33L288.67,55m5.09,9.71,14,1.33-2.34-8.09L303,63.27l-9.26,1.42"/><g class="cls-9"><g class="cls-51"><polygon class="cls-52" points="304.22 57.25 295.73 59.08 288.67 54.99 304.22 57.25"/></g><g class="cls-53"><polygon class="cls-52" points="304.22 57.25 301.78 62.58 295.73 59.08 304.22 57.25"/></g><g class="cls-54"><polygon class="cls-52" points="305.4 57.93 307.74 66.03 302.98 63.28 303.01 63.27 305.4 57.93"/></g></g></g><g class="cls-8"><path class="cls-50" d="M226.5,10.16c4.66,2.69,4.68,7,.06,9.73s-12.15,2.69-16.8,0-4.67-7,0-9.73S221.85,7.47,226.5,10.16Zm-15,1,2.74,6.34,6.46-1,1.71-3.75-10.91-1.59M215,18l9.82.93-1.64-5.68L221.52,17,215,18"/><g class="cls-9"><g class="cls-51"><polygon class="cls-52" points="222.37 12.73 216.41 14.02 211.45 11.14 222.37 12.73"/></g><g class="cls-53"><polygon class="cls-52" points="222.37 12.73 220.66 16.48 216.41 14.02 222.37 12.73"/></g><g class="cls-54"><polygon class="cls-52" points="223.2 13.21 224.84 18.89 221.5 16.96 221.53 16.96 223.2 13.21"/></g></g></g><polygon class="cls-12" points="362.03 151.41 336.04 136.4 310.04 151.41 336.04 166.41 362.03 151.41"/><polygon class="cls-13" points="362.03 151.41 362.03 181.42 336.04 196.43 336.04 166.41 362.03 151.41"/><polygon class="cls-14" points="336.04 166.41 310.04 151.41 310.04 181.42 336.04 196.43 336.04 166.41"/><path class="cls-55" d="M362,151.41c-8.61,5.09-17.29,10.07-25.93,15.11l-.06,0-.06,0c-8.64-5-17.32-10-25.93-15.11,8.72,4.91,17.37,9.94,26.05,14.9H336C344.66,161.34,353.32,156.32,362,151.41Z"/><rect class="cls-56" x="335.92" y="166.41" width="0.24" height="30.02"/><g class="cls-8"><path class="cls-50" d="M344.4,145.92c4.66,2.69,4.68,7,.06,9.73s-12.15,2.69-16.8,0-4.67-7,0-9.73S339.76,143.23,344.4,145.92Zm-15,1,2.74,6.34,6.46-1,1.71-3.75-10.91-1.59m3.57,6.81,9.82.93L341.1,149l-1.67,3.75-6.5,1"/><g class="cls-9"><g class="cls-51"><polygon class="cls-52" points="340.27 148.49 334.31 149.77 329.36 146.9 340.27 148.49"/></g><g class="cls-53"><polygon class="cls-52" points="340.27 148.49 338.56 152.23 334.31 149.77 340.27 148.49"/></g><g class="cls-54"><polygon class="cls-52" points="341.1 148.97 342.74 154.65 339.4 152.72 339.43 152.72 341.1 148.97"/></g></g></g><path class="cls-57" d="M77,100.2a.4.4,0,0,1-.2-.05l-12.21-6.9a.4.4,0,0,1-.2-.35V64.47a.4.4,0,1,1,.8,0V92.66l12,6.78a.4.4,0,0,1-.2.75Z"/><path class="cls-58" d="M61.54,241.36a.4.4,0,0,1-.2-.75l69-38.94a.4.4,0,1,1,.4.7l-69,38.94A.4.4,0,0,1,61.54,241.36Z"/><polygon class="cls-59" points="79.69 242.49 45.2 222.58 10.71 242.49 45.2 262.4 79.69 242.49"/><polygon class="cls-60" points="79.69 242.49 79.69 282.31 45.2 302.23 45.2 262.4 79.69 242.49"/><polygon class="cls-61" points="45.2 262.4 10.71 242.49 10.71 282.31 45.2 302.23 45.2 262.4"/><path class="cls-62" d="M79.69,242.49q-8.58,5.06-17.19,10l-17.22,10-.08,0-.08,0-17.22-10q-8.62-5-17.19-10,8.67,4.9,17.3,9.86l17.27,9.91h-.16l17.27-9.91Q71,247.38,79.69,242.49Z"/><rect class="cls-63" x="45.03" y="262.4" width="0.32" height="39.82"/><g class="cls-8"><g class="cls-9"><polygon class="cls-45" points="52.56 241.27 48.65 240.64 47.45 239.3 52.56 241.27"/><path class="cls-45" d="M57.35,235.43c6.76,3.9,6.8,10.22.08,14.13s-17.63,3.9-24.39,0-6.78-10.23-.08-14.13S50.6,231.53,57.35,235.43Zm-3,12.44.14-.05.09-.08.06-.09,2.13-5.33,0-.07v-.1l-.07-.1-.09-.07-.11,0-10.38-4-.12,0-.13,0-9.18-.74h-.26l-.14,0-.13.06-.09.07-.06.06,0,.08v.07l1.3,5.33,0,.09.06.06,6.85,6,.08.06.13.06.14,0h.33l9.26-1.31.16,0"/><polygon class="cls-45" points="45.38 238.57 46.99 240.38 40.79 239.39 38.39 238.01 45.38 238.57"/><polygon class="cls-45" points="39.92 239.91 41.6 243.47 38.5 242.56 37.51 238.52 39.92 239.91"/><polygon class="cls-45" points="47.77 241.26 50.88 244.79 49.26 245.73 43.11 243.92 41.38 240.24 47.77 241.26"/><polygon class="cls-45" points="42.05 244.43 43.13 246.73 39.74 243.74 42.05 244.43"/></g><g class="cls-9"><polygon class="cls-45" points="54.96 242.42 51.82 244.24 49.42 241.52 54.96 242.42"/><polygon class="cls-45" points="55.06 243.4 53.82 246.5 52.44 244.92 55.06 243.4"/><polygon class="cls-45" points="51.5 245.47 52.6 246.71 50.45 246.08 51.5 245.47"/><polygon class="cls-45" points="48.33 246.27 45.09 248.15 43.56 244.88 48.33 246.27"/><polygon class="cls-45" points="52.24 247.43 46.81 248.19 49.51 246.63 52.24 247.43"/></g></g><path class="cls-64" d="M68.92,311.62a.4.4,0,0,1-.2-.75l18.91-10.52V289.49a.4.4,0,0,1,.8,0v11.09a.4.4,0,0,1-.21.35L69.11,311.57A.39.39,0,0,1,68.92,311.62Z"/><path class="cls-65" d="M122.35,309.25a.4.4,0,0,1-.2-.05L61,273.89a.4.4,0,1,1,.4-.7l61.16,35.31a.4.4,0,0,1-.2.75Z"/><polygon class="cls-59" points="148.71 302.53 122.72 287.52 96.72 302.53 122.72 317.53 148.71 302.53"/><polygon class="cls-60" points="148.71 302.53 148.71 332.54 122.72 347.55 122.72 317.53 148.71 302.53"/><polygon class="cls-61" points="122.72 317.53 96.72 302.53 96.72 332.54 122.72 347.55 122.72 317.53"/><path class="cls-66" d="M148.71,302.53c-8.61,5.09-17.29,10.07-25.93,15.11l-.06,0-.06,0c-8.64-5-17.32-10-25.93-15.11,8.72,4.91,17.37,9.94,26.05,14.9h-.12C131.34,312.46,140,307.44,148.71,302.53Z"/><rect class="cls-67" x="122.59" y="317.53" width="0.24" height="30.01"/><g class="cls-8"><g class="cls-9"><polygon class="cls-45" points="128.6 301.84 125.65 301.37 124.75 300.36 128.6 301.84"/><path class="cls-45" d="M132.22,297.43c5.1,2.95,5.13,7.72.06,10.66s-13.31,2.95-18.41,0-5.12-7.72-.06-10.66S127.12,294.49,132.22,297.43ZM130,306.82l.11,0,.07-.06,0-.07,1.61-4,0-.05v-.08l-.05-.07-.07-.05-.08,0-7.84-3-.09,0-.1,0-6.93-.56h-.2l-.11,0-.1,0-.07.05,0,0,0,.06V299l1,4,0,.07,0,0,5.17,4.57.06,0,.1,0,.11,0h.25l7-1,.12,0"/><polygon class="cls-45" points="123.18 299.8 124.4 301.17 119.72 300.42 117.91 299.38 123.18 299.8"/><polygon class="cls-45" points="119.06 300.81 120.33 303.5 117.99 302.82 117.25 299.76 119.06 300.81"/><polygon class="cls-45" points="124.99 301.84 127.34 304.5 126.11 305.21 121.47 303.84 120.16 301.06 124.99 301.84"/><polygon class="cls-45" points="120.67 304.22 121.49 305.96 118.93 303.71 120.67 304.22"/></g><g class="cls-9"><polygon class="cls-45" points="130.42 302.7 128.04 304.08 126.23 302.03 130.42 302.7"/><polygon class="cls-45" points="130.49 303.45 129.56 305.79 128.51 304.6 130.49 303.45"/><polygon class="cls-45" points="127.8 305.01 128.63 305.95 127.01 305.47 127.8 305.01"/><polygon class="cls-45" points="125.41 305.62 122.97 307.04 121.81 304.56 125.41 305.62"/><polygon class="cls-45" points="128.36 306.49 124.26 307.07 126.3 305.88 128.36 306.49"/></g></g><path class="cls-68" d="M297.6,241.36a.4.4,0,0,1-.2-.05l-69-38.94a.4.4,0,1,1,.4-.7l69,38.94a.4.4,0,0,1-.2.75Z"/><polygon class="cls-69" points="279.46 242.49 313.95 222.58 348.44 242.49 313.95 262.4 279.46 242.49"/><polygon class="cls-70" points="279.46 242.49 279.46 282.31 313.95 302.23 313.95 262.4 279.46 242.49"/><polygon class="cls-71" points="313.95 262.4 348.44 242.49 348.44 282.31 313.95 302.23 313.95 262.4"/><path class="cls-72" d="M279.46,242.49q8.67,4.9,17.3,9.86L314,262.26h-.16l17.27-9.91q8.63-5,17.3-9.86-8.57,5.06-17.19,10l-17.22,10-.08,0-.08,0-17.22-10Q288,247.55,279.46,242.49Z"/><rect class="cls-73" x="313.78" y="262.4" width="0.32" height="39.82"/><path class="cls-74" d="M293.41,313.39a.39.39,0,0,1-.2-.05l-22.68-12.62a.4.4,0,0,1-.21-.35V289.28a.4.4,0,1,1,.8,0v10.85l22.48,12.5a.4.4,0,0,1-.2.75Z"/><path class="cls-75" d="M236.79,309.25a.4.4,0,0,1-.2-.75l61.16-35.31a.4.4,0,0,1,.4.7L237,309.2A.4.4,0,0,1,236.79,309.25Z"/><polygon class="cls-69" points="210.43 302.53 236.43 287.52 262.42 302.53 236.43 317.53 210.43 302.53"/><polygon class="cls-70" points="210.43 302.53 210.43 332.54 236.43 347.55 236.43 317.53 210.43 302.53"/><polygon class="cls-71" points="236.43 317.53 262.42 302.53 262.42 332.54 236.43 347.55 236.43 317.53"/><path class="cls-76" d="M210.43,302.53c8.72,4.91,17.37,9.94,26.05,14.9h-.12c8.69-5,17.34-10,26.05-14.9-8.61,5.09-17.29,10.07-25.93,15.11l-.06,0-.06,0C227.72,312.6,219,307.62,210.43,302.53Z"/><rect class="cls-77" x="236.3" y="317.53" width="0.24" height="30.01"/><path class="cls-78" d="M283.58,189.31a.4.4,0,0,1-.4-.4V168.35a.4.4,0,1,1,.8,0v19.9L322.85,168a.4.4,0,1,1,.37.71l-39.46,20.56A.41.41,0,0,1,283.58,189.31Z"/><path class="cls-79" d="M179.59,196.58a.4.4,0,0,1-.2-.05l-77.75-44.89a.4.4,0,0,1,0-.7l12-6.93a.4.4,0,1,1,.4.7l-11.39,6.58,76.95,44.43,77-44.43-77-44.43L127,137.21a.4.4,0,0,1-.4-.7L179.38,106a.4.4,0,0,1,.4,0l77.76,44.89a.4.4,0,0,1,0,.7l-77.76,44.89A.4.4,0,0,1,179.59,196.58Z"/><path class="cls-80" d="M179.59,287a.4.4,0,0,1-.2-.05L101.63,242.1a.4.4,0,0,1-.2-.35v-11.9a.4.4,0,0,1,.8,0v11.66l77,44.43V196.41l-77-44.43V210a.4.4,0,1,1-.8,0V151.28a.4.4,0,0,1,.6-.35l77.75,44.89a.4.4,0,0,1,.2.35v90.47a.4.4,0,0,1-.4.4Z"/><path class="cls-81" d="M179.59,287a.4.4,0,0,1-.4-.4V196.17a.4.4,0,0,1,.2-.35l77.76-44.89a.4.4,0,0,1,.6.35V210a.4.4,0,1,1-.8,0V152l-77,44.43v89.54l77-44.43V229.86a.4.4,0,0,1,.8,0v11.9a.4.4,0,0,1-.2.35L179.79,287A.4.4,0,0,1,179.59,287Z"/><g class="cls-8"><path class="cls-50" d="M322.65,245.76c.85.69.85,1.58-.06,2.11a4.52,4.52,0,0,1-3.65,0Z"/><path class="cls-50" d="M311.06,239a1.16,1.16,0,0,1,0,2.19,4.18,4.18,0,0,1-3.79,0,1.16,1.16,0,0,1,0-2.2A4.18,4.18,0,0,1,311.06,239Z"/><path class="cls-50" d="M326.46,235.6c7,4,7,10.54.09,14.56s-18.17,4-25.14,0-7-10.53-.07-14.56S319.51,231.58,326.46,235.6Zm-8,12.58c1.91.93,4.26,1.16,5.46.46s.8-2.06-.82-3.16a.54.54,0,0,0,0-1l-.13-.09a12.37,12.37,0,0,1,5-1.76c-1.65-1-5-1.12-8-.2l-6.18-4.07-.26-.16a7.77,7.77,0,0,0-3.48-.92l-5.89-.24-.37.22.44,3.41a2.87,2.87,0,0,0,1.59,2l.28.15,7.06,3.56c-1.58,1.73-1.29,3.67.37,4.62a6.2,6.2,0,0,1,3-2.91l.16.08a2,2,0,0,0,1.72,0"/></g><g class="cls-8"><path class="cls-50" d="M241.18,304.27c.52.42.51,1,0,1.28a2.75,2.75,0,0,1-2.22,0Z"/><path class="cls-50" d="M234.14,300.18a.7.7,0,0,1,0,1.33,2.54,2.54,0,0,1-2.3,0,.71.71,0,0,1,0-1.34A2.54,2.54,0,0,1,234.14,300.18Z"/><path class="cls-50" d="M243.5,298.1c4.23,2.44,4.25,6.4.06,8.84a16.82,16.82,0,0,1-15.27,0c-4.23-2.44-4.25-6.4,0-8.84A16.82,16.82,0,0,1,243.5,298.1Zm-4.85,7.64A4,4,0,0,0,242,306c.72-.42.49-1.25-.5-1.92a.33.33,0,0,0,0-.6l-.08-.06a7.51,7.51,0,0,1,3-1.07,6.86,6.86,0,0,0-4.84-.12l-3.75-2.47-.16-.1a4.72,4.72,0,0,0-2.11-.56L230,299l-.23.13.27,2.07a1.74,1.74,0,0,0,1,1.23l.17.09,4.29,2.16c-1,1.05-.78,2.23.22,2.81a3.76,3.76,0,0,1,1.83-1.77l.1,0a1.24,1.24,0,0,0,1,0"/></g><circle class="cls-4" cx="27.95" cy="163.8" r="2.25"/><path class="cls-14" d="M224.45,90.7l-.73.37-4-2.3c-1.28.74-1.56,1.36-.38,2,.91.52,2.25,1.18,2.32,1.22l-.68.42c-.08,0-1.56-.68-2.54-1.25-1.79-1-1.35-2,.69-3.17,2.28-1.32,4.14-1.26,5.67-.38S226.41,89.56,224.45,90.7Zm-4-2.35,3.14,1.81c1.48-.86,1.55-1.43.49-2a3.38,3.38,0,0,0-3.63.24"/><path class="cls-14" d="M218.89,81.36l-2.95,1.71a9.1,9.1,0,0,1,2.31.8c1.65,1,1.22,1.66-.91,2.89l-3.16,1.84-.91-.52,3.14-1.82c1.58-.92,2-1.36.87-2a8.64,8.64,0,0,0-2.05-.77l-4.95,2.88-.91-.52,8.6-5Z"/><path class="cls-14" d="M213.57,79.19l-1.83,1.07,1.92,1.11-.78.45L211,80.71l-2.86,1.66c-1.31.76-1.59,1-.81,1.48.34.2,1.11.56,1.15.58l-.68.47s-.94-.39-1.37-.63c-1.24-.72-1.19-1.23.53-2.23l3.15-1.83-.86-.5.78-.45.86.5,1.83-1.07Z"/><polygon class="cls-14" points="210.88 77.09 210.06 77.56 205.91 75.17 203.05 76.83 206.47 78.81 205.66 79.28 202.24 77.3 199.25 79.04 203.4 81.44 202.59 81.91 197.5 78.97 205.79 74.16 210.88 77.09"/><path class="cls-14" d="M254,104.51c1.64.95,1.26,1.63-.91,2.89l-3.16,1.84-.91-.52,3.14-1.82c1.58-.92,2-1.36.9-2a7.24,7.24,0,0,0-2.14-.72,7.75,7.75,0,0,1-1.59,1.1l-3.11,1.81-.9-.52,3.09-1.8c1.66-1,2-1.39.95-2a6.61,6.61,0,0,0-2.06-.67l-4.86,2.82-.91-.52,6-3.48.89.52-.42.24a7.62,7.62,0,0,1,2.3.7c.81.47,1.08.83,1,1.26A9.35,9.35,0,0,1,254,104.51Z"/><path class="cls-14" d="M245.16,99.55l-6,3.48-.9-.52.42-.24a7.72,7.72,0,0,1-2.33-.72c-1.69-1-1.26-1.63.94-2.91l3.13-1.82.91.52-3.11,1.81c-1.66,1-2.05,1.36-.93,2a6.73,6.73,0,0,0,2.1.7L244.26,99Z"/><path class="cls-14" d="M235.8,97.25l-.74.37-4-2.3c-1.28.74-1.56,1.36-.38,2,.91.52,2.26,1.19,2.33,1.22l-.68.42c-.08,0-1.57-.69-2.55-1.25-1.79-1-1.34-2,.7-3.16,2.28-1.32,4.14-1.26,5.67-.38S237.76,96.11,235.8,97.25Zm-4-2.36,3.13,1.81c1.48-.86,1.55-1.43.49-2a3.39,3.39,0,0,0-3.63.24"/><path class="cls-14" d="M232.38,92l-.91.53a17.55,17.55,0,0,0-3-.79l-4.4,2.55-.91-.52,6-3.48.89.52-.81.47A14.11,14.11,0,0,1,232.38,92Z"/><path class="cls-4" d="M106.92,101.14a3.14,3.14,0,0,1-1.68.49,4.74,4.74,0,0,1-1.48,1.35,3,3,0,0,1-3.12-.07c-1-.59-.94-1.16,0-1.85l1.5-1.06-.46-.27a1.76,1.76,0,0,0-2,0c-.74.43-1.81,1.2-1.86,1.24l-.63-.33a13.4,13.4,0,0,1,1.84-1.34,3.11,3.11,0,0,1,3.41,0l2.73,1.57a1.24,1.24,0,0,0,1.08-.09Zm-5.48,1.28a1.71,1.71,0,0,0,1.78.1,5.16,5.16,0,0,0,1.34-1.15l-1.76-1-1.41,1c-.58.41-.53.74.06,1.08"/><path class="cls-4" d="M96.4,101.77a5.36,5.36,0,0,0-1.2,1.53l3.91,2.26-.79.46L93,102.95l.78-.45.72.42a3.81,3.81,0,0,1,1.09-1.61Z"/><path class="cls-4" d="M97.55,107.39c1.21.7.84,1.47-.66,2.34-1.67,1-2.65,1.11-3.88.4-.62-.36-.62-.69-.48-1.25a1.76,1.76,0,0,1-1-.25,2.16,2.16,0,0,1-.47-.69,3.31,3.31,0,0,1-2.45-.44c-1.31-.76-1-1.52.16-2.2a8.37,8.37,0,0,1,1.24-.56l1.52-.94.68.39-1,.57a2.74,2.74,0,0,1,1.42.41c1.38.8,1.1,1.44-.25,2.22-.11.06-.42.22-.56.28a2.4,2.4,0,0,0,.42.46c.43.25.57.23,1.77-.46C95.45,106.8,96.28,106.66,97.55,107.39Zm-3.81,2.24c.73.42,1.3.4,2.49-.29s1.25-1.06.55-1.46-1.23-.32-2.19.24c-.37.21-1.15.61-1.19.63-.11.45-.07.65.35.88M89.37,107a2.09,2.09,0,0,0,2.35,0c.89-.52.89-.9.06-1.38a2.09,2.09,0,0,0-2.39,0c-.82.48-.85.88,0,1.37"/><path class="cls-4" d="M90.36,110.64l-.79.46-2.79-1.61c-1.4-.81-2.09-1-3.06-.45a3.76,3.76,0,0,0-1.17,1.05l4.39,2.54-.79.46-7.64-4.41.79-.46,2.62,1.51a3.78,3.78,0,0,1,1.23-1.18c1.45-.84,2.51-.62,4.41.47Z"/><path class="cls-4" d="M82.85,113.2c1.24.72.87,1.42-.4,2.15-.67.39-2,.94-2.06,1l-.65-.43c.07,0,1.39-.59,1.92-.9.87-.51,1.15-.89.42-1.31-.55-.32-1-.24-2.3.33s-2.18.79-3.24.17-.61-1.44.35-2a20.16,20.16,0,0,1,2.12-1l.65.41c-.07,0-1.35.58-2,1s-1,.78-.34,1.14.89.22,2.21-.32C81.05,112.74,81.82,112.61,82.85,113.2Z"/><path class="cls-4" d="M79.29,117.19a3.1,3.1,0,0,1-1.68.49A4.74,4.74,0,0,1,76.14,119,3,3,0,0,1,73,119c-1-.59-.94-1.15,0-1.85l1.5-1.05-.46-.27a1.76,1.76,0,0,0-2,0c-.74.43-1.81,1.2-1.86,1.24l-.63-.33a13.52,13.52,0,0,1,1.84-1.34,3.11,3.11,0,0,1,3.41,0l2.73,1.57a1.25,1.25,0,0,0,1.08-.09Zm-5.48,1.28a1.72,1.72,0,0,0,1.78.1,5.15,5.15,0,0,0,1.33-1.15l-1.76-1-1.41,1c-.58.41-.53.74.06,1.08"/><polygon class="cls-4" points="72.69 120.91 71.89 121.38 68.55 119.45 64.83 121.61 68.17 123.54 67.35 124.01 59.99 119.76 60.81 119.29 64.1 121.19 67.82 119.03 64.52 117.13 65.33 116.66 72.69 120.91"/><path class="cls-4" d="M109.11,99.73l2.38,1.37-.79.46L103,97.13l.78-.45.38.22a2.75,2.75,0,0,1,1.1-1.2c1.33-.77,2.73-.64,4.62.45,2.09,1.21,2.15,2,.53,3A10.55,10.55,0,0,1,109.11,99.73Zm-.69-.4a12.85,12.85,0,0,0,1.26-.6c1.16-.67.93-1.25-.6-2.13s-2.44-.89-3.22-.44a2.67,2.67,0,0,0-1,1.09l3.59,2.07"/><path class="cls-4" d="M118.63,94.21l-.79.46-2.79-1.61c-1.4-.81-2.09-1-3.06-.46a3.71,3.71,0,0,0-1.17,1.05l4.39,2.54-.79.46-7.64-4.41.79-.46,2.62,1.51a3.73,3.73,0,0,1,1.22-1.18c1.45-.84,2.51-.62,4.41.47Z"/><path class="cls-71" d="M295,328.62c1.63.94,1.38,1.82-.07,2.67-.87.51-2.47,1.17-2.55,1.21l-.59-.44c.08,0,1.63-.73,2.38-1.16,1-.6,1.11-1.18.09-1.77-.83-.48-1.5-.36-2.93.2-1.84.69-3,.92-4.37.11s-1-1.68.38-2.51a26.57,26.57,0,0,1,2.42-1.16l.61.44c-.08,0-1.64.75-2.26,1.11-1,.6-1.22,1.14-.39,1.61s1.62.35,3.19-.23C292.74,328,293.74,327.88,295,328.62Z"/><path class="cls-71" d="M307,324.11a20.33,20.33,0,0,1-1.89,1.3c-1.57.91-3,.68-4.83-.36-2-1.16-1.93-2.12-.58-2.9a4.27,4.27,0,0,1,4.61.2l.56.38-3.49,2a2.84,2.84,0,0,0,3.12.2c.79-.46,1.8-1.15,1.85-1.19Zm-6.27.28,2.75-1.6c-1.32-.76-2.19-.8-3.12-.26s-.91,1.11.37,1.86"/><path class="cls-71" d="M301.71,327.25a10.19,10.19,0,0,1-1,.69c-1.09.63-1.87.61-3.41-.28l-2.8-1.61-.75.43-.69-.4.75-.43-1.63-.94.78-.45,1.63.94,1.68-1,.69.4-1.68,1,2.54,1.47c1.16.67,1.57.82,2.26.42.3-.17.85-.57.88-.59Z"/><polygon class="cls-71" points="309.87 322.51 309.07 322.98 301.43 318.56 302.22 318.1 309.87 322.51"/><polygon class="cls-71" points="312.83 320.79 312.04 321.25 304.4 316.84 305.19 316.38 312.83 320.79"/><path class="cls-71" d="M318.91,311.9a5.36,5.36,0,0,0-1.2,1.53l3.91,2.26-.79.46-5.32-3.07.78-.45.72.42a3.82,3.82,0,0,1,1.09-1.61Z"/><path class="cls-71" d="M319.49,317.07a3.14,3.14,0,0,1-1.68.49,4.74,4.74,0,0,1-1.48,1.35,3,3,0,0,1-3.12-.07c-1-.59-.94-1.16,0-1.85l1.5-1.06-.46-.27a1.76,1.76,0,0,0-2,0c-.74.43-1.81,1.2-1.86,1.24l-.63-.33a13.4,13.4,0,0,1,1.84-1.34,3.11,3.11,0,0,1,3.41,0l2.73,1.57a1.24,1.24,0,0,0,1.08-.09ZM314,318.35a1.71,1.71,0,0,0,1.78.1,5.16,5.16,0,0,0,1.34-1.15l-1.76-1-1.41,1c-.58.41-.53.74.06,1.08"/><path class="cls-61" d="M64.69,315.59c2.28,1.32,1.55,2.48-.88,3.89s-4.36,1.8-6.65.48-1.63-2.42.82-3.84S62.41,314.28,64.69,315.59Zm-6.81,4c1.71,1,3,.64,5.08-.56s2.69-2,1-3-3.15-.56-5.14.6-2.66,2-1,2.94"/><polygon class="cls-61" points="60.13 313.08 59.41 313.5 55.75 311.38 53.22 312.85 56.25 314.6 55.54 315.01 52.51 313.26 49.87 314.8 53.54 316.91 52.81 317.33 48.33 314.74 55.65 310.49 60.13 313.08"/><path class="cls-61" d="M71.63,319.58a20.53,20.53,0,0,1,2,1.41l-.77.36c-.06,0-1.3-1-1.92-1.32a2.66,2.66,0,0,0-2.8-.22c-1,.55-.59.94.4,1.85s1.43,1.62.15,2.37a4.3,4.3,0,0,1-4.61-.05,21.12,21.12,0,0,1-2.1-1.48l.77-.34c.06,0,1.25.94,2,1.38a2.81,2.81,0,0,0,3,.06c.82-.48.63-.87-.34-1.7-1.2-1.07-1.61-1.72-.21-2.53A4.13,4.13,0,0,1,71.63,319.58Z"/></g></g></svg>